M48
; DRILL file {KiCad 8.0.6} date 2024-12-12T06:40:47+0000
; FORMAT={-:-/ absolute / metric / decimal}
; #@! TF.CreationDate,2024-12-12T06:40:47+00:00
; #@! TF.GenerationSoftware,Kicad,Pcbnew,8.0.6
; #@! TF.FileFunction,Plated,1,2,Blind
FMAT,2
METRIC
; #@! TA.AperFunction,Plated,Buried,ViaDrill
T1C0.150
%
G90
G05
T1
X52.69Y-79.78
X52.695Y-78.98
X52.695Y-79.385
X52.695Y-80.19
X52.695Y-80.58
X52.695Y-80.99
X52.71Y-81.375
X52.755Y-78.56
X52.795Y-81.75
X52.875Y-78.165
X52.94Y-82.115
X53.06Y-77.765
X53.135Y-82.45
X53.29Y-77.41
X53.405Y-82.77
X53.575Y-77.085
X53.6Y-79.315
X53.605Y-79.725
X53.605Y-80.115
X53.605Y-80.525
X53.605Y-80.915
X53.62Y-78.915
X53.63Y-81.325
X53.715Y-78.525
X53.72Y-83.085
X53.78Y-81.74
X53.86Y-76.805
X53.895Y-78.14
X54.025Y-82.085
X54.035Y-83.4
X54.14Y-76.525
X54.145Y-77.815
X54.295Y-82.365
X54.335Y-83.695
X54.355Y-38.18
X54.355Y-38.63
X54.355Y-39.095
X54.355Y-39.555
X54.355Y-40.015
X54.355Y-40.465
X54.36Y-40.915
X54.36Y-41.325
X54.36Y-41.75
X54.36Y-42.15
X54.36Y-42.575
X54.36Y-43.0
X54.36Y-43.425
X54.36Y-43.825
X54.36Y-44.25
X54.36Y-44.66
X54.36Y-45.085
X54.36Y-45.485
X54.36Y-45.91
X54.36Y-46.33
X54.36Y-46.755
X54.36Y-47.155
X54.36Y-47.58
X54.36Y-47.99
X54.36Y-48.415
X54.36Y-48.815
X54.36Y-49.24
X54.36Y-49.665
X54.36Y-50.085
X54.36Y-50.51
X54.36Y-50.91
X54.36Y-51.335
X54.36Y-51.745
X54.36Y-52.17
X54.36Y-52.57
X54.36Y-52.995
X54.36Y-53.41
X54.36Y-53.82
X54.36Y-54.245
X54.36Y-54.655
X54.36Y-55.08
X54.36Y-55.48
X54.36Y-55.905
X54.36Y-56.33
X54.36Y-56.755
X54.36Y-57.155
X54.36Y-57.58
X54.36Y-57.99
X54.36Y-58.415
X54.36Y-58.815
X54.36Y-59.24
X54.36Y-59.66
X54.36Y-60.085
X54.36Y-60.485
X54.36Y-60.91
X54.36Y-61.32
X54.36Y-61.745
X54.36Y-62.145
X54.36Y-62.57
X54.36Y-62.995
X54.36Y-63.415
X54.36Y-63.84
X54.36Y-64.24
X54.36Y-64.665
X54.36Y-65.075
X54.36Y-65.5
X54.36Y-65.9
X54.36Y-66.325
X54.36Y-66.74
X54.36Y-67.15
X54.39Y-67.555
X54.425Y-76.24
X54.43Y-77.515
X54.47Y-67.955
X54.595Y-82.665
X54.605Y-68.355
X54.635Y-84.005
X54.73Y-75.94
X54.745Y-77.21
X54.785Y-68.735
X54.885Y-82.96
X54.94Y-84.305
X55.01Y-69.095
X55.025Y-75.645
X55.03Y-76.93
X55.2Y-83.275
X55.235Y-38.18
X55.235Y-38.6
X55.235Y-39.015
X55.235Y-39.445
X55.235Y-39.865
X55.235Y-40.305
X55.235Y-40.755
X55.235Y-41.165
X55.235Y-41.59
X55.235Y-41.99
X55.235Y-42.415
X55.235Y-42.84
X55.235Y-43.265
X55.235Y-43.665
X55.235Y-44.09
X55.235Y-44.5
X55.235Y-44.925
X55.235Y-45.325
X55.235Y-45.75
X55.235Y-46.17
X55.235Y-46.595
X55.235Y-46.995
X55.235Y-47.42
X55.235Y-47.83
X55.235Y-48.255
X55.235Y-48.655
X55.235Y-49.08
X55.235Y-49.505
X55.235Y-49.925
X55.235Y-50.35
X55.235Y-50.75
X55.235Y-51.175
X55.235Y-51.585
X55.235Y-52.01
X55.235Y-52.41
X55.235Y-52.835
X55.235Y-53.25
X55.235Y-53.67
X55.235Y-54.095
X55.235Y-54.505
X55.235Y-54.93
X55.235Y-55.33
X55.235Y-55.755
X55.235Y-56.18
X55.235Y-56.605
X55.235Y-57.005
X55.235Y-57.43
X55.235Y-57.84
X55.235Y-58.265
X55.235Y-58.665
X55.235Y-59.09
X55.235Y-59.51
X55.235Y-59.935
X55.235Y-60.335
X55.235Y-60.76
X55.235Y-61.17
X55.235Y-61.595
X55.235Y-61.995
X55.235Y-62.42
X55.235Y-62.845
X55.235Y-63.265
X55.235Y-63.69
X55.235Y-64.09
X55.235Y-64.515
X55.235Y-64.925
X55.235Y-65.35
X55.235Y-65.75
X55.235Y-66.175
X55.235Y-66.585
X55.235Y-67.0
X55.245Y-84.605
X55.26Y-67.415
X55.285Y-69.415
X55.31Y-76.65
X55.32Y-75.385
X55.355Y-67.835
X55.515Y-83.59
X55.52Y-68.24
X55.54Y-84.905
X55.595Y-76.365
X55.6Y-69.715
X55.655Y-75.17
X55.74Y-68.59
X55.815Y-83.885
X55.845Y-47.13
X55.845Y-47.555
X55.845Y-47.955
X55.845Y-48.38
X55.845Y-48.805
X55.845Y-49.225
X55.845Y-49.65
X55.845Y-50.05
X55.845Y-50.475
X55.845Y-50.885
X55.845Y-51.31
X55.845Y-51.71
X55.845Y-52.135
X55.845Y-52.55
X55.845Y-52.965
X55.845Y-53.39
X55.845Y-53.8
X55.845Y-54.225
X55.845Y-54.625
X55.845Y-55.05
X55.845Y-55.475
X55.845Y-55.9
X55.845Y-56.3
X55.845Y-56.725
X55.845Y-57.135
X55.845Y-57.56
X55.845Y-57.96
X55.845Y-58.385
X55.845Y-58.805
X55.845Y-59.23
X55.845Y-59.63
X55.845Y-60.055
X55.845Y-60.465
X55.845Y-60.89
X55.845Y-61.29
X55.845Y-61.715
X55.845Y-62.14
X55.845Y-62.56
X55.845Y-62.985
X55.845Y-63.385
X55.845Y-63.81
X55.845Y-64.22
X55.845Y-64.645
X55.845Y-65.045
X55.845Y-65.47
X55.845Y-65.895
X55.85Y-85.16
X55.855Y-66.33
X55.885Y-76.11
X55.895Y-46.71
X55.905Y-66.745
X55.925Y-69.975
X55.975Y-46.26
X56.01Y-67.145
X56.03Y-68.915
X56.045Y-75.0
X56.09Y-45.83
X56.12Y-84.185
X56.155Y-67.54
X56.23Y-85.39
X56.235Y-45.42
X56.235Y-75.91
X56.28Y-70.215
X56.355Y-67.92
X56.37Y-69.205
X56.42Y-45.0
X56.435Y-74.88
X56.44Y-84.45
X56.595Y-68.265
X56.615Y-85.555
X56.63Y-75.78
X56.634Y-44.621
X56.66Y-70.425
X56.71Y-69.44
X56.725Y-47.545
X56.725Y-47.97
X56.725Y-48.395
X56.725Y-48.815
X56.725Y-49.24
X56.725Y-49.64
X56.725Y-50.065
X56.725Y-50.475
X56.725Y-50.9
X56.725Y-51.3
X56.725Y-51.725
X56.725Y-52.14
X56.725Y-52.555
X56.725Y-52.98
X56.725Y-53.39
X56.725Y-53.815
X56.725Y-54.215
X56.725Y-54.64
X56.725Y-55.065
X56.725Y-55.49
X56.725Y-55.89
X56.725Y-56.315
X56.725Y-56.725
X56.725Y-57.15
X56.725Y-57.55
X56.725Y-57.975
X56.725Y-58.395
X56.725Y-58.82
X56.725Y-59.22
X56.725Y-59.645
X56.725Y-60.055
X56.725Y-60.48
X56.725Y-60.88
X56.725Y-61.305
X56.725Y-61.73
X56.725Y-62.15
X56.725Y-62.575
X56.725Y-62.975
X56.725Y-63.4
X56.725Y-63.81
X56.725Y-64.235
X56.725Y-64.635
X56.725Y-65.06
X56.725Y-65.475
X56.725Y-65.87
X56.735Y-47.115
X56.735Y-66.28
X56.795Y-66.69
X56.8Y-46.64
X56.84Y-74.825
X56.84Y-84.655
X56.87Y-44.255
X56.88Y-68.585
X56.895Y-46.22
X56.915Y-67.07
X57.02Y-85.66
X57.025Y-45.82
X57.035Y-75.74
X57.06Y-70.605
X57.095Y-69.655
X57.1Y-67.445
X57.135Y-43.91
X57.195Y-45.425
X57.195Y-68.865
X57.24Y-74.825
X57.275Y-84.77
X57.305Y-53.185
X57.305Y-53.595
X57.305Y-54.02
X57.305Y-54.42
X57.305Y-54.845
X57.305Y-55.27
X57.305Y-55.695
X57.305Y-56.095
X57.305Y-56.52
X57.305Y-56.93
X57.305Y-57.355
X57.305Y-57.755
X57.305Y-58.18
X57.305Y-58.6
X57.305Y-59.025
X57.305Y-59.425
X57.305Y-59.85
X57.305Y-60.26
X57.305Y-60.685
X57.305Y-61.085
X57.305Y-61.51
X57.305Y-61.935
X57.305Y-62.355
X57.305Y-62.78
X57.305Y-63.18
X57.305Y-63.605
X57.305Y-64.015
X57.305Y-64.44
X57.305Y-64.84
X57.305Y-65.265
X57.305Y-65.67
X57.31Y-66.075
X57.32Y-52.76
X57.345Y-67.79
X57.36Y-52.325
X57.375Y-66.485
X57.395Y-45.055
X57.43Y-51.895
X57.435Y-43.585
X57.435Y-75.74
X57.45Y-85.715
X57.475Y-69.82
X57.475Y-70.75
X57.51Y-66.89
X57.53Y-51.465
X57.53Y-69.11
X57.63Y-74.825
X57.635Y-68.08
X57.645Y-44.69
X57.655Y-51.05
X57.7Y-84.795
X57.715Y-67.27
X57.745Y-43.28
X57.825Y-50.61
X57.825Y-75.74
X57.85Y-85.71
X57.885Y-69.95
X57.905Y-69.315
X57.91Y-70.86
X57.91Y-71.375
X57.925Y-44.355
X57.955Y-68.33
X57.995Y-67.625
X58.01Y-50.205
X58.04Y-74.825
X58.06Y-42.965
X58.115Y-84.795
X58.185Y-53.215
X58.185Y-53.64
X58.185Y-54.04
X58.185Y-54.465
X58.185Y-54.89
X58.185Y-55.315
X58.185Y-55.715
X58.185Y-56.14
X58.185Y-56.55
X58.185Y-56.975
X58.185Y-57.375
X58.185Y-57.8
X58.185Y-58.22
X58.185Y-58.645
X58.185Y-59.045
X58.185Y-59.47
X58.185Y-59.88
X58.185Y-60.305
X58.185Y-60.705
X58.185Y-61.13
X58.185Y-61.555
X58.185Y-61.975
X58.185Y-62.4
X58.185Y-62.8
X58.185Y-63.225
X58.185Y-63.635
X58.185Y-64.06
X58.185Y-64.46
X58.185Y-64.885
X58.185Y-65.31
X58.185Y-65.725
X58.2Y-52.805
X58.2Y-66.125
X58.215Y-44.055
X58.23Y-49.805
X58.235Y-75.74
X58.24Y-52.38
X58.265Y-85.71
X58.305Y-66.51
X58.31Y-69.475
X58.31Y-70.035
X58.315Y-51.98
X58.32Y-70.93
X58.32Y-71.375
X58.335Y-68.535
X58.345Y-67.925
X58.36Y-93.485
X58.36Y-93.895
X58.36Y-94.295
X58.36Y-94.74
X58.36Y-95.175
X58.36Y-95.61
X58.36Y-96.035
X58.36Y-96.48
X58.36Y-96.92
X58.365Y-42.655
X58.395Y-93.065
X58.42Y-51.56
X58.45Y-74.825
X58.485Y-49.415
X58.49Y-92.665
X58.505Y-66.86
X58.515Y-84.8
X58.525Y-43.75
X58.56Y-51.15
X58.645Y-75.74
X58.66Y-92.275
X58.665Y-85.715
X58.695Y-42.325
X58.72Y-69.585
X58.72Y-70.96
X58.725Y-50.76
X58.73Y-68.145
X58.73Y-68.68
X58.74Y-70.075
X58.745Y-49.06
X58.745Y-71.375
X58.785Y-67.155
X58.82Y-43.455
X58.84Y-74.825
X58.895Y-91.885
X58.915Y-84.8
X58.925Y-50.375
X59.005Y-42.02
X59.025Y-48.74
X59.035Y-75.74
X59.065Y-85.715
X59.125Y-68.285
X59.13Y-67.36
X59.13Y-68.76
X59.14Y-69.65
X59.14Y-70.085
X59.145Y-70.96
X59.145Y-71.375
X59.15Y-43.13
X59.15Y-50.015
X59.193Y-91.537
X59.24Y-74.825
X59.24Y-93.62
X59.24Y-94.03
X59.24Y-94.435
X59.24Y-94.835
X59.24Y-95.26
X59.24Y-95.67
X59.24Y-96.095
X59.24Y-96.495
X59.24Y-96.92
X59.27Y-93.195
X59.305Y-84.8
X59.329Y-41.694
X59.34Y-48.42
X59.4Y-49.67
X59.4Y-92.77
X59.435Y-75.74
X59.44Y-42.83
X59.455Y-85.715
X59.493Y-91.237
X59.53Y-67.47
X59.535Y-68.365
X59.535Y-68.78
X59.565Y-69.665
X59.565Y-70.085
X59.57Y-70.96
X59.57Y-71.375
X59.63Y-74.825
X59.635Y-92.38
X59.65Y-41.4
X59.65Y-48.11
X59.665Y-49.355
X59.715Y-84.8
X59.75Y-42.525
X59.776Y-90.954
X59.825Y-75.74
X59.865Y-85.715
X59.92Y-92.08
X59.955Y-49.05
X59.955Y-67.485
X59.96Y-68.365
X59.96Y-68.78
X59.97Y-47.78
X59.99Y-69.665
X59.99Y-70.085
X59.995Y-70.96
X59.995Y-71.375
X60.04Y-74.825
X60.045Y-42.23
X60.069Y-41.197
X60.077Y-90.653
X60.105Y-84.8
X60.21Y-91.785
X60.235Y-75.74
X60.25Y-48.755
X60.255Y-85.715
X60.28Y-47.475
X60.367Y-90.363
X60.38Y-67.485
X60.385Y-68.365
X60.385Y-68.78
X60.42Y-69.66
X60.42Y-70.965
X60.425Y-70.085
X60.425Y-71.395
X60.43Y-74.825
X60.445Y-42.025
X60.5Y-41.14
X60.508Y-91.497
X60.515Y-84.8
X60.545Y-48.46
X60.595Y-47.16
X60.625Y-75.74
X60.665Y-85.715
X60.667Y-90.063
X60.791Y-91.214
X60.81Y-67.49
X60.815Y-68.36
X60.82Y-68.79
X60.845Y-69.66
X60.845Y-70.965
X60.845Y-74.825
X60.85Y-70.09
X60.85Y-71.395
X60.86Y-48.15
X60.865Y-40.875
X60.89Y-41.945
X60.9Y-46.85
X60.925Y-84.8
X60.95Y-89.78
X61.04Y-75.74
X61.075Y-85.715
X61.092Y-90.913
X61.17Y-40.565
X61.19Y-47.82
X61.21Y-67.49
X61.215Y-68.36
X61.22Y-68.79
X61.23Y-46.52
X61.245Y-70.965
X61.251Y-89.479
X61.255Y-69.66
X61.255Y-74.83
X61.26Y-70.09
X61.27Y-41.72
X61.33Y-71.38
X61.34Y-84.8
X61.382Y-90.623
X61.425Y-67.1
X61.466Y-40.209
X61.47Y-75.74
X61.49Y-85.715
X61.5Y-47.515
X61.54Y-46.215
X61.548Y-89.182
X61.58Y-41.405
X61.635Y-67.49
X61.64Y-68.36
X61.645Y-68.79
X61.665Y-74.76
X61.67Y-69.66
X61.67Y-70.965
X61.675Y-70.09
X61.68Y-39.83
X61.682Y-90.323
X61.745Y-84.8
X61.795Y-60.8
X61.795Y-61.195
X61.8Y-59.575
X61.8Y-59.97
X61.8Y-60.385
X61.805Y-61.61
X61.805Y-71.36
X61.824Y-47.189
X61.835Y-62.03
X61.836Y-39.43
X61.85Y-67.095
X61.864Y-45.889
X61.865Y-75.67
X61.865Y-88.88
X61.88Y-59.06
X61.895Y-41.095
X61.895Y-85.715
X61.93Y-39.005
X61.954Y-38.595
X61.955Y-38.185
X61.965Y-90.04
X61.97Y-74.475
X62.0Y-62.405
X62.045Y-67.49
X62.05Y-68.36
X62.055Y-68.79
X62.08Y-69.66
X62.08Y-70.965
X62.085Y-70.09
X62.125Y-58.61
X62.155Y-46.865
X62.165Y-40.75
X62.17Y-84.8
X62.188Y-88.557
X62.195Y-45.565
X62.2Y-60.385
X62.2Y-61.205
X62.205Y-59.98
X62.205Y-60.8
X62.205Y-61.61
X62.21Y-59.575
X62.225Y-75.485
X62.25Y-62.77
X62.255Y-74.195
X62.26Y-62.025
X62.26Y-67.095
X62.266Y-89.739
X62.27Y-71.34
X62.3Y-59.17
X62.325Y-85.71
X62.385Y-40.4
X62.39Y-58.255
X62.43Y-63.17
X62.435Y-62.4
X62.465Y-46.56
X62.47Y-67.49
X62.475Y-58.795
X62.475Y-68.36
X62.48Y-68.79
X62.488Y-88.257
X62.505Y-45.26
X62.505Y-69.66
X62.505Y-70.965
X62.51Y-70.09
X62.52Y-75.21
X62.545Y-73.9
X62.563Y-89.442
X62.57Y-40.0
X62.605Y-84.795
X62.7Y-57.94
X62.715Y-39.57
X62.715Y-62.72
X62.73Y-58.46
X62.75Y-85.7
X62.771Y-87.974
X62.78Y-46.245
X62.785Y-72.41
X62.8Y-63.505
X62.81Y-39.105
X62.81Y-73.58
X62.81Y-74.92
X62.82Y-44.945
X62.835Y-38.62
X62.84Y-38.18
X62.85Y-63.11
X62.86Y-72.805
X62.86Y-73.18
X62.87Y-67.49
X62.875Y-68.36
X62.88Y-68.79
X62.88Y-89.14
X62.905Y-69.66
X62.905Y-70.965
X62.91Y-70.09
X63.03Y-57.66
X63.04Y-84.705
X63.045Y-58.15
X63.07Y-63.84
X63.072Y-87.673
X63.085Y-45.935
X63.095Y-74.64
X63.105Y-60.07
X63.105Y-60.485
X63.105Y-60.885
X63.105Y-61.28
X63.11Y-61.695
X63.115Y-59.675
X63.125Y-44.635
X63.185Y-85.625
X63.203Y-88.817
X63.24Y-59.285
X63.255Y-67.275
X63.255Y-68.575
X63.265Y-71.175
X63.275Y-69.885
X63.305Y-62.035
X63.362Y-87.383
X63.38Y-57.875
X63.385Y-74.35
X63.405Y-57.45
X63.415Y-45.605
X63.43Y-84.495
X63.455Y-44.305
X63.503Y-88.517
X63.505Y-60.485
X63.505Y-61.695
X63.51Y-60.08
X63.51Y-61.29
X63.515Y-58.965
X63.515Y-60.885
X63.515Y-89.915
X63.52Y-59.675
X63.52Y-63.845
X63.54Y-89.515
X63.56Y-62.33
X63.585Y-85.48
X63.585Y-90.315
X63.615Y-68.335
X63.615Y-68.815
X63.615Y-69.635
X63.615Y-70.115
X63.615Y-70.935
X63.615Y-74.015
X63.62Y-67.52
X63.655Y-89.13
X63.662Y-87.083
X63.715Y-62.71
X63.735Y-45.275
X63.74Y-84.2
X63.745Y-73.62
X63.75Y-63.12
X63.75Y-90.68
X63.76Y-72.8
X63.76Y-73.215
X63.765Y-44.0
X63.765Y-57.695
X63.77Y-57.275
X63.786Y-88.234
X63.795Y-63.525
X63.815Y-67.935
X63.815Y-69.225
X63.815Y-70.525
X63.815Y-72.43
X63.825Y-59.23
X63.83Y-58.68
X63.85Y-88.78
X63.915Y-59.89
X63.94Y-85.275
X63.945Y-67.275
X63.945Y-86.8
X63.95Y-69.875
X63.95Y-71.175
X63.955Y-68.575
X63.965Y-83.85
X64.0Y-90.995
X64.06Y-94.65
X64.06Y-95.035
X64.062Y-87.948
X64.065Y-44.945
X64.089Y-43.674
X64.105Y-83.47
X64.12Y-88.485
X64.13Y-72.685
X64.13Y-94.245
X64.15Y-59.565
X64.15Y-73.09
X64.15Y-73.48
X64.15Y-73.89
X64.15Y-74.28
X64.15Y-74.68
X64.15Y-75.07
X64.15Y-75.48
X64.15Y-75.87
X64.15Y-76.28
X64.15Y-76.69
X64.15Y-77.08
X64.15Y-77.48
X64.15Y-77.87
X64.15Y-78.28
X64.15Y-78.67
X64.15Y-79.085
X64.15Y-79.475
X64.15Y-79.885
X64.15Y-80.275
X64.15Y-80.675
X64.15Y-81.065
X64.15Y-81.475
X64.15Y-81.865
X64.15Y-82.275
X64.15Y-82.685
X64.15Y-83.075
X64.17Y-57.61
X64.18Y-57.22
X64.2Y-58.535
X64.2Y-58.93
X64.246Y-86.499
X64.255Y-85.01
X64.31Y-91.255
X64.31Y-93.885
X64.352Y-87.658
X64.375Y-44.64
X64.39Y-89.86
X64.4Y-88.2
X64.42Y-43.345
X64.48Y-89.445
X64.51Y-90.24
X64.515Y-59.335
X64.52Y-84.71
X64.543Y-86.202
X64.59Y-57.21
X64.59Y-57.615
X64.6Y-63.375
X64.605Y-58.93
X64.605Y-93.6
X64.61Y-58.52
X64.652Y-87.358
X64.655Y-64.035
X64.675Y-91.43
X64.685Y-87.92
X64.7Y-44.314
X64.74Y-43.015
X64.745Y-84.355
X64.745Y-89.1
X64.83Y-90.535
X64.855Y-85.89
X64.905Y-83.985
X64.935Y-87.075
X64.945Y-95.035
X64.95Y-94.605
X64.97Y-87.635
X64.975Y-93.41
X65.0Y-58.925
X65.005Y-57.61
X65.01Y-58.52
X65.015Y-57.205
X65.015Y-83.58
X65.03Y-43.99
X65.03Y-88.81
X65.05Y-42.71
X65.05Y-72.73
X65.05Y-73.155
X65.05Y-73.555
X65.05Y-73.98
X65.05Y-74.39
X65.05Y-74.815
X65.05Y-75.215
X65.05Y-75.64
X65.05Y-76.065
X65.05Y-76.49
X65.05Y-76.89
X65.05Y-77.315
X65.05Y-77.725
X65.05Y-78.15
X65.05Y-78.55
X65.05Y-78.975
X65.05Y-79.395
X65.05Y-79.82
X65.05Y-80.22
X65.05Y-80.645
X65.05Y-81.055
X65.05Y-81.48
X65.05Y-81.88
X65.05Y-82.305
X65.05Y-82.725
X65.05Y-83.15
X65.065Y-72.245
X65.07Y-91.515
X65.165Y-85.585
X65.195Y-94.27
X65.22Y-86.775
X65.25Y-63.375
X65.25Y-71.17
X65.255Y-87.35
X65.28Y-90.64
X65.315Y-71.885
X65.34Y-43.685
X65.35Y-88.49
X65.365Y-42.395
X65.37Y-93.34
X65.395Y-85.22
X65.415Y-58.525
X65.415Y-58.925
X65.42Y-57.21
X65.42Y-57.61
X65.46Y-82.31
X65.46Y-82.71
X65.46Y-83.135
X65.46Y-83.545
X65.46Y-83.97
X65.46Y-84.37
X65.46Y-84.795
X65.465Y-72.3
X65.465Y-72.73
X65.465Y-73.13
X65.465Y-73.555
X65.465Y-73.965
X65.465Y-74.39
X65.465Y-74.79
X65.465Y-75.215
X65.465Y-75.64
X65.465Y-76.065
X65.465Y-76.465
X65.465Y-76.89
X65.465Y-77.3
X65.465Y-77.725
X65.465Y-78.125
X65.465Y-78.55
X65.465Y-78.97
X65.465Y-79.395
X65.465Y-79.795
X65.465Y-80.22
X65.465Y-80.63
X65.465Y-81.055
X65.465Y-81.455
X65.465Y-81.88
X65.47Y-91.515
X65.49Y-71.51
X65.505Y-86.485
X65.54Y-87.065
X65.565Y-63.045
X65.59Y-62.63
X65.635Y-94.22
X65.655Y-43.37
X65.66Y-88.19
X65.67Y-42.085
X65.745Y-90.645
X65.77Y-93.34
X65.792Y-62.205
X65.8Y-86.2
X65.815Y-58.515
X65.815Y-58.925
X65.82Y-57.2
X65.82Y-57.61
X65.82Y-86.78
X65.835Y-63.38
X65.843Y-61.715
X65.875Y-91.555
X65.9Y-71.31
X65.945Y-87.905
X65.96Y-43.06
X66.0Y-41.755
X66.045Y-85.895
X66.055Y-60.79
X66.08Y-94.18
X66.105Y-86.495
X66.155Y-93.195
X66.21Y-58.925
X66.215Y-57.61
X66.215Y-85.54
X66.22Y-58.52
X66.22Y-91.76
X66.225Y-57.205
X66.23Y-87.62
X66.24Y-90.755
X66.29Y-42.73
X66.31Y-41.45
X66.31Y-71.51
X66.335Y-72.26
X66.335Y-72.66
X66.335Y-73.085
X66.335Y-73.495
X66.335Y-73.92
X66.335Y-74.32
X66.335Y-74.745
X66.335Y-75.17
X66.335Y-75.595
X66.335Y-75.995
X66.335Y-76.42
X66.335Y-76.83
X66.335Y-77.255
X66.335Y-77.655
X66.335Y-78.08
X66.335Y-78.5
X66.335Y-78.925
X66.335Y-79.325
X66.335Y-79.75
X66.335Y-80.16
X66.335Y-80.585
X66.335Y-80.985
X66.335Y-81.41
X66.335Y-81.835
X66.335Y-82.255
X66.335Y-82.68
X66.335Y-83.08
X66.335Y-83.505
X66.335Y-83.915
X66.335Y-84.34
X66.335Y-84.74
X66.335Y-85.165
X66.34Y-60.43
X66.38Y-59.31
X66.39Y-86.21
X66.41Y-92.885
X66.45Y-92.095
X66.5Y-94.02
X66.51Y-87.335
X66.51Y-92.495
X66.55Y-71.18
X66.55Y-71.87
X66.605Y-42.4
X66.625Y-58.525
X66.625Y-58.92
X66.63Y-57.21
X66.63Y-57.605
X66.634Y-41.124
X66.65Y-90.98
X66.66Y-85.915
X66.675Y-60.095
X66.68Y-59.65
X66.765Y-72.255
X66.765Y-72.655
X66.765Y-73.08
X66.765Y-73.49
X66.765Y-73.915
X66.765Y-74.315
X66.765Y-74.74
X66.765Y-75.165
X66.765Y-75.59
X66.765Y-75.99
X66.765Y-76.415
X66.765Y-76.825
X66.765Y-77.25
X66.765Y-77.65
X66.765Y-78.075
X66.765Y-78.495
X66.765Y-78.92
X66.765Y-79.32
X66.765Y-79.745
X66.765Y-80.155
X66.765Y-80.58
X66.765Y-80.98
X66.765Y-81.405
X66.765Y-81.83
X66.765Y-82.25
X66.765Y-82.675
X66.765Y-83.075
X66.765Y-83.5
X66.765Y-83.91
X66.765Y-84.32
X66.765Y-84.725
X66.765Y-85.125
X66.765Y-85.525
X66.795Y-71.505
X66.795Y-87.05
X66.89Y-93.715
X66.935Y-42.07
X66.965Y-40.8
X66.995Y-91.305
X67.02Y-58.525
X67.02Y-58.92
X67.025Y-57.21
X67.025Y-57.605
X67.11Y-86.73
X67.155Y-93.365
X67.21Y-71.31
X67.22Y-91.65
X67.245Y-41.765
X67.275Y-40.495
X67.325Y-92.95
X67.36Y-92.065
X67.38Y-86.425
X67.39Y-92.485
X67.41Y-89.645
X67.41Y-90.115
X67.42Y-89.215
X67.425Y-58.925
X67.43Y-57.61
X67.435Y-58.52
X67.44Y-57.205
X67.445Y-90.55
X67.53Y-88.8
X67.535Y-90.975
X67.569Y-41.439
X67.575Y-86.02
X67.61Y-40.155
X67.62Y-71.51
X67.635Y-72.25
X67.635Y-72.65
X67.635Y-73.075
X67.635Y-73.485
X67.635Y-73.91
X67.635Y-74.31
X67.635Y-74.735
X67.635Y-75.16
X67.635Y-75.585
X67.635Y-75.985
X67.635Y-76.41
X67.635Y-76.82
X67.635Y-77.245
X67.635Y-77.645
X67.635Y-78.07
X67.635Y-78.49
X67.635Y-78.915
X67.635Y-79.315
X67.635Y-79.74
X67.635Y-80.15
X67.635Y-80.575
X67.635Y-80.975
X67.635Y-81.4
X67.635Y-81.82
X67.635Y-82.24
X67.635Y-82.665
X67.635Y-83.065
X67.635Y-83.49
X67.635Y-83.9
X67.635Y-84.325
X67.635Y-84.725
X67.635Y-85.15
X67.635Y-85.585
X67.665Y-91.37
X67.745Y-88.39
X67.83Y-58.52
X67.83Y-58.93
X67.835Y-57.205
X67.835Y-57.615
X67.85Y-71.17
X67.85Y-71.87
X67.855Y-91.775
X67.9Y-41.115
X67.935Y-39.83
X68.005Y-88.075
X68.06Y-85.585
X68.06Y-86.005
X68.06Y-86.43
X68.06Y-86.83
X68.06Y-87.255
X68.06Y-87.665
X68.065Y-72.245
X68.065Y-72.645
X68.065Y-73.07
X68.065Y-73.48
X68.065Y-73.905
X68.065Y-74.305
X68.065Y-74.73
X68.065Y-75.155
X68.065Y-75.58
X68.065Y-75.98
X68.065Y-76.405
X68.065Y-76.815
X68.065Y-77.24
X68.065Y-77.64
X68.065Y-78.065
X68.065Y-78.485
X68.065Y-78.91
X68.065Y-79.31
X68.065Y-79.735
X68.065Y-80.145
X68.065Y-80.57
X68.065Y-80.97
X68.065Y-81.395
X68.065Y-81.815
X68.065Y-82.235
X68.065Y-82.66
X68.065Y-83.06
X68.065Y-83.485
X68.065Y-83.895
X68.065Y-84.32
X68.065Y-84.72
X68.065Y-85.145
X68.08Y-92.13
X68.09Y-71.51
X68.21Y-40.81
X68.23Y-58.52
X68.23Y-58.92
X68.235Y-57.205
X68.235Y-57.605
X68.265Y-39.5
X68.285Y-89.625
X68.285Y-90.045
X68.32Y-89.185
X68.335Y-90.52
X68.34Y-92.46
X68.455Y-90.95
X68.5Y-71.31
X68.525Y-40.495
X68.54Y-88.81
X68.595Y-39.17
X68.635Y-58.925
X68.64Y-57.61
X68.64Y-91.365
X68.645Y-58.52
X68.65Y-57.205
X68.65Y-92.775
X68.8Y-88.45
X68.83Y-40.185
X68.905Y-91.76
X68.91Y-71.51
X68.925Y-38.84
X68.925Y-88.045
X68.935Y-72.22
X68.935Y-72.62
X68.935Y-73.045
X68.935Y-73.455
X68.935Y-73.88
X68.935Y-74.28
X68.935Y-74.705
X68.935Y-75.13
X68.935Y-75.555
X68.935Y-75.955
X68.935Y-76.38
X68.935Y-76.79
X68.935Y-77.215
X68.935Y-77.615
X68.935Y-78.04
X68.935Y-78.46
X68.935Y-78.885
X68.935Y-79.285
X68.935Y-79.71
X68.935Y-80.12
X68.935Y-80.545
X68.935Y-80.945
X68.935Y-81.37
X68.935Y-81.79
X68.935Y-82.21
X68.935Y-82.635
X68.935Y-83.035
X68.935Y-83.46
X68.935Y-83.87
X68.935Y-84.295
X68.935Y-84.695
X68.935Y-85.12
X68.935Y-85.54
X68.935Y-85.96
X68.935Y-86.385
X68.935Y-86.785
X68.935Y-87.21
X68.935Y-87.62
X68.965Y-93.1
X69.035Y-58.925
X69.04Y-57.61
X69.045Y-58.52
X69.05Y-57.205
X69.135Y-39.87
X69.15Y-71.175
X69.16Y-71.85
X69.23Y-92.105
X69.235Y-93.46
X69.24Y-38.52
X69.365Y-72.215
X69.365Y-72.615
X69.365Y-73.04
X69.365Y-73.45
X69.365Y-73.875
X69.365Y-74.275
X69.365Y-74.7
X69.365Y-75.125
X69.365Y-75.55
X69.365Y-75.95
X69.365Y-76.375
X69.365Y-76.785
X69.365Y-77.21
X69.365Y-77.61
X69.365Y-78.035
X69.365Y-78.455
X69.365Y-78.88
X69.365Y-79.28
X69.365Y-79.705
X69.365Y-80.115
X69.365Y-80.54
X69.365Y-80.94
X69.365Y-81.365
X69.365Y-81.785
X69.365Y-82.205
X69.365Y-82.63
X69.365Y-83.03
X69.365Y-83.455
X69.365Y-83.865
X69.365Y-84.29
X69.365Y-84.69
X69.365Y-85.115
X69.365Y-85.535
X69.365Y-85.955
X69.365Y-86.38
X69.365Y-86.78
X69.365Y-87.205
X69.365Y-87.615
X69.365Y-88.04
X69.365Y-88.44
X69.365Y-88.865
X69.39Y-71.51
X69.395Y-89.26
X69.445Y-39.56
X69.445Y-93.835
X69.45Y-58.525
X69.45Y-58.925
X69.455Y-57.21
X69.455Y-57.61
X69.47Y-89.655
X69.54Y-38.18
X69.56Y-92.43
X69.585Y-90.04
X69.605Y-94.225
X69.705Y-94.65
X69.735Y-90.415
X69.75Y-95.055
X69.755Y-39.25
X69.76Y-95.465
X69.76Y-95.895
X69.76Y-96.32
X69.76Y-96.72
X69.76Y-97.145
X69.76Y-97.555
X69.76Y-97.98
X69.76Y-98.38
X69.76Y-98.815
X69.8Y-71.31
X69.845Y-92.79
X69.85Y-58.515
X69.85Y-58.925
X69.855Y-57.2
X69.855Y-57.61
X69.925Y-90.775
X70.06Y-38.945
X70.07Y-93.125
X70.16Y-91.13
X70.21Y-71.51
X70.24Y-72.22
X70.24Y-72.62
X70.24Y-73.045
X70.24Y-73.455
X70.24Y-73.88
X70.24Y-74.28
X70.24Y-74.705
X70.24Y-75.13
X70.24Y-75.555
X70.24Y-75.955
X70.24Y-76.38
X70.24Y-76.79
X70.24Y-77.215
X70.24Y-77.615
X70.24Y-78.04
X70.24Y-78.46
X70.24Y-78.885
X70.24Y-79.285
X70.24Y-79.71
X70.24Y-80.12
X70.24Y-80.545
X70.24Y-80.945
X70.24Y-81.37
X70.24Y-81.785
X70.24Y-82.205
X70.24Y-82.63
X70.24Y-83.03
X70.24Y-83.455
X70.24Y-83.865
X70.24Y-84.29
X70.24Y-84.69
X70.24Y-85.115
X70.24Y-85.53
X70.24Y-85.95
X70.24Y-86.375
X70.24Y-86.775
X70.24Y-87.2
X70.24Y-87.61
X70.24Y-88.035
X70.24Y-88.435
X70.245Y-58.925
X70.245Y-88.86
X70.25Y-57.61
X70.255Y-58.52
X70.26Y-57.205
X70.26Y-93.485
X70.3Y-89.295
X70.325Y-38.595
X70.41Y-89.71
X70.41Y-93.86
X70.43Y-91.45
X70.44Y-38.18
X70.45Y-71.86
X70.45Y-71.175
X70.525Y-94.255
X70.57Y-90.115
X70.6Y-94.645
X70.64Y-95.065
X70.64Y-95.465
X70.64Y-95.9
X70.64Y-96.325
X70.64Y-96.725
X70.64Y-97.15
X70.64Y-97.56
X70.64Y-97.985
X70.64Y-98.385
X70.64Y-98.81
X70.66Y-58.525
X70.66Y-58.92
X70.665Y-57.21
X70.665Y-57.605
X70.67Y-72.215
X70.67Y-72.615
X70.67Y-73.04
X70.67Y-73.45
X70.67Y-73.875
X70.67Y-74.275
X70.67Y-74.7
X70.67Y-75.125
X70.67Y-75.55
X70.67Y-75.95
X70.67Y-76.375
X70.67Y-76.785
X70.67Y-77.21
X70.67Y-77.61
X70.67Y-78.035
X70.67Y-78.455
X70.67Y-78.88
X70.67Y-79.28
X70.67Y-79.705
X70.67Y-80.115
X70.67Y-80.54
X70.67Y-80.94
X70.67Y-81.365
X70.67Y-81.78
X70.67Y-82.2
X70.67Y-82.625
X70.67Y-83.025
X70.67Y-83.45
X70.67Y-83.86
X70.67Y-84.285
X70.67Y-84.685
X70.67Y-85.11
X70.67Y-85.525
X70.67Y-85.945
X70.67Y-86.37
X70.67Y-86.77
X70.67Y-87.195
X70.67Y-87.605
X70.67Y-88.03
X70.67Y-88.43
X70.685Y-88.855
X70.69Y-71.51
X70.73Y-91.76
X70.79Y-90.485
X71.03Y-92.06
X71.045Y-90.81
X71.065Y-58.925
X71.07Y-57.61
X71.075Y-58.52
X71.08Y-57.205
X71.35Y-91.13
X71.37Y-92.325
X71.48Y-58.525
X71.48Y-58.925
X71.485Y-57.21
X71.485Y-57.61
X71.635Y-91.41
X71.725Y-92.49
X71.88Y-58.515
X71.88Y-58.925
X71.885Y-57.2
X71.885Y-57.61
X71.965Y-91.64
X72.17Y-92.555
X72.275Y-58.925
X72.28Y-57.61
X72.285Y-58.52
X72.29Y-57.205
X72.365Y-91.69
X72.585Y-92.67
X72.69Y-58.525
X72.69Y-58.92
X72.695Y-57.21
X72.695Y-57.605
X72.755Y-91.78
X72.907Y-92.947
X73.1Y-58.52
X73.1Y-58.93
X73.105Y-57.205
X73.105Y-57.615
X73.115Y-91.96
X73.21Y-93.265
X73.425Y-92.225
X73.495Y-58.93
X73.5Y-57.615
X73.505Y-58.525
X73.507Y-93.562
X73.51Y-57.21
X73.715Y-92.5
X73.807Y-93.862
X73.91Y-58.53
X73.91Y-58.925
X73.915Y-57.215
X73.915Y-57.61
X74.017Y-92.817
X74.09Y-94.145
X74.29Y-59.025
X74.305Y-58.59
X74.314Y-93.114
X74.335Y-57.65
X74.345Y-57.225
X74.391Y-94.446
X74.6Y-59.3
X74.615Y-93.415
X74.65Y-58.785
X74.68Y-94.735
X74.725Y-57.775
X74.755Y-57.35
X74.898Y-93.698
X74.92Y-59.645
X74.95Y-59.07
X74.985Y-95.03
X75.115Y-57.985
X75.125Y-57.5
X75.198Y-93.998
X75.2Y-59.93
X75.24Y-59.36
X75.26Y-95.33
X75.425Y-95.69
X75.44Y-58.27
X75.46Y-96.095
X75.46Y-96.495
X75.46Y-96.92
X75.485Y-57.72
X75.488Y-94.288
X75.495Y-60.215
X75.52Y-59.645
X75.755Y-58.59
X75.785Y-60.505
X75.79Y-58.015
X75.8Y-94.6
X75.815Y-59.93
X76.055Y-58.88
X76.055Y-94.93
X76.065Y-60.79
X76.08Y-58.31
X76.105Y-60.22
X76.24Y-95.305
X76.325Y-95.695
X76.335Y-59.165
X76.34Y-96.095
X76.34Y-96.495
X76.34Y-96.92
X76.355Y-61.08
X76.375Y-58.595
X76.385Y-60.505
X76.63Y-59.45
X76.645Y-61.37
X76.655Y-58.88
X76.675Y-60.795
X76.92Y-59.74
X76.925Y-61.655
X76.95Y-59.165
X76.965Y-61.085
X77.2Y-60.025
X77.21Y-61.935
X77.24Y-59.455
X77.245Y-61.37
X77.49Y-60.315
X77.5Y-62.225
X77.52Y-59.74
X77.53Y-61.65
X77.78Y-60.605
X77.78Y-62.51
X77.81Y-60.03
X77.82Y-61.94
X78.06Y-60.89
X78.065Y-62.79
X78.1Y-60.32
X78.1Y-62.225
X78.345Y-61.17
X78.355Y-63.08
X78.38Y-60.605
X78.385Y-62.505
X78.635Y-61.46
X78.635Y-63.365
X78.665Y-60.885
X78.675Y-62.795
X78.81Y-68.895
X78.81Y-69.31
X78.81Y-69.735
X78.815Y-65.01
X78.815Y-65.425
X78.815Y-65.85
X78.815Y-67.59
X78.815Y-68.005
X78.815Y-68.43
X78.82Y-63.725
X78.82Y-64.14
X78.82Y-64.565
X78.82Y-66.29
X78.82Y-66.705
X78.82Y-67.13
X78.82Y-70.165
X78.855Y-70.585
X78.915Y-61.745
X78.955Y-61.175
X78.955Y-63.08
X78.975Y-70.98
X79.175Y-71.37
X79.2Y-62.025
X79.205Y-63.41
X79.235Y-61.46
X79.285Y-69.44
X79.29Y-65.555
X79.29Y-68.135
X79.29Y-69.01
X79.29Y-69.875
X79.295Y-64.27
X79.295Y-65.125
X79.295Y-65.99
X79.295Y-66.835
X79.295Y-67.705
X79.295Y-68.57
X79.295Y-70.28
X79.3Y-63.84
X79.3Y-64.705
X79.3Y-66.405
X79.3Y-67.27
X79.33Y-70.69
X79.44Y-71.68
X79.48Y-71.055
X79.49Y-62.315
X79.52Y-61.74
X79.715Y-71.96
X79.735Y-71.37
X79.77Y-62.6
X79.81Y-62.03
X80.005Y-62.96
X80.005Y-72.26
X80.03Y-71.66
X80.09Y-62.315
X80.145Y-63.365
X80.2Y-63.83
X80.2Y-64.255
X80.2Y-64.675
X80.205Y-65.095
X80.205Y-65.52
X80.205Y-65.94
X80.205Y-66.375
X80.205Y-66.8
X80.205Y-67.22
X80.205Y-68.915
X80.205Y-69.34
X80.205Y-69.76
X80.21Y-67.64
X80.21Y-68.065
X80.21Y-68.485
X80.21Y-70.18
X80.25Y-70.575
X80.305Y-72.56
X80.31Y-71.94
X80.33Y-62.675
X80.5Y-63.055
X80.53Y-70.885
X80.56Y-63.48
X80.595Y-72.855
X80.61Y-72.24
X80.625Y-63.93
X80.625Y-64.355
X80.625Y-64.775
X80.63Y-65.195
X80.63Y-65.62
X80.63Y-66.04
X80.63Y-66.475
X80.63Y-66.9
X80.63Y-67.32
X80.63Y-69.015
X80.63Y-69.44
X80.63Y-69.86
X80.635Y-67.74
X80.635Y-68.165
X80.635Y-68.585
X80.635Y-70.28
X80.825Y-71.185
X80.885Y-73.145
X80.9Y-72.535
X80.94Y-70.73
X80.955Y-38.18
X80.97Y-38.59
X81.025Y-39.01
X81.12Y-39.405
X81.13Y-71.485
X81.16Y-96.095
X81.16Y-96.52
X81.16Y-96.92
X81.165Y-95.665
X81.185Y-95.23
X81.19Y-72.825
X81.19Y-73.45
X81.22Y-94.815
X81.23Y-71.08
X81.255Y-39.79
X81.27Y-94.38
X81.34Y-93.955
X81.425Y-71.78
X81.43Y-40.15
X81.435Y-93.53
X81.49Y-73.75
X81.495Y-73.13
X81.535Y-93.13
X81.58Y-71.4
X81.645Y-40.5
X81.655Y-92.73
X81.71Y-72.065
X81.79Y-92.34
X81.795Y-73.43
X81.795Y-74.035
X81.84Y-38.18
X81.86Y-38.585
X81.88Y-40.815
X81.89Y-55.52
X81.89Y-55.94
X81.89Y-56.375
X81.89Y-56.8
X81.89Y-57.22
X81.89Y-58.915
X81.89Y-61.035
X81.89Y-61.47
X81.89Y-61.895
X81.89Y-62.315
X81.89Y-63.16
X81.89Y-63.58
X81.89Y-64.015
X81.89Y-64.44
X81.89Y-64.86
X81.89Y-66.555
X81.89Y-66.975
X81.89Y-67.415
X81.895Y-54.645
X81.895Y-55.09
X81.895Y-57.64
X81.895Y-58.065
X81.895Y-58.485
X81.895Y-59.35
X81.895Y-59.77
X81.895Y-60.205
X81.895Y-60.63
X81.895Y-62.745
X81.895Y-65.28
X81.895Y-65.705
X81.895Y-66.125
X81.925Y-38.975
X81.925Y-54.24
X81.93Y-67.87
X81.945Y-91.94
X81.955Y-71.745
X81.98Y-53.81
X82.005Y-72.355
X82.015Y-68.3
X82.04Y-39.36
X82.04Y-95.635
X82.04Y-96.09
X82.04Y-96.515
X82.04Y-96.915
X82.065Y-95.195
X82.07Y-53.37
X82.09Y-73.725
X82.11Y-91.565
X82.11Y-94.725
X82.13Y-74.27
X82.155Y-41.11
X82.155Y-68.73
X82.175Y-52.97
X82.18Y-94.275
X82.21Y-39.73
X82.27Y-93.8
X82.275Y-72.06
X82.285Y-91.195
X82.29Y-72.645
X82.305Y-52.565
X82.345Y-69.145
X82.38Y-93.38
X82.43Y-41.39
X82.43Y-73.955
X82.435Y-40.085
X82.46Y-52.17
X82.5Y-90.805
X82.505Y-74.44
X82.51Y-92.94
X82.575Y-69.525
X82.605Y-72.36
X82.605Y-72.95
X82.66Y-51.74
X82.66Y-92.515
X82.705Y-40.4
X82.71Y-41.67
X82.71Y-90.43
X82.77Y-55.265
X82.77Y-55.685
X82.77Y-56.12
X82.77Y-56.545
X82.77Y-56.965
X82.77Y-58.66
X82.77Y-62.905
X82.77Y-63.325
X82.77Y-63.76
X82.77Y-64.185
X82.77Y-64.605
X82.77Y-66.3
X82.77Y-66.725
X82.77Y-67.125
X82.775Y-54.825
X82.775Y-57.385
X82.775Y-57.81
X82.775Y-58.23
X82.775Y-59.095
X82.775Y-59.515
X82.775Y-59.95
X82.775Y-60.375
X82.775Y-60.795
X82.775Y-62.49
X82.775Y-65.025
X82.775Y-65.45
X82.775Y-65.87
X82.78Y-61.215
X82.78Y-61.64
X82.78Y-62.06
X82.78Y-67.53
X82.795Y-54.41
X82.815Y-74.1
X82.835Y-67.94
X82.84Y-92.095
X82.845Y-54.0
X82.855Y-69.885
X82.87Y-51.36
X82.9Y-74.57
X82.92Y-53.595
X82.94Y-73.19
X82.95Y-68.34
X82.95Y-90.08
X82.97Y-72.69
X82.995Y-40.7
X83.0Y-41.96
X83.025Y-53.185
X83.03Y-91.685
X83.1Y-50.995
X83.12Y-68.725
X83.125Y-56.76
X83.125Y-58.455
X83.125Y-61.435
X83.125Y-62.7
X83.125Y-63.12
X83.125Y-63.555
X83.125Y-63.98
X83.125Y-64.4
X83.125Y-66.095
X83.125Y-66.52
X83.125Y-66.93
X83.13Y-57.18
X83.13Y-57.605
X83.13Y-58.025
X83.13Y-58.89
X83.13Y-59.31
X83.13Y-59.745
X83.13Y-60.17
X83.13Y-60.59
X83.13Y-61.005
X83.13Y-61.855
X83.13Y-62.285
X83.13Y-64.82
X83.13Y-65.245
X83.13Y-65.665
X83.13Y-67.32
X83.14Y-56.34
X83.155Y-70.195
X83.165Y-52.775
X83.17Y-55.945
X83.195Y-67.72
X83.195Y-89.725
X83.225Y-55.525
X83.225Y-91.305
X83.24Y-74.16
X83.29Y-41.005
X83.29Y-42.245
X83.305Y-55.085
X83.315Y-74.57
X83.32Y-68.125
X83.33Y-52.375
X83.36Y-50.64
X83.36Y-73.25
X83.365Y-69.11
X83.365Y-72.84
X83.405Y-54.67
X83.455Y-90.915
X83.47Y-89.37
X83.505Y-68.495
X83.51Y-70.465
X83.515Y-52.01
X83.52Y-54.265
X83.58Y-42.54
X83.6Y-41.31
X83.635Y-50.305
X83.635Y-69.43
X83.65Y-53.88
X83.655Y-74.16
X83.675Y-90.59
X83.73Y-74.57
X83.745Y-51.625
X83.75Y-68.84
X83.755Y-89.04
X83.785Y-73.255
X83.795Y-72.85
X83.805Y-53.485
X83.87Y-42.825
X83.878Y-70.677
X83.915Y-90.25
X83.92Y-41.635
X83.935Y-49.985
X83.955Y-69.695
X83.99Y-51.265
X84.0Y-53.07
X84.0Y-60.665
X84.0Y-61.08
X84.0Y-61.52
X84.0Y-61.93
X84.0Y-62.36
X84.005Y-56.835
X84.005Y-58.53
X84.005Y-62.775
X84.005Y-63.195
X84.005Y-63.63
X84.005Y-64.055
X84.005Y-64.475
X84.005Y-66.17
X84.005Y-66.585
X84.005Y-67.005
X84.01Y-57.255
X84.01Y-57.68
X84.01Y-58.1
X84.01Y-58.965
X84.01Y-59.385
X84.01Y-59.82
X84.01Y-60.245
X84.01Y-64.895
X84.01Y-65.32
X84.01Y-65.74
X84.015Y-56.41
X84.035Y-67.425
X84.05Y-56.005
X84.05Y-69.14
X84.06Y-88.715
X84.07Y-74.16
X84.105Y-55.59
X84.135Y-74.57
X84.16Y-67.855
X84.185Y-43.15
X84.185Y-55.2
X84.185Y-89.9
X84.195Y-52.695
X84.22Y-41.93
X84.22Y-72.84
X84.225Y-73.25
X84.24Y-49.67
X84.255Y-50.94
X84.275Y-54.81
X84.285Y-91.845
X84.29Y-91.43
X84.295Y-70.835
X84.31Y-90.96
X84.32Y-69.895
X84.33Y-58.745
X84.33Y-62.99
X84.33Y-63.41
X84.33Y-63.845
X84.33Y-64.27
X84.33Y-64.69
X84.33Y-66.385
X84.33Y-67.195
X84.335Y-57.47
X84.335Y-57.895
X84.335Y-58.315
X84.335Y-59.18
X84.335Y-59.6
X84.335Y-60.035
X84.335Y-60.46
X84.335Y-60.88
X84.335Y-61.3
X84.335Y-61.71
X84.335Y-62.145
X84.335Y-62.575
X84.335Y-65.11
X84.335Y-65.535
X84.335Y-65.955
X84.335Y-66.79
X84.38Y-67.56
X84.38Y-69.37
X84.38Y-92.265
X84.385Y-68.22
X84.385Y-88.39
X84.39Y-57.08
X84.395Y-54.425
X84.42Y-90.54
X84.435Y-52.29
X84.455Y-56.67
X84.475Y-43.495
X84.475Y-74.16
X84.475Y-89.56
X84.53Y-42.235
X84.53Y-49.325
X84.535Y-56.29
X84.535Y-67.89
X84.54Y-74.57
X84.545Y-50.625
X84.545Y-54.01
X84.61Y-90.135
X84.615Y-92.635
X84.635Y-73.25
X84.65Y-55.89
X84.685Y-51.915
X84.695Y-88.07
X84.705Y-53.635
X84.705Y-68.53
X84.709Y-70.931
X84.72Y-70.03
X84.745Y-69.535
X84.755Y-43.89
X84.775Y-48.97
X84.78Y-55.51
X84.78Y-89.24
X84.8Y-68.15
X84.835Y-42.545
X84.855Y-50.31
X84.87Y-89.775
X84.88Y-74.16
X84.895Y-53.255
X84.92Y-55.145
X84.95Y-74.57
X84.95Y-92.91
X84.955Y-51.565
X84.985Y-48.595
X84.99Y-44.3
X85.015Y-87.75
X85.07Y-73.25
X85.081Y-88.939
X85.09Y-54.79
X85.105Y-52.89
X85.125Y-42.88
X85.125Y-68.73
X85.135Y-49.99
X85.145Y-69.64
X85.145Y-70.965
X85.15Y-68.32
X85.15Y-70.085
X85.15Y-71.395
X85.16Y-48.2
X85.165Y-91.315
X85.165Y-91.745
X85.17Y-89.47
X85.175Y-44.73
X85.21Y-58.71
X85.21Y-62.955
X85.21Y-63.375
X85.21Y-63.81
X85.21Y-64.235
X85.21Y-64.655
X85.21Y-66.35
X85.21Y-66.785
X85.21Y-67.215
X85.215Y-57.86
X85.215Y-58.28
X85.215Y-59.145
X85.215Y-59.565
X85.215Y-60.0
X85.215Y-60.425
X85.215Y-60.845
X85.215Y-62.54
X85.215Y-65.075
X85.215Y-65.5
X85.215Y-65.92
X85.22Y-61.265
X85.22Y-61.69
X85.22Y-62.11
X85.225Y-90.91
X85.245Y-51.21
X85.245Y-57.405
X85.29Y-54.41
X85.29Y-74.16
X85.3Y-47.79
X85.3Y-56.96
X85.32Y-45.19
X85.325Y-87.44
X85.33Y-52.535
X85.33Y-92.1
X85.33Y-93.06
X85.335Y-74.57
X85.375Y-43.22
X85.378Y-88.642
X85.39Y-49.645
X85.39Y-56.535
X85.4Y-90.54
X85.405Y-47.355
X85.42Y-45.62
X85.47Y-46.95
X85.471Y-89.169
X85.48Y-46.055
X85.495Y-46.49
X85.495Y-56.135
X85.51Y-73.25
X85.52Y-54.045
X85.535Y-67.49
X85.54Y-68.36
X85.545Y-68.79
X85.555Y-50.88
X85.57Y-69.66
X85.57Y-70.965
X85.575Y-70.09
X85.575Y-71.395
X85.585Y-52.18
X85.605Y-43.585
X85.62Y-49.28
X85.626Y-87.139
X85.635Y-55.74
X85.675Y-74.16
X85.675Y-90.225
X85.695Y-88.34
X85.725Y-92.21
X85.735Y-93.085
X85.74Y-74.57
X85.753Y-88.887
X85.76Y-53.7
X85.805Y-43.955
X85.805Y-55.34
X85.815Y-48.905
X85.845Y-51.865
X85.89Y-50.555
X85.923Y-86.842
X85.935Y-67.49
X85.95Y-68.36
X85.955Y-68.79
X85.955Y-73.25
X85.97Y-44.32
X85.97Y-70.965
X85.975Y-71.395
X85.98Y-48.535
X85.98Y-69.66
X85.98Y-89.925
X85.985Y-70.09
X86.005Y-54.945
X86.018Y-88.017
X86.03Y-53.36
X86.054Y-88.586
X86.08Y-74.16
X86.11Y-44.74
X86.125Y-48.11
X86.135Y-93.095
X86.14Y-92.21
X86.155Y-74.565
X86.165Y-51.515
X86.22Y-45.15
X86.225Y-54.58
X86.235Y-47.695
X86.24Y-86.54
X86.245Y-50.305
X86.28Y-89.62
X86.305Y-45.575
X86.305Y-53.045
X86.315Y-47.27
X86.318Y-87.717
X86.351Y-88.289
X86.355Y-46.01
X86.36Y-67.49
X86.365Y-46.855
X86.365Y-68.36
X86.37Y-68.79
X86.375Y-46.43
X86.395Y-69.66
X86.395Y-70.965
X86.4Y-70.09
X86.4Y-71.395
X86.42Y-73.25
X86.455Y-54.245
X86.48Y-51.21
X86.495Y-74.155
X86.52Y-93.09
X86.55Y-92.21
X86.56Y-89.335
X86.563Y-86.217
X86.575Y-67.095
X86.575Y-74.56
X86.6Y-52.75
X86.625Y-87.395
X86.668Y-87.987
X86.68Y-50.125
X86.73Y-53.905
X86.77Y-67.49
X86.775Y-68.36
X86.78Y-68.79
X86.8Y-73.07
X86.805Y-69.66
X86.805Y-70.965
X86.81Y-70.09
X86.86Y-50.99
X86.86Y-85.91
X86.86Y-89.04
X86.86Y-95.02
X86.91Y-52.445
X86.91Y-74.075
X86.926Y-87.094
X86.935Y-93.145
X86.935Y-94.62
X86.945Y-92.235
X86.985Y-67.095
X86.991Y-87.664
X87.01Y-53.6
X87.03Y-74.51
X87.09Y-72.79
X87.11Y-50.045
X87.145Y-85.605
X87.161Y-88.739
X87.19Y-94.305
X87.195Y-67.49
X87.2Y-68.36
X87.205Y-68.79
X87.21Y-52.145
X87.223Y-86.797
X87.23Y-69.66
X87.23Y-70.965
X87.235Y-70.09
X87.235Y-93.475
X87.26Y-93.885
X87.27Y-73.875
X87.292Y-87.363
X87.295Y-53.305
X87.305Y-50.915
X87.375Y-72.475
X87.375Y-74.27
X87.375Y-92.375
X87.405Y-67.1
X87.41Y-85.295
X87.458Y-88.442
X87.52Y-86.5
X87.535Y-51.88
X87.555Y-50.005
X87.56Y-73.595
X87.575Y-87.08
X87.595Y-67.49
X87.6Y-68.36
X87.605Y-52.995
X87.605Y-68.79
X87.63Y-69.66
X87.63Y-70.965
X87.635Y-70.09
X87.67Y-84.965
X87.695Y-73.98
X87.735Y-92.645
X87.745Y-95.02
X87.755Y-50.865
X87.77Y-88.135
X87.82Y-86.165
X87.845Y-73.32
X87.875Y-86.78
X87.915Y-52.7
X87.925Y-51.695
X87.925Y-84.62
X87.965Y-49.845
X87.98Y-67.275
X87.98Y-68.575
X87.98Y-92.975
X87.99Y-71.175
X87.99Y-94.675
X88.0Y-69.885
X88.005Y-73.71
X88.09Y-87.81
X88.1Y-85.84
X88.11Y-93.38
X88.115Y-73.04
X88.12Y-94.255
X88.13Y-93.82
X88.165Y-86.49
X88.17Y-84.275
X88.18Y-50.73
X88.3Y-49.575
X88.305Y-52.515
X88.315Y-73.4
X88.34Y-68.335
X88.34Y-68.815
X88.34Y-69.635
X88.34Y-70.115
X88.34Y-70.935
X88.345Y-67.52
X88.36Y-51.6
X88.38Y-85.485
X88.385Y-83.935
X88.39Y-87.51
X88.435Y-72.795
X88.48Y-86.165
X88.54Y-67.935
X88.54Y-69.225
X88.54Y-70.525
X88.54Y-72.41
X88.555Y-38.18
X88.57Y-38.595
X88.59Y-50.49
X88.6Y-83.59
X88.625Y-49.25
X88.63Y-39.01
X88.65Y-85.13
X88.67Y-67.275
X88.67Y-73.14
X88.675Y-69.875
X88.675Y-87.22
X88.675Y-71.175
X88.68Y-68.575
X88.725Y-52.475
X88.745Y-39.415
X88.76Y-85.84
X88.775Y-51.565
X88.79Y-83.23
X88.83Y-72.72
X88.905Y-39.795
X88.915Y-84.745
X88.925Y-48.935
X88.925Y-50.195
X88.97Y-86.925
X88.975Y-82.865
X89.045Y-85.505
X89.11Y-40.155
X89.12Y-52.395
X89.125Y-48.555
X89.15Y-82.495
X89.16Y-84.375
X89.175Y-51.395
X89.18Y-48.14
X89.245Y-47.68
X89.245Y-49.87
X89.272Y-86.643
X89.3Y-85.17
X89.31Y-82.115
X89.385Y-40.515
X89.385Y-47.265
X89.385Y-83.985
X89.435Y-38.18
X89.46Y-38.62
X89.46Y-81.73
X89.505Y-51.11
X89.51Y-52.235
X89.545Y-84.805
X89.55Y-39.025
X89.56Y-86.27
X89.57Y-49.545
X89.59Y-83.6
X89.595Y-81.35
X89.6Y-46.87
X89.7Y-39.41
X89.7Y-40.835
X89.705Y-80.965
X89.77Y-77.725
X89.775Y-72.73
X89.775Y-73.155
X89.775Y-74.815
X89.775Y-75.215
X89.775Y-75.64
X89.775Y-76.065
X89.775Y-76.49
X89.775Y-76.89
X89.775Y-77.315
X89.79Y-72.245
X89.79Y-84.44
X89.795Y-73.97
X89.795Y-83.205
X89.81Y-50.805
X89.82Y-80.575
X89.83Y-49.17
X89.835Y-85.93
X89.85Y-52.005
X89.895Y-46.53
X89.915Y-80.175
X89.93Y-39.78
X89.975Y-71.17
X89.98Y-82.785
X89.985Y-48.76
X89.99Y-79.78
X90.015Y-41.155
X90.02Y-84.055
X90.04Y-71.885
X90.055Y-79.38
X90.06Y-48.305
X90.105Y-47.85
X90.105Y-50.51
X90.11Y-78.975
X90.12Y-85.545
X90.15Y-78.56
X90.155Y-51.715
X90.16Y-82.37
X90.175Y-78.16
X90.185Y-77.725
X90.19Y-72.3
X90.19Y-72.73
X90.19Y-73.13
X90.19Y-73.555
X90.19Y-73.965
X90.19Y-74.39
X90.19Y-74.79
X90.19Y-75.215
X90.19Y-75.64
X90.19Y-76.065
X90.19Y-76.465
X90.19Y-76.89
X90.19Y-77.3
X90.205Y-40.1
X90.205Y-46.23
X90.215Y-71.51
X90.23Y-83.665
X90.305Y-47.415
X90.32Y-41.46
X90.32Y-81.945
X90.375Y-85.16
X90.395Y-50.225
X90.425Y-83.27
X90.455Y-51.42
X90.465Y-81.51
X90.495Y-45.935
X90.515Y-40.415
X90.585Y-47.095
X90.59Y-81.09
X90.6Y-82.88
X90.625Y-49.875
X90.625Y-71.31
X90.63Y-84.755
X90.635Y-41.77
X90.685Y-49.455
X90.7Y-80.68
X90.745Y-49.04
X90.75Y-51.12
X90.755Y-82.475
X90.79Y-80.265
X90.795Y-45.635
X90.845Y-40.745
X90.855Y-84.355
X90.875Y-79.82
X90.885Y-46.785
X90.89Y-48.64
X90.9Y-82.08
X90.935Y-42.095
X90.945Y-79.395
X90.995Y-78.965
X91.025Y-81.68
X91.03Y-78.52
X91.035Y-71.51
X91.045Y-50.825
X91.055Y-78.08
X91.06Y-72.26
X91.06Y-72.66
X91.06Y-73.085
X91.06Y-73.495
X91.06Y-73.92
X91.06Y-74.32
X91.06Y-74.745
X91.06Y-75.17
X91.06Y-75.595
X91.06Y-75.995
X91.06Y-76.42
X91.06Y-76.83
X91.06Y-77.255
X91.06Y-77.655
X91.065Y-83.965
X91.09Y-48.295
X91.095Y-45.325
X91.13Y-81.29
X91.175Y-41.07
X91.175Y-42.455
X91.195Y-46.475
X91.225Y-80.895
X91.255Y-83.56
X91.275Y-71.18
X91.275Y-71.87
X91.3Y-50.495
X91.305Y-80.5
X91.35Y-44.955
X91.355Y-48.0
X91.37Y-80.095
X91.385Y-42.88
X91.42Y-79.695
X91.44Y-83.145
X91.46Y-79.29
X91.48Y-78.885
X91.485Y-50.1
X91.485Y-78.485
X91.49Y-72.255
X91.49Y-72.655
X91.49Y-73.08
X91.49Y-73.49
X91.49Y-73.915
X91.49Y-74.315
X91.49Y-74.74
X91.49Y-75.165
X91.49Y-75.59
X91.49Y-75.99
X91.49Y-76.415
X91.49Y-76.825
X91.49Y-77.25
X91.49Y-77.65
X91.49Y-78.075
X91.51Y-43.29
X91.51Y-44.565
X91.51Y-46.16
X91.52Y-41.42
X91.52Y-71.505
X91.56Y-49.7
X91.585Y-43.715
X91.59Y-44.15
X91.595Y-49.315
X91.595Y-82.74
X91.645Y-47.71
X91.74Y-48.915
X91.745Y-82.315
X91.795Y-41.785
X91.8Y-45.855
X91.885Y-81.87
X91.935Y-71.31
X91.945Y-47.41
X92.0Y-48.595
X92.0Y-81.455
X92.0Y-92.34
X92.005Y-92.735
X92.02Y-91.935
X92.05Y-42.195
X92.05Y-45.505
X92.09Y-93.135
X92.105Y-81.01
X92.125Y-91.54
X92.18Y-80.59
X92.21Y-88.335
X92.225Y-42.615
X92.235Y-45.145
X92.24Y-47.11
X92.25Y-80.165
X92.26Y-87.935
X92.265Y-88.74
X92.285Y-93.515
X92.305Y-48.3
X92.305Y-79.72
X92.32Y-91.155
X92.345Y-71.51
X92.36Y-72.25
X92.36Y-72.65
X92.36Y-73.075
X92.36Y-73.485
X92.36Y-73.91
X92.36Y-74.31
X92.36Y-74.735
X92.36Y-75.16
X92.36Y-75.585
X92.36Y-75.985
X92.36Y-76.41
X92.36Y-76.82
X92.36Y-77.245
X92.36Y-77.645
X92.36Y-78.07
X92.36Y-78.49
X92.36Y-78.915
X92.36Y-79.315
X92.37Y-44.745
X92.375Y-43.09
X92.4Y-87.55
X92.43Y-89.12
X92.445Y-43.495
X92.46Y-44.32
X92.475Y-43.905
X92.545Y-93.865
X92.56Y-94.28
X92.56Y-94.705
X92.56Y-95.105
X92.56Y-95.525
X92.56Y-95.95
X92.56Y-96.35
X92.56Y-96.75
X92.56Y-97.175
X92.56Y-97.575
X92.56Y-97.995
X92.56Y-98.42
X92.56Y-98.82
X92.565Y-46.785
X92.575Y-71.17
X92.575Y-71.87
X92.59Y-90.855
X92.6Y-48.0
X92.635Y-87.215
X92.695Y-89.45
X92.785Y-85.585
X92.785Y-86.005
X92.785Y-86.43
X92.785Y-86.83
X92.79Y-72.245
X92.79Y-72.645
X92.79Y-73.07
X92.79Y-73.48
X92.79Y-73.905
X92.79Y-74.305
X92.79Y-74.73
X92.79Y-75.155
X92.79Y-75.58
X92.79Y-75.98
X92.79Y-76.405
X92.79Y-76.815
X92.79Y-77.24
X92.79Y-77.64
X92.79Y-78.065
X92.79Y-78.485
X92.79Y-78.91
X92.79Y-79.31
X92.79Y-79.735
X92.79Y-80.145
X92.79Y-80.57
X92.79Y-80.97
X92.79Y-81.395
X92.79Y-81.815
X92.79Y-82.235
X92.79Y-82.66
X92.79Y-83.06
X92.79Y-83.485
X92.79Y-83.895
X92.79Y-84.32
X92.79Y-84.72
X92.79Y-85.145
X92.815Y-71.51
X92.88Y-92.41
X92.885Y-90.55
X92.895Y-47.7
X92.905Y-92.01
X92.915Y-92.81
X92.92Y-46.52
X92.96Y-89.755
X93.05Y-90.17
X93.07Y-91.635
X93.095Y-88.3
X93.13Y-93.15
X93.205Y-47.405
X93.215Y-88.705
X93.225Y-71.31
X93.23Y-87.885
X93.32Y-46.3
X93.35Y-93.485
X93.365Y-91.32
X93.44Y-93.885
X93.44Y-94.28
X93.44Y-94.705
X93.44Y-95.105
X93.44Y-95.525
X93.44Y-95.95
X93.44Y-96.35
X93.44Y-96.75
X93.44Y-97.175
X93.44Y-97.575
X93.44Y-97.995
X93.44Y-98.42
X93.44Y-98.82
X93.475Y-87.58
X93.52Y-89.03
X93.555Y-47.18
X93.635Y-71.51
X93.635Y-87.2
X93.655Y-91.0
X93.66Y-72.22
X93.66Y-72.62
X93.66Y-73.045
X93.66Y-73.455
X93.66Y-73.88
X93.66Y-74.28
X93.66Y-74.705
X93.66Y-75.13
X93.66Y-75.555
X93.66Y-75.955
X93.66Y-76.38
X93.66Y-76.79
X93.66Y-77.215
X93.66Y-77.615
X93.66Y-78.04
X93.66Y-78.46
X93.66Y-78.885
X93.66Y-79.285
X93.66Y-79.71
X93.66Y-80.12
X93.66Y-80.545
X93.66Y-80.945
X93.66Y-81.37
X93.66Y-81.79
X93.66Y-82.21
X93.66Y-82.635
X93.66Y-83.035
X93.66Y-83.46
X93.66Y-83.87
X93.66Y-84.295
X93.66Y-84.695
X93.66Y-85.12
X93.66Y-85.54
X93.66Y-85.96
X93.66Y-86.385
X93.66Y-86.785
X93.76Y-46.175
X93.76Y-89.375
X93.84Y-90.645
X93.875Y-71.175
X93.885Y-71.85
X93.9Y-89.785
X93.925Y-90.24
X93.935Y-47.04
X94.09Y-72.215
X94.09Y-72.615
X94.09Y-73.04
X94.09Y-73.45
X94.09Y-73.875
X94.09Y-74.275
X94.09Y-74.7
X94.09Y-75.125
X94.09Y-75.55
X94.09Y-75.95
X94.09Y-76.375
X94.09Y-76.785
X94.09Y-77.21
X94.09Y-77.61
X94.09Y-78.035
X94.09Y-78.455
X94.09Y-78.88
X94.09Y-79.28
X94.09Y-79.705
X94.09Y-80.115
X94.09Y-80.54
X94.09Y-80.94
X94.09Y-81.365
X94.09Y-81.785
X94.09Y-82.205
X94.09Y-82.63
X94.09Y-83.03
X94.09Y-83.455
X94.09Y-83.865
X94.115Y-71.51
X94.17Y-84.295
X94.225Y-46.115
X94.355Y-46.99
X94.36Y-84.67
X94.525Y-71.31
X94.655Y-84.995
X94.67Y-46.075
X94.77Y-46.96
X94.935Y-71.51
X94.965Y-72.22
X94.965Y-72.62
X94.965Y-73.045
X94.965Y-73.455
X94.965Y-73.88
X94.965Y-74.28
X94.965Y-74.705
X94.965Y-75.13
X94.965Y-75.555
X94.965Y-75.955
X94.965Y-76.38
X94.965Y-76.79
X94.965Y-77.215
X94.965Y-77.615
X94.965Y-78.04
X94.965Y-78.46
X94.965Y-78.885
X94.965Y-79.285
X94.965Y-79.71
X94.965Y-80.12
X94.965Y-80.545
X94.965Y-80.945
X94.965Y-81.37
X94.965Y-81.785
X94.965Y-82.205
X94.965Y-82.63
X94.965Y-83.03
X94.965Y-83.455
X94.98Y-83.885
X95.02Y-85.235
X95.07Y-41.265
X95.075Y-40.865
X95.075Y-41.695
X95.075Y-45.935
X95.09Y-40.43
X95.11Y-42.09
X95.165Y-46.85
X95.175Y-71.86
X95.175Y-84.27
X95.175Y-71.175
X95.185Y-40.005
X95.21Y-42.5
X95.35Y-39.615
X95.36Y-42.865
X95.395Y-72.215
X95.395Y-72.615
X95.395Y-73.04
X95.395Y-73.45
X95.395Y-73.875
X95.395Y-74.275
X95.395Y-74.7
X95.395Y-75.125
X95.395Y-75.55
X95.395Y-75.95
X95.395Y-76.375
X95.395Y-76.785
X95.395Y-77.21
X95.395Y-77.61
X95.395Y-78.035
X95.395Y-78.455
X95.395Y-78.88
X95.395Y-79.28
X95.395Y-79.705
X95.395Y-80.115
X95.395Y-80.54
X95.395Y-80.94
X95.395Y-81.365
X95.395Y-81.78
X95.395Y-82.2
X95.395Y-82.625
X95.395Y-83.025
X95.395Y-83.45
X95.415Y-71.51
X95.415Y-83.87
X95.425Y-45.7
X95.44Y-85.35
X95.54Y-84.48
X95.55Y-46.685
X95.58Y-43.245
X95.605Y-39.255
X95.735Y-45.405
X95.81Y-84.105
X95.835Y-85.375
X95.87Y-43.59
X95.885Y-46.47
X95.91Y-38.92
X95.95Y-41.555
X95.955Y-40.755
X95.955Y-41.17
X95.98Y-41.955
X95.985Y-84.5
X96.01Y-40.35
X96.02Y-45.08
X96.09Y-42.33
X96.11Y-38.565
X96.11Y-43.92
X96.16Y-38.18
X96.185Y-39.95
X96.185Y-44.725
X96.2Y-46.185
X96.22Y-44.32
X96.225Y-85.565
X96.265Y-42.66
X96.305Y-84.205
X96.365Y-85.95
X96.37Y-86.35
X96.375Y-86.785
X96.39Y-84.61
X96.465Y-39.625
X96.475Y-87.2
X96.485Y-45.9
X96.505Y-42.965
X96.645Y-87.585
X96.72Y-39.33
X96.74Y-84.83
X96.75Y-45.585
X96.76Y-43.275
X96.77Y-84.4
X96.895Y-87.94
X96.9Y-38.985
X96.94Y-45.23
X96.955Y-43.63
X97.015Y-38.575
X97.035Y-38.18
X97.035Y-85.18
X97.07Y-44.815
X97.075Y-44.01
X97.11Y-44.405
X97.12Y-92.26
X97.125Y-91.82
X97.155Y-84.77
X97.19Y-88.245
X97.205Y-85.61
X97.24Y-86.06
X97.245Y-86.5
X97.27Y-92.655
X97.275Y-91.41
X97.315Y-86.94
X97.49Y-85.25
X97.515Y-88.57
X97.535Y-91.095
X97.535Y-92.965
X97.54Y-87.33
X97.825Y-90.795
X97.835Y-88.885
X97.845Y-93.28
X97.855Y-87.655
X98.01Y-91.905
X98.11Y-92.295
X98.12Y-89.21
X98.125Y-90.465
X98.125Y-93.655
X98.155Y-87.96
X98.25Y-94.065
X98.26Y-94.465
X98.26Y-94.865
X98.26Y-95.29
X98.26Y-95.69
X98.26Y-96.095
X98.26Y-96.52
X98.26Y-96.92
X98.28Y-89.635
X98.285Y-91.59
X98.29Y-90.06
X98.415Y-92.61
X98.455Y-88.245
X98.56Y-91.31
X98.72Y-92.94
X98.75Y-88.58
X98.825Y-91.005
X98.925Y-93.29
X98.99Y-88.965
X99.03Y-90.635
X99.07Y-93.665
X99.135Y-89.39
X99.14Y-94.065
X99.14Y-94.465
X99.14Y-94.865
X99.14Y-95.29
X99.14Y-95.69
X99.14Y-96.095
X99.14Y-96.52
X99.14Y-96.92
X99.15Y-90.245
X99.185Y-89.81
M30
