%TF.GenerationSoftware,KiCad,Pcbnew,8.0.6*%
%TF.CreationDate,2024-12-12T06:35:09+00:00*%
%TF.ProjectId,AWR2243RadarBoard,41575232-3234-4335-9261-646172426f61,rev?*%
%TF.SameCoordinates,Original*%
%TF.FileFunction,Paste,Bot*%
%TF.FilePolarity,Positive*%
%FSLAX46Y46*%
G04 Gerber Fmt 4.6, Leading zero omitted, Abs format (unit mm)*
G04 Created by KiCad (PCBNEW 8.0.6) date 2024-12-12 06:35:09*
%MOMM*%
%LPD*%
G01*
G04 APERTURE LIST*
G04 Aperture macros list*
%AMRoundRect*
0 Rectangle with rounded corners*
0 $1 Rounding radius*
0 $2 $3 $4 $5 $6 $7 $8 $9 X,Y pos of 4 corners*
0 Add a 4 corners polygon primitive as box body*
4,1,4,$2,$3,$4,$5,$6,$7,$8,$9,$2,$3,0*
0 Add four circle primitives for the rounded corners*
1,1,$1+$1,$2,$3*
1,1,$1+$1,$4,$5*
1,1,$1+$1,$6,$7*
1,1,$1+$1,$8,$9*
0 Add four rect primitives between the rounded corners*
20,1,$1+$1,$2,$3,$4,$5,0*
20,1,$1+$1,$4,$5,$6,$7,0*
20,1,$1+$1,$6,$7,$8,$9,0*
20,1,$1+$1,$8,$9,$2,$3,0*%
%AMFreePoly0*
4,1,5,0.187500,-0.537500,-0.187500,-0.537500,-0.187500,0.537500,0.187500,0.537500,0.187500,-0.537500,0.187500,-0.537500,$1*%
G04 Aperture macros list end*
%ADD10RoundRect,0.250000X-1.000000X-0.650000X1.000000X-0.650000X1.000000X0.650000X-1.000000X0.650000X0*%
%ADD11RoundRect,0.250000X-0.325000X-0.650000X0.325000X-0.650000X0.325000X0.650000X-0.325000X0.650000X0*%
%ADD12RoundRect,0.225000X-0.225000X-0.250000X0.225000X-0.250000X0.225000X0.250000X-0.225000X0.250000X0*%
%ADD13RoundRect,0.200000X0.200000X0.275000X-0.200000X0.275000X-0.200000X-0.275000X0.200000X-0.275000X0*%
%ADD14RoundRect,0.200000X-0.200000X-0.275000X0.200000X-0.275000X0.200000X0.275000X-0.200000X0.275000X0*%
%ADD15RoundRect,0.135000X0.185000X-0.135000X0.185000X0.135000X-0.185000X0.135000X-0.185000X-0.135000X0*%
%ADD16RoundRect,0.225000X0.225000X0.250000X-0.225000X0.250000X-0.225000X-0.250000X0.225000X-0.250000X0*%
%ADD17RoundRect,0.250000X0.450000X-0.262500X0.450000X0.262500X-0.450000X0.262500X-0.450000X-0.262500X0*%
%ADD18RoundRect,0.250000X0.375000X0.625000X-0.375000X0.625000X-0.375000X-0.625000X0.375000X-0.625000X0*%
%ADD19RoundRect,0.200000X0.275000X-0.200000X0.275000X0.200000X-0.275000X0.200000X-0.275000X-0.200000X0*%
%ADD20RoundRect,0.200000X-0.275000X0.200000X-0.275000X-0.200000X0.275000X-0.200000X0.275000X0.200000X0*%
%ADD21RoundRect,0.250000X0.650000X-0.325000X0.650000X0.325000X-0.650000X0.325000X-0.650000X-0.325000X0*%
%ADD22RoundRect,0.218750X-0.381250X0.218750X-0.381250X-0.218750X0.381250X-0.218750X0.381250X0.218750X0*%
%ADD23RoundRect,0.250000X1.075000X-0.375000X1.075000X0.375000X-1.075000X0.375000X-1.075000X-0.375000X0*%
%ADD24RoundRect,0.250000X0.325000X0.650000X-0.325000X0.650000X-0.325000X-0.650000X0.325000X-0.650000X0*%
%ADD25RoundRect,0.140000X-0.170000X0.140000X-0.170000X-0.140000X0.170000X-0.140000X0.170000X0.140000X0*%
%ADD26RoundRect,0.250000X0.250000X0.475000X-0.250000X0.475000X-0.250000X-0.475000X0.250000X-0.475000X0*%
%ADD27RoundRect,0.225000X-0.250000X0.225000X-0.250000X-0.225000X0.250000X-0.225000X0.250000X0.225000X0*%
%ADD28RoundRect,0.250000X0.850000X-0.375000X0.850000X0.375000X-0.850000X0.375000X-0.850000X-0.375000X0*%
%ADD29RoundRect,0.250000X-0.250000X-0.475000X0.250000X-0.475000X0.250000X0.475000X-0.250000X0.475000X0*%
%ADD30RoundRect,0.250000X0.312500X0.625000X-0.312500X0.625000X-0.312500X-0.625000X0.312500X-0.625000X0*%
%ADD31RoundRect,0.225000X-0.375000X0.225000X-0.375000X-0.225000X0.375000X-0.225000X0.375000X0.225000X0*%
%ADD32RoundRect,0.225000X0.250000X-0.225000X0.250000X0.225000X-0.250000X0.225000X-0.250000X-0.225000X0*%
%ADD33RoundRect,0.150000X0.200000X-0.150000X0.200000X0.150000X-0.200000X0.150000X-0.200000X-0.150000X0*%
%ADD34R,0.610000X2.000000*%
%ADD35R,2.680000X3.600000*%
%ADD36RoundRect,0.140000X0.170000X-0.140000X0.170000X0.140000X-0.170000X0.140000X-0.170000X-0.140000X0*%
%ADD37RoundRect,0.150000X-0.200000X0.150000X-0.200000X-0.150000X0.200000X-0.150000X0.200000X0.150000X0*%
%ADD38RoundRect,0.243750X0.456250X-0.243750X0.456250X0.243750X-0.456250X0.243750X-0.456250X-0.243750X0*%
%ADD39RoundRect,0.250000X0.475000X-0.250000X0.475000X0.250000X-0.475000X0.250000X-0.475000X-0.250000X0*%
%ADD40RoundRect,0.250000X-0.375000X-1.075000X0.375000X-1.075000X0.375000X1.075000X-0.375000X1.075000X0*%
%ADD41RoundRect,0.250000X-0.650000X0.325000X-0.650000X-0.325000X0.650000X-0.325000X0.650000X0.325000X0*%
%ADD42R,0.450000X0.400000*%
%ADD43FreePoly0,180.000000*%
%ADD44R,0.950000X0.250000*%
%ADD45R,1.050000X0.250000*%
%ADD46R,1.500000X0.250000*%
%ADD47R,0.250000X0.950000*%
%ADD48R,0.250000X1.400000*%
%ADD49R,0.250000X1.850000*%
%ADD50R,0.800000X2.200000*%
%ADD51RoundRect,0.140000X-0.140000X-0.170000X0.140000X-0.170000X0.140000X0.170000X-0.140000X0.170000X0*%
%ADD52RoundRect,0.249999X0.700001X-0.387501X0.700001X0.387501X-0.700001X0.387501X-0.700001X-0.387501X0*%
%ADD53R,0.300000X1.300000*%
%ADD54R,1.800000X2.200000*%
%ADD55RoundRect,0.150000X0.150000X0.200000X-0.150000X0.200000X-0.150000X-0.200000X0.150000X-0.200000X0*%
%ADD56RoundRect,0.218750X0.218750X0.381250X-0.218750X0.381250X-0.218750X-0.381250X0.218750X-0.381250X0*%
%ADD57RoundRect,0.218750X-0.218750X-0.381250X0.218750X-0.381250X0.218750X0.381250X-0.218750X0.381250X0*%
%ADD58RoundRect,0.250000X-0.850000X0.375000X-0.850000X-0.375000X0.850000X-0.375000X0.850000X0.375000X0*%
%ADD59RoundRect,0.150000X-0.675000X-0.150000X0.675000X-0.150000X0.675000X0.150000X-0.675000X0.150000X0*%
%ADD60RoundRect,0.150000X0.587500X0.150000X-0.587500X0.150000X-0.587500X-0.150000X0.587500X-0.150000X0*%
%ADD61RoundRect,0.218750X0.381250X-0.218750X0.381250X0.218750X-0.381250X0.218750X-0.381250X-0.218750X0*%
%ADD62R,0.600000X0.600000*%
%ADD63R,0.400000X0.400000*%
%ADD64R,1.475000X0.450000*%
%ADD65RoundRect,0.250000X-0.475000X0.250000X-0.475000X-0.250000X0.475000X-0.250000X0.475000X0.250000X0*%
%ADD66RoundRect,0.150000X-0.150000X-0.200000X0.150000X-0.200000X0.150000X0.200000X-0.150000X0.200000X0*%
%ADD67RoundRect,0.218750X-0.218750X-0.256250X0.218750X-0.256250X0.218750X0.256250X-0.218750X0.256250X0*%
G04 APERTURE END LIST*
D10*
%TO.C,D12*%
X81875000Y-49450000D03*
X85875000Y-49450000D03*
%TD*%
D11*
%TO.C,C41*%
X39855000Y-50610000D03*
X42805000Y-50610000D03*
%TD*%
D12*
%TO.C,C149*%
X103480000Y-91075000D03*
X105030000Y-91075000D03*
%TD*%
D13*
%TO.C,R131*%
X105080000Y-89600000D03*
X103430000Y-89600000D03*
%TD*%
D14*
%TO.C,R90*%
X116190000Y-59890000D03*
X117840000Y-59890000D03*
%TD*%
D15*
%TO.C,R11*%
X73450000Y-49466250D03*
X73450000Y-48446250D03*
%TD*%
D16*
%TO.C,C65*%
X67870000Y-72860000D03*
X66320000Y-72860000D03*
%TD*%
%TO.C,C148*%
X91855000Y-91000000D03*
X90305000Y-91000000D03*
%TD*%
D17*
%TO.C,R52*%
X57575000Y-49137500D03*
X57575000Y-47312500D03*
%TD*%
D15*
%TO.C,R3*%
X65875000Y-49466250D03*
X65875000Y-48446250D03*
%TD*%
D18*
%TO.C,F4*%
X90300000Y-46300000D03*
X87500000Y-46300000D03*
%TD*%
D19*
%TO.C,R145*%
X36640000Y-84100000D03*
X36640000Y-82450000D03*
%TD*%
D20*
%TO.C,R69*%
X37270000Y-62125000D03*
X37270000Y-63775000D03*
%TD*%
D21*
%TO.C,C60*%
X80050000Y-73325000D03*
X80050000Y-70375000D03*
%TD*%
D22*
%TO.C,FB7*%
X77070000Y-65407500D03*
X77070000Y-67532500D03*
%TD*%
D16*
%TO.C,C56*%
X100475000Y-65550000D03*
X98925000Y-65550000D03*
%TD*%
D14*
%TO.C,R134*%
X70380000Y-85770000D03*
X72030000Y-85770000D03*
%TD*%
D12*
%TO.C,C106*%
X98785000Y-71310000D03*
X100335000Y-71310000D03*
%TD*%
D23*
%TO.C,L10*%
X79225000Y-77975000D03*
X79225000Y-75175000D03*
%TD*%
D24*
%TO.C,C38*%
X47495000Y-48310000D03*
X44545000Y-48310000D03*
%TD*%
D25*
%TO.C,C101*%
X63950001Y-71820000D03*
X63950001Y-72780000D03*
%TD*%
D15*
%TO.C,R6*%
X68710000Y-49460000D03*
X68710000Y-48440000D03*
%TD*%
D26*
%TO.C,C19*%
X51300000Y-59695000D03*
X49400000Y-59695000D03*
%TD*%
D20*
%TO.C,R80*%
X96210000Y-51055000D03*
X96210000Y-52705000D03*
%TD*%
D27*
%TO.C,C80*%
X57020000Y-62105000D03*
X57020000Y-63655000D03*
%TD*%
D14*
%TO.C,R120*%
X116300000Y-82200000D03*
X117950000Y-82200000D03*
%TD*%
D15*
%TO.C,R2*%
X64925000Y-49466250D03*
X64925000Y-48446250D03*
%TD*%
%TO.C,R13*%
X75350000Y-49466250D03*
X75350000Y-48446250D03*
%TD*%
D28*
%TO.C,L1*%
X40930000Y-54915000D03*
X40930000Y-52765000D03*
%TD*%
D24*
%TO.C,C35*%
X47565000Y-70310000D03*
X44615000Y-70310000D03*
%TD*%
D16*
%TO.C,C51*%
X60565000Y-65110000D03*
X59015000Y-65110000D03*
%TD*%
D12*
%TO.C,C132*%
X94875000Y-74300000D03*
X96425000Y-74300000D03*
%TD*%
D19*
%TO.C,R146*%
X36650000Y-88775000D03*
X36650000Y-87125000D03*
%TD*%
D20*
%TO.C,R56*%
X37260000Y-52965000D03*
X37260000Y-54615000D03*
%TD*%
D16*
%TO.C,C67*%
X92850000Y-72850000D03*
X91300000Y-72850000D03*
%TD*%
D12*
%TO.C,C70*%
X75655000Y-63820000D03*
X77205000Y-63820000D03*
%TD*%
D15*
%TO.C,R5*%
X67765000Y-49460000D03*
X67765000Y-48440000D03*
%TD*%
D16*
%TO.C,C12*%
X50915000Y-65015000D03*
X49365000Y-65015000D03*
%TD*%
D13*
%TO.C,R118*%
X111155000Y-75330000D03*
X109505000Y-75330000D03*
%TD*%
D29*
%TO.C,C24*%
X82100000Y-36775000D03*
X84000000Y-36775000D03*
%TD*%
D13*
%TO.C,R116*%
X111155000Y-73870000D03*
X109505000Y-73870000D03*
%TD*%
D12*
%TO.C,C107*%
X100675000Y-64020000D03*
X102225000Y-64020000D03*
%TD*%
D30*
%TO.C,R63*%
X85637500Y-46325000D03*
X82712500Y-46325000D03*
%TD*%
D15*
%TO.C,R14*%
X76300000Y-49466250D03*
X76300000Y-48446250D03*
%TD*%
D13*
%TO.C,R126*%
X50985000Y-87535000D03*
X49335000Y-87535000D03*
%TD*%
D31*
%TO.C,D5*%
X59750000Y-45900000D03*
X59750000Y-49200000D03*
%TD*%
D15*
%TO.C,R10*%
X72500000Y-49466250D03*
X72500000Y-48446250D03*
%TD*%
D32*
%TO.C,C75*%
X58760000Y-71415000D03*
X58760000Y-69865000D03*
%TD*%
D33*
%TO.C,D1*%
X100380000Y-48102500D03*
X100380000Y-49502500D03*
%TD*%
D34*
%TO.C,J4*%
X90400000Y-42350000D03*
X91400000Y-42350000D03*
X92400000Y-42350000D03*
X93400000Y-42350000D03*
X94400000Y-42350000D03*
X95400000Y-42350000D03*
X96400000Y-42350000D03*
X97400000Y-42350000D03*
X98400000Y-42350000D03*
X99400000Y-42350000D03*
X100400000Y-42350000D03*
X101400000Y-42350000D03*
X102400000Y-42350000D03*
X103400000Y-42350000D03*
X104400000Y-42350000D03*
D35*
X87410000Y-39550000D03*
X107390000Y-39550000D03*
%TD*%
D36*
%TO.C,C134*%
X91925000Y-70190000D03*
X91925000Y-69230000D03*
%TD*%
D37*
%TO.C,D7*%
X109390000Y-94255000D03*
X109390000Y-92855000D03*
%TD*%
D21*
%TO.C,C27*%
X62845000Y-56945000D03*
X62845000Y-53995000D03*
%TD*%
D15*
%TO.C,R37*%
X97275000Y-49250000D03*
X97275000Y-48230000D03*
%TD*%
D38*
%TO.C,F1*%
X61925000Y-49162500D03*
X61925000Y-47287500D03*
%TD*%
D27*
%TO.C,C112*%
X85035000Y-71875000D03*
X85035000Y-73425000D03*
%TD*%
D14*
%TO.C,R95*%
X113305000Y-72320000D03*
X114955000Y-72320000D03*
%TD*%
D24*
%TO.C,C39*%
X47565000Y-72610000D03*
X44615000Y-72610000D03*
%TD*%
D21*
%TO.C,C45*%
X61350000Y-61575000D03*
X61350000Y-58625000D03*
%TD*%
D13*
%TO.C,R130*%
X72030000Y-87240000D03*
X70380000Y-87240000D03*
%TD*%
D20*
%TO.C,R68*%
X37270000Y-65145000D03*
X37270000Y-66795000D03*
%TD*%
D14*
%TO.C,R76*%
X113130000Y-54330000D03*
X114780000Y-54330000D03*
%TD*%
D27*
%TO.C,C95*%
X60325001Y-71900000D03*
X60325001Y-73450000D03*
%TD*%
D15*
%TO.C,R43*%
X104525000Y-49345000D03*
X104525000Y-48325000D03*
%TD*%
D14*
%TO.C,R93*%
X113225000Y-61350000D03*
X114875000Y-61350000D03*
%TD*%
D27*
%TO.C,C117*%
X81750000Y-62075000D03*
X81750000Y-63625000D03*
%TD*%
D36*
%TO.C,C103*%
X67200000Y-70130000D03*
X67200000Y-69170000D03*
%TD*%
D15*
%TO.C,R1*%
X63975000Y-49466250D03*
X63975000Y-48446250D03*
%TD*%
D39*
%TO.C,C29*%
X64975000Y-57025000D03*
X64975000Y-55125000D03*
%TD*%
D12*
%TO.C,C146*%
X83775000Y-84200000D03*
X85325000Y-84200000D03*
%TD*%
D23*
%TO.C,L7*%
X52400000Y-72810000D03*
X52400000Y-70010000D03*
%TD*%
D27*
%TO.C,C114*%
X98040000Y-72775000D03*
X98040000Y-74325000D03*
%TD*%
D14*
%TO.C,R129*%
X70375000Y-88700000D03*
X72025000Y-88700000D03*
%TD*%
D12*
%TO.C,C68*%
X82025000Y-73425000D03*
X83575000Y-73425000D03*
%TD*%
D14*
%TO.C,R111*%
X116295000Y-79280000D03*
X117945000Y-79280000D03*
%TD*%
D25*
%TO.C,C113*%
X90625000Y-64870000D03*
X90625000Y-65830000D03*
%TD*%
D14*
%TO.C,R136*%
X103430000Y-85175000D03*
X105080000Y-85175000D03*
%TD*%
D36*
%TO.C,C100*%
X66280000Y-70130000D03*
X66280000Y-69170000D03*
%TD*%
D21*
%TO.C,C43*%
X49620000Y-72905000D03*
X49620000Y-69955000D03*
%TD*%
D40*
%TO.C,L6*%
X56510000Y-59800000D03*
X59310000Y-59800000D03*
%TD*%
D12*
%TO.C,C96*%
X70135000Y-74300000D03*
X71685000Y-74300000D03*
%TD*%
D14*
%TO.C,R114*%
X113340000Y-80740000D03*
X114990000Y-80740000D03*
%TD*%
D25*
%TO.C,C131*%
X93220000Y-65040000D03*
X93220000Y-66000000D03*
%TD*%
D14*
%TO.C,R99*%
X113310000Y-75240000D03*
X114960000Y-75240000D03*
%TD*%
D16*
%TO.C,C83*%
X62465000Y-67100000D03*
X60915000Y-67100000D03*
%TD*%
D28*
%TO.C,L2*%
X46510000Y-54945000D03*
X46510000Y-52795000D03*
%TD*%
D20*
%TO.C,R44*%
X100350000Y-51025000D03*
X100350000Y-52675000D03*
%TD*%
D26*
%TO.C,C53*%
X75464999Y-67225000D03*
X73564999Y-67225000D03*
%TD*%
D29*
%TO.C,C145*%
X78915000Y-81720000D03*
X80815000Y-81720000D03*
%TD*%
D25*
%TO.C,C99*%
X63025001Y-71820000D03*
X63025001Y-72780000D03*
%TD*%
D12*
%TO.C,C143*%
X62085000Y-92010000D03*
X63635000Y-92010000D03*
%TD*%
D25*
%TO.C,C74*%
X69650000Y-65590000D03*
X69650000Y-66550000D03*
%TD*%
D32*
%TO.C,C122*%
X88110000Y-65515000D03*
X88110000Y-63965000D03*
%TD*%
D29*
%TO.C,C47*%
X59970000Y-63390000D03*
X61870000Y-63390000D03*
%TD*%
D40*
%TO.C,L8*%
X89870000Y-77140000D03*
X92670000Y-77140000D03*
%TD*%
D36*
%TO.C,C128*%
X90075000Y-70205000D03*
X90075000Y-69245000D03*
%TD*%
%TO.C,C135*%
X91000000Y-70200000D03*
X91000000Y-69240000D03*
%TD*%
D16*
%TO.C,C142*%
X50935000Y-91960000D03*
X49385000Y-91960000D03*
%TD*%
D36*
%TO.C,C90*%
X69050001Y-70110000D03*
X69050001Y-69150000D03*
%TD*%
D27*
%TO.C,C119*%
X83210000Y-62075000D03*
X83210000Y-63625000D03*
%TD*%
D15*
%TO.C,R38*%
X98270000Y-49240000D03*
X98270000Y-48220000D03*
%TD*%
D12*
%TO.C,C147*%
X83775000Y-85660000D03*
X85325000Y-85660000D03*
%TD*%
D14*
%TO.C,R94*%
X116185000Y-61350000D03*
X117835000Y-61350000D03*
%TD*%
D11*
%TO.C,C59*%
X95005000Y-76190000D03*
X97955000Y-76190000D03*
%TD*%
D15*
%TO.C,R9*%
X71550000Y-49466250D03*
X71550000Y-48446250D03*
%TD*%
D13*
%TO.C,R141*%
X91900000Y-89540000D03*
X90250000Y-89540000D03*
%TD*%
D11*
%TO.C,C37*%
X39855000Y-48310000D03*
X42805000Y-48310000D03*
%TD*%
D29*
%TO.C,C62*%
X57260000Y-75160000D03*
X59160000Y-75160000D03*
%TD*%
D20*
%TO.C,R71*%
X37270000Y-59075000D03*
X37270000Y-60725000D03*
%TD*%
D14*
%TO.C,R72*%
X113130000Y-51410000D03*
X114780000Y-51410000D03*
%TD*%
%TO.C,R133*%
X70390000Y-84300000D03*
X72040000Y-84300000D03*
%TD*%
D36*
%TO.C,C136*%
X92850000Y-70190000D03*
X92850000Y-69230000D03*
%TD*%
D13*
%TO.C,R113*%
X111155000Y-76800000D03*
X109505000Y-76800000D03*
%TD*%
%TO.C,R57*%
X50995000Y-54540000D03*
X49345000Y-54540000D03*
%TD*%
D11*
%TO.C,C36*%
X40015000Y-70305000D03*
X42965000Y-70305000D03*
%TD*%
D12*
%TO.C,C71*%
X72420000Y-68985000D03*
X73970000Y-68985000D03*
%TD*%
D13*
%TO.C,R137*%
X91905000Y-88075000D03*
X90255000Y-88075000D03*
%TD*%
D12*
%TO.C,C108*%
X96175000Y-63700000D03*
X97725000Y-63700000D03*
%TD*%
D27*
%TO.C,C97*%
X61825001Y-71925000D03*
X61825001Y-73475000D03*
%TD*%
D41*
%TO.C,C33*%
X37790000Y-47995000D03*
X37790000Y-50945000D03*
%TD*%
D25*
%TO.C,C127*%
X89300000Y-64870000D03*
X89300000Y-65830000D03*
%TD*%
D14*
%TO.C,R55*%
X92315000Y-51935000D03*
X93965000Y-51935000D03*
%TD*%
D16*
%TO.C,C55*%
X75515000Y-65450000D03*
X73965000Y-65450000D03*
%TD*%
D14*
%TO.C,R85*%
X116190000Y-58430000D03*
X117840000Y-58430000D03*
%TD*%
D19*
%TO.C,R109*%
X111160000Y-70325000D03*
X111160000Y-68675000D03*
%TD*%
D13*
%TO.C,R140*%
X78800000Y-89570000D03*
X77150000Y-89570000D03*
%TD*%
D42*
%TO.C,U1*%
X41265000Y-62540000D03*
D43*
X41677500Y-62877500D03*
D44*
X41515000Y-61965000D03*
D45*
X41565000Y-61465000D03*
D46*
X41790000Y-60965000D03*
X41790000Y-60465000D03*
X41790000Y-59965000D03*
D45*
X41565000Y-59465000D03*
D44*
X41515000Y-58965000D03*
D42*
X41265000Y-58390000D03*
D43*
X41677500Y-58052500D03*
D47*
X42240000Y-57990000D03*
D48*
X42740000Y-58215000D03*
X43240000Y-58215000D03*
D49*
X43740000Y-58440000D03*
D50*
X43740000Y-60465000D03*
D49*
X43740000Y-62490000D03*
D48*
X44240000Y-58215000D03*
X44740000Y-58215000D03*
D47*
X45240000Y-57990000D03*
D43*
X45802500Y-58052500D03*
D42*
X46215000Y-58390000D03*
D44*
X45965000Y-58965000D03*
D45*
X45915000Y-59465000D03*
D46*
X45690000Y-59965000D03*
X45690000Y-60465000D03*
X45690000Y-60965000D03*
D45*
X45915000Y-61465000D03*
D44*
X45965000Y-61965000D03*
D43*
X45802500Y-62877500D03*
D42*
X46215000Y-62540000D03*
D47*
X45240000Y-62940000D03*
D48*
X44740000Y-62715000D03*
X44240000Y-62715000D03*
X43240000Y-62715000D03*
X42740000Y-62715000D03*
D47*
X42240000Y-62940000D03*
%TD*%
D15*
%TO.C,R7*%
X69650000Y-49466250D03*
X69650000Y-48446250D03*
%TD*%
D32*
%TO.C,C73*%
X57220000Y-71405000D03*
X57220000Y-69855000D03*
%TD*%
D14*
%TO.C,R119*%
X113340000Y-82200000D03*
X114990000Y-82200000D03*
%TD*%
D15*
%TO.C,R42*%
X103525000Y-49345000D03*
X103525000Y-48325000D03*
%TD*%
D51*
%TO.C,C93*%
X63610000Y-66650000D03*
X64570000Y-66650000D03*
%TD*%
D15*
%TO.C,R36*%
X96270000Y-49260000D03*
X96270000Y-48240000D03*
%TD*%
D14*
%TO.C,R139*%
X103430000Y-88125000D03*
X105080000Y-88125000D03*
%TD*%
D40*
%TO.C,L9*%
X65000000Y-77190000D03*
X67800000Y-77190000D03*
%TD*%
D16*
%TO.C,C120*%
X87235000Y-66990000D03*
X85685000Y-66990000D03*
%TD*%
D52*
%TO.C,FB4*%
X83500000Y-43087500D03*
X83500000Y-38862500D03*
%TD*%
D14*
%TO.C,R127*%
X62035000Y-89060000D03*
X63685000Y-89060000D03*
%TD*%
D53*
%TO.C,J1*%
X64850000Y-42950000D03*
X65350000Y-42950000D03*
X65850000Y-42950000D03*
X66350000Y-42950000D03*
X66850000Y-42950000D03*
X67350000Y-42950000D03*
X67850000Y-42950000D03*
X68350000Y-42950000D03*
X68850000Y-42950000D03*
X69350000Y-42950000D03*
X69850000Y-42950000D03*
X70350000Y-42950000D03*
X70850000Y-42950000D03*
X71350000Y-42950000D03*
X71850000Y-42950000D03*
X72350000Y-42950000D03*
X72850000Y-42950000D03*
X73350000Y-42950000D03*
X73850000Y-42950000D03*
X74350000Y-42950000D03*
X74850000Y-42950000D03*
X75350000Y-42950000D03*
D54*
X62950000Y-39700000D03*
X77250000Y-39700000D03*
%TD*%
D21*
%TO.C,C44*%
X37970000Y-72935000D03*
X37970000Y-69985000D03*
%TD*%
D12*
%TO.C,C133*%
X96525000Y-78070000D03*
X98075000Y-78070000D03*
%TD*%
D14*
%TO.C,R77*%
X116090000Y-54330000D03*
X117740000Y-54330000D03*
%TD*%
D36*
%TO.C,C102*%
X68120000Y-70120000D03*
X68120000Y-69160000D03*
%TD*%
D27*
%TO.C,C110*%
X86500000Y-71875000D03*
X86500000Y-73425000D03*
%TD*%
D14*
%TO.C,R96*%
X116270000Y-72320000D03*
X117920000Y-72320000D03*
%TD*%
D27*
%TO.C,C77*%
X73120000Y-72775000D03*
X73120000Y-74325000D03*
%TD*%
D55*
%TO.C,D8*%
X89495000Y-51905000D03*
X90895000Y-51905000D03*
%TD*%
D25*
%TO.C,C126*%
X88625000Y-71770000D03*
X88625000Y-72730000D03*
%TD*%
D12*
%TO.C,C66*%
X57215000Y-73360000D03*
X58765000Y-73360000D03*
%TD*%
D19*
%TO.C,R82*%
X107475000Y-52960000D03*
X107475000Y-51310000D03*
%TD*%
D15*
%TO.C,R41*%
X102525000Y-49345000D03*
X102525000Y-48325000D03*
%TD*%
%TO.C,R39*%
X99210000Y-49240000D03*
X99210000Y-48220000D03*
%TD*%
D39*
%TO.C,C3*%
X57400000Y-40375000D03*
X57400000Y-38475000D03*
%TD*%
D21*
%TO.C,C1*%
X57375000Y-45625000D03*
X57375000Y-42675000D03*
%TD*%
D56*
%TO.C,FB8*%
X104592500Y-65625000D03*
X102467500Y-65625000D03*
%TD*%
D14*
%TO.C,R132*%
X90255000Y-85125000D03*
X91905000Y-85125000D03*
%TD*%
%TO.C,R73*%
X116090000Y-51410000D03*
X117740000Y-51410000D03*
%TD*%
D26*
%TO.C,C144*%
X77245000Y-81700000D03*
X75345000Y-81700000D03*
%TD*%
D14*
%TO.C,R89*%
X113225000Y-59890000D03*
X114875000Y-59890000D03*
%TD*%
D57*
%TO.C,FB6*%
X84487500Y-56900000D03*
X86612500Y-56900000D03*
%TD*%
D15*
%TO.C,R4*%
X66825000Y-49466250D03*
X66825000Y-48446250D03*
%TD*%
D58*
%TO.C,L3*%
X46530000Y-66075000D03*
X46530000Y-68225000D03*
%TD*%
D16*
%TO.C,C14*%
X50915000Y-63540000D03*
X49365000Y-63540000D03*
%TD*%
D25*
%TO.C,C76*%
X65940000Y-64820000D03*
X65940000Y-65780000D03*
%TD*%
D14*
%TO.C,R75*%
X116095000Y-52870000D03*
X117745000Y-52870000D03*
%TD*%
%TO.C,R115*%
X116300000Y-80740000D03*
X117950000Y-80740000D03*
%TD*%
D59*
%TO.C,U2*%
X53935000Y-90890000D03*
X53935000Y-89620000D03*
X53935000Y-88350000D03*
X53935000Y-87080000D03*
X59185000Y-87080000D03*
X59185000Y-88350000D03*
X59185000Y-89620000D03*
X59185000Y-90890000D03*
%TD*%
D60*
%TO.C,Q2*%
X109277500Y-68510000D03*
X109277500Y-70410000D03*
X107402500Y-69460000D03*
%TD*%
D59*
%TO.C,U3*%
X95080000Y-89940000D03*
X95080000Y-88670000D03*
X95080000Y-87400000D03*
X95080000Y-86130000D03*
X100330000Y-86130000D03*
X100330000Y-87400000D03*
X100330000Y-88670000D03*
X100330000Y-89940000D03*
%TD*%
D41*
%TO.C,C58*%
X55230000Y-71395000D03*
X55230000Y-74345000D03*
%TD*%
D14*
%TO.C,R122*%
X49335000Y-86060000D03*
X50985000Y-86060000D03*
%TD*%
%TO.C,R100*%
X116270000Y-75240000D03*
X117920000Y-75240000D03*
%TD*%
D13*
%TO.C,R138*%
X91905000Y-86600000D03*
X90255000Y-86600000D03*
%TD*%
D14*
%TO.C,R143*%
X83725000Y-87120000D03*
X85375000Y-87120000D03*
%TD*%
D58*
%TO.C,L4*%
X40860000Y-66065000D03*
X40860000Y-68215000D03*
%TD*%
D12*
%TO.C,C11*%
X49395000Y-56000000D03*
X50945000Y-56000000D03*
%TD*%
D19*
%TO.C,R144*%
X36670000Y-79375000D03*
X36670000Y-77725000D03*
%TD*%
D14*
%TO.C,R135*%
X103430000Y-86650000D03*
X105080000Y-86650000D03*
%TD*%
D21*
%TO.C,C18*%
X80400000Y-43125000D03*
X80400000Y-40175000D03*
%TD*%
D61*
%TO.C,FB1*%
X59725000Y-44287500D03*
X59725000Y-42162500D03*
%TD*%
D16*
%TO.C,C20*%
X50925000Y-61545000D03*
X49375000Y-61545000D03*
%TD*%
D36*
%TO.C,C86*%
X65350000Y-70130000D03*
X65350000Y-69170000D03*
%TD*%
D62*
%TO.C,C15*%
X42940000Y-65015000D03*
D63*
X43740000Y-64615000D03*
X43740000Y-65415000D03*
D62*
X44540000Y-65015000D03*
%TD*%
D14*
%TO.C,R84*%
X113230000Y-58430000D03*
X114880000Y-58430000D03*
%TD*%
D20*
%TO.C,R70*%
X37260000Y-56045000D03*
X37260000Y-57695000D03*
%TD*%
D39*
%TO.C,C5*%
X59750000Y-40375000D03*
X59750000Y-38475000D03*
%TD*%
D27*
%TO.C,C31*%
X63240000Y-58505000D03*
X63240000Y-60055000D03*
%TD*%
D12*
%TO.C,C13*%
X49395000Y-57475000D03*
X50945000Y-57475000D03*
%TD*%
D25*
%TO.C,C115*%
X87700000Y-71770000D03*
X87700000Y-72730000D03*
%TD*%
D14*
%TO.C,R98*%
X116275000Y-73780000D03*
X117925000Y-73780000D03*
%TD*%
D29*
%TO.C,C64*%
X81625000Y-75250000D03*
X83525000Y-75250000D03*
%TD*%
D27*
%TO.C,C82*%
X58480000Y-62105000D03*
X58480000Y-63655000D03*
%TD*%
D14*
%TO.C,R142*%
X83725000Y-88580000D03*
X85375000Y-88580000D03*
%TD*%
D25*
%TO.C,C124*%
X94475000Y-65470000D03*
X94475000Y-66430000D03*
%TD*%
D13*
%TO.C,R112*%
X111155000Y-71960000D03*
X109505000Y-71960000D03*
%TD*%
D64*
%TO.C,IC3*%
X75042000Y-87455000D03*
X75042000Y-86805000D03*
X75042000Y-86155000D03*
X75042000Y-85505000D03*
X80918000Y-85505000D03*
X80918000Y-86155000D03*
X80918000Y-86805000D03*
X80918000Y-87455000D03*
%TD*%
D14*
%TO.C,R124*%
X62035000Y-86110000D03*
X63685000Y-86110000D03*
%TD*%
D24*
%TO.C,C34*%
X47495000Y-50635000D03*
X44545000Y-50635000D03*
%TD*%
D51*
%TO.C,C130*%
X88370000Y-66720000D03*
X89330000Y-66720000D03*
%TD*%
D19*
%TO.C,R54*%
X109380000Y-91520000D03*
X109380000Y-89870000D03*
%TD*%
D32*
%TO.C,C137*%
X81975000Y-71900000D03*
X81975000Y-70350000D03*
%TD*%
D15*
%TO.C,R12*%
X74400000Y-49466250D03*
X74400000Y-48446250D03*
%TD*%
D14*
%TO.C,R97*%
X113310000Y-73780000D03*
X114960000Y-73780000D03*
%TD*%
D12*
%TO.C,C98*%
X71785000Y-78070000D03*
X73335000Y-78070000D03*
%TD*%
D24*
%TO.C,C50*%
X101850000Y-69425000D03*
X98900000Y-69425000D03*
%TD*%
D11*
%TO.C,C40*%
X40015000Y-72610000D03*
X42965000Y-72610000D03*
%TD*%
D14*
%TO.C,R123*%
X62035000Y-87585000D03*
X63685000Y-87585000D03*
%TD*%
D65*
%TO.C,C26*%
X80225000Y-36550000D03*
X80225000Y-38450000D03*
%TD*%
D13*
%TO.C,R128*%
X50985000Y-90485000D03*
X49335000Y-90485000D03*
%TD*%
D27*
%TO.C,C32*%
X88870000Y-58455000D03*
X88870000Y-60005000D03*
%TD*%
D21*
%TO.C,C28*%
X88450000Y-56925000D03*
X88450000Y-53975000D03*
%TD*%
D25*
%TO.C,C88*%
X64550001Y-64795000D03*
X64550001Y-65755000D03*
%TD*%
D40*
%TO.C,L5*%
X82140000Y-59770000D03*
X84940000Y-59770000D03*
%TD*%
D24*
%TO.C,C49*%
X76945000Y-70910000D03*
X73995000Y-70910000D03*
%TD*%
D26*
%TO.C,C54*%
X100450000Y-67275000D03*
X98550000Y-67275000D03*
%TD*%
D32*
%TO.C,C85*%
X63350000Y-65485000D03*
X63350000Y-63935000D03*
%TD*%
D10*
%TO.C,D10*%
X89125000Y-49450000D03*
X93125000Y-49450000D03*
%TD*%
D11*
%TO.C,C57*%
X70265000Y-76190000D03*
X73215000Y-76190000D03*
%TD*%
D36*
%TO.C,C123*%
X93775000Y-70205000D03*
X93775000Y-69245000D03*
%TD*%
D13*
%TO.C,R125*%
X50985000Y-89010000D03*
X49335000Y-89010000D03*
%TD*%
D26*
%TO.C,C61*%
X67820000Y-74570000D03*
X65920000Y-74570000D03*
%TD*%
D66*
%TO.C,D3*%
X60400000Y-50675000D03*
X59000000Y-50675000D03*
%TD*%
D19*
%TO.C,R78*%
X98300000Y-52695000D03*
X98300000Y-51045000D03*
%TD*%
D21*
%TO.C,C46*%
X86975000Y-61525000D03*
X86975000Y-58575000D03*
%TD*%
D14*
%TO.C,R74*%
X113110000Y-52870000D03*
X114760000Y-52870000D03*
%TD*%
%TO.C,R110*%
X113335000Y-79280000D03*
X114985000Y-79280000D03*
%TD*%
D39*
%TO.C,C30*%
X90600000Y-57000000D03*
X90600000Y-55100000D03*
%TD*%
D26*
%TO.C,C63*%
X92800000Y-74575000D03*
X90900000Y-74575000D03*
%TD*%
D57*
%TO.C,FB5*%
X58877500Y-56920000D03*
X61002500Y-56920000D03*
%TD*%
D13*
%TO.C,R121*%
X63685000Y-90535000D03*
X62035000Y-90535000D03*
%TD*%
D21*
%TO.C,C42*%
X49560000Y-50935000D03*
X49560000Y-47985000D03*
%TD*%
D32*
%TO.C,C138*%
X83450000Y-71900000D03*
X83450000Y-70350000D03*
%TD*%
D25*
%TO.C,C94*%
X68500001Y-65010000D03*
X68500001Y-65970000D03*
%TD*%
D29*
%TO.C,C48*%
X84700000Y-63350000D03*
X86600000Y-63350000D03*
%TD*%
D15*
%TO.C,R40*%
X101570000Y-49340000D03*
X101570000Y-48320000D03*
%TD*%
%TO.C,R8*%
X70600000Y-49466250D03*
X70600000Y-48446250D03*
%TD*%
D62*
%TO.C,C16*%
X42940000Y-55865000D03*
D63*
X43740000Y-55465000D03*
X43740000Y-56265000D03*
D62*
X44540000Y-55865000D03*
%TD*%
D16*
%TO.C,C52*%
X85685000Y-65080000D03*
X84135000Y-65080000D03*
%TD*%
D67*
%TO.C,FB9*%
X77237500Y-83570000D03*
X78812500Y-83570000D03*
%TD*%
M02*
