M48
; DRILL file {KiCad 8.0.6} date 2024-12-12T06:40:47+0000
; FORMAT={-:-/ absolute / metric / decimal}
; #@! TF.CreationDate,2024-12-12T06:40:47+00:00
; #@! TF.GenerationSoftware,Kicad,Pcbnew,8.0.6
; #@! TF.FileFunction,Plated,1,6,PTH
FMAT,2
METRIC
; #@! TA.AperFunction,Plated,PTH,ViaDrill
T1C0.250
; #@! TA.AperFunction,Plated,PTH,ViaDrill
T2C0.300
; #@! TA.AperFunction,Plated,PTH,ComponentDrill
T3C0.600
; #@! TA.AperFunction,Plated,PTH,ComponentDrill
T4C1.000
; #@! TA.AperFunction,Plated,PTH,ComponentDrill
T5C4.000
%
G90
G05
T1
X37.25Y-56.04
X37.268Y-60.25
X37.27Y-64.01
X37.81Y-74.83
X37.82Y-72.79
X37.84Y-73.79
X38.11Y-52.97
X38.89Y-58.33
X38.92Y-74.46
X38.927Y-59.267
X38.93Y-75.45
X38.96Y-72.43
X38.96Y-73.43
X39.52Y-49.99
X39.53Y-50.98
X39.56Y-47.96
X39.56Y-48.96
X39.725Y-64.58
X39.75Y-62.45
X39.76Y-61.64
X39.78Y-63.27
X40.23Y-74.8
X40.24Y-72.76
X40.26Y-73.76
X40.36Y-50.47
X40.37Y-48.43
X40.39Y-49.43
X41.1Y-51.05
X41.11Y-49.01
X41.12Y-47.91
X41.13Y-50.01
X41.47Y-74.41
X41.48Y-75.4
X41.51Y-72.38
X41.51Y-73.38
X42.24Y-58.56
X42.66Y-73.09
X42.695Y-61.445
X42.695Y-72.04
X43.03Y-72.56
X43.345Y-72.045
X43.385Y-73.125
X43.695Y-72.57
X43.81Y-35.83
X43.81Y-36.62
X43.81Y-37.39
X44.0Y-72.05
X44.045Y-73.105
X44.345Y-72.575
X44.45Y-36.26
X44.45Y-38.58
X44.46Y-37.03
X44.47Y-35.47
X44.47Y-37.79
X44.565Y-39.87
X44.565Y-74.31
X44.575Y-40.69
X44.575Y-75.4
X44.625Y-41.39
X44.66Y-72.045
X44.685Y-42.11
X44.725Y-73.115
X44.995Y-74.87
X45.08Y-35.89
X45.08Y-36.6
X45.08Y-37.41
X45.08Y-38.21
X45.08Y-38.92
X45.15Y-40.27
X45.175Y-40.955
X45.19Y-41.735
X45.22Y-42.525
X45.24Y-58.55
X45.24Y-62.37
X45.24Y-94.51
X45.25Y-95.43
X45.25Y-96.41
X45.34Y-74.3
X45.37Y-75.4
X45.69Y-60.965
X46.11Y-94.01
X46.12Y-94.95
X46.13Y-95.95
X46.4Y-48.06
X46.4Y-49.06
X46.55Y-74.31
X46.88Y-61.465
X46.97Y-94.39
X46.99Y-95.31
X47.0Y-96.38
X47.2Y-47.57
X47.21Y-48.53
X47.23Y-49.53
X47.45Y-75.18
X47.58Y-71.0
X47.58Y-71.87
X47.89Y-94.0
X47.9Y-94.86
X47.91Y-95.9
X47.95Y-49.11
X47.96Y-48.01
X47.97Y-50.11
X48.24Y-75.99
X48.73Y-50.66
X48.77Y-94.51
X48.78Y-95.43
X48.78Y-96.37
X49.03Y-76.78
X49.57Y-51.14
X49.64Y-67.935
X49.83Y-77.58
X50.14Y-68.44
X50.27Y-53.54
X50.29Y-67.8
X50.3Y-72.49
X50.32Y-74.78
X50.35Y-50.65
X50.615Y-68.96
X50.66Y-73.62
X50.77Y-68.34
X50.87Y-53.16
X50.88Y-52.42
X50.915Y-63.97
X50.995Y-93.0
X51.05Y-72.51
X51.12Y-74.79
X51.465Y-57.48
X51.48Y-53.53
X51.48Y-73.65
X51.49Y-52.79
X51.68Y-93.015
X51.85Y-72.52
X51.9Y-74.8
X52.08Y-53.91
X52.08Y-54.6
X52.09Y-55.3
X52.09Y-56.01
X52.1Y-53.17
X52.305Y-57.52
X52.305Y-64.84
X52.31Y-58.36
X52.31Y-66.455
X52.315Y-65.67
X52.32Y-62.145
X52.32Y-73.65
X52.33Y-63.98
X52.345Y-59.31
X52.345Y-61.22
X52.35Y-60.27
X52.355Y-63.045
X52.535Y-85.93
X52.63Y-72.53
X52.72Y-74.81
X52.93Y-86.535
X53.15Y-73.65
X53.195Y-72.765
X53.31Y-85.96
X53.39Y-87.075
X53.56Y-74.81
X53.695Y-86.51
X54.05Y-87.07
X54.385Y-86.505
X54.465Y-73.465
X54.495Y-74.44
X54.7Y-87.085
X54.94Y-74.935
X54.96Y-73.945
X55.43Y-74.44
X58.6Y-73.155
X58.915Y-65.12
X58.93Y-73.73
X58.99Y-56.3
X59.0Y-55.44
X59.01Y-53.91
X59.01Y-54.69
X59.035Y-51.28
X59.04Y-57.14
X59.11Y-60.5
X59.13Y-61.34
X59.15Y-62.24
X59.33Y-73.16
X59.51Y-50.82
X59.59Y-54.25
X59.59Y-55.02
X59.59Y-55.85
X59.59Y-56.66
X59.62Y-53.53
X59.68Y-73.745
X59.72Y-60.88
X59.72Y-61.8
X59.74Y-62.67
X59.74Y-64.2
X59.78Y-63.43
X60.095Y-73.175
X60.31Y-61.34
X60.36Y-62.24
X60.43Y-62.99
X60.43Y-64.52
X60.46Y-63.82
X60.46Y-65.35
X60.495Y-73.733
X60.865Y-73.19
X61.47Y-63.8
X61.48Y-64.48
X61.68Y-77.11
X61.685Y-78.915
X61.69Y-77.72
X61.695Y-78.31
X61.795Y-73.45
X62.13Y-56.49
X62.16Y-57.25
X62.195Y-79.255
X62.21Y-76.79
X62.21Y-78.625
X62.225Y-78.005
X62.23Y-77.41
X62.65Y-64.68
X62.65Y-66.62
X62.65Y-71.825
X62.74Y-56.88
X62.75Y-77.1
X62.755Y-78.905
X62.76Y-77.71
X62.765Y-78.3
X62.875Y-92.83
X63.3Y-56.51
X63.3Y-64.66
X63.3Y-66.625
X63.3Y-71.825
X63.95Y-71.825
X63.99Y-56.52
X64.5Y-64.659
X64.6Y-71.825
X64.67Y-69.79
X64.7Y-56.54
X65.25Y-65.975
X65.25Y-66.625
X65.25Y-67.925
X65.25Y-69.225
X65.25Y-64.67
X65.37Y-56.55
X65.59Y-70.301
X65.9Y-64.675
X65.9Y-65.975
X65.9Y-67.275
X66.01Y-56.56
X66.18Y-62.75
X66.24Y-70.61
X66.268Y-61.351
X66.308Y-62.018
X66.33Y-43.9
X66.55Y-66.625
X66.55Y-67.925
X66.55Y-68.575
X66.55Y-69.87
X66.56Y-69.22
X66.86Y-70.42
X67.0Y-60.579
X67.075Y-61.252
X67.2Y-69.87
X67.2Y-64.675
X67.2Y-65.975
X67.2Y-67.275
X67.2Y-68.575
X67.46Y-60.05
X67.52Y-70.44
X67.825Y-43.94
X67.85Y-69.88
X67.85Y-64.675
X67.85Y-66.625
X67.85Y-67.925
X67.85Y-68.575
X67.85Y-69.225
X67.998Y-60.475
X68.16Y-70.63
X68.443Y-59.906
X68.5Y-64.675
X68.5Y-65.975
X68.5Y-66.625
X68.5Y-67.275
X68.5Y-67.925
X68.5Y-68.575
X68.82Y-70.31
X68.915Y-46.98
X69.15Y-67.93
X69.15Y-69.22
X69.15Y-64.675
X69.15Y-66.625
X69.53Y-46.99
X69.72Y-70.38
X69.795Y-64.025
X69.8Y-67.275
X69.8Y-64.675
X69.915Y-60.395
X69.93Y-59.665
X70.45Y-64.02
X70.45Y-65.975
X70.45Y-66.625
X70.45Y-67.275
X70.45Y-67.925
X70.45Y-64.675
X70.45Y-65.325
X70.45Y-68.575
X70.45Y-69.225
X70.87Y-44.415
X71.105Y-63.435
X71.105Y-64.06
X71.22Y-87.25
X71.44Y-77.46
X71.45Y-75.43
X71.45Y-78.69
X71.785Y-78.07
X72.09Y-75.135
X72.09Y-75.95
X72.13Y-77.46
X72.135Y-72.955
X72.15Y-78.69
X72.345Y-44.415
X72.53Y-73.495
X72.59Y-69.545
X72.605Y-68.855
X72.675Y-63.745
X72.7Y-71.975
X73.005Y-56.0
X73.02Y-73.975
X73.115Y-61.555
X73.24Y-51.67
X73.4Y-63.59
X73.705Y-62.79
X73.715Y-60.945
X73.885Y-44.37
X73.95Y-85.505
X74.01Y-73.05
X74.015Y-72.41
X74.29Y-62.77
X74.29Y-63.62
X74.6Y-64.65
X74.795Y-69.3
X75.28Y-69.785
X75.345Y-81.7
X75.415Y-44.34
X75.53Y-63.86
X75.815Y-85.515
X76.03Y-43.11
X76.035Y-64.67
X76.435Y-43.72
X76.81Y-43.11
X76.87Y-44.345
X77.19Y-63.25
X77.2Y-64.56
X77.205Y-63.905
X77.215Y-43.72
X77.6Y-44.365
X77.61Y-43.125
X77.815Y-64.24
X78.005Y-43.735
X78.365Y-44.385
X78.385Y-43.11
X78.425Y-72.05
X78.43Y-73.02
X78.77Y-43.745
X78.89Y-72.52
X79.005Y-54.215
X79.095Y-43.135
X79.69Y-54.215
X79.88Y-59.43
X79.88Y-60.23
X79.895Y-61.08
X80.316Y-54.787
X80.363Y-55.592
X80.4Y-58.395
X80.4Y-59.85
X80.4Y-60.65
X80.4Y-61.36
X80.41Y-59.01
X80.46Y-53.31
X80.51Y-56.52
X80.52Y-54.094
X80.935Y-51.61
X81.02Y-55.17
X81.02Y-55.95
X81.02Y-59.46
X81.02Y-60.23
X81.02Y-60.99
X81.03Y-58.66
X81.105Y-65.33
X81.12Y-52.96
X81.12Y-53.67
X81.125Y-69.64
X81.14Y-54.47
X81.18Y-70.31
X81.645Y-70.85
X81.675Y-80.475
X81.935Y-70.27
X83.525Y-75.25
X85.175Y-77.02
X85.665Y-76.515
X85.84Y-63.975
X85.995Y-60.335
X85.995Y-60.99
X85.995Y-62.295
X86.0Y-61.65
X86.01Y-66.98
X86.03Y-65.13
X86.03Y-66.02
X86.12Y-83.54
X86.14Y-76.065
X86.34Y-78.02
X86.45Y-77.31
X86.51Y-63.98
X86.615Y-83.06
X86.62Y-43.29
X86.645Y-62.23
X86.65Y-61.575
X86.74Y-65.95
X86.76Y-65.26
X86.8Y-58.25
X86.94Y-43.92
X87.0Y-78.57
X87.09Y-77.85
X87.105Y-82.58
X87.13Y-77.07
X87.16Y-58.82
X87.18Y-59.475
X87.35Y-43.3
X87.37Y-64.67
X87.375Y-66.545
X87.38Y-71.83
X87.575Y-82.11
X87.63Y-79.06
X87.685Y-43.945
X87.73Y-76.73
X87.73Y-78.33
X87.75Y-77.51
X88.02Y-71.83
X88.025Y-64.675
X88.03Y-59.63
X88.08Y-43.31
X88.32Y-79.5
X88.35Y-77.97
X88.37Y-66.72
X88.37Y-78.73
X88.485Y-43.96
X88.5Y-73.955
X88.67Y-71.83
X88.715Y-54.985
X88.82Y-43.3
X89.0Y-79.14
X89.01Y-78.36
X89.085Y-59.485
X89.1Y-57.54
X89.28Y-54.525
X89.315Y-55.96
X89.33Y-64.68
X89.33Y-71.83
X89.47Y-73.575
X89.475Y-74.39
X89.77Y-57.14
X89.77Y-57.91
X89.77Y-59.48
X89.82Y-53.995
X89.95Y-66.62
X89.95Y-69.23
X89.97Y-67.94
X89.99Y-65.97
X90.005Y-55.96
X90.3Y-91.05
X90.305Y-91.765
X90.315Y-70.301
X90.38Y-56.77
X90.38Y-58.27
X90.39Y-57.49
X90.61Y-67.28
X90.62Y-66.0
X90.625Y-64.675
X90.745Y-55.695
X90.96Y-70.62
X91.26Y-66.63
X91.27Y-67.93
X91.279Y-69.89
X91.28Y-68.57
X91.28Y-69.23
X91.6Y-70.45
X91.92Y-68.57
X91.925Y-64.675
X91.925Y-69.89
X91.93Y-65.97
X91.93Y-67.28
X92.24Y-70.45
X92.56Y-69.22
X92.57Y-67.92
X92.57Y-68.57
X92.572Y-69.88
X92.575Y-64.67
X92.59Y-66.61
X92.89Y-70.6
X93.22Y-66.61
X93.22Y-67.92
X93.22Y-68.57
X93.225Y-64.675
X93.23Y-65.96
X93.24Y-67.28
X93.535Y-70.301
X93.695Y-43.965
X93.715Y-50.635
X93.875Y-64.68
X93.88Y-66.62
X93.88Y-67.92
X93.88Y-68.59
X93.88Y-69.22
X94.04Y-44.54
X94.1Y-50.02
X94.385Y-43.96
X94.41Y-50.65
X94.455Y-62.095
X94.525Y-64.675
X94.77Y-44.56
X94.78Y-50.03
X95.06Y-43.945
X95.12Y-62.06
X95.175Y-63.37
X95.175Y-64.675
X95.175Y-65.975
X95.175Y-64.025
X95.175Y-65.325
X95.175Y-66.625
X95.175Y-67.275
X95.175Y-67.925
X95.175Y-68.575
X95.175Y-69.875
X95.175Y-70.525
X95.175Y-69.225
X95.83Y-63.37
X95.83Y-64.03
X96.03Y-61.76
X96.16Y-77.47
X96.17Y-78.7
X96.24Y-75.48
X96.275Y-52.445
X96.425Y-74.3
X96.505Y-78.08
X96.79Y-62.99
X96.81Y-75.96
X96.82Y-74.85
X96.84Y-63.85
X96.85Y-77.47
X96.87Y-78.7
X96.99Y-61.78
X97.075Y-72.55
X97.185Y-74.27
X97.285Y-84.035
X97.565Y-73.045
X97.585Y-74.84
X97.735Y-76.3
X97.745Y-75.57
X97.745Y-77.045
X97.75Y-77.785
X97.76Y-69.73
X97.76Y-83.57
X98.03Y-62.79
X98.11Y-73.495
X98.38Y-75.765
X98.41Y-76.475
X98.42Y-77.17
X98.55Y-63.8
X98.805Y-84.9
X98.87Y-70.81
X98.96Y-62.79
X99.16Y-70.0
X99.35Y-71.29
X99.37Y-63.81
X99.405Y-84.215
X99.52Y-69.45
X99.58Y-84.995
X99.68Y-75.22
X99.81Y-70.02
X100.03Y-83.635
X100.035Y-70.76
X100.035Y-71.425
X100.12Y-63.205
X100.16Y-84.355
X100.195Y-64.315
X100.395Y-85.07
X100.52Y-63.725
X100.575Y-83.01
X100.805Y-83.705
X100.955Y-84.42
X101.215Y-85.185
X101.38Y-64.7
X101.735Y-84.565
X101.91Y-80.78
X102.03Y-64.52
X102.04Y-85.24
X102.11Y-96.39
X102.585Y-96.9
X102.645Y-95.855
X103.1Y-96.375
X103.155Y-95.365
X103.295Y-80.385
X103.575Y-95.88
X103.65Y-94.925
X103.825Y-78.96
X104.12Y-94.475
X104.12Y-95.4
X104.62Y-94.925
X105.565Y-63.68
X105.565Y-64.335
X105.765Y-65.085
X106.22Y-65.56
X106.43Y-64.945
X106.46Y-41.855
X106.77Y-42.49
X107.13Y-41.87
X107.43Y-42.51
X107.81Y-41.86
X108.035Y-64.85
X108.04Y-65.51
X108.135Y-42.505
X108.485Y-41.875
X108.82Y-70.415
X109.745Y-70.405
X111.485Y-52.645
X111.505Y-48.12
X111.51Y-51.15
X111.51Y-54.13
X111.515Y-49.645
X111.515Y-55.65
X111.58Y-57.14
X112.35Y-62.57
X112.385Y-64.765
X113.07Y-70.395
X113.085Y-62.59
X113.1Y-63.33
X113.1Y-64.0
X113.135Y-64.75
X114.505Y-83.93
X114.64Y-84.565
X114.975Y-83.425
X114.99Y-46.24
X115.175Y-84.055
X115.27Y-84.79
X115.47Y-52.15
X115.515Y-82.96
X115.625Y-46.855
X115.66Y-46.0
X115.665Y-83.6
X115.785Y-84.31
X116.16Y-83.1
X116.295Y-83.77
X116.3Y-46.64
X116.32Y-47.52
X116.37Y-45.7
X116.98Y-47.265
X117.005Y-48.105
X117.015Y-46.365
X117.08Y-45.36
X117.42Y-68.865
X117.42Y-69.535
X117.42Y-70.935
X117.43Y-70.255
X117.96Y-88.585
X117.96Y-89.245
X117.97Y-89.885
X117.97Y-90.54
X117.97Y-91.19
X118.01Y-69.89
X118.03Y-69.215
X118.035Y-68.525
X118.035Y-70.545
X118.04Y-71.21
X118.465Y-51.42
X118.48Y-52.88
X118.48Y-54.375
X118.555Y-60.7
X118.565Y-59.14
X118.57Y-80.765
X118.575Y-59.89
X118.585Y-58.44
X118.585Y-61.455
X118.585Y-73.79
X118.585Y-75.24
X118.585Y-82.215
X118.595Y-72.295
X118.615Y-79.285
T2
X36.35Y-91.92
X37.015Y-66.81
X37.173Y-33.257
X37.181Y-103.337
X37.228Y-100.807
X37.252Y-35.727
X37.256Y-34.486
X37.314Y-102.03
X37.48Y-71.865
X37.91Y-69.01
X38.1Y-50.74
X38.1Y-71.5
X38.105Y-52.145
X38.115Y-50.03
X38.12Y-51.42
X38.13Y-54.62
X38.412Y-102.105
X38.481Y-104.777
X38.506Y-103.25
X38.558Y-34.336
X38.635Y-33.003
X38.662Y-31.849
X38.75Y-69.023
X38.755Y-71.5
X39.699Y-103.364
X39.71Y-34.496
X39.712Y-101.896
X39.714Y-104.737
X39.748Y-33.03
X39.844Y-31.73
X40.42Y-58.73
X40.988Y-31.913
X40.991Y-104.725
X41.062Y-103.291
X41.088Y-101.963
X41.113Y-34.534
X41.126Y-33.04
X42.433Y-102.133
X42.5Y-104.597
X42.546Y-103.458
X42.559Y-31.869
X42.71Y-68.86
X42.75Y-68.12
X42.78Y-53.5
X42.78Y-54.28
X42.79Y-66.6
X42.8Y-67.37
X42.82Y-55.03
X42.82Y-65.82
X42.83Y-65.04
X42.88Y-55.79
X42.96Y-56.53
X43.0Y-64.31
X43.12Y-60.91
X43.184Y-60.118
X43.631Y-104.675
X43.67Y-47.765
X43.68Y-49.185
X43.68Y-51.385
X43.69Y-48.465
X43.695Y-49.925
X43.7Y-50.675
X43.73Y-54.68
X43.73Y-61.35
X43.73Y-60.46
X43.74Y-53.91
X43.74Y-56.29
X43.74Y-57.05
X43.74Y-65.44
X43.75Y-55.43
X43.75Y-59.61
X43.75Y-63.82
X43.75Y-64.58
X43.75Y-66.96
X43.76Y-66.19
X43.79Y-102.04
X43.83Y-103.307
X44.49Y-56.56
X44.53Y-64.34
X44.61Y-65.08
X44.66Y-55.83
X44.67Y-55.05
X44.67Y-65.84
X44.71Y-54.24
X44.71Y-66.59
X44.71Y-67.37
X44.75Y-68.15
X44.76Y-53.47
X44.76Y-68.88
X44.884Y-104.664
X44.934Y-103.488
X46.221Y-104.609
X46.46Y-63.17
X46.648Y-57.617
X47.28Y-56.86
X47.44Y-63.94
X47.491Y-104.734
X47.66Y-57.67
X47.76Y-46.955
X48.23Y-63.94
X48.23Y-64.69
X48.43Y-56.89
X48.43Y-57.65
X48.72Y-42.64
X48.895Y-48.1
X48.939Y-104.725
X49.445Y-42.63
X49.465Y-48.625
X50.259Y-104.79
X50.265Y-42.63
X50.4Y-59.6
X50.69Y-62.52
X51.02Y-54.55
X51.04Y-42.63
X51.38Y-62.52
X51.557Y-104.592
X51.805Y-42.625
X52.515Y-42.64
X52.854Y-104.562
X58.985Y-65.835
X59.35Y-66.465
X60.135Y-66.73
X60.9Y-66.8
X60.92Y-52.53
X61.505Y-51.94
X62.2Y-51.515
X62.955Y-51.52
X63.745Y-51.52
X63.92Y-49.44
X64.51Y-51.525
X64.753Y-49.283
X65.34Y-51.525
X66.089Y-49.68
X66.825Y-49.466
X67.43Y-55.275
X68.435Y-55.3
X69.175Y-55.32
X71.03Y-50.9
X71.542Y-73.363
X72.685Y-83.36
X73.04Y-50.53
X73.1Y-79.07
X73.145Y-76.475
X73.145Y-77.26
X73.35Y-78.3
X73.45Y-88.76
X73.86Y-79.08
X74.005Y-74.035
X74.01Y-74.79
X74.455Y-76.09
X74.49Y-77.04
X74.51Y-77.74
X74.79Y-52.97
X74.79Y-53.68
X75.27Y-68.43
X75.57Y-62.88
X75.585Y-62.1
X75.87Y-77.797
X75.9Y-79.32
X76.22Y-68.168
X76.23Y-74.225
X76.232Y-75.956
X76.245Y-76.785
X76.35Y-74.965
X77.99Y-57.23
X79.0Y-80.365
X79.11Y-75.385
X79.17Y-60.47
X79.186Y-59.697
X79.43Y-79.7
X79.74Y-75.03
X79.75Y-75.75
X79.755Y-74.34
X79.825Y-79.11
X79.88Y-80.38
X80.19Y-78.48
X80.27Y-79.765
X80.685Y-79.105
X80.7Y-80.425
X80.94Y-50.78
X81.06Y-78.46
X81.07Y-79.78
X81.43Y-79.135
X81.61Y-75.09
X81.615Y-75.81
X81.855Y-78.5
X82.31Y-75.305
X87.575Y-81.345
X93.04Y-51.94
X95.0Y-51.47
X95.94Y-50.13
X98.24Y-58.78
X98.38Y-50.16
X99.01Y-59.43
X99.02Y-49.58
X99.675Y-73.545
X99.68Y-74.245
X100.35Y-54.68
X100.41Y-61.595
X101.13Y-46.59
X101.34Y-50.9
X101.495Y-73.505
X101.5Y-74.485
X101.98Y-61.58
X102.03Y-73.97
X102.06Y-50.93
X102.226Y-31.827
X102.654Y-51.301
X103.383Y-102.037
X103.425Y-72.555
X103.427Y-99.474
X103.466Y-33.051
X103.479Y-100.826
X103.54Y-52.99
X103.625Y-104.522
X103.645Y-103.243
X103.675Y-31.867
X103.95Y-60.06
X104.44Y-72.555
X104.705Y-33.255
X104.717Y-104.582
X104.737Y-103.196
X104.739Y-100.87
X104.78Y-68.625
X104.785Y-34.469
X104.811Y-98.185
X104.835Y-69.715
X104.897Y-102.071
X104.898Y-31.723
X104.923Y-99.539
X105.24Y-67.48
X105.375Y-70.38
X105.38Y-50.77
X105.564Y-59.046
X105.895Y-51.244
X105.975Y-100.849
X106.019Y-99.585
X106.019Y-104.51
X106.036Y-71.534
X106.104Y-33.102
X106.126Y-35.599
X106.134Y-98.178
X106.137Y-103.479
X106.193Y-31.756
X106.198Y-101.891
X106.208Y-96.698
X106.246Y-34.485
X106.34Y-78.92
X106.44Y-77.89
X106.52Y-72.22
X106.825Y-58.175
X106.83Y-57.23
X107.233Y-69.45
X107.285Y-33.119
X107.322Y-97.995
X107.33Y-103.444
X107.339Y-102.013
X107.341Y-100.611
X107.346Y-96.963
X107.38Y-35.791
X107.422Y-31.938
X107.527Y-37.008
X107.55Y-104.62
X107.562Y-34.435
X107.566Y-99.5
X108.656Y-96.99
X108.669Y-100.615
X108.689Y-103.281
X108.74Y-35.68
X108.742Y-101.918
X108.751Y-36.91
X108.758Y-98.12
X108.777Y-31.85
X108.792Y-99.325
X108.807Y-104.569
X108.811Y-33.216
X108.871Y-34.312
X109.36Y-94.24
X109.51Y-71.86
X109.91Y-33.095
X109.914Y-101.933
X109.919Y-103.472
X109.969Y-35.601
X109.972Y-37.176
X109.972Y-38.256
X110.014Y-98.107
X110.049Y-31.869
X110.053Y-34.581
X110.088Y-104.582
X110.097Y-96.755
X110.147Y-100.74
X110.15Y-61.787
X110.152Y-99.455
X111.178Y-94.139
X111.184Y-99.317
X111.187Y-37.01
X111.215Y-35.637
X111.258Y-102.049
X111.274Y-31.882
X111.306Y-91.737
X111.325Y-104.657
X111.33Y-103.335
X111.334Y-100.682
X111.34Y-33.164
X111.396Y-60.331
X111.397Y-92.864
X111.414Y-34.365
X111.46Y-61.718
X112.51Y-33.178
X112.521Y-103.386
X112.562Y-90.414
X112.567Y-104.761
X112.57Y-34.572
X112.609Y-102.146
X112.637Y-100.673
X112.686Y-91.728
X112.699Y-92.819
X112.712Y-35.827
X112.751Y-31.919
X113.806Y-31.823
X113.811Y-104.525
X114.014Y-33.067
X114.021Y-101.903
X114.043Y-103.265
X114.056Y-34.495
X114.79Y-51.4
X114.91Y-58.43
X115.02Y-73.76
X115.111Y-104.625
X115.122Y-87.794
X115.132Y-44.817
X115.135Y-34.465
X115.146Y-33.273
X115.171Y-31.738
X115.193Y-102.099
X115.29Y-103.279
X115.435Y-53.65
X115.52Y-59.25
X116.28Y-75.22
X116.3Y-72.3
X116.35Y-82.23
X116.36Y-80.74
X116.388Y-34.563
X116.488Y-104.781
X116.536Y-33.105
X116.563Y-31.901
X116.57Y-101.925
X116.574Y-103.242
X116.649Y-87.709
X116.673Y-86.31
X116.92Y-51.485
X116.92Y-53.58
X117.12Y-81.46
X117.41Y-83.285
X117.689Y-35.814
X117.69Y-103.438
X117.698Y-102.173
X117.703Y-34.367
X117.726Y-104.78
X117.799Y-86.429
X117.809Y-85.243
X117.92Y-33.288
X118.986Y-35.59
X119.004Y-91.779
X119.014Y-100.632
X119.04Y-46.023
X119.047Y-47.448
X119.05Y-89.009
X119.062Y-43.487
X119.081Y-101.905
X119.098Y-44.707
X119.173Y-92.985
X119.25Y-34.531
X119.26Y-90.375
X119.272Y-48.813
T3
X37.0Y-40.0
X37.0Y-96.896
X37.879Y-37.879
X37.879Y-42.121
X37.879Y-94.775
X37.879Y-99.017
X40.0Y-37.0
X40.0Y-43.0
X40.0Y-93.896
X40.0Y-99.896
X42.121Y-37.879
X42.121Y-42.121
X42.121Y-94.775
X42.121Y-99.017
X43.0Y-40.0
X43.0Y-96.896
X112.552Y-40.0
X112.552Y-96.896
X113.431Y-37.879
X113.431Y-42.121
X113.431Y-94.775
X113.431Y-99.017
X115.552Y-37.0
X115.552Y-43.0
X115.552Y-93.896
X115.552Y-99.896
X117.674Y-37.879
X117.674Y-42.121
X117.674Y-94.775
X117.674Y-99.017
X118.552Y-40.0
X118.552Y-96.896
T4
X39.355Y-79.92
X39.355Y-82.46
X39.355Y-85.0
X39.355Y-87.54
X39.355Y-90.08
X41.895Y-79.92
X41.895Y-82.46
X41.895Y-85.0
X41.895Y-87.54
X41.895Y-90.08
T5
X40.0Y-40.0
X40.0Y-96.896
X115.552Y-40.0
X115.552Y-96.896
M30
