%TF.GenerationSoftware,KiCad,Pcbnew,8.0.3*%
%TF.CreationDate,2024-11-01T12:04:32+00:00*%
%TF.ProjectId,CM4RadarBoard,434d3452-6164-4617-9242-6f6172642e6b,rev?*%
%TF.SameCoordinates,Original*%
%TF.FileFunction,Paste,Bot*%
%TF.FilePolarity,Positive*%
%FSLAX46Y46*%
G04 Gerber Fmt 4.6, Leading zero omitted, Abs format (unit mm)*
G04 Created by KiCad (PCBNEW 8.0.3) date 2024-11-01 12:04:32*
%MOMM*%
%LPD*%
G01*
G04 APERTURE LIST*
G04 Aperture macros list*
%AMRoundRect*
0 Rectangle with rounded corners*
0 $1 Rounding radius*
0 $2 $3 $4 $5 $6 $7 $8 $9 X,Y pos of 4 corners*
0 Add a 4 corners polygon primitive as box body*
4,1,4,$2,$3,$4,$5,$6,$7,$8,$9,$2,$3,0*
0 Add four circle primitives for the rounded corners*
1,1,$1+$1,$2,$3*
1,1,$1+$1,$4,$5*
1,1,$1+$1,$6,$7*
1,1,$1+$1,$8,$9*
0 Add four rect primitives between the rounded corners*
20,1,$1+$1,$2,$3,$4,$5,0*
20,1,$1+$1,$4,$5,$6,$7,0*
20,1,$1+$1,$6,$7,$8,$9,0*
20,1,$1+$1,$8,$9,$2,$3,0*%
G04 Aperture macros list end*
%ADD10R,0.550000X0.500000*%
%ADD11R,0.800000X1.500000*%
%ADD12R,1.000000X2.400000*%
%ADD13R,1.000000X3.400000*%
%ADD14R,1.550000X0.300000*%
%ADD15R,2.750000X1.200000*%
%ADD16RoundRect,0.135000X-0.185000X0.135000X-0.185000X-0.135000X0.185000X-0.135000X0.185000X0.135000X0*%
%ADD17RoundRect,0.250000X0.512652X0.159099X0.159099X0.512652X-0.512652X-0.159099X-0.159099X-0.512652X0*%
%ADD18RoundRect,0.135000X-0.135000X-0.185000X0.135000X-0.185000X0.135000X0.185000X-0.135000X0.185000X0*%
%ADD19RoundRect,0.225000X0.225000X0.250000X-0.225000X0.250000X-0.225000X-0.250000X0.225000X-0.250000X0*%
%ADD20RoundRect,0.150000X0.150000X0.200000X-0.150000X0.200000X-0.150000X-0.200000X0.150000X-0.200000X0*%
%ADD21RoundRect,0.250000X0.450000X-0.262500X0.450000X0.262500X-0.450000X0.262500X-0.450000X-0.262500X0*%
%ADD22RoundRect,0.200000X-0.200000X-0.275000X0.200000X-0.275000X0.200000X0.275000X-0.200000X0.275000X0*%
%ADD23RoundRect,0.225000X-0.250000X0.225000X-0.250000X-0.225000X0.250000X-0.225000X0.250000X0.225000X0*%
%ADD24RoundRect,0.025500X0.229500X0.354500X-0.229500X0.354500X-0.229500X-0.354500X0.229500X-0.354500X0*%
%ADD25R,0.300000X1.300000*%
%ADD26R,1.800000X2.200000*%
%ADD27RoundRect,0.225000X0.250000X-0.225000X0.250000X0.225000X-0.250000X0.225000X-0.250000X-0.225000X0*%
%ADD28RoundRect,0.150000X-0.200000X0.150000X-0.200000X-0.150000X0.200000X-0.150000X0.200000X0.150000X0*%
%ADD29RoundRect,0.250000X0.250000X0.475000X-0.250000X0.475000X-0.250000X-0.475000X0.250000X-0.475000X0*%
%ADD30RoundRect,0.225000X-0.225000X-0.250000X0.225000X-0.250000X0.225000X0.250000X-0.225000X0.250000X0*%
%ADD31RoundRect,0.135000X0.185000X-0.135000X0.185000X0.135000X-0.185000X0.135000X-0.185000X-0.135000X0*%
%ADD32RoundRect,0.150000X-0.150000X-0.200000X0.150000X-0.200000X0.150000X0.200000X-0.150000X0.200000X0*%
%ADD33RoundRect,0.200000X0.200000X0.275000X-0.200000X0.275000X-0.200000X-0.275000X0.200000X-0.275000X0*%
%ADD34RoundRect,0.087500X-0.087500X0.725000X-0.087500X-0.725000X0.087500X-0.725000X0.087500X0.725000X0*%
%ADD35RoundRect,0.135000X0.135000X0.185000X-0.135000X0.185000X-0.135000X-0.185000X0.135000X-0.185000X0*%
%ADD36RoundRect,0.200000X0.275000X-0.200000X0.275000X0.200000X-0.275000X0.200000X-0.275000X-0.200000X0*%
%ADD37RoundRect,0.249999X-0.387501X-0.700001X0.387501X-0.700001X0.387501X0.700001X-0.387501X0.700001X0*%
%ADD38RoundRect,0.250000X-0.475000X0.250000X-0.475000X-0.250000X0.475000X-0.250000X0.475000X0.250000X0*%
%ADD39R,1.500000X0.800000*%
%ADD40R,2.000000X1.450000*%
%ADD41RoundRect,0.250000X0.159099X-0.512652X0.512652X-0.159099X-0.159099X0.512652X-0.512652X0.159099X0*%
%ADD42RoundRect,0.200000X-0.275000X0.200000X-0.275000X-0.200000X0.275000X-0.200000X0.275000X0.200000X0*%
%ADD43RoundRect,0.250000X0.475000X-0.250000X0.475000X0.250000X-0.475000X0.250000X-0.475000X-0.250000X0*%
%ADD44RoundRect,0.247500X0.247500X-0.247500X0.247500X0.247500X-0.247500X0.247500X-0.247500X-0.247500X0*%
%ADD45RoundRect,0.062500X0.062500X-0.350000X0.062500X0.350000X-0.062500X0.350000X-0.062500X-0.350000X0*%
%ADD46RoundRect,0.062500X0.350000X-0.062500X0.350000X0.062500X-0.350000X0.062500X-0.350000X-0.062500X0*%
%ADD47RoundRect,0.125000X-0.125000X-0.125000X0.125000X-0.125000X0.125000X0.125000X-0.125000X0.125000X0*%
%ADD48R,1.400000X1.200000*%
%ADD49R,0.610000X2.000000*%
%ADD50R,2.680000X3.600000*%
%ADD51RoundRect,0.150000X0.200000X-0.150000X0.200000X0.150000X-0.200000X0.150000X-0.200000X-0.150000X0*%
G04 APERTURE END LIST*
D10*
%TO.C,J10*%
X95565000Y-84399000D03*
X97565000Y-84399000D03*
X101755000Y-84399000D03*
X94565000Y-84399000D03*
X96565000Y-84399000D03*
X100755000Y-84399000D03*
X99350000Y-84399000D03*
D11*
X92200000Y-85220000D03*
D12*
X90300000Y-85300000D03*
D13*
X90300000Y-93700000D03*
X90300000Y-98999000D03*
X105400000Y-98999000D03*
X105400000Y-93700000D03*
D12*
X105400000Y-85300000D03*
%TD*%
D14*
%TO.C,J3*%
X103506000Y-77750000D03*
X95956000Y-77500000D03*
X103506000Y-77250000D03*
X95956000Y-77000000D03*
X103506000Y-76750000D03*
X95956000Y-76500000D03*
X103506000Y-76250000D03*
X95956000Y-76000000D03*
X103506000Y-75750000D03*
X95956000Y-75500000D03*
X103506000Y-75250000D03*
X95956000Y-73000000D03*
X103506000Y-72750000D03*
X95956000Y-72500000D03*
X103506000Y-72250000D03*
X95956000Y-72000000D03*
X103506000Y-71750000D03*
X95956000Y-71500000D03*
X103506000Y-71250000D03*
X95956000Y-71000000D03*
X103506000Y-70750000D03*
X95956000Y-70500000D03*
X103506000Y-70250000D03*
X95956000Y-70000000D03*
X103506000Y-69750000D03*
X95956000Y-69500000D03*
X103506000Y-69250000D03*
X95956000Y-69000000D03*
X103506000Y-68750000D03*
X95956000Y-68500000D03*
X103506000Y-68250000D03*
X95956000Y-68000000D03*
X103506000Y-67750000D03*
X95956000Y-67500000D03*
X103506000Y-67250000D03*
X95956000Y-67000000D03*
X103506000Y-66750000D03*
X95956000Y-66500000D03*
X103506000Y-66250000D03*
X95956000Y-66000000D03*
X103506000Y-65750000D03*
X95956000Y-65500000D03*
X103506000Y-65250000D03*
X95956000Y-65000000D03*
X103506000Y-64750000D03*
X95956000Y-64500000D03*
X103506000Y-64250000D03*
X95956000Y-64000000D03*
X103506000Y-63750000D03*
X95956000Y-63500000D03*
X103506000Y-63250000D03*
X95956000Y-63000000D03*
X103506000Y-62750000D03*
X95956000Y-62500000D03*
X103506000Y-62250000D03*
X95956000Y-62000000D03*
X103506000Y-61750000D03*
X95956000Y-61500000D03*
X103506000Y-61250000D03*
X95956000Y-61000000D03*
X103506000Y-60750000D03*
X95956000Y-60500000D03*
X103506000Y-60250000D03*
X95956000Y-60000000D03*
X103506000Y-59750000D03*
X95956000Y-59500000D03*
X103506000Y-59250000D03*
D15*
X102731000Y-78850000D03*
X102731000Y-58150000D03*
%TD*%
D16*
%TO.C,R48*%
X102050000Y-47730000D03*
X102050000Y-48750000D03*
%TD*%
%TO.C,R44*%
X98130000Y-47710000D03*
X98130000Y-48730000D03*
%TD*%
D17*
%TO.C,C59*%
X54771751Y-76271751D03*
X53428249Y-74928249D03*
%TD*%
D18*
%TO.C,R29*%
X93204000Y-56220000D03*
X94224000Y-56220000D03*
%TD*%
D19*
%TO.C,C14*%
X86775000Y-48300000D03*
X85225000Y-48300000D03*
%TD*%
D20*
%TO.C,D8*%
X75000000Y-92590000D03*
X76400000Y-92590000D03*
%TD*%
D21*
%TO.C,C65*%
X110400000Y-81112500D03*
X110400000Y-79287500D03*
%TD*%
D22*
%TO.C,R91*%
X71235000Y-91120000D03*
X72885000Y-91120000D03*
%TD*%
D23*
%TO.C,C53*%
X106400000Y-79325000D03*
X106400000Y-80875000D03*
%TD*%
D22*
%TO.C,R98*%
X67975000Y-80400000D03*
X69625000Y-80400000D03*
%TD*%
D24*
%TO.C,FL4*%
X54235000Y-88965000D03*
X54235000Y-90635000D03*
X53365000Y-90635000D03*
X53365000Y-88965000D03*
%TD*%
D25*
%TO.C,J2*%
X64850000Y-42950000D03*
X65350000Y-42950000D03*
X65850000Y-42950000D03*
X66350000Y-42950000D03*
X66850000Y-42950000D03*
X67350000Y-42950000D03*
X67850000Y-42950000D03*
X68350000Y-42950000D03*
X68850000Y-42950000D03*
X69350000Y-42950000D03*
X69850000Y-42950000D03*
X70350000Y-42950000D03*
X70850000Y-42950000D03*
X71350000Y-42950000D03*
X71850000Y-42950000D03*
X72350000Y-42950000D03*
X72850000Y-42950000D03*
X73350000Y-42950000D03*
X73850000Y-42950000D03*
X74350000Y-42950000D03*
X74850000Y-42950000D03*
X75350000Y-42950000D03*
D26*
X62950000Y-39700000D03*
X77250000Y-39700000D03*
%TD*%
D27*
%TO.C,C61*%
X63700000Y-75775000D03*
X63700000Y-74225000D03*
%TD*%
D16*
%TO.C,R46*%
X100110000Y-47710000D03*
X100110000Y-48730000D03*
%TD*%
D28*
%TO.C,D11*%
X45500000Y-96400000D03*
X45500000Y-95000000D03*
%TD*%
D29*
%TO.C,C3*%
X93350000Y-58300000D03*
X91450000Y-58300000D03*
%TD*%
D30*
%TO.C,C12*%
X82125000Y-48300000D03*
X83675000Y-48300000D03*
%TD*%
D27*
%TO.C,C55*%
X73430000Y-86465000D03*
X73430000Y-84915000D03*
%TD*%
D31*
%TO.C,R17*%
X65150000Y-51410000D03*
X65150000Y-50390000D03*
%TD*%
D19*
%TO.C,C58*%
X54075000Y-82400000D03*
X52525000Y-82400000D03*
%TD*%
D32*
%TO.C,D4*%
X57350000Y-92720000D03*
X55950000Y-92720000D03*
%TD*%
D33*
%TO.C,R66*%
X62925000Y-52100000D03*
X61275000Y-52100000D03*
%TD*%
D18*
%TO.C,R40*%
X110674000Y-58010000D03*
X111694000Y-58010000D03*
%TD*%
D20*
%TO.C,D7*%
X58472500Y-92720000D03*
X59872500Y-92720000D03*
%TD*%
D31*
%TO.C,R27*%
X75700000Y-51410000D03*
X75700000Y-50390000D03*
%TD*%
D34*
%TO.C,U1*%
X75200000Y-82287500D03*
X75700000Y-82287500D03*
X76200000Y-82287500D03*
X76700000Y-82287500D03*
X77200000Y-82287500D03*
X77200000Y-86512500D03*
X76700000Y-86512500D03*
X76200000Y-86512500D03*
X75700000Y-86512500D03*
X75200000Y-86512500D03*
%TD*%
D21*
%TO.C,R82*%
X51900000Y-56312500D03*
X51900000Y-54487500D03*
%TD*%
D31*
%TO.C,R24*%
X72550000Y-51410000D03*
X72550000Y-50390000D03*
%TD*%
D16*
%TO.C,R49*%
X103050000Y-47730000D03*
X103050000Y-48750000D03*
%TD*%
D30*
%TO.C,C57*%
X65825000Y-84900000D03*
X67375000Y-84900000D03*
%TD*%
D16*
%TO.C,R47*%
X101070000Y-47730000D03*
X101070000Y-48750000D03*
%TD*%
D18*
%TO.C,R31*%
X110984000Y-72230000D03*
X112004000Y-72230000D03*
%TD*%
D35*
%TO.C,R33*%
X111944000Y-69760000D03*
X110924000Y-69760000D03*
%TD*%
D22*
%TO.C,R92*%
X74245000Y-91120000D03*
X75895000Y-91120000D03*
%TD*%
D31*
%TO.C,R26*%
X74630000Y-51410000D03*
X74630000Y-50390000D03*
%TD*%
D36*
%TO.C,R97*%
X59200000Y-75800000D03*
X59200000Y-74150000D03*
%TD*%
D37*
%TO.C,FB1*%
X82387500Y-46200000D03*
X86612500Y-46200000D03*
%TD*%
D22*
%TO.C,R102*%
X52475000Y-80900000D03*
X54125000Y-80900000D03*
%TD*%
D27*
%TO.C,C2*%
X61769998Y-48095000D03*
X61769998Y-46545000D03*
%TD*%
D33*
%TO.C,R85*%
X63025000Y-92750000D03*
X61375000Y-92750000D03*
%TD*%
D35*
%TO.C,R36*%
X111704000Y-62300000D03*
X110684000Y-62300000D03*
%TD*%
D38*
%TO.C,C17*%
X88900000Y-45850000D03*
X88900000Y-47750000D03*
%TD*%
D22*
%TO.C,R84*%
X78875000Y-81900000D03*
X80525000Y-81900000D03*
%TD*%
D33*
%TO.C,R83*%
X80525000Y-83600000D03*
X78875000Y-83600000D03*
%TD*%
D31*
%TO.C,R21*%
X69400000Y-51410000D03*
X69400000Y-50390000D03*
%TD*%
D39*
%TO.C,J11*%
X40000000Y-50700000D03*
X40000000Y-51800000D03*
X40000000Y-52900000D03*
X40000000Y-54000000D03*
X40000000Y-55100000D03*
X40000000Y-56200000D03*
X40000000Y-57300000D03*
X40000000Y-58400000D03*
D40*
X45700000Y-47025000D03*
X37400000Y-47025000D03*
X45700000Y-60775000D03*
X37400000Y-60775000D03*
%TD*%
D23*
%TO.C,C52*%
X93500000Y-79525000D03*
X93500000Y-81075000D03*
%TD*%
D18*
%TO.C,R35*%
X110684000Y-63240000D03*
X111704000Y-63240000D03*
%TD*%
D19*
%TO.C,C6*%
X93175000Y-64300000D03*
X91625000Y-64300000D03*
%TD*%
D22*
%TO.C,R93*%
X72055000Y-89570000D03*
X73705000Y-89570000D03*
%TD*%
D41*
%TO.C,C60*%
X66928249Y-76271751D03*
X68271751Y-74928249D03*
%TD*%
D18*
%TO.C,R39*%
X110674000Y-58950000D03*
X111694000Y-58950000D03*
%TD*%
D24*
%TO.C,FL3*%
X58335000Y-89025000D03*
X58335000Y-90695000D03*
X57465000Y-90695000D03*
X57465000Y-89025000D03*
%TD*%
D42*
%TO.C,R16*%
X61300000Y-53575000D03*
X61300000Y-55225000D03*
%TD*%
%TO.C,R104*%
X57700000Y-74175000D03*
X57700000Y-75825000D03*
%TD*%
D43*
%TO.C,C50*%
X52000000Y-51750000D03*
X52000000Y-49850000D03*
%TD*%
D22*
%TO.C,R101*%
X52475000Y-83900000D03*
X54125000Y-83900000D03*
%TD*%
D31*
%TO.C,R25*%
X73650000Y-51410000D03*
X73650000Y-50390000D03*
%TD*%
D29*
%TO.C,C4*%
X93350000Y-62100000D03*
X91450000Y-62100000D03*
%TD*%
D42*
%TO.C,R15*%
X62900000Y-53575000D03*
X62900000Y-55225000D03*
%TD*%
D33*
%TO.C,R100*%
X67425000Y-86400000D03*
X65775000Y-86400000D03*
%TD*%
D23*
%TO.C,C51*%
X91800000Y-79525000D03*
X91800000Y-81075000D03*
%TD*%
D18*
%TO.C,R34*%
X110934000Y-67130000D03*
X111954000Y-67130000D03*
%TD*%
D44*
%TO.C,U2*%
X59640000Y-83700000D03*
X60870000Y-83700000D03*
X62100000Y-83700000D03*
X59640000Y-82470000D03*
X60870000Y-82470000D03*
X62100000Y-82470000D03*
X59640000Y-81240000D03*
X60870000Y-81240000D03*
X62100000Y-81240000D03*
D45*
X62870000Y-85407500D03*
X62370000Y-85407500D03*
X61870000Y-85407500D03*
X61370000Y-85407500D03*
X60870000Y-85407500D03*
X60370000Y-85407500D03*
X59870000Y-85407500D03*
X59370000Y-85407500D03*
X58870000Y-85407500D03*
D46*
X57932500Y-84470000D03*
X57932500Y-83970000D03*
X57932500Y-83470000D03*
X57932500Y-82970000D03*
X57932500Y-82470000D03*
X57932500Y-81970000D03*
X57932500Y-81470000D03*
X57932500Y-80970000D03*
X57932500Y-80470000D03*
D45*
X58870000Y-79532500D03*
X59370000Y-79532500D03*
X59870000Y-79532500D03*
X60370000Y-79532500D03*
X60870000Y-79532500D03*
X61370000Y-79532500D03*
X61870000Y-79532500D03*
X62370000Y-79532500D03*
X62870000Y-79532500D03*
D46*
X63807500Y-80470000D03*
X63807500Y-80970000D03*
X63807500Y-81470000D03*
X63807500Y-81970000D03*
X63807500Y-82470000D03*
X63807500Y-82970000D03*
X63807500Y-83470000D03*
X63807500Y-83970000D03*
X63807500Y-84470000D03*
%TD*%
D18*
%TO.C,R38*%
X110684000Y-60150000D03*
X111704000Y-60150000D03*
%TD*%
D22*
%TO.C,R86*%
X69135000Y-92730000D03*
X70785000Y-92730000D03*
%TD*%
D16*
%TO.C,R45*%
X99120000Y-47710000D03*
X99120000Y-48730000D03*
%TD*%
D38*
%TO.C,C19*%
X91000000Y-45850000D03*
X91000000Y-47750000D03*
%TD*%
%TO.C,C64*%
X53900000Y-54550000D03*
X53900000Y-56450000D03*
%TD*%
D19*
%TO.C,C63*%
X54075000Y-85400000D03*
X52525000Y-85400000D03*
%TD*%
D47*
%TO.C,D2*%
X73400000Y-79300000D03*
X75600000Y-79300000D03*
%TD*%
D30*
%TO.C,C56*%
X69805000Y-83140000D03*
X71355000Y-83140000D03*
%TD*%
D33*
%TO.C,R67*%
X61925000Y-50600000D03*
X60275000Y-50600000D03*
%TD*%
D16*
%TO.C,R51*%
X105000000Y-47740000D03*
X105000000Y-48760000D03*
%TD*%
D30*
%TO.C,C27*%
X92825000Y-46700000D03*
X94375000Y-46700000D03*
%TD*%
D48*
%TO.C,Y1*%
X71560000Y-86480000D03*
X69360000Y-86480000D03*
X69360000Y-84880000D03*
X71560000Y-84880000D03*
%TD*%
D31*
%TO.C,R19*%
X67250000Y-51410000D03*
X67250000Y-50390000D03*
%TD*%
D19*
%TO.C,C5*%
X93175000Y-60300000D03*
X91625000Y-60300000D03*
%TD*%
D30*
%TO.C,C62*%
X68025000Y-78900000D03*
X69575000Y-78900000D03*
%TD*%
D32*
%TO.C,D5*%
X73827500Y-92590000D03*
X72427500Y-92590000D03*
%TD*%
D49*
%TO.C,J4*%
X90400000Y-42350000D03*
X91400000Y-42350000D03*
X92400000Y-42350000D03*
X93400000Y-42350000D03*
X94400000Y-42350000D03*
X95400000Y-42350000D03*
X96400000Y-42350000D03*
X97400000Y-42350000D03*
X98400000Y-42350000D03*
X99400000Y-42350000D03*
X100400000Y-42350000D03*
X101400000Y-42350000D03*
X102400000Y-42350000D03*
X103400000Y-42350000D03*
X104400000Y-42350000D03*
D50*
X87410000Y-39550000D03*
X107390000Y-39550000D03*
%TD*%
D16*
%TO.C,R43*%
X97140000Y-47710000D03*
X97140000Y-48730000D03*
%TD*%
D23*
%TO.C,C26*%
X54300000Y-49950000D03*
X54300000Y-51500000D03*
%TD*%
D16*
%TO.C,R50*%
X104060000Y-47730000D03*
X104060000Y-48750000D03*
%TD*%
D36*
%TO.C,R96*%
X60700000Y-75800000D03*
X60700000Y-74150000D03*
%TD*%
D31*
%TO.C,R18*%
X66100000Y-51410000D03*
X66100000Y-50390000D03*
%TD*%
D33*
%TO.C,R87*%
X54715000Y-92700000D03*
X53065000Y-92700000D03*
%TD*%
D18*
%TO.C,R41*%
X110544000Y-55170000D03*
X111564000Y-55170000D03*
%TD*%
D36*
%TO.C,R99*%
X62200000Y-75800000D03*
X62200000Y-74150000D03*
%TD*%
D33*
%TO.C,R30*%
X93625000Y-66300000D03*
X91975000Y-66300000D03*
%TD*%
D23*
%TO.C,C49*%
X89900000Y-79525000D03*
X89900000Y-81075000D03*
%TD*%
D35*
%TO.C,R32*%
X111944000Y-70870000D03*
X110924000Y-70870000D03*
%TD*%
D24*
%TO.C,FL1*%
X67375000Y-89075000D03*
X67375000Y-90745000D03*
X66505000Y-90745000D03*
X66505000Y-89075000D03*
%TD*%
D22*
%TO.C,R88*%
X77825000Y-92720000D03*
X79475000Y-92720000D03*
%TD*%
D33*
%TO.C,R62*%
X52325000Y-67200000D03*
X50675000Y-67200000D03*
%TD*%
D31*
%TO.C,R28*%
X76650000Y-51410000D03*
X76650000Y-50390000D03*
%TD*%
D51*
%TO.C,D10*%
X45500000Y-97800000D03*
X45500000Y-99200000D03*
%TD*%
D31*
%TO.C,R23*%
X71600000Y-51410000D03*
X71600000Y-50390000D03*
%TD*%
D23*
%TO.C,C54*%
X108500000Y-79325000D03*
X108500000Y-80875000D03*
%TD*%
D22*
%TO.C,R94*%
X75095000Y-89590000D03*
X76745000Y-89590000D03*
%TD*%
D31*
%TO.C,R22*%
X70350000Y-51410000D03*
X70350000Y-50390000D03*
%TD*%
%TO.C,R20*%
X68200000Y-51410000D03*
X68200000Y-50390000D03*
%TD*%
D22*
%TO.C,R103*%
X52475000Y-79400000D03*
X54125000Y-79400000D03*
%TD*%
D24*
%TO.C,FL2*%
X63100000Y-89000000D03*
X63100000Y-90670000D03*
X62230000Y-90670000D03*
X62230000Y-89000000D03*
%TD*%
D18*
%TO.C,R42*%
X110524000Y-53760000D03*
X111544000Y-53760000D03*
%TD*%
D33*
%TO.C,R64*%
X52325000Y-70400000D03*
X50675000Y-70400000D03*
%TD*%
D30*
%TO.C,C24*%
X92900000Y-45100000D03*
X94450000Y-45100000D03*
%TD*%
D33*
%TO.C,R63*%
X52325000Y-68800000D03*
X50675000Y-68800000D03*
%TD*%
D18*
%TO.C,R37*%
X110684000Y-61090000D03*
X111704000Y-61090000D03*
%TD*%
M02*
