M48
; DRILL file {KiCad 8.0.3} date 2024-11-01T12:04:28+0000
; FORMAT={-:-/ absolute / inch / decimal}
; #@! TF.CreationDate,2024-11-01T12:04:28+00:00
; #@! TF.GenerationSoftware,Kicad,Pcbnew,8.0.3
; #@! TF.FileFunction,Plated,1,6,PTH
FMAT,2
INCH
; #@! TA.AperFunction,Plated,PTH,ComponentDrill
T1C0.0157
; #@! TA.AperFunction,Plated,PTH,ComponentDrill
T2C0.0236
; #@! TA.AperFunction,Plated,PTH,ComponentDrill
T3C0.0256
; #@! TA.AperFunction,Plated,PTH,ComponentDrill
T4C0.0394
; #@! TA.AperFunction,Plated,PTH,ComponentDrill
T5C0.1575
; #@! TA.AperFunction,Plated,PTH,ComponentDrill
T6C0.1732
%
G90
G05
T1
X2.162Y-3.7372
X2.162Y-3.7904
X2.1955Y-3.7372
X2.1955Y-3.7904
X2.2289Y-3.7372
X2.2289Y-3.7904
X2.2624Y-3.7372
X2.2624Y-3.7904
X2.2959Y-3.7372
X2.2959Y-3.7904
X2.3293Y-3.7372
X2.3293Y-3.7904
X2.3628Y-3.7372
X2.3628Y-3.7904
X2.3963Y-3.7372
X2.3963Y-3.7904
X2.8124Y-3.7372
X2.8124Y-3.7904
X2.8459Y-3.7372
X2.8459Y-3.7904
X2.8793Y-3.7372
X2.8793Y-3.7904
X2.9128Y-3.7372
X2.9128Y-3.7904
X2.9463Y-3.7372
X2.9463Y-3.7904
X2.9797Y-3.7372
X2.9797Y-3.7904
X3.0132Y-3.7372
X3.0132Y-3.7904
X3.0467Y-3.7372
X3.0467Y-3.7904
T2
X1.4567Y-1.5748
X1.4567Y-3.8148
X1.4913Y-1.4913
X1.4913Y-1.6583
X1.4913Y-3.7313
X1.4913Y-3.8983
X1.5748Y-1.4567
X1.5748Y-1.6929
X1.5748Y-3.6967
X1.5748Y-3.9329
X1.6583Y-1.4913
X1.6583Y-1.6583
X1.6583Y-3.7313
X1.6583Y-3.8983
X1.6929Y-1.5748
X1.6929Y-3.8148
X4.4312Y-1.5748
X4.4312Y-3.8148
X4.4658Y-1.4913
X4.4658Y-1.6583
X4.4658Y-3.7313
X4.4658Y-3.8983
X4.5493Y-1.4567
X4.5493Y-1.6929
X4.5493Y-3.6967
X4.5493Y-3.9329
X4.6328Y-1.4913
X4.6328Y-1.6583
X4.6328Y-3.7313
X4.6328Y-3.8983
X4.6674Y-1.5748
X4.6674Y-3.8148
T3
X1.8819Y-3.7476
X1.8819Y-3.7976
X1.8819Y-3.8476
X1.8819Y-3.8976
T4
X1.5299Y-3.1236
X1.5299Y-3.2236
X1.5299Y-3.3236
X1.5299Y-3.4236
X1.5299Y-3.5236
X1.6299Y-3.1236
X1.6299Y-3.2236
X1.6299Y-3.3236
X1.6299Y-3.4236
X1.6299Y-3.5236
T5
X1.5748Y-1.5748
X1.5748Y-3.8148
X4.5493Y-1.5748
X4.5493Y-3.8148
T6
X1.5748Y-2.6969
X2.2835Y-2.6969
X2.7559Y-2.6969
T2
G00X2.1089Y-3.7463
M15
G01X2.1089Y-3.8053
M16
G05
G00X2.1089Y-3.8931
M15
G01X2.1089Y-3.9246
M16
G05
G00X2.4494Y-3.7463
M15
G01X2.4494Y-3.8053
M16
G05
G00X2.4494Y-3.8931
M15
G01X2.4494Y-3.9246
M16
G05
G00X2.7593Y-3.7463
M15
G01X2.7593Y-3.8053
M16
G05
G00X2.7593Y-3.8931
M15
G01X2.7593Y-3.9246
M16
G05
G00X3.0998Y-3.7463
M15
G01X3.0998Y-3.8053
M16
G05
G00X3.0998Y-3.8931
M15
G01X3.0998Y-3.9246
M16
G05
M30
