%TF.GenerationSoftware,KiCad,Pcbnew,8.0.3*%
%TF.CreationDate,2024-11-01T12:04:32+00:00*%
%TF.ProjectId,CM4RadarBoard,434d3452-6164-4617-9242-6f6172642e6b,rev?*%
%TF.SameCoordinates,Original*%
%TF.FileFunction,Copper,L1,Top*%
%TF.FilePolarity,Positive*%
%FSLAX46Y46*%
G04 Gerber Fmt 4.6, Leading zero omitted, Abs format (unit mm)*
G04 Created by KiCad (PCBNEW 8.0.3) date 2024-11-01 12:04:32*
%MOMM*%
%LPD*%
G01*
G04 APERTURE LIST*
G04 Aperture macros list*
%AMRoundRect*
0 Rectangle with rounded corners*
0 $1 Rounding radius*
0 $2 $3 $4 $5 $6 $7 $8 $9 X,Y pos of 4 corners*
0 Add a 4 corners polygon primitive as box body*
4,1,4,$2,$3,$4,$5,$6,$7,$8,$9,$2,$3,0*
0 Add four circle primitives for the rounded corners*
1,1,$1+$1,$2,$3*
1,1,$1+$1,$4,$5*
1,1,$1+$1,$6,$7*
1,1,$1+$1,$8,$9*
0 Add four rect primitives between the rounded corners*
20,1,$1+$1,$2,$3,$4,$5,0*
20,1,$1+$1,$4,$5,$6,$7,0*
20,1,$1+$1,$6,$7,$8,$9,0*
20,1,$1+$1,$8,$9,$2,$3,0*%
G04 Aperture macros list end*
%TA.AperFunction,ComponentPad*%
%ADD10C,7.400000*%
%TD*%
%TA.AperFunction,SMDPad,CuDef*%
%ADD11R,0.650000X1.500000*%
%TD*%
%TA.AperFunction,SMDPad,CuDef*%
%ADD12R,3.350000X2.710000*%
%TD*%
%TA.AperFunction,SMDPad,CuDef*%
%ADD13R,1.500000X0.650000*%
%TD*%
%TA.AperFunction,SMDPad,CuDef*%
%ADD14R,2.710000X3.350000*%
%TD*%
%TA.AperFunction,SMDPad,CuDef*%
%ADD15C,2.000000*%
%TD*%
%TA.AperFunction,SMDPad,CuDef*%
%ADD16R,3.400000X0.980000*%
%TD*%
%TA.AperFunction,SMDPad,CuDef*%
%ADD17RoundRect,0.250000X0.650000X-1.000000X0.650000X1.000000X-0.650000X1.000000X-0.650000X-1.000000X0*%
%TD*%
%TA.AperFunction,SMDPad,CuDef*%
%ADD18RoundRect,0.135000X-0.135000X-0.185000X0.135000X-0.185000X0.135000X0.185000X-0.135000X0.185000X0*%
%TD*%
%TA.AperFunction,SMDPad,CuDef*%
%ADD19RoundRect,0.250000X0.250000X0.475000X-0.250000X0.475000X-0.250000X-0.475000X0.250000X-0.475000X0*%
%TD*%
%TA.AperFunction,SMDPad,CuDef*%
%ADD20RoundRect,0.225000X-0.225000X-0.250000X0.225000X-0.250000X0.225000X0.250000X-0.225000X0.250000X0*%
%TD*%
%TA.AperFunction,ComponentPad*%
%ADD21C,0.700000*%
%TD*%
%TA.AperFunction,ComponentPad*%
%ADD22O,0.900000X2.400000*%
%TD*%
%TA.AperFunction,ComponentPad*%
%ADD23O,0.900000X1.700000*%
%TD*%
%TA.AperFunction,SMDPad,CuDef*%
%ADD24RoundRect,0.150000X-0.587500X-0.150000X0.587500X-0.150000X0.587500X0.150000X-0.587500X0.150000X0*%
%TD*%
%TA.AperFunction,SMDPad,CuDef*%
%ADD25R,0.980000X3.400000*%
%TD*%
%TA.AperFunction,SMDPad,CuDef*%
%ADD26RoundRect,0.135000X0.135000X0.185000X-0.135000X0.185000X-0.135000X-0.185000X0.135000X-0.185000X0*%
%TD*%
%TA.AperFunction,SMDPad,CuDef*%
%ADD27RoundRect,0.250000X-0.475000X0.250000X-0.475000X-0.250000X0.475000X-0.250000X0.475000X0.250000X0*%
%TD*%
%TA.AperFunction,SMDPad,CuDef*%
%ADD28RoundRect,0.200000X0.200000X0.275000X-0.200000X0.275000X-0.200000X-0.275000X0.200000X-0.275000X0*%
%TD*%
%TA.AperFunction,SMDPad,CuDef*%
%ADD29RoundRect,0.200000X-0.275000X0.200000X-0.275000X-0.200000X0.275000X-0.200000X0.275000X0.200000X0*%
%TD*%
%TA.AperFunction,SMDPad,CuDef*%
%ADD30RoundRect,0.250000X0.475000X-0.250000X0.475000X0.250000X-0.475000X0.250000X-0.475000X-0.250000X0*%
%TD*%
%TA.AperFunction,SMDPad,CuDef*%
%ADD31RoundRect,0.225000X-0.250000X0.225000X-0.250000X-0.225000X0.250000X-0.225000X0.250000X0.225000X0*%
%TD*%
%TA.AperFunction,SMDPad,CuDef*%
%ADD32R,0.700000X0.200000*%
%TD*%
%TA.AperFunction,SMDPad,CuDef*%
%ADD33RoundRect,0.249999X1.425001X-0.450001X1.425001X0.450001X-1.425001X0.450001X-1.425001X-0.450001X0*%
%TD*%
%TA.AperFunction,ComponentPad*%
%ADD34R,1.700000X1.700000*%
%TD*%
%TA.AperFunction,ComponentPad*%
%ADD35O,1.700000X1.700000*%
%TD*%
%TA.AperFunction,SMDPad,CuDef*%
%ADD36RoundRect,0.200000X-0.200000X-0.275000X0.200000X-0.275000X0.200000X0.275000X-0.200000X0.275000X0*%
%TD*%
%TA.AperFunction,SMDPad,CuDef*%
%ADD37RoundRect,0.200000X0.275000X-0.200000X0.275000X0.200000X-0.275000X0.200000X-0.275000X-0.200000X0*%
%TD*%
%TA.AperFunction,SMDPad,CuDef*%
%ADD38RoundRect,0.225000X0.250000X-0.225000X0.250000X0.225000X-0.250000X0.225000X-0.250000X-0.225000X0*%
%TD*%
%TA.AperFunction,SMDPad,CuDef*%
%ADD39RoundRect,0.250000X-0.250000X-0.475000X0.250000X-0.475000X0.250000X0.475000X-0.250000X0.475000X0*%
%TD*%
%TA.AperFunction,SMDPad,CuDef*%
%ADD40R,1.250000X0.760000*%
%TD*%
%TA.AperFunction,SMDPad,CuDef*%
%ADD41RoundRect,0.225000X0.225000X0.250000X-0.225000X0.250000X-0.225000X-0.250000X0.225000X-0.250000X0*%
%TD*%
%TA.AperFunction,SMDPad,CuDef*%
%ADD42RoundRect,0.249999X-1.425001X0.450001X-1.425001X-0.450001X1.425001X-0.450001X1.425001X0.450001X0*%
%TD*%
%TA.AperFunction,SMDPad,CuDef*%
%ADD43RoundRect,0.250000X-0.650000X1.000000X-0.650000X-1.000000X0.650000X-1.000000X0.650000X1.000000X0*%
%TD*%
%TA.AperFunction,SMDPad,CuDef*%
%ADD44RoundRect,0.249999X-0.387501X-0.700001X0.387501X-0.700001X0.387501X0.700001X-0.387501X0.700001X0*%
%TD*%
%TA.AperFunction,SMDPad,CuDef*%
%ADD45RoundRect,0.250001X-0.624999X0.462499X-0.624999X-0.462499X0.624999X-0.462499X0.624999X0.462499X0*%
%TD*%
%TA.AperFunction,ComponentPad*%
%ADD46C,0.900000*%
%TD*%
%TA.AperFunction,ComponentPad*%
%ADD47C,8.000000*%
%TD*%
%TA.AperFunction,SMDPad,CuDef*%
%ADD48R,1.450000X1.000000*%
%TD*%
%TA.AperFunction,SMDPad,CuDef*%
%ADD49R,1.300000X0.300000*%
%TD*%
%TA.AperFunction,SMDPad,CuDef*%
%ADD50R,2.200000X1.800000*%
%TD*%
%TA.AperFunction,SMDPad,CuDef*%
%ADD51R,2.000000X0.610000*%
%TD*%
%TA.AperFunction,SMDPad,CuDef*%
%ADD52R,3.600000X2.680000*%
%TD*%
%TA.AperFunction,ComponentPad*%
%ADD53R,1.000000X1.000000*%
%TD*%
%TA.AperFunction,ComponentPad*%
%ADD54O,1.000000X1.000000*%
%TD*%
%TA.AperFunction,Conductor*%
%ADD55C,0.140000*%
%TD*%
%TA.AperFunction,Conductor*%
%ADD56C,0.100000*%
%TD*%
%TA.AperFunction,Conductor*%
%ADD57C,0.400000*%
%TD*%
%TA.AperFunction,Conductor*%
%ADD58C,0.500000*%
%TD*%
G04 APERTURE END LIST*
D10*
%TO.P,J9,1,1*%
%TO.N,GND*%
X70000000Y-68500000D03*
%TD*%
%TO.P,J8,1,1*%
%TO.N,GND*%
X58000000Y-68500000D03*
%TD*%
%TO.P,J7,1,1*%
%TO.N,GND*%
X40000000Y-68500000D03*
%TD*%
D11*
%TO.P,IC2,1,BST*%
%TO.N,Net-(IC2-BST)*%
X92695000Y-80800000D03*
%TO.P,IC2,2,VIN*%
%TO.N,VUSB*%
X93965000Y-80800000D03*
%TO.P,IC2,3,EN*%
%TO.N,Net-(IC2-EN)*%
X95235000Y-80800000D03*
%TO.P,IC2,4,RT/CLK*%
%TO.N,Net-(IC2-RT{slash}CLK)*%
X96505000Y-80800000D03*
%TO.P,IC2,5,FB*%
%TO.N,Net-(IC2-FB)*%
X96505000Y-75400000D03*
%TO.P,IC2,6,COMP*%
%TO.N,Net-(IC2-COMP)*%
X95235000Y-75400000D03*
%TO.P,IC2,7,GND*%
%TO.N,GND*%
X93965000Y-75400000D03*
%TO.P,IC2,8,SW*%
%TO.N,/PSU/SW2*%
X92695000Y-75400000D03*
D12*
%TO.P,IC2,9,EP*%
%TO.N,GND*%
X94600000Y-78100000D03*
%TD*%
D13*
%TO.P,IC1,1,BST*%
%TO.N,Net-(IC1-BST)*%
X94900000Y-92895000D03*
%TO.P,IC1,2,VIN*%
%TO.N,VUSB*%
X94900000Y-94165000D03*
%TO.P,IC1,3,EN*%
%TO.N,Net-(IC1-EN)*%
X94900000Y-95435000D03*
%TO.P,IC1,4,RT/CLK*%
%TO.N,Net-(IC1-RT{slash}CLK)*%
X94900000Y-96705000D03*
%TO.P,IC1,5,FB*%
%TO.N,Net-(IC1-FB)*%
X100300000Y-96705000D03*
%TO.P,IC1,6,COMP*%
%TO.N,Net-(IC1-COMP)*%
X100300000Y-95435000D03*
%TO.P,IC1,7,GND*%
%TO.N,GND*%
X100300000Y-94165000D03*
%TO.P,IC1,8,SW*%
%TO.N,/PSU/SW1*%
X100300000Y-92895000D03*
D14*
%TO.P,IC1,9,EP*%
%TO.N,GND*%
X97600000Y-94800000D03*
%TD*%
D15*
%TO.P,TP7,1,1*%
%TO.N,Net-(J3-GPIO_2)*%
X91600000Y-24600000D03*
%TD*%
D16*
%TO.P,L1,1,1*%
%TO.N,/PSU/SW1*%
X104100000Y-90285000D03*
%TO.P,L1,2,2*%
%TO.N,+5V*%
X104100000Y-87915000D03*
%TD*%
D17*
%TO.P,D9,1,K*%
%TO.N,Net-(D6-A)*%
X50700000Y-98600000D03*
%TO.P,D9,2,A*%
%TO.N,+5V*%
X50700000Y-94600000D03*
%TD*%
D18*
%TO.P,R13,1*%
%TO.N,/CM4HighSpeed/CAM0_D0_P*%
X104590000Y-48300000D03*
%TO.P,R13,2*%
%TO.N,/CM4HighSpeed/RCAM0_D0_P*%
X105610000Y-48300000D03*
%TD*%
D19*
%TO.P,C20,1*%
%TO.N,+5VRadar0*%
X109250000Y-87700000D03*
%TO.P,C20,2*%
%TO.N,GND*%
X107350000Y-87700000D03*
%TD*%
D18*
%TO.P,R6,1*%
%TO.N,/CM4HighSpeed/CAM0_D3_N*%
X104590000Y-55300000D03*
%TO.P,R6,2*%
%TO.N,/CM4HighSpeed/RCAM0_D3_N*%
X105610000Y-55300000D03*
%TD*%
D20*
%TO.P,C21,1*%
%TO.N,Net-(C21-Pad1)*%
X92325000Y-70300000D03*
%TO.P,C21,2*%
%TO.N,GND*%
X93875000Y-70300000D03*
%TD*%
D21*
%TO.P,J13,A1,GND*%
%TO.N,GND*%
X71435000Y-94925000D03*
%TO.P,J13,A4,VBUS*%
%TO.N,/USB/USBDevAttach*%
X72285000Y-94925000D03*
%TO.P,J13,A5,CC1*%
%TO.N,Net-(J13-CC1)*%
X73135000Y-94925000D03*
%TO.P,J13,A6,D+*%
%TO.N,/USB/USBDev_P*%
X73985000Y-94925000D03*
%TO.P,J13,A7,D-*%
%TO.N,/USB/USBDev_N*%
X74835000Y-94925000D03*
%TO.P,J13,A8,SBU1*%
%TO.N,unconnected-(J13-SBU1-PadA8)*%
X75685000Y-94925000D03*
%TO.P,J13,A9,VBUS*%
%TO.N,/USB/USBDevAttach*%
X76535000Y-94925000D03*
%TO.P,J13,A12,GND*%
%TO.N,GND*%
X77385000Y-94925000D03*
%TO.P,J13,B1,GND*%
X77385000Y-96275000D03*
%TO.P,J13,B4,VBUS*%
%TO.N,/USB/USBDevAttach*%
X76535000Y-96275000D03*
%TO.P,J13,B5,CC2*%
%TO.N,Net-(J13-CC2)*%
X75685000Y-96275000D03*
%TO.P,J13,B6,D+*%
%TO.N,/USB/USBDev_P*%
X74835000Y-96275000D03*
%TO.P,J13,B7,D-*%
%TO.N,/USB/USBDev_N*%
X73985000Y-96275000D03*
%TO.P,J13,B8,SBU2*%
%TO.N,unconnected-(J13-SBU2-PadB8)*%
X73135000Y-96275000D03*
%TO.P,J13,B9,VBUS*%
%TO.N,/USB/USBDevAttach*%
X72285000Y-96275000D03*
%TO.P,J13,B12,GND*%
%TO.N,GND*%
X71435000Y-96275000D03*
D22*
%TO.P,J13,S1,SHIELD*%
%TO.N,unconnected-(J13-SHIELD-PadS1)*%
X70085000Y-95905000D03*
D23*
X70085000Y-99285000D03*
D22*
X78735000Y-95905000D03*
D23*
X78735000Y-99285000D03*
%TD*%
D24*
%TO.P,Q3,1,G*%
%TO.N,Net-(Q3-G)*%
X22387500Y-37195000D03*
%TO.P,Q3,2,S*%
%TO.N,GND*%
X22387500Y-39095000D03*
%TO.P,Q3,3,D*%
%TO.N,Net-(Q3-D)*%
X24262500Y-38145000D03*
%TD*%
D25*
%TO.P,L2,1,1*%
%TO.N,/PSU/SW2*%
X90185000Y-72000000D03*
%TO.P,L2,2,2*%
%TO.N,+3V3*%
X87815000Y-72000000D03*
%TD*%
D26*
%TO.P,R56,1*%
%TO.N,/CM4LowSpeed/CAM0_nRESET*%
X108140000Y-75040000D03*
%TO.P,R56,2*%
%TO.N,Net-(J5-Pin_11)*%
X107120000Y-75040000D03*
%TD*%
D27*
%TO.P,C46,1*%
%TO.N,+3V3*%
X88600000Y-75180000D03*
%TO.P,C46,2*%
%TO.N,GND*%
X88600000Y-77080000D03*
%TD*%
D24*
%TO.P,Q1,1,G*%
%TO.N,Net-(Q1-G)*%
X100962500Y-82350000D03*
%TO.P,Q1,2,S*%
%TO.N,+5V*%
X100962500Y-84250000D03*
%TO.P,Q1,3,D*%
%TO.N,Net-(Q1-D)*%
X102837500Y-83300000D03*
%TD*%
D28*
%TO.P,R78,1*%
%TO.N,+5V*%
X103895000Y-97480000D03*
%TO.P,R78,2*%
%TO.N,Net-(IC1-FB)*%
X102245000Y-97480000D03*
%TD*%
D15*
%TO.P,TP10,1,1*%
%TO.N,Net-(J3-PEWAKEn)*%
X103750000Y-24600000D03*
%TD*%
D29*
%TO.P,R1,1*%
%TO.N,/CAM0_SCL*%
X101200000Y-63075000D03*
%TO.P,R1,2*%
%TO.N,/CM4LowSpeed/RCAM0_SCL*%
X101200000Y-64725000D03*
%TD*%
D30*
%TO.P,C8,1*%
%TO.N,+5V*%
X37300000Y-76350000D03*
%TO.P,C8,2*%
%TO.N,GND*%
X37300000Y-74450000D03*
%TD*%
D18*
%TO.P,R3,1*%
%TO.N,/CM4HighSpeed/CAM0_LED_EN*%
X104590000Y-58300000D03*
%TO.P,R3,2*%
%TO.N,Net-(J1-Pin_5)*%
X105610000Y-58300000D03*
%TD*%
D29*
%TO.P,R65,1*%
%TO.N,/CAM0_SDA*%
X105900000Y-61975000D03*
%TO.P,R65,2*%
%TO.N,+3V3*%
X105900000Y-63625000D03*
%TD*%
D31*
%TO.P,C40,1*%
%TO.N,Net-(C40-Pad1)*%
X93875000Y-71925000D03*
%TO.P,C40,2*%
%TO.N,GND*%
X93875000Y-73475000D03*
%TD*%
D24*
%TO.P,Q2,1,G*%
%TO.N,Net-(Q2-G)*%
X22387500Y-32570000D03*
%TO.P,Q2,2,S*%
%TO.N,GND*%
X22387500Y-34470000D03*
%TO.P,Q2,3,D*%
%TO.N,Net-(Q1-G)*%
X24262500Y-33520000D03*
%TD*%
D29*
%TO.P,R71,1*%
%TO.N,Net-(IC1-EN)*%
X92680000Y-97465000D03*
%TO.P,R71,2*%
%TO.N,GND*%
X92680000Y-99115000D03*
%TD*%
D32*
%TO.P,Module1,1,GND*%
%TO.N,GND*%
X46780000Y-56900000D03*
%TO.P,Module1,2,GND*%
X49860000Y-56900000D03*
%TO.P,Module1,3,Ethernet_Pair3_P*%
%TO.N,unconnected-(Module1A-Ethernet_Pair3_P-Pad3)*%
X46780000Y-57300000D03*
%TO.P,Module1,4,Ethernet_Pair1_P*%
%TO.N,unconnected-(Module1A-Ethernet_Pair1_P-Pad4)*%
X49860000Y-57300000D03*
%TO.P,Module1,5,Ethernet_Pair3_N*%
%TO.N,unconnected-(Module1A-Ethernet_Pair3_N-Pad5)*%
X46780000Y-57700000D03*
%TO.P,Module1,6,Ethernet_Pair1_N*%
%TO.N,unconnected-(Module1A-Ethernet_Pair1_N-Pad6)*%
X49860000Y-57700000D03*
%TO.P,Module1,7,GND*%
%TO.N,GND*%
X46780000Y-58100000D03*
%TO.P,Module1,8,GND*%
X49860000Y-58100000D03*
%TO.P,Module1,9,Ethernet_Pair2_N*%
%TO.N,unconnected-(Module1A-Ethernet_Pair2_N-Pad9)*%
X46780000Y-58500000D03*
%TO.P,Module1,10,Ethernet_Pair0_N*%
%TO.N,unconnected-(Module1A-Ethernet_Pair0_N-Pad10)*%
X49860000Y-58500000D03*
%TO.P,Module1,11,Ethernet_Pair2_P*%
%TO.N,unconnected-(Module1A-Ethernet_Pair2_P-Pad11)*%
X46780000Y-58900000D03*
%TO.P,Module1,12,Ethernet_Pair0_P*%
%TO.N,unconnected-(Module1A-Ethernet_Pair0_P-Pad12)*%
X49860000Y-58900000D03*
%TO.P,Module1,13,GND*%
%TO.N,GND*%
X46780000Y-59300000D03*
%TO.P,Module1,14,GND*%
X49860000Y-59300000D03*
%TO.P,Module1,15,Ethernet_nLED3(3.3v)*%
%TO.N,unconnected-(Module1A-Ethernet_nLED3(3.3v)-Pad15)*%
X46780000Y-59700000D03*
%TO.P,Module1,16,Ethernet_SYNC_IN(1.8v)*%
%TO.N,unconnected-(Module1A-Ethernet_SYNC_IN(1.8v)-Pad16)*%
X49860000Y-59700000D03*
%TO.P,Module1,17,Ethernet_nLED2(3.3v)*%
%TO.N,unconnected-(Module1A-Ethernet_nLED2(3.3v)-Pad17)*%
X46780000Y-60100000D03*
%TO.P,Module1,18,Ethernet_SYNC_OUT(1.8v)*%
%TO.N,unconnected-(Module1A-Ethernet_SYNC_OUT(1.8v)-Pad18)*%
X49860000Y-60100000D03*
%TO.P,Module1,19,Ethernet_nLED1(3.3v)*%
%TO.N,unconnected-(Module1A-Ethernet_nLED1(3.3v)-Pad19)*%
X46780000Y-60500000D03*
%TO.P,Module1,20,EEPROM_nWP*%
%TO.N,/CM4LowSpeed/EEPROM_nWP*%
X49860000Y-60500000D03*
%TO.P,Module1,21,PI_nLED_Activity*%
%TO.N,unconnected-(Module1A-PI_nLED_Activity-Pad21)*%
X46780000Y-60900000D03*
%TO.P,Module1,22,GND*%
%TO.N,GND*%
X49860000Y-60900000D03*
%TO.P,Module1,23,GND*%
X46780000Y-61300000D03*
%TO.P,Module1,24,GPIO26*%
%TO.N,unconnected-(Module1A-GPIO26-Pad24)*%
X49860000Y-61300000D03*
%TO.P,Module1,25,GPIO21*%
%TO.N,unconnected-(Module1A-GPIO21-Pad25)*%
X46780000Y-61700000D03*
%TO.P,Module1,26,GPIO19*%
%TO.N,unconnected-(Module1A-GPIO19-Pad26)*%
X49860000Y-61700000D03*
%TO.P,Module1,27,GPIO20*%
%TO.N,unconnected-(Module1A-GPIO20-Pad27)*%
X46780000Y-62100000D03*
%TO.P,Module1,28,GPIO13*%
%TO.N,unconnected-(Module1A-GPIO13-Pad28)*%
X49860000Y-62100000D03*
%TO.P,Module1,29,GPIO16*%
%TO.N,unconnected-(Module1A-GPIO16-Pad29)*%
X46780000Y-62500000D03*
%TO.P,Module1,30,GPIO6*%
%TO.N,unconnected-(Module1A-GPIO6-Pad30)*%
X49860000Y-62500000D03*
%TO.P,Module1,31,GPIO12*%
%TO.N,unconnected-(Module1A-GPIO12-Pad31)*%
X46780000Y-62900000D03*
%TO.P,Module1,32,GND*%
%TO.N,GND*%
X49860000Y-62900000D03*
%TO.P,Module1,33,GND*%
X46780000Y-63300000D03*
%TO.P,Module1,34,GPIO5*%
%TO.N,unconnected-(Module1A-GPIO5-Pad34)*%
X49860000Y-63300000D03*
%TO.P,Module1,35,ID_SC*%
%TO.N,/CM4LowSpeed/RCAM0_SCL*%
X46780000Y-63700000D03*
%TO.P,Module1,36,ID_SD*%
%TO.N,/CM4LowSpeed/RCAM0_SDA*%
X49860000Y-63700000D03*
%TO.P,Module1,37,GPIO7*%
%TO.N,unconnected-(Module1A-GPIO7-Pad37)*%
X46780000Y-64100000D03*
%TO.P,Module1,38,GPIO11*%
%TO.N,unconnected-(Module1A-GPIO11-Pad38)*%
X49860000Y-64100000D03*
%TO.P,Module1,39,GPIO8*%
%TO.N,unconnected-(Module1A-GPIO8-Pad39)*%
X46780000Y-64500000D03*
%TO.P,Module1,40,GPIO9*%
%TO.N,unconnected-(Module1A-GPIO9-Pad40)*%
X49860000Y-64500000D03*
%TO.P,Module1,41,GPIO25*%
%TO.N,unconnected-(Module1A-GPIO25-Pad41)*%
X46780000Y-64900000D03*
%TO.P,Module1,42,GND*%
%TO.N,GND*%
X49860000Y-64900000D03*
%TO.P,Module1,43,GND*%
X46780000Y-65300000D03*
%TO.P,Module1,44,GPIO10*%
%TO.N,unconnected-(Module1A-GPIO10-Pad44)*%
X49860000Y-65300000D03*
%TO.P,Module1,45,GPIO24*%
%TO.N,unconnected-(Module1A-GPIO24-Pad45)*%
X46780000Y-65700000D03*
%TO.P,Module1,46,GPIO22*%
%TO.N,unconnected-(Module1A-GPIO22-Pad46)*%
X49860000Y-65700000D03*
%TO.P,Module1,47,GPIO23*%
%TO.N,unconnected-(Module1A-GPIO23-Pad47)*%
X46780000Y-66100000D03*
%TO.P,Module1,48,GPIO27*%
%TO.N,unconnected-(Module1A-GPIO27-Pad48)*%
X49860000Y-66100000D03*
%TO.P,Module1,49,GPIO18*%
%TO.N,unconnected-(Module1A-GPIO18-Pad49)*%
X46780000Y-66500000D03*
%TO.P,Module1,50,GPIO17*%
%TO.N,unconnected-(Module1A-GPIO17-Pad50)*%
X49860000Y-66500000D03*
%TO.P,Module1,51,GPIO15*%
%TO.N,unconnected-(Module1A-GPIO15-Pad51)*%
X46780000Y-66900000D03*
%TO.P,Module1,52,GND*%
%TO.N,GND*%
X49860000Y-66900000D03*
%TO.P,Module1,53,GND*%
X46780000Y-67300000D03*
%TO.P,Module1,54,GPIO4*%
%TO.N,unconnected-(Module1A-GPIO4-Pad54)*%
X49860000Y-67300000D03*
%TO.P,Module1,55,GPIO14*%
%TO.N,unconnected-(Module1A-GPIO14-Pad55)*%
X46780000Y-67700000D03*
%TO.P,Module1,56,GPIO3*%
%TO.N,unconnected-(Module1A-GPIO3-Pad56)*%
X49860000Y-67700000D03*
%TO.P,Module1,57,SD_CLK*%
%TO.N,/SD_CLK*%
X46780000Y-68100000D03*
%TO.P,Module1,58,GPIO2*%
%TO.N,unconnected-(Module1A-GPIO2-Pad58)*%
X49860000Y-68100000D03*
%TO.P,Module1,59,GND*%
%TO.N,GND*%
X46780000Y-68500000D03*
%TO.P,Module1,60,GND*%
X49860000Y-68500000D03*
%TO.P,Module1,61,SD_DAT3*%
%TO.N,/SD_D3*%
X46780000Y-68900000D03*
%TO.P,Module1,62,SD_CMD*%
%TO.N,/SD_CMD*%
X49860000Y-68900000D03*
%TO.P,Module1,63,SD_DAT0*%
%TO.N,/SD_D0*%
X46780000Y-69300000D03*
%TO.P,Module1,64,SD_DAT5*%
%TO.N,unconnected-(Module1A-SD_DAT5-Pad64)*%
X49860000Y-69300000D03*
%TO.P,Module1,65,GND*%
%TO.N,GND*%
X46780000Y-69700000D03*
%TO.P,Module1,66,GND*%
X49860000Y-69700000D03*
%TO.P,Module1,67,SD_DAT1*%
%TO.N,/SD_D1*%
X46780000Y-70100000D03*
%TO.P,Module1,68,SD_DAT4*%
%TO.N,unconnected-(Module1A-SD_DAT4-Pad68)*%
X49860000Y-70100000D03*
%TO.P,Module1,69,SD_DAT2*%
%TO.N,/SD_D2*%
X46780000Y-70500000D03*
%TO.P,Module1,70,SD_DAT7*%
%TO.N,unconnected-(Module1A-SD_DAT7-Pad70)*%
X49860000Y-70500000D03*
%TO.P,Module1,71,GND*%
%TO.N,GND*%
X46780000Y-70900000D03*
%TO.P,Module1,72,SD_DAT6*%
%TO.N,unconnected-(Module1A-SD_DAT6-Pad72)*%
X49860000Y-70900000D03*
%TO.P,Module1,73,SD_VDD_Override*%
%TO.N,unconnected-(Module1A-SD_VDD_Override-Pad73)*%
X46780000Y-71300000D03*
%TO.P,Module1,74,GND*%
%TO.N,GND*%
X49860000Y-71300000D03*
%TO.P,Module1,75,SD_PWR_ON*%
%TO.N,unconnected-(Module1A-SD_PWR_ON-Pad75)*%
X46780000Y-71700000D03*
%TO.P,Module1,76,Reserved*%
%TO.N,unconnected-(Module1A-Reserved-Pad76)*%
X49860000Y-71700000D03*
%TO.P,Module1,77,+5v_(Input)*%
%TO.N,+5V*%
X46780000Y-72100000D03*
%TO.P,Module1,78,GPIO_VREF(1.8v/3.3v_Input)*%
%TO.N,/CM4LowSpeed/VREF_GPIO*%
X49860000Y-72100000D03*
%TO.P,Module1,79,+5v_(Input)*%
%TO.N,+5V*%
X46780000Y-72500000D03*
%TO.P,Module1,80,SCL0*%
%TO.N,/CM4LowSpeed/RCAM1_SCL*%
X49860000Y-72500000D03*
%TO.P,Module1,81,+5v_(Input)*%
%TO.N,+5V*%
X46780000Y-72900000D03*
%TO.P,Module1,82,SDA0*%
%TO.N,/CM4LowSpeed/RCAM1_SDA*%
X49860000Y-72900000D03*
%TO.P,Module1,83,+5v_(Input)*%
%TO.N,+5V*%
X46780000Y-73300000D03*
%TO.P,Module1,84,+3.3v_(Output)*%
%TO.N,/CM4LowSpeed/3V3_GPIO*%
X49860000Y-73300000D03*
%TO.P,Module1,85,+5v_(Input)*%
%TO.N,+5V*%
X46780000Y-73700000D03*
%TO.P,Module1,86,+3.3v_(Output)*%
%TO.N,/CM4LowSpeed/3V3_GPIO*%
X49860000Y-73700000D03*
%TO.P,Module1,87,+5v_(Input)*%
%TO.N,+5V*%
X46780000Y-74100000D03*
%TO.P,Module1,88,+1.8v_(Output)*%
%TO.N,/CM4LowSpeed/1V8_GPIO*%
X49860000Y-74100000D03*
%TO.P,Module1,89,WiFi_nDisable*%
%TO.N,Net-(Module1A-WiFi_nDisable)*%
X46780000Y-74500000D03*
%TO.P,Module1,90,+1.8v_(Output)*%
%TO.N,/CM4LowSpeed/1V8_GPIO*%
X49860000Y-74500000D03*
%TO.P,Module1,91,BT_nDisable*%
%TO.N,Net-(Module1A-BT_nDisable)*%
X46780000Y-74900000D03*
%TO.P,Module1,92,RUN_PG*%
%TO.N,/CM4LowSpeed/RUN_PG*%
X49860000Y-74900000D03*
%TO.P,Module1,93,nRPIBOOT*%
%TO.N,/CM4LowSpeed/RPI_nBOOT*%
X46780000Y-75300000D03*
%TO.P,Module1,94,AnalogIP1*%
%TO.N,unconnected-(Module1A-AnalogIP1-Pad94)*%
X49860000Y-75300000D03*
%TO.P,Module1,95,nPI_LED_PWR*%
%TO.N,unconnected-(Module1A-nPI_LED_PWR-Pad95)*%
X46780000Y-75700000D03*
%TO.P,Module1,96,AnalogIP0*%
%TO.N,unconnected-(Module1A-AnalogIP0-Pad96)*%
X49860000Y-75700000D03*
%TO.P,Module1,97,Camera_GPIO*%
%TO.N,unconnected-(Module1A-Camera_GPIO-Pad97)*%
X46780000Y-76100000D03*
%TO.P,Module1,98,GND*%
%TO.N,GND*%
X49860000Y-76100000D03*
%TO.P,Module1,99,Global_EN*%
%TO.N,/CM4LowSpeed/GLOBAL_EN*%
X46780000Y-76500000D03*
%TO.P,Module1,100,nEXTRST*%
%TO.N,/nEXTRST*%
X49860000Y-76500000D03*
%TO.P,Module1,101,USB_OTG_ID*%
%TO.N,/USB_OTG*%
X80700000Y-56900000D03*
%TO.P,Module1,102,PCIe_CLK_nREQ*%
%TO.N,/CM4HighSpeed/PCIE_nCLKREQ*%
X83780000Y-56900000D03*
%TO.P,Module1,103,USB2_N*%
%TO.N,/USB2_N*%
X80700000Y-57300000D03*
%TO.P,Module1,104,Reserved*%
%TO.N,unconnected-(Module1B-Reserved-Pad104)*%
X83780000Y-57300000D03*
%TO.P,Module1,105,USB2_P*%
%TO.N,/USB2_P*%
X80700000Y-57700000D03*
%TO.P,Module1,106,Reserved*%
%TO.N,unconnected-(Module1B-Reserved-Pad106)*%
X83780000Y-57700000D03*
%TO.P,Module1,107,GND*%
%TO.N,GND*%
X80700000Y-58100000D03*
%TO.P,Module1,108,GND*%
X83780000Y-58100000D03*
%TO.P,Module1,109,PCIe_nRST*%
%TO.N,/CM4HighSpeed/PCIE_nRST*%
X80700000Y-58500000D03*
%TO.P,Module1,110,PCIe_CLK_P*%
%TO.N,/CM4HighSpeed/PCIE_CK_P*%
X83780000Y-58500000D03*
%TO.P,Module1,111,VDAC_COMP*%
%TO.N,unconnected-(Module1B-VDAC_COMP-Pad111)*%
X80700000Y-58900000D03*
%TO.P,Module1,112,PCIe_CLK_N*%
%TO.N,/CM4HighSpeed/PCIE_CK_N*%
X83780000Y-58900000D03*
%TO.P,Module1,113,GND*%
%TO.N,GND*%
X80700000Y-59300000D03*
%TO.P,Module1,114,GND*%
X83780000Y-59300000D03*
%TO.P,Module1,115,CAM1_D0_N*%
%TO.N,/CM4HighSpeed/CAM1_D0_N*%
X80700000Y-59700000D03*
%TO.P,Module1,116,PCIe_RX_P*%
%TO.N,/CM4HighSpeed/PCIE_RX_P*%
X83780000Y-59700000D03*
%TO.P,Module1,117,CAM1_D0_P*%
%TO.N,/CM4HighSpeed/CAM1_D0_P*%
X80700000Y-60100000D03*
%TO.P,Module1,118,PCIe_RX_N*%
%TO.N,/CM4HighSpeed/PCIE_RX_N*%
X83780000Y-60100000D03*
%TO.P,Module1,119,GND*%
%TO.N,GND*%
X80700000Y-60500000D03*
%TO.P,Module1,120,GND*%
X83780000Y-60500000D03*
%TO.P,Module1,121,CAM1_D1_N*%
%TO.N,/CM4HighSpeed/CAM1_D1_N*%
X80700000Y-60900000D03*
%TO.P,Module1,122,PCIe_TX_P*%
%TO.N,/CM4HighSpeed/PCIE_TX_P*%
X83780000Y-60900000D03*
%TO.P,Module1,123,CAM1_D1_P*%
%TO.N,/CM4HighSpeed/CAM1_D1_P*%
X80700000Y-61300000D03*
%TO.P,Module1,124,PCIe_TX_N*%
%TO.N,/CM4HighSpeed/PCIE_TX_N*%
X83780000Y-61300000D03*
%TO.P,Module1,125,GND*%
%TO.N,GND*%
X80700000Y-61700000D03*
%TO.P,Module1,126,GND*%
X83780000Y-61700000D03*
%TO.P,Module1,127,CAM1_C_N*%
%TO.N,/CM4HighSpeed/CAM1_CK_N*%
X80700000Y-62100000D03*
%TO.P,Module1,128,CAM0_D0_N*%
%TO.N,/CM4HighSpeed/CAM0_D0_N*%
X83780000Y-62100000D03*
%TO.P,Module1,129,CAM1_C_P*%
%TO.N,/CM4HighSpeed/CAM1_CK_P*%
X80700000Y-62500000D03*
%TO.P,Module1,130,CAM0_D0_P*%
%TO.N,/CM4HighSpeed/CAM0_D0_P*%
X83780000Y-62500000D03*
%TO.P,Module1,131,GND*%
%TO.N,GND*%
X80700000Y-62900000D03*
%TO.P,Module1,132,GND*%
X83780000Y-62900000D03*
%TO.P,Module1,133,CAM1_D2_N*%
%TO.N,/CM4HighSpeed/CAM1_D2_N*%
X80700000Y-63300000D03*
%TO.P,Module1,134,CAM0_D1_N*%
%TO.N,/CM4HighSpeed/CAM0_D1_N*%
X83780000Y-63300000D03*
%TO.P,Module1,135,CAM1_D2_P*%
%TO.N,/CM4HighSpeed/CAM1_D2_P*%
X80700000Y-63700000D03*
%TO.P,Module1,136,CAM0_D1_P*%
%TO.N,/CM4HighSpeed/CAM0_D1_P*%
X83780000Y-63700000D03*
%TO.P,Module1,137,GND*%
%TO.N,GND*%
X80700000Y-64100000D03*
%TO.P,Module1,138,GND*%
X83780000Y-64100000D03*
%TO.P,Module1,139,CAM1_D3_N*%
%TO.N,/CM4HighSpeed/CAM1_D3_N*%
X80700000Y-64500000D03*
%TO.P,Module1,140,CAM0_C_N*%
%TO.N,/CM4HighSpeed/CAM0_CK_N*%
X83780000Y-64500000D03*
%TO.P,Module1,141,CAM1_D3_P*%
%TO.N,/CM4HighSpeed/CAM1_D3_P*%
X80700000Y-64900000D03*
%TO.P,Module1,142,CAM0_C_P*%
%TO.N,/CM4HighSpeed/CAM0_CK_P*%
X83780000Y-64900000D03*
%TO.P,Module1,143,HDMI1_HOTPLUG*%
%TO.N,unconnected-(Module1B-HDMI1_HOTPLUG-Pad143)*%
X80700000Y-65300000D03*
%TO.P,Module1,144,GND*%
%TO.N,GND*%
X83780000Y-65300000D03*
%TO.P,Module1,145,HDMI1_SDA*%
%TO.N,unconnected-(Module1B-HDMI1_SDA-Pad145)*%
X80700000Y-65700000D03*
%TO.P,Module1,146,HDMI1_TX2_P*%
%TO.N,unconnected-(Module1B-HDMI1_TX2_P-Pad146)*%
X83780000Y-65700000D03*
%TO.P,Module1,147,HDMI1_SCL*%
%TO.N,unconnected-(Module1B-HDMI1_SCL-Pad147)*%
X80700000Y-66100000D03*
%TO.P,Module1,148,HDMI1_TX2_N*%
%TO.N,unconnected-(Module1B-HDMI1_TX2_N-Pad148)*%
X83780000Y-66100000D03*
%TO.P,Module1,149,HDMI1_CEC*%
%TO.N,unconnected-(Module1B-HDMI1_CEC-Pad149)*%
X80700000Y-66500000D03*
%TO.P,Module1,150,GND*%
%TO.N,GND*%
X83780000Y-66500000D03*
%TO.P,Module1,151,HDMI0_CEC*%
%TO.N,unconnected-(Module1B-HDMI0_CEC-Pad151)*%
X80700000Y-66900000D03*
%TO.P,Module1,152,HDMI1_TX1_P*%
%TO.N,unconnected-(Module1B-HDMI1_TX1_P-Pad152)*%
X83780000Y-66900000D03*
%TO.P,Module1,153,HDMI0_HOTPLUG*%
%TO.N,unconnected-(Module1B-HDMI0_HOTPLUG-Pad153)*%
X80700000Y-67300000D03*
%TO.P,Module1,154,HDMI1_TX1_N*%
%TO.N,unconnected-(Module1B-HDMI1_TX1_N-Pad154)*%
X83780000Y-67300000D03*
%TO.P,Module1,155,GND*%
%TO.N,GND*%
X80700000Y-67700000D03*
%TO.P,Module1,156,GND*%
X83780000Y-67700000D03*
%TO.P,Module1,157,DSI0_D0_N*%
%TO.N,unconnected-(Module1B-DSI0_D0_N-Pad157)*%
X80700000Y-68100000D03*
%TO.P,Module1,158,HDMI1_TX0_P*%
%TO.N,unconnected-(Module1B-HDMI1_TX0_P-Pad158)*%
X83780000Y-68100000D03*
%TO.P,Module1,159,DSI0_D0_P*%
%TO.N,unconnected-(Module1B-DSI0_D0_P-Pad159)*%
X80700000Y-68500000D03*
%TO.P,Module1,160,HDMI1_TX0_N*%
%TO.N,unconnected-(Module1B-HDMI1_TX0_N-Pad160)*%
X83780000Y-68500000D03*
%TO.P,Module1,161,GND*%
%TO.N,GND*%
X80700000Y-68900000D03*
%TO.P,Module1,162,GND*%
X83780000Y-68900000D03*
%TO.P,Module1,163,DSI0_D1_N*%
%TO.N,unconnected-(Module1B-DSI0_D1_N-Pad163)*%
X80700000Y-69300000D03*
%TO.P,Module1,164,HDMI1_CLK_P*%
%TO.N,unconnected-(Module1B-HDMI1_CLK_P-Pad164)*%
X83780000Y-69300000D03*
%TO.P,Module1,165,DSI0_D1_P*%
%TO.N,unconnected-(Module1B-DSI0_D1_P-Pad165)*%
X80700000Y-69700000D03*
%TO.P,Module1,166,HDMI1_CLK_N*%
%TO.N,unconnected-(Module1B-HDMI1_CLK_N-Pad166)*%
X83780000Y-69700000D03*
%TO.P,Module1,167,GND*%
%TO.N,GND*%
X80700000Y-70100000D03*
%TO.P,Module1,168,GND*%
X83780000Y-70100000D03*
%TO.P,Module1,169,DSI0_C_N*%
%TO.N,unconnected-(Module1B-DSI0_C_N-Pad169)*%
X80700000Y-70500000D03*
%TO.P,Module1,170,HDMI0_TX2_P*%
%TO.N,unconnected-(Module1B-HDMI0_TX2_P-Pad170)*%
X83780000Y-70500000D03*
%TO.P,Module1,171,DSI0_C_P*%
%TO.N,unconnected-(Module1B-DSI0_C_P-Pad171)*%
X80700000Y-70900000D03*
%TO.P,Module1,172,HDMI0_TX2_N*%
%TO.N,unconnected-(Module1B-HDMI0_TX2_N-Pad172)*%
X83780000Y-70900000D03*
%TO.P,Module1,173,GND*%
%TO.N,GND*%
X80700000Y-71300000D03*
%TO.P,Module1,174,GND*%
X83780000Y-71300000D03*
%TO.P,Module1,175,DSI1_D0_N*%
%TO.N,unconnected-(Module1B-DSI1_D0_N-Pad175)*%
X80700000Y-71700000D03*
%TO.P,Module1,176,HDMI0_TX1_P*%
%TO.N,unconnected-(Module1B-HDMI0_TX1_P-Pad176)*%
X83780000Y-71700000D03*
%TO.P,Module1,177,DSI1_D0_P*%
%TO.N,unconnected-(Module1B-DSI1_D0_P-Pad177)*%
X80700000Y-72100000D03*
%TO.P,Module1,178,HDMI0_TX1_N*%
%TO.N,unconnected-(Module1B-HDMI0_TX1_N-Pad178)*%
X83780000Y-72100000D03*
%TO.P,Module1,179,GND*%
%TO.N,GND*%
X80700000Y-72500000D03*
%TO.P,Module1,180,GND*%
X83780000Y-72500000D03*
%TO.P,Module1,181,DSI1_D1_N*%
%TO.N,unconnected-(Module1B-DSI1_D1_N-Pad181)*%
X80700000Y-72900000D03*
%TO.P,Module1,182,HDMI0_TX0_P*%
%TO.N,unconnected-(Module1B-HDMI0_TX0_P-Pad182)*%
X83780000Y-72900000D03*
%TO.P,Module1,183,DSI1_D1_P*%
%TO.N,unconnected-(Module1B-DSI1_D1_P-Pad183)*%
X80700000Y-73300000D03*
%TO.P,Module1,184,HDMI0_TX0_N*%
%TO.N,unconnected-(Module1B-HDMI0_TX0_N-Pad184)*%
X83780000Y-73300000D03*
%TO.P,Module1,185,GND*%
%TO.N,GND*%
X80700000Y-73700000D03*
%TO.P,Module1,186,GND*%
X83780000Y-73700000D03*
%TO.P,Module1,187,DSI1_C_N*%
%TO.N,unconnected-(Module1B-DSI1_C_N-Pad187)*%
X80700000Y-74100000D03*
%TO.P,Module1,188,HDMI0_CLK_P*%
%TO.N,unconnected-(Module1B-HDMI0_CLK_P-Pad188)*%
X83780000Y-74100000D03*
%TO.P,Module1,189,DSI1_C_P*%
%TO.N,unconnected-(Module1B-DSI1_C_P-Pad189)*%
X80700000Y-74500000D03*
%TO.P,Module1,190,HDMI0_CLK_N*%
%TO.N,unconnected-(Module1B-HDMI0_CLK_N-Pad190)*%
X83780000Y-74500000D03*
%TO.P,Module1,191,GND*%
%TO.N,GND*%
X80700000Y-74900000D03*
%TO.P,Module1,192,GND*%
X83780000Y-74900000D03*
%TO.P,Module1,193,DSI1_D2_N*%
%TO.N,/CM4HighSpeed/CAM0_D3_N*%
X80700000Y-75300000D03*
%TO.P,Module1,194,DSI1_D3_N*%
%TO.N,/CM4HighSpeed/CAM0_D2_N*%
X83780000Y-75300000D03*
%TO.P,Module1,195,DSI1_D2_P*%
%TO.N,/CM4HighSpeed/CAM0_D3_P*%
X80700000Y-75700000D03*
%TO.P,Module1,196,DSI1_D3_P*%
%TO.N,/CM4HighSpeed/CAM0_D2_P*%
X83780000Y-75700000D03*
%TO.P,Module1,197,GND*%
%TO.N,GND*%
X80700000Y-76100000D03*
%TO.P,Module1,198,GND*%
X83780000Y-76100000D03*
%TO.P,Module1,199,HDMI0_SDA*%
%TO.N,unconnected-(Module1B-HDMI0_SDA-Pad199)*%
X80700000Y-76500000D03*
%TO.P,Module1,200,HDMI0_SCL*%
%TO.N,unconnected-(Module1B-HDMI0_SCL-Pad200)*%
X83780000Y-76500000D03*
%TD*%
D33*
%TO.P,R90,1*%
%TO.N,Net-(D6-A)*%
X63200000Y-90550000D03*
%TO.P,R90,2*%
%TO.N,PWR_USB*%
X63200000Y-84450000D03*
%TD*%
D18*
%TO.P,R7,1*%
%TO.N,/CM4HighSpeed/CAM0_D2_P*%
X104590000Y-54300000D03*
%TO.P,R7,2*%
%TO.N,/CM4HighSpeed/RCAM0_D2_P*%
X105610000Y-54300000D03*
%TD*%
D34*
%TO.P,J6,1,Pin_1*%
%TO.N,unconnected-(J6-Pin_1-Pad1)*%
X38860000Y-79340000D03*
D35*
%TO.P,J6,2,Pin_2*%
%TO.N,unconnected-(J6-Pin_2-Pad2)*%
X41400000Y-79340000D03*
%TO.P,J6,3,Pin_3*%
%TO.N,unconnected-(J6-Pin_3-Pad3)*%
X38860000Y-81880000D03*
%TO.P,J6,4,Pin_4*%
%TO.N,unconnected-(J6-Pin_4-Pad4)*%
X41400000Y-81880000D03*
%TO.P,J6,5,Pin_5*%
%TO.N,unconnected-(J6-Pin_5-Pad5)*%
X38860000Y-84420000D03*
%TO.P,J6,6,Pin_6*%
%TO.N,unconnected-(J6-Pin_6-Pad6)*%
X41400000Y-84420000D03*
%TO.P,J6,7,Pin_7*%
%TO.N,unconnected-(J6-Pin_7-Pad7)*%
X38860000Y-86960000D03*
%TO.P,J6,8,Pin_8*%
%TO.N,unconnected-(J6-Pin_8-Pad8)*%
X41400000Y-86960000D03*
%TO.P,J6,9,Pin_9*%
%TO.N,unconnected-(J6-Pin_9-Pad9)*%
X38860000Y-89500000D03*
%TO.P,J6,10,Pin_10*%
%TO.N,unconnected-(J6-Pin_10-Pad10)*%
X41400000Y-89500000D03*
%TD*%
D15*
%TO.P,TP4,1,1*%
%TO.N,Net-(J3-GPIO_10)*%
X103650000Y-20450000D03*
%TD*%
D26*
%TO.P,R54,1*%
%TO.N,/CM4LowSpeed/CAM0_nERROUT*%
X108150000Y-77080000D03*
%TO.P,R54,2*%
%TO.N,Net-(J5-Pin_9)*%
X107130000Y-77080000D03*
%TD*%
D36*
%TO.P,R77,1*%
%TO.N,Net-(C40-Pad1)*%
X95350000Y-70300000D03*
%TO.P,R77,2*%
%TO.N,Net-(IC2-COMP)*%
X97000000Y-70300000D03*
%TD*%
D37*
%TO.P,R68,1*%
%TO.N,/PSU/SW2*%
X92275000Y-73525000D03*
%TO.P,R68,2*%
%TO.N,Net-(C21-Pad1)*%
X92275000Y-71875000D03*
%TD*%
D15*
%TO.P,TP6,1,1*%
%TO.N,Net-(J3-GPIO_1)*%
X87550000Y-24600000D03*
%TD*%
D30*
%TO.P,C34,1*%
%TO.N,VUSB*%
X90700000Y-81080000D03*
%TO.P,C34,2*%
%TO.N,GND*%
X90700000Y-79180000D03*
%TD*%
D29*
%TO.P,R61,1*%
%TO.N,/CAM0_SCL*%
X104200000Y-61475000D03*
%TO.P,R61,2*%
%TO.N,+3V3*%
X104200000Y-63125000D03*
%TD*%
D38*
%TO.P,C38,1*%
%TO.N,Net-(IC2-COMP)*%
X95375000Y-73475000D03*
%TO.P,C38,2*%
%TO.N,GND*%
X95375000Y-71925000D03*
%TD*%
D36*
%TO.P,R106,1*%
%TO.N,Net-(Q1-G)*%
X101275000Y-80800000D03*
%TO.P,R106,2*%
%TO.N,+5V*%
X102925000Y-80800000D03*
%TD*%
D39*
%TO.P,C31,1*%
%TO.N,VUSB*%
X94650000Y-88300000D03*
%TO.P,C31,2*%
%TO.N,GND*%
X96550000Y-88300000D03*
%TD*%
D40*
%TO.P,SW1,1*%
%TO.N,GND*%
X37425000Y-47455000D03*
%TO.P,SW1,2*%
X37425000Y-48725000D03*
%TO.P,SW1,3*%
X37425000Y-49995000D03*
%TO.P,SW1,4*%
X37425000Y-51265000D03*
%TO.P,SW1,5*%
X37425000Y-52535000D03*
%TO.P,SW1,6*%
X37425000Y-53805000D03*
%TO.P,SW1,7*%
X37425000Y-55075000D03*
%TO.P,SW1,8*%
X37425000Y-56345000D03*
%TO.P,SW1,9*%
%TO.N,unconnected-(SW1-Pad9)*%
X43575000Y-56345000D03*
%TO.P,SW1,10*%
%TO.N,unconnected-(SW1-Pad10)*%
X43575000Y-55075000D03*
%TO.P,SW1,11*%
%TO.N,unconnected-(SW1-Pad11)*%
X43575000Y-53805000D03*
%TO.P,SW1,12*%
%TO.N,unconnected-(SW1-Pad12)*%
X43575000Y-52535000D03*
%TO.P,SW1,13*%
%TO.N,unconnected-(SW1-Pad13)*%
X43575000Y-51265000D03*
%TO.P,SW1,14*%
%TO.N,/CM4LowSpeed/EEPROM_nWP*%
X43575000Y-49995000D03*
%TO.P,SW1,15*%
%TO.N,/CM4LowSpeed/RUN_PG*%
X43575000Y-48725000D03*
%TO.P,SW1,16*%
%TO.N,/CM4LowSpeed/GLOBAL_EN*%
X43575000Y-47455000D03*
%TD*%
D18*
%TO.P,R5,1*%
%TO.N,/CM4HighSpeed/CAM0_D3_P*%
X104590000Y-56300000D03*
%TO.P,R5,2*%
%TO.N,/CM4HighSpeed/RCAM0_D3_P*%
X105610000Y-56300000D03*
%TD*%
D36*
%TO.P,R105,1*%
%TO.N,Net-(Q2-G)*%
X26980000Y-29320000D03*
%TO.P,R105,2*%
%TO.N,GND*%
X28630000Y-29320000D03*
%TD*%
D41*
%TO.P,C41,1*%
%TO.N,+5V*%
X103835000Y-98970000D03*
%TO.P,C41,2*%
%TO.N,Net-(IC1-FB)*%
X102285000Y-98970000D03*
%TD*%
D19*
%TO.P,C47,1*%
%TO.N,+5V*%
X100550000Y-88300000D03*
%TO.P,C47,2*%
%TO.N,GND*%
X98650000Y-88300000D03*
%TD*%
D20*
%TO.P,C1,1*%
%TO.N,+3V3*%
X107675000Y-63820000D03*
%TO.P,C1,2*%
%TO.N,GND*%
X109225000Y-63820000D03*
%TD*%
D18*
%TO.P,R10,1*%
%TO.N,/CM4HighSpeed/CAM0_CK_N*%
X104590000Y-51300000D03*
%TO.P,R10,2*%
%TO.N,/CM4HighSpeed/RCAM0_CK_N*%
X105610000Y-51300000D03*
%TD*%
D36*
%TO.P,R108,1*%
%TO.N,/PSU/RADAR1_EN*%
X26950000Y-35280000D03*
%TO.P,R108,2*%
%TO.N,Net-(Q3-G)*%
X28600000Y-35280000D03*
%TD*%
D24*
%TO.P,Q4,1,G*%
%TO.N,Net-(Q3-D)*%
X22387500Y-41820000D03*
%TO.P,Q4,2,S*%
%TO.N,+5V*%
X22387500Y-43720000D03*
%TO.P,Q4,3,D*%
%TO.N,Net-(Q4-D)*%
X24262500Y-42770000D03*
%TD*%
D38*
%TO.P,C15,1*%
%TO.N,+5VRadar0*%
X109100000Y-83175000D03*
%TO.P,C15,2*%
%TO.N,GND*%
X109100000Y-81625000D03*
%TD*%
D42*
%TO.P,R95,1*%
%TO.N,+5V*%
X55220000Y-84380000D03*
%TO.P,R95,2*%
%TO.N,Net-(D6-A)*%
X55220000Y-90480000D03*
%TD*%
D36*
%TO.P,R73,1*%
%TO.N,Net-(IC2-EN)*%
X97645000Y-82590000D03*
%TO.P,R73,2*%
%TO.N,GND*%
X99295000Y-82590000D03*
%TD*%
D38*
%TO.P,C28,1*%
%TO.N,+5VRadar0*%
X107600000Y-83175000D03*
%TO.P,C28,2*%
%TO.N,GND*%
X107600000Y-81625000D03*
%TD*%
D39*
%TO.P,C48,1*%
%TO.N,+3V3*%
X88650000Y-68600000D03*
%TO.P,C48,2*%
%TO.N,GND*%
X90550000Y-68600000D03*
%TD*%
D36*
%TO.P,R109,1*%
%TO.N,Net-(Q3-G)*%
X26950000Y-37790000D03*
%TO.P,R109,2*%
%TO.N,GND*%
X28600000Y-37790000D03*
%TD*%
D38*
%TO.P,C11,1*%
%TO.N,+5V*%
X44400000Y-75975000D03*
%TO.P,C11,2*%
%TO.N,GND*%
X44400000Y-74425000D03*
%TD*%
D15*
%TO.P,TP12,1,1*%
%TO.N,Net-(J3-SUSCLK)*%
X91600000Y-20550000D03*
%TD*%
D29*
%TO.P,R80,1*%
%TO.N,+3V3*%
X97130000Y-71865000D03*
%TO.P,R80,2*%
%TO.N,Net-(IC2-FB)*%
X97130000Y-73515000D03*
%TD*%
D38*
%TO.P,C10,1*%
%TO.N,+5V*%
X41200000Y-75975000D03*
%TO.P,C10,2*%
%TO.N,GND*%
X41200000Y-74425000D03*
%TD*%
D43*
%TO.P,D1,1,A1*%
%TO.N,Net-(D1-A1)*%
X86700000Y-94600000D03*
%TO.P,D1,2,A2*%
%TO.N,GND*%
X86700000Y-98600000D03*
%TD*%
D18*
%TO.P,R8,1*%
%TO.N,/CM4HighSpeed/CAM0_D2_N*%
X104590000Y-53300000D03*
%TO.P,R8,2*%
%TO.N,/CM4HighSpeed/RCAM0_D2_N*%
X105610000Y-53300000D03*
%TD*%
D15*
%TO.P,TP11,1,1*%
%TO.N,Net-(J3-SIM_DETECT)*%
X87550000Y-20550000D03*
%TD*%
D44*
%TO.P,FB2,1*%
%TO.N,Net-(Q1-D)*%
X104787500Y-85400000D03*
%TO.P,FB2,2*%
%TO.N,+5VRadar0*%
X109012500Y-85400000D03*
%TD*%
D15*
%TO.P,TP2,1,1*%
%TO.N,Net-(J3-W_DISABLE)*%
X91600000Y-28650000D03*
%TD*%
D18*
%TO.P,R60,1*%
%TO.N,/CM4LowSpeed/CAM0_CS*%
X107190000Y-71000000D03*
%TO.P,R60,2*%
%TO.N,Net-(J5-Pin_15)*%
X108210000Y-71000000D03*
%TD*%
D15*
%TO.P,TP3,1,1*%
%TO.N,Net-(J3-GPIO_9)*%
X95650000Y-28650000D03*
%TD*%
D20*
%TO.P,C36,1*%
%TO.N,/PSU/SW2*%
X91125000Y-82700000D03*
%TO.P,C36,2*%
%TO.N,Net-(IC2-BST)*%
X92675000Y-82700000D03*
%TD*%
D18*
%TO.P,R11,1*%
%TO.N,/CM4HighSpeed/CAM0_D1_P*%
X104590000Y-50300000D03*
%TO.P,R11,2*%
%TO.N,/CM4HighSpeed/RCAM0_D1_P*%
X105610000Y-50300000D03*
%TD*%
D19*
%TO.P,C43,1*%
%TO.N,+5V*%
X100550000Y-86100000D03*
%TO.P,C43,2*%
%TO.N,GND*%
X98650000Y-86100000D03*
%TD*%
D30*
%TO.P,C7,1*%
%TO.N,+5V*%
X39400000Y-76350000D03*
%TO.P,C7,2*%
%TO.N,GND*%
X39400000Y-74450000D03*
%TD*%
%TO.P,C32,1*%
%TO.N,VUSB*%
X88600000Y-81050000D03*
%TO.P,C32,2*%
%TO.N,GND*%
X88600000Y-79150000D03*
%TD*%
D45*
%TO.P,F1,1*%
%TO.N,PWR_USB*%
X87100000Y-83612500D03*
%TO.P,F1,2*%
%TO.N,Net-(D1-A1)*%
X87100000Y-86587500D03*
%TD*%
D18*
%TO.P,R9,1*%
%TO.N,/CM4HighSpeed/CAM0_CK_P*%
X104590000Y-52300000D03*
%TO.P,R9,2*%
%TO.N,/CM4HighSpeed/RCAM0_CK_P*%
X105610000Y-52300000D03*
%TD*%
D15*
%TO.P,TP8,1,1*%
%TO.N,Net-(J3-GPIO_3)*%
X95650000Y-24600000D03*
%TD*%
D18*
%TO.P,R57,1*%
%TO.N,/CM4LowSpeed/CAM0_PGOOD*%
X107170000Y-74010000D03*
%TO.P,R57,2*%
%TO.N,Net-(J5-Pin_12)*%
X108190000Y-74010000D03*
%TD*%
D19*
%TO.P,C45,1*%
%TO.N,+5V*%
X100550000Y-90600000D03*
%TO.P,C45,2*%
%TO.N,GND*%
X98650000Y-90600000D03*
%TD*%
D29*
%TO.P,R2,1*%
%TO.N,/CAM0_SDA*%
X102700000Y-63075000D03*
%TO.P,R2,2*%
%TO.N,/CM4LowSpeed/RCAM0_SDA*%
X102700000Y-64725000D03*
%TD*%
D18*
%TO.P,R14,1*%
%TO.N,/CM4HighSpeed/CAM0_D0_N*%
X104590000Y-47300000D03*
%TO.P,R14,2*%
%TO.N,/CM4HighSpeed/RCAM0_D0_N*%
X105610000Y-47300000D03*
%TD*%
D27*
%TO.P,C44,1*%
%TO.N,+3V3*%
X90700000Y-75180000D03*
%TO.P,C44,2*%
%TO.N,GND*%
X90700000Y-77080000D03*
%TD*%
D36*
%TO.P,R72,1*%
%TO.N,VUSB*%
X94675000Y-82600000D03*
%TO.P,R72,2*%
%TO.N,Net-(IC2-EN)*%
X96325000Y-82600000D03*
%TD*%
D15*
%TO.P,TP16,1,1*%
%TO.N,Net-(Module1A-BT_nDisable)*%
X26000000Y-90600000D03*
%TD*%
D18*
%TO.P,R58,1*%
%TO.N,/CM4LowSpeed/CAM0_MOSI*%
X107200000Y-73010000D03*
%TO.P,R58,2*%
%TO.N,Net-(J5-Pin_13)*%
X108220000Y-73010000D03*
%TD*%
D26*
%TO.P,R52,1*%
%TO.N,/CM4LowSpeed/CAM0_HOSTINT*%
X108160000Y-79090000D03*
%TO.P,R52,2*%
%TO.N,Net-(J5-Pin_7)*%
X107140000Y-79090000D03*
%TD*%
D46*
%TO.P,H2,1,1*%
%TO.N,GND*%
X112552300Y-40000000D03*
X113430980Y-37878680D03*
X113430980Y-42121320D03*
X115552300Y-37000000D03*
D47*
X115552300Y-40000000D03*
D46*
X115552300Y-43000000D03*
X117673620Y-37878680D03*
X117673620Y-42121320D03*
X118552300Y-40000000D03*
%TD*%
D19*
%TO.P,C18,1*%
%TO.N,+5VRadar0*%
X109250000Y-89700000D03*
%TO.P,C18,2*%
%TO.N,GND*%
X107350000Y-89700000D03*
%TD*%
D36*
%TO.P,R74,1*%
%TO.N,Net-(IC1-RT{slash}CLK)*%
X94950000Y-99000000D03*
%TO.P,R74,2*%
%TO.N,GND*%
X96600000Y-99000000D03*
%TD*%
D33*
%TO.P,R89,1*%
%TO.N,/USB/USBDevAttach*%
X73730000Y-90610000D03*
%TO.P,R89,2*%
%TO.N,PWR_USB*%
X73730000Y-84510000D03*
%TD*%
D20*
%TO.P,C16,1*%
%TO.N,Net-(D1-A1)*%
X86125000Y-91700000D03*
%TO.P,C16,2*%
%TO.N,GND*%
X87675000Y-91700000D03*
%TD*%
D36*
%TO.P,R75,1*%
%TO.N,Net-(IC2-RT{slash}CLK)*%
X98275000Y-80800000D03*
%TO.P,R75,2*%
%TO.N,GND*%
X99925000Y-80800000D03*
%TD*%
D41*
%TO.P,C39,1*%
%TO.N,Net-(C39-Pad1)*%
X103875000Y-94100000D03*
%TO.P,C39,2*%
%TO.N,GND*%
X102325000Y-94100000D03*
%TD*%
D43*
%TO.P,D6,1,K*%
%TO.N,PWR_USB*%
X66100000Y-94300000D03*
%TO.P,D6,2,A*%
%TO.N,Net-(D6-A)*%
X66100000Y-98300000D03*
%TD*%
D39*
%TO.P,C29,1*%
%TO.N,VUSB*%
X94650000Y-90600000D03*
%TO.P,C29,2*%
%TO.N,GND*%
X96550000Y-90600000D03*
%TD*%
D29*
%TO.P,R76,1*%
%TO.N,Net-(C39-Pad1)*%
X105600000Y-95475000D03*
%TO.P,R76,2*%
%TO.N,Net-(IC1-COMP)*%
X105600000Y-97125000D03*
%TD*%
D15*
%TO.P,TP1,1,1*%
%TO.N,Net-(J3-PWRn)*%
X87550000Y-28650000D03*
%TD*%
D20*
%TO.P,C37,1*%
%TO.N,Net-(IC1-COMP)*%
X102325000Y-95600000D03*
%TO.P,C37,2*%
%TO.N,GND*%
X103875000Y-95600000D03*
%TD*%
D26*
%TO.P,R53,1*%
%TO.N,/CM4LowSpeed/CAM0_MISO*%
X108160000Y-78110000D03*
%TO.P,R53,2*%
%TO.N,Net-(J5-Pin_8)*%
X107140000Y-78110000D03*
%TD*%
D48*
%TO.P,SW2,1,1*%
%TO.N,GND*%
X43075000Y-61350000D03*
X37925000Y-61350000D03*
%TO.P,SW2,2,2*%
%TO.N,/CM4LowSpeed/RPI_nBOOT*%
X43075000Y-59650000D03*
X37925000Y-59650000D03*
%TD*%
D36*
%TO.P,R69,1*%
%TO.N,/PSU/SW1*%
X102275000Y-92500000D03*
%TO.P,R69,2*%
%TO.N,Net-(C22-Pad1)*%
X103925000Y-92500000D03*
%TD*%
D30*
%TO.P,C30,1*%
%TO.N,VUSB*%
X86500000Y-81050000D03*
%TO.P,C30,2*%
%TO.N,GND*%
X86500000Y-79150000D03*
%TD*%
D29*
%TO.P,R81,1*%
%TO.N,Net-(IC2-FB)*%
X98630000Y-74965000D03*
%TO.P,R81,2*%
%TO.N,GND*%
X98630000Y-76615000D03*
%TD*%
%TO.P,R70,1*%
%TO.N,VUSB*%
X92700000Y-94175000D03*
%TO.P,R70,2*%
%TO.N,Net-(IC1-EN)*%
X92700000Y-95825000D03*
%TD*%
D21*
%TO.P,J12,A1,GND*%
%TO.N,GND*%
X54915000Y-94925000D03*
%TO.P,J12,A4,VBUS*%
%TO.N,Net-(D6-A)*%
X55765000Y-94925000D03*
%TO.P,J12,A5,CC1*%
%TO.N,Net-(J12-CC1)*%
X56615000Y-94925000D03*
%TO.P,J12,A6,D+*%
%TO.N,/USB/USBHOST0_P*%
X57465000Y-94925000D03*
%TO.P,J12,A7,D-*%
%TO.N,/USB/USBHOST0_N*%
X58315000Y-94925000D03*
%TO.P,J12,A8,SBU1*%
%TO.N,unconnected-(J12-SBU1-PadA8)*%
X59165000Y-94925000D03*
%TO.P,J12,A9,VBUS*%
%TO.N,Net-(D6-A)*%
X60015000Y-94925000D03*
%TO.P,J12,A12,GND*%
%TO.N,GND*%
X60865000Y-94925000D03*
%TO.P,J12,B1,GND*%
X60865000Y-96275000D03*
%TO.P,J12,B4,VBUS*%
%TO.N,Net-(D6-A)*%
X60015000Y-96275000D03*
%TO.P,J12,B5,CC2*%
%TO.N,Net-(J12-CC2)*%
X59165000Y-96275000D03*
%TO.P,J12,B6,D+*%
%TO.N,/USB/USBHOST0_P*%
X58315000Y-96275000D03*
%TO.P,J12,B7,D-*%
%TO.N,/USB/USBHOST0_N*%
X57465000Y-96275000D03*
%TO.P,J12,B8,SBU2*%
%TO.N,unconnected-(J12-SBU2-PadB8)*%
X56615000Y-96275000D03*
%TO.P,J12,B9,VBUS*%
%TO.N,Net-(D6-A)*%
X55765000Y-96275000D03*
%TO.P,J12,B12,GND*%
%TO.N,GND*%
X54915000Y-96275000D03*
D22*
%TO.P,J12,S1,SHIELD*%
%TO.N,unconnected-(J12-SHIELD-PadS1)*%
X53565000Y-95905000D03*
D23*
X53565000Y-99285000D03*
D22*
X62215000Y-95905000D03*
D23*
X62215000Y-99285000D03*
%TD*%
D46*
%TO.P,H1,1,1*%
%TO.N,GND*%
X37000000Y-40000000D03*
X37878680Y-37878680D03*
X37878680Y-42121320D03*
X40000000Y-37000000D03*
D47*
X40000000Y-40000000D03*
D46*
X40000000Y-43000000D03*
X42121320Y-37878680D03*
X42121320Y-42121320D03*
X43000000Y-40000000D03*
%TD*%
D36*
%TO.P,R110,1*%
%TO.N,Net-(Q3-D)*%
X26950000Y-40300000D03*
%TO.P,R110,2*%
%TO.N,+5V*%
X28600000Y-40300000D03*
%TD*%
D31*
%TO.P,C23,1*%
%TO.N,VUSB*%
X89500000Y-91725000D03*
%TO.P,C23,2*%
%TO.N,GND*%
X89500000Y-93275000D03*
%TD*%
D36*
%TO.P,R107,1*%
%TO.N,/PSU/RADAR0_EN*%
X26950000Y-32770000D03*
%TO.P,R107,2*%
%TO.N,Net-(Q2-G)*%
X28600000Y-32770000D03*
%TD*%
D46*
%TO.P,H3,1,1*%
%TO.N,GND*%
X37000000Y-96896000D03*
X37878680Y-94774680D03*
X37878680Y-99017320D03*
X40000000Y-93896000D03*
D47*
X40000000Y-96896000D03*
D46*
X40000000Y-99896000D03*
X42121320Y-94774680D03*
X42121320Y-99017320D03*
X43000000Y-96896000D03*
%TD*%
D38*
%TO.P,C13,1*%
%TO.N,Net-(Q1-D)*%
X104600000Y-83175000D03*
%TO.P,C13,2*%
%TO.N,GND*%
X104600000Y-81625000D03*
%TD*%
D39*
%TO.P,C33,1*%
%TO.N,VUSB*%
X94650000Y-86100000D03*
%TO.P,C33,2*%
%TO.N,GND*%
X96550000Y-86100000D03*
%TD*%
D28*
%TO.P,R79,1*%
%TO.N,Net-(IC1-FB)*%
X100425000Y-99000000D03*
%TO.P,R79,2*%
%TO.N,GND*%
X98775000Y-99000000D03*
%TD*%
D15*
%TO.P,TP13,1,1*%
%TO.N,Net-(J3-GPIO_11)*%
X95650000Y-20550000D03*
%TD*%
D18*
%TO.P,R59,1*%
%TO.N,/CM4LowSpeed/CAM0_SPICLK*%
X107200000Y-71980000D03*
%TO.P,R59,2*%
%TO.N,Net-(J5-Pin_14)*%
X108220000Y-71980000D03*
%TD*%
D31*
%TO.P,C35,1*%
%TO.N,/PSU/SW1*%
X92700000Y-90925000D03*
%TO.P,C35,2*%
%TO.N,Net-(IC1-BST)*%
X92700000Y-92475000D03*
%TD*%
D18*
%TO.P,R4,1*%
%TO.N,/CM4HighSpeed/CAM0_PWR_EN*%
X104590000Y-57300000D03*
%TO.P,R4,2*%
%TO.N,Net-(J1-Pin_6)*%
X105610000Y-57300000D03*
%TD*%
D38*
%TO.P,C25,1*%
%TO.N,+5VRadar0*%
X106100000Y-83175000D03*
%TO.P,C25,2*%
%TO.N,GND*%
X106100000Y-81625000D03*
%TD*%
D49*
%TO.P,J1,1,Pin_1*%
%TO.N,+3V3*%
X112600000Y-58650000D03*
%TO.P,J1,2,Pin_2*%
%TO.N,/CAM0_SDA*%
X112600000Y-58150000D03*
%TO.P,J1,3,Pin_3*%
%TO.N,/CAM0_SCL*%
X112600000Y-57650000D03*
%TO.P,J1,4,Pin_4*%
%TO.N,GND*%
X112600000Y-57150000D03*
%TO.P,J1,5,Pin_5*%
%TO.N,Net-(J1-Pin_5)*%
X112600000Y-56650000D03*
%TO.P,J1,6,Pin_6*%
%TO.N,Net-(J1-Pin_6)*%
X112600000Y-56150000D03*
%TO.P,J1,7,Pin_7*%
%TO.N,GND*%
X112600000Y-55650000D03*
%TO.P,J1,8,Pin_8*%
%TO.N,/CM4HighSpeed/RCAM0_D3_P*%
X112600000Y-55150000D03*
%TO.P,J1,9,Pin_9*%
%TO.N,/CM4HighSpeed/RCAM0_D3_N*%
X112600000Y-54650000D03*
%TO.P,J1,10,Pin_10*%
%TO.N,GND*%
X112600000Y-54150000D03*
%TO.P,J1,11,Pin_11*%
%TO.N,/CM4HighSpeed/RCAM0_D2_P*%
X112600000Y-53650000D03*
%TO.P,J1,12,Pin_12*%
%TO.N,/CM4HighSpeed/RCAM0_D2_N*%
X112600000Y-53150000D03*
%TO.P,J1,13,Pin_13*%
%TO.N,GND*%
X112600000Y-52650000D03*
%TO.P,J1,14,Pin_14*%
%TO.N,/CM4HighSpeed/RCAM0_CK_P*%
X112600000Y-52150000D03*
%TO.P,J1,15,Pin_15*%
%TO.N,/CM4HighSpeed/RCAM0_CK_N*%
X112600000Y-51650000D03*
%TO.P,J1,16,Pin_16*%
%TO.N,GND*%
X112600000Y-51150000D03*
%TO.P,J1,17,Pin_17*%
%TO.N,/CM4HighSpeed/RCAM0_D1_P*%
X112600000Y-50650000D03*
%TO.P,J1,18,Pin_18*%
%TO.N,/CM4HighSpeed/RCAM0_D1_N*%
X112600000Y-50150000D03*
%TO.P,J1,19,Pin_19*%
%TO.N,GND*%
X112600000Y-49650000D03*
%TO.P,J1,20,Pin_20*%
%TO.N,/CM4HighSpeed/RCAM0_D0_P*%
X112600000Y-49150000D03*
%TO.P,J1,21,Pin_21*%
%TO.N,/CM4HighSpeed/RCAM0_D0_N*%
X112600000Y-48650000D03*
%TO.P,J1,22,Pin_22*%
%TO.N,GND*%
X112600000Y-48150000D03*
D50*
%TO.P,J1,MP,MountPin*%
X115850000Y-60550000D03*
X115850000Y-46250000D03*
%TD*%
D18*
%TO.P,R12,1*%
%TO.N,/CM4HighSpeed/CAM0_D1_N*%
X104590000Y-49300000D03*
%TO.P,R12,2*%
%TO.N,/CM4HighSpeed/RCAM0_D1_N*%
X105610000Y-49300000D03*
%TD*%
D26*
%TO.P,R55,1*%
%TO.N,/CM4LowSpeed/CAM0_SYNCIN*%
X108130000Y-76100000D03*
%TO.P,R55,2*%
%TO.N,Net-(J5-Pin_10)*%
X107110000Y-76100000D03*
%TD*%
D31*
%TO.P,C42,1*%
%TO.N,+3V3*%
X98630000Y-71915000D03*
%TO.P,C42,2*%
%TO.N,Net-(IC2-FB)*%
X98630000Y-73465000D03*
%TD*%
D15*
%TO.P,TP15,1,1*%
%TO.N,Net-(Module1A-WiFi_nDisable)*%
X30900000Y-90400000D03*
%TD*%
D46*
%TO.P,H4,1,1*%
%TO.N,GND*%
X112552300Y-96896000D03*
X113430980Y-94774680D03*
X113430980Y-99017320D03*
X115552300Y-93896000D03*
D47*
X115552300Y-96896000D03*
D46*
X115552300Y-99896000D03*
X117673620Y-94774680D03*
X117673620Y-99017320D03*
X118552300Y-96896000D03*
%TD*%
D15*
%TO.P,TP9,1,1*%
%TO.N,Net-(J3-GPIO_4)*%
X99700000Y-24600000D03*
%TD*%
D51*
%TO.P,J5,1,Pin_1*%
%TO.N,+5VRadar0*%
X113150000Y-86900000D03*
%TO.P,J5,2,Pin_2*%
X113150000Y-85900000D03*
%TO.P,J5,3,Pin_3*%
X113150000Y-84900000D03*
%TO.P,J5,4,Pin_4*%
%TO.N,GND*%
X113150000Y-83900000D03*
%TO.P,J5,5,Pin_5*%
X113150000Y-82900000D03*
%TO.P,J5,6,Pin_6*%
X113150000Y-81900000D03*
%TO.P,J5,7,Pin_7*%
%TO.N,Net-(J5-Pin_7)*%
X113150000Y-80900000D03*
%TO.P,J5,8,Pin_8*%
%TO.N,Net-(J5-Pin_8)*%
X113150000Y-79900000D03*
%TO.P,J5,9,Pin_9*%
%TO.N,Net-(J5-Pin_9)*%
X113150000Y-78900000D03*
%TO.P,J5,10,Pin_10*%
%TO.N,Net-(J5-Pin_10)*%
X113150000Y-77900000D03*
%TO.P,J5,11,Pin_11*%
%TO.N,Net-(J5-Pin_11)*%
X113150000Y-76900000D03*
%TO.P,J5,12,Pin_12*%
%TO.N,Net-(J5-Pin_12)*%
X113150000Y-75900000D03*
%TO.P,J5,13,Pin_13*%
%TO.N,Net-(J5-Pin_13)*%
X113150000Y-74900000D03*
%TO.P,J5,14,Pin_14*%
%TO.N,Net-(J5-Pin_14)*%
X113150000Y-73900000D03*
%TO.P,J5,15,Pin_15*%
%TO.N,Net-(J5-Pin_15)*%
X113150000Y-72900000D03*
D52*
%TO.P,J5,MP,MountPin*%
%TO.N,GND*%
X115950000Y-89890000D03*
X115950000Y-69910000D03*
%TD*%
D15*
%TO.P,TP14,1,1*%
%TO.N,Net-(J3-RESETn)*%
X99700000Y-20550000D03*
%TD*%
%TO.P,TP5,1,1*%
%TO.N,Net-(J3-GPIO_0)*%
X99750000Y-28450000D03*
%TD*%
D43*
%TO.P,D3,1,K*%
%TO.N,PWR_USB*%
X82100000Y-94600000D03*
%TO.P,D3,2,A*%
%TO.N,/USB/USBDevAttach*%
X82100000Y-98600000D03*
%TD*%
D38*
%TO.P,C9,1*%
%TO.N,+5V*%
X42800000Y-75975000D03*
%TO.P,C9,2*%
%TO.N,GND*%
X42800000Y-74425000D03*
%TD*%
D31*
%TO.P,C22,1*%
%TO.N,Net-(C22-Pad1)*%
X105600000Y-92325000D03*
%TO.P,C22,2*%
%TO.N,GND*%
X105600000Y-93875000D03*
%TD*%
D44*
%TO.P,FB3,1*%
%TO.N,Net-(D1-A1)*%
X86687500Y-89400000D03*
%TO.P,FB3,2*%
%TO.N,VUSB*%
X90912500Y-89400000D03*
%TD*%
D53*
%TO.P,J14,1,Pin_1*%
%TO.N,+5V*%
X47800000Y-99000000D03*
D54*
%TO.P,J14,2,Pin_2*%
%TO.N,/USB/USBHOST2_N*%
X47800000Y-97730000D03*
%TO.P,J14,3,Pin_3*%
%TO.N,/USB/USBHOST2_P*%
X47800000Y-96460000D03*
%TO.P,J14,4,Pin_4*%
%TO.N,GND*%
X47800000Y-95190000D03*
%TD*%
D55*
%TO.N,/CM4HighSpeed/CAM0_D3_N*%
X81225001Y-75300000D02*
X80700000Y-75300000D01*
X81778702Y-75310000D02*
X81235001Y-75310000D01*
X82290000Y-76821298D02*
X82290000Y-75821298D01*
X82290000Y-75821298D02*
X81778702Y-75310000D01*
X83078702Y-77610000D02*
X82290000Y-76821298D01*
X84421298Y-77610000D02*
X83078702Y-77610000D01*
X85700000Y-76331298D02*
X84421298Y-77610000D01*
X101510000Y-59721298D02*
X94431298Y-66800000D01*
X101510000Y-57321298D02*
X101510000Y-59721298D01*
X103221298Y-55610000D02*
X101510000Y-57321298D01*
X104109999Y-55300000D02*
X103799999Y-55610000D01*
X87700000Y-66800000D02*
X85700000Y-68800000D01*
X81235001Y-75310000D02*
X81225001Y-75300000D01*
X104590000Y-55300000D02*
X104109999Y-55300000D01*
X103799999Y-55610000D02*
X103221298Y-55610000D01*
X94431298Y-66800000D02*
X87700000Y-66800000D01*
X85700000Y-68800000D02*
X85700000Y-76331298D01*
%TO.N,/CM4HighSpeed/CAM0_D3_P*%
X81225001Y-75700000D02*
X80700000Y-75700000D01*
X81621298Y-75690000D02*
X81235001Y-75690000D01*
X81910000Y-75978702D02*
X81621298Y-75690000D01*
X81910000Y-76978702D02*
X81910000Y-75978702D01*
X82921298Y-77990000D02*
X81910000Y-76978702D01*
X84578702Y-77990000D02*
X82921298Y-77990000D01*
X86100000Y-76468702D02*
X84578702Y-77990000D01*
X86100000Y-68900000D02*
X86100000Y-76468702D01*
X81235001Y-75690000D02*
X81225001Y-75700000D01*
X94568702Y-67200000D02*
X87800000Y-67200000D01*
X103378702Y-55990000D02*
X101890000Y-57478702D01*
X101890000Y-59878702D02*
X94568702Y-67200000D01*
X103799999Y-55990000D02*
X103378702Y-55990000D01*
X104109999Y-56300000D02*
X103799999Y-55990000D01*
X101890000Y-57478702D02*
X101890000Y-59878702D01*
X87800000Y-67200000D02*
X86100000Y-68900000D01*
X104590000Y-56300000D02*
X104109999Y-56300000D01*
%TO.N,/CM4HighSpeed/CAM0_D2_P*%
X84305001Y-75700000D02*
X83780000Y-75700000D01*
X84315001Y-75690000D02*
X84305001Y-75700000D01*
X85090000Y-68210000D02*
X85090000Y-75078702D01*
X93968702Y-66200000D02*
X87100000Y-66200000D01*
X85090000Y-75078702D02*
X84478702Y-75690000D01*
X100590000Y-56878702D02*
X100590000Y-59578702D01*
X100590000Y-59578702D02*
X93968702Y-66200000D01*
X103478702Y-53990000D02*
X100590000Y-56878702D01*
X103799999Y-53990000D02*
X103478702Y-53990000D01*
X87100000Y-66200000D02*
X85090000Y-68210000D01*
X104109999Y-54300000D02*
X103799999Y-53990000D01*
X84478702Y-75690000D02*
X84315001Y-75690000D01*
X104590000Y-54300000D02*
X104109999Y-54300000D01*
%TO.N,/CM4HighSpeed/CAM0_D2_N*%
X84305001Y-75300000D02*
X83780000Y-75300000D01*
X84700000Y-74905001D02*
X84305001Y-75300000D01*
X86900000Y-65800000D02*
X84700000Y-68000000D01*
X84700000Y-68000000D02*
X84700000Y-74905001D01*
X93831298Y-65800000D02*
X86900000Y-65800000D01*
X100210000Y-59421298D02*
X93831298Y-65800000D01*
X100210000Y-56721298D02*
X100210000Y-59421298D01*
X103631298Y-53300000D02*
X100210000Y-56721298D01*
X104590000Y-53300000D02*
X103631298Y-53300000D01*
%TO.N,/CM4HighSpeed/CAM0_CK_N*%
X84315001Y-64510000D02*
X84305001Y-64500000D01*
X89721298Y-64510000D02*
X84315001Y-64510000D01*
X102621298Y-51610000D02*
X89721298Y-64510000D01*
X103799999Y-51610000D02*
X102621298Y-51610000D01*
X104109999Y-51300000D02*
X103799999Y-51610000D01*
X104590000Y-51300000D02*
X104109999Y-51300000D01*
%TO.N,/CM4HighSpeed/CAM0_CK_P*%
X84305001Y-64900000D02*
X83780000Y-64900000D01*
X89878702Y-64890000D02*
X84315001Y-64890000D01*
X102778702Y-51990000D02*
X89878702Y-64890000D01*
%TO.N,/CM4HighSpeed/CAM0_CK_N*%
X84305001Y-64500000D02*
X83780000Y-64500000D01*
%TO.N,/CM4HighSpeed/CAM0_CK_P*%
X104109999Y-52300000D02*
X103799999Y-51990000D01*
X103799999Y-51990000D02*
X102778702Y-51990000D01*
X104590000Y-52300000D02*
X104109999Y-52300000D01*
X84315001Y-64890000D02*
X84305001Y-64900000D01*
%TO.N,/CM4HighSpeed/CAM0_D1_N*%
X84305001Y-63300000D02*
X83780000Y-63300000D01*
X84315001Y-63310000D02*
X84305001Y-63300000D01*
X88521298Y-63310000D02*
X84315001Y-63310000D01*
X102221298Y-49610000D02*
X88521298Y-63310000D01*
X103799999Y-49610000D02*
X102221298Y-49610000D01*
X104109999Y-49300000D02*
X103799999Y-49610000D01*
X104590000Y-49300000D02*
X104109999Y-49300000D01*
%TO.N,/CM4HighSpeed/CAM0_D1_P*%
X84305001Y-63700000D02*
X83780000Y-63700000D01*
X84315001Y-63690000D02*
X84305001Y-63700000D01*
X88678702Y-63690000D02*
X84315001Y-63690000D01*
X102378702Y-49990000D02*
X88678702Y-63690000D01*
X103799999Y-49990000D02*
X102378702Y-49990000D01*
X104590000Y-50300000D02*
X104109999Y-50300000D01*
X104109999Y-50300000D02*
X103799999Y-49990000D01*
%TO.N,/CM4HighSpeed/CAM0_D0_N*%
X84305001Y-62100000D02*
X83780000Y-62100000D01*
X86921298Y-62110000D02*
X84315001Y-62110000D01*
X103799999Y-47610000D02*
X101421298Y-47610000D01*
X104109999Y-47300000D02*
X103799999Y-47610000D01*
X101421298Y-47610000D02*
X86921298Y-62110000D01*
X104590000Y-47300000D02*
X104109999Y-47300000D01*
%TO.N,/CM4HighSpeed/CAM0_D0_P*%
X84315001Y-62490000D02*
X84305001Y-62500000D01*
%TO.N,/CM4HighSpeed/CAM0_D0_N*%
X84315001Y-62110000D02*
X84305001Y-62100000D01*
%TO.N,/CM4HighSpeed/CAM0_D0_P*%
X87078702Y-62490000D02*
X84315001Y-62490000D01*
X103799999Y-47990000D02*
X101578702Y-47990000D01*
X104590000Y-48300000D02*
X104109999Y-48300000D01*
X101578702Y-47990000D02*
X87078702Y-62490000D01*
X84305001Y-62500000D02*
X83780000Y-62500000D01*
X104109999Y-48300000D02*
X103799999Y-47990000D01*
D56*
%TO.N,+3V3*%
X107675000Y-63575000D02*
X112600000Y-58650000D01*
X107675000Y-63820000D02*
X107675000Y-63575000D01*
X106470000Y-63820000D02*
X107675000Y-63820000D01*
X106275000Y-63625000D02*
X106470000Y-63820000D01*
X105900000Y-63625000D02*
X106275000Y-63625000D01*
X105400000Y-63125000D02*
X105900000Y-63625000D01*
X104200000Y-63125000D02*
X105400000Y-63125000D01*
%TO.N,/CAM0_SDA*%
X103700000Y-62025000D02*
X102625000Y-63100000D01*
X105850000Y-62025000D02*
X103700000Y-62025000D01*
X105900000Y-61975000D02*
X105850000Y-62025000D01*
%TO.N,/CAM0_SCL*%
X102750000Y-61475000D02*
X102625000Y-61600000D01*
X104200000Y-61475000D02*
X102750000Y-61475000D01*
%TO.N,/CAM0_SDA*%
X109725000Y-58150000D02*
X105900000Y-61975000D01*
X112600000Y-58150000D02*
X109725000Y-58150000D01*
%TO.N,/CAM0_SCL*%
X104275000Y-61400000D02*
X104200000Y-61475000D01*
X109832842Y-57650000D02*
X106082842Y-61400000D01*
X112600000Y-57650000D02*
X109832842Y-57650000D01*
X106082842Y-61400000D02*
X104275000Y-61400000D01*
%TO.N,Net-(J1-Pin_5)*%
X110550000Y-56650000D02*
X108900000Y-58300000D01*
X112600000Y-56650000D02*
X110550000Y-56650000D01*
X108900000Y-58300000D02*
X105610000Y-58300000D01*
%TO.N,Net-(J1-Pin_6)*%
X109100000Y-57300000D02*
X105610000Y-57300000D01*
X110250000Y-56150000D02*
X109100000Y-57300000D01*
X112600000Y-56150000D02*
X110250000Y-56150000D01*
D55*
%TO.N,/CM4HighSpeed/RCAM0_D3_N*%
X106090001Y-55300000D02*
X105610000Y-55300000D01*
X106400001Y-55610000D02*
X106090001Y-55300000D01*
X109121298Y-55610000D02*
X106400001Y-55610000D01*
X110021298Y-54710000D02*
X109121298Y-55610000D01*
X111564999Y-54710000D02*
X110021298Y-54710000D01*
X111624999Y-54650000D02*
X111564999Y-54710000D01*
X112600000Y-54650000D02*
X111624999Y-54650000D01*
%TO.N,/CM4HighSpeed/RCAM0_D3_P*%
X106090001Y-56300000D02*
X105610000Y-56300000D01*
X109278702Y-55990000D02*
X106400001Y-55990000D01*
X106400001Y-55990000D02*
X106090001Y-56300000D01*
X111564999Y-55090000D02*
X110178702Y-55090000D01*
X111624999Y-55150000D02*
X111564999Y-55090000D01*
X112600000Y-55150000D02*
X111624999Y-55150000D01*
X110178702Y-55090000D02*
X109278702Y-55990000D01*
%TO.N,/CM4HighSpeed/RCAM0_D2_N*%
X106090001Y-53300000D02*
X105610000Y-53300000D01*
X106400001Y-53610000D02*
X106090001Y-53300000D01*
X108921298Y-53610000D02*
X106400001Y-53610000D01*
X109321298Y-53210000D02*
X108921298Y-53610000D01*
X111564999Y-53210000D02*
X109321298Y-53210000D01*
X111624999Y-53150000D02*
X111564999Y-53210000D01*
X112600000Y-53150000D02*
X111624999Y-53150000D01*
%TO.N,/CM4HighSpeed/RCAM0_D2_P*%
X106400001Y-53990000D02*
X106090001Y-54300000D01*
X106090001Y-54300000D02*
X105610000Y-54300000D01*
X109478702Y-53590000D02*
X109078702Y-53990000D01*
X109078702Y-53990000D02*
X106400001Y-53990000D01*
X111564999Y-53590000D02*
X109478702Y-53590000D01*
X112600000Y-53650000D02*
X111624999Y-53650000D01*
X111624999Y-53650000D02*
X111564999Y-53590000D01*
%TO.N,/CM4HighSpeed/RCAM0_CK_N*%
X109546735Y-51910000D02*
X109806735Y-51650000D01*
X109806735Y-51650000D02*
X112600000Y-51650000D01*
X106578702Y-51910000D02*
X109546735Y-51910000D01*
X105970000Y-51610000D02*
X106278702Y-51610000D01*
X106278702Y-51610000D02*
X106578702Y-51910000D01*
X105610000Y-51300000D02*
X105660000Y-51300000D01*
X105660000Y-51300000D02*
X105970000Y-51610000D01*
%TO.N,/CM4HighSpeed/RCAM0_CK_P*%
X112480001Y-52030001D02*
X112600000Y-52150000D01*
X109704139Y-52290000D02*
X109964138Y-52030001D01*
X109964138Y-52030001D02*
X112480001Y-52030001D01*
X106121298Y-51990000D02*
X106421298Y-52290000D01*
X105970000Y-51990000D02*
X106121298Y-51990000D01*
X106421298Y-52290000D02*
X109704139Y-52290000D01*
X105610000Y-52300000D02*
X105660000Y-52300000D01*
X105660000Y-52300000D02*
X105970000Y-51990000D01*
%TO.N,/CM4HighSpeed/RCAM0_D1_N*%
X109178702Y-49610000D02*
X106400001Y-49610000D01*
X109778702Y-50210000D02*
X109178702Y-49610000D01*
X111564999Y-50210000D02*
X109778702Y-50210000D01*
X112600000Y-50150000D02*
X111624999Y-50150000D01*
X106400001Y-49610000D02*
X106090001Y-49300000D01*
%TO.N,/CM4HighSpeed/RCAM0_D1_P*%
X106400001Y-49990000D02*
X106090001Y-50300000D01*
X106090001Y-50300000D02*
X105610000Y-50300000D01*
X109021298Y-49990000D02*
X106400001Y-49990000D01*
%TO.N,/CM4HighSpeed/RCAM0_D1_N*%
X106090001Y-49300000D02*
X105610000Y-49300000D01*
%TO.N,/CM4HighSpeed/RCAM0_D1_P*%
X109621298Y-50590000D02*
X109021298Y-49990000D01*
X111564999Y-50590000D02*
X109621298Y-50590000D01*
X112600000Y-50650000D02*
X111624999Y-50650000D01*
%TO.N,/CM4HighSpeed/RCAM0_D1_N*%
X111624999Y-50150000D02*
X111564999Y-50210000D01*
%TO.N,/CM4HighSpeed/RCAM0_D1_P*%
X111624999Y-50650000D02*
X111564999Y-50590000D01*
%TO.N,/CM4HighSpeed/RCAM0_D0_N*%
X106090001Y-47300000D02*
X105610000Y-47300000D01*
X106400001Y-47610000D02*
X106090001Y-47300000D01*
X109978702Y-48710000D02*
X108878702Y-47610000D01*
X108878702Y-47610000D02*
X106400001Y-47610000D01*
X111564999Y-48710000D02*
X109978702Y-48710000D01*
X111624999Y-48650000D02*
X111564999Y-48710000D01*
X112600000Y-48650000D02*
X111624999Y-48650000D01*
%TO.N,/CM4HighSpeed/RCAM0_D0_P*%
X106400001Y-47990000D02*
X106090001Y-48300000D01*
X108721298Y-47990000D02*
X106400001Y-47990000D01*
X112600000Y-49150000D02*
X111624999Y-49150000D01*
X111564999Y-49090000D02*
X109821298Y-49090000D01*
X106090001Y-48300000D02*
X105610000Y-48300000D01*
X109821298Y-49090000D02*
X108721298Y-47990000D01*
X111624999Y-49150000D02*
X111564999Y-49090000D01*
D57*
%TO.N,+5V*%
X100962500Y-84250000D02*
X100962500Y-83767500D01*
X100962500Y-83767500D02*
X102925000Y-81805000D01*
X102925000Y-81805000D02*
X102925000Y-80800000D01*
D58*
%TO.N,Net-(IC2-BST)*%
X92675000Y-80820000D02*
X92695000Y-80800000D01*
X92675000Y-82700000D02*
X92675000Y-80820000D01*
%TO.N,Net-(IC2-FB)*%
X96505000Y-75400000D02*
X96505000Y-73895000D01*
X96505000Y-73895000D02*
X96875000Y-73525000D01*
%TO.N,Net-(IC2-COMP)*%
X96305000Y-72425000D02*
X96305000Y-71431642D01*
X95375000Y-73355000D02*
X96305000Y-72425000D01*
X95375000Y-73475000D02*
X95375000Y-73355000D01*
X95235000Y-75400000D02*
X95235000Y-73615000D01*
X96820000Y-70480000D02*
X97000000Y-70300000D01*
X96820000Y-70916642D02*
X96820000Y-70480000D01*
X95235000Y-73615000D02*
X95375000Y-73475000D01*
X96305000Y-71431642D02*
X96820000Y-70916642D01*
%TO.N,Net-(IC2-EN)*%
X97675000Y-82600000D02*
X96325000Y-82600000D01*
X95235000Y-80800000D02*
X95235000Y-81510000D01*
X95235000Y-81510000D02*
X96325000Y-82600000D01*
%TO.N,Net-(IC2-RT{slash}CLK)*%
X98275000Y-80800000D02*
X96505000Y-80800000D01*
%TO.N,Net-(C21-Pad1)*%
X92275000Y-70350000D02*
X92325000Y-70300000D01*
X92275000Y-71875000D02*
X92275000Y-70350000D01*
%TO.N,Net-(C22-Pad1)*%
X105425000Y-92500000D02*
X105600000Y-92325000D01*
X103925000Y-92500000D02*
X105425000Y-92500000D01*
%TO.N,Net-(IC1-BST)*%
X94615000Y-92610000D02*
X92835000Y-92610000D01*
X92835000Y-92610000D02*
X92700000Y-92475000D01*
X94900000Y-92895000D02*
X94615000Y-92610000D01*
%TO.N,Net-(IC1-COMP)*%
X100300000Y-95435000D02*
X102160000Y-95435000D01*
X104985000Y-97125000D02*
X105600000Y-97125000D01*
X104380000Y-96520000D02*
X104985000Y-97125000D01*
X102160000Y-95435000D02*
X102325000Y-95600000D01*
X103245000Y-96520000D02*
X104380000Y-96520000D01*
X102325000Y-95600000D02*
X103245000Y-96520000D01*
%TO.N,Net-(C39-Pad1)*%
X104225000Y-94100000D02*
X105600000Y-95475000D01*
X103875000Y-94100000D02*
X104225000Y-94100000D01*
%TO.N,Net-(C40-Pad1)*%
X95350000Y-70450000D02*
X93875000Y-71925000D01*
X95350000Y-70300000D02*
X95350000Y-70450000D01*
%TO.N,Net-(IC1-FB)*%
X102245000Y-98930000D02*
X102285000Y-98970000D01*
X101470000Y-96705000D02*
X102245000Y-97480000D01*
X100300000Y-96705000D02*
X101470000Y-96705000D01*
X102255000Y-99000000D02*
X102285000Y-98970000D01*
X100425000Y-99000000D02*
X102255000Y-99000000D01*
X102245000Y-97480000D02*
X102245000Y-98930000D01*
%TO.N,Net-(IC1-RT{slash}CLK)*%
X94900000Y-96705000D02*
X94950000Y-96755000D01*
X94950000Y-96755000D02*
X94950000Y-99000000D01*
%TO.N,Net-(IC1-EN)*%
X93105000Y-95420000D02*
X94885000Y-95420000D01*
X92670000Y-95855000D02*
X92700000Y-95825000D01*
X92600000Y-97575000D02*
X92670000Y-97505000D01*
X94885000Y-95420000D02*
X94900000Y-95435000D01*
X92700000Y-95825000D02*
X93105000Y-95420000D01*
X92670000Y-97505000D02*
X92670000Y-95855000D01*
%TO.N,Net-(Q1-D)*%
X104787500Y-83362500D02*
X104600000Y-83175000D01*
X104787500Y-85400000D02*
X104787500Y-83362500D01*
X102837500Y-83300000D02*
X104475000Y-83300000D01*
X104475000Y-83300000D02*
X104600000Y-83175000D01*
%TO.N,Net-(Q1-G)*%
X101275000Y-80800000D02*
X101275000Y-82037500D01*
X101275000Y-82037500D02*
X100962500Y-82350000D01*
%TD*%
%TA.AperFunction,Conductor*%
%TO.N,Net-(IC1-FB)*%
G36*
X102041426Y-96271526D02*
G01*
X102046215Y-96272285D01*
X102066509Y-96275500D01*
X102066512Y-96275500D01*
X102194138Y-96275500D01*
X102261177Y-96295185D01*
X102281819Y-96311819D01*
X103033681Y-97063681D01*
X103067166Y-97125004D01*
X103070000Y-97151362D01*
X103070000Y-99328638D01*
X103050315Y-99395677D01*
X103033681Y-99416319D01*
X102716319Y-99733681D01*
X102654996Y-99767166D01*
X102628638Y-99770000D01*
X100091362Y-99770000D01*
X100024323Y-99750315D01*
X100003681Y-99733681D01*
X99886319Y-99616319D01*
X99852834Y-99554996D01*
X99850000Y-99528638D01*
X99850000Y-98630000D01*
X99456319Y-98236319D01*
X99422834Y-98174996D01*
X99420000Y-98148638D01*
X99420000Y-96394000D01*
X99439685Y-96326961D01*
X99492489Y-96281206D01*
X99544000Y-96270000D01*
X102022028Y-96270000D01*
X102041426Y-96271526D01*
G37*
%TD.AperFunction*%
%TD*%
%TA.AperFunction,Conductor*%
%TO.N,Net-(D6-A)*%
G36*
X64717183Y-89718907D02*
G01*
X64728996Y-89728996D01*
X65441004Y-90441004D01*
X65468781Y-90495521D01*
X65470000Y-90511008D01*
X65470000Y-91608992D01*
X65451093Y-91667183D01*
X65441004Y-91678996D01*
X64470000Y-92650000D01*
X64470000Y-95800000D01*
X65320000Y-96650000D01*
X67198992Y-96650000D01*
X67257183Y-96668907D01*
X67268996Y-96678996D01*
X67681004Y-97091004D01*
X67708781Y-97145521D01*
X67710000Y-97161008D01*
X67710000Y-100698992D01*
X67691093Y-100757183D01*
X67681004Y-100768996D01*
X67655996Y-100794004D01*
X67601479Y-100821781D01*
X67585992Y-100823000D01*
X48884008Y-100823000D01*
X48825817Y-100804093D01*
X48814004Y-100794004D01*
X48728996Y-100708996D01*
X48701219Y-100654479D01*
X48700000Y-100638992D01*
X48700000Y-98820930D01*
X52914500Y-98820930D01*
X52914500Y-99749069D01*
X52939499Y-99874742D01*
X52939500Y-99874747D01*
X52988534Y-99993125D01*
X52988538Y-99993133D01*
X53031365Y-100057226D01*
X53059724Y-100099669D01*
X53150331Y-100190276D01*
X53213848Y-100232717D01*
X53256866Y-100261461D01*
X53256870Y-100261463D01*
X53256873Y-100261465D01*
X53375256Y-100310501D01*
X53500931Y-100335500D01*
X53500932Y-100335500D01*
X53629068Y-100335500D01*
X53629069Y-100335500D01*
X53754744Y-100310501D01*
X53873127Y-100261465D01*
X53979669Y-100190276D01*
X54070276Y-100099669D01*
X54141465Y-99993127D01*
X54190501Y-99874744D01*
X54215500Y-99749069D01*
X54215500Y-98820931D01*
X54215500Y-98820930D01*
X61564500Y-98820930D01*
X61564500Y-99749069D01*
X61589499Y-99874742D01*
X61589500Y-99874747D01*
X61638534Y-99993125D01*
X61638538Y-99993133D01*
X61681365Y-100057226D01*
X61709724Y-100099669D01*
X61800331Y-100190276D01*
X61863848Y-100232717D01*
X61906866Y-100261461D01*
X61906870Y-100261463D01*
X61906873Y-100261465D01*
X62025256Y-100310501D01*
X62150931Y-100335500D01*
X62150932Y-100335500D01*
X62279068Y-100335500D01*
X62279069Y-100335500D01*
X62404744Y-100310501D01*
X62523127Y-100261465D01*
X62629669Y-100190276D01*
X62720276Y-100099669D01*
X62791465Y-99993127D01*
X62840501Y-99874744D01*
X62865500Y-99749069D01*
X62865500Y-98820931D01*
X62840501Y-98695256D01*
X62791465Y-98576873D01*
X62791463Y-98576870D01*
X62791461Y-98576866D01*
X62762717Y-98533848D01*
X62720276Y-98470331D01*
X62629669Y-98379724D01*
X62587226Y-98351365D01*
X62523133Y-98308538D01*
X62523125Y-98308534D01*
X62404747Y-98259500D01*
X62404745Y-98259499D01*
X62404744Y-98259499D01*
X62279069Y-98234500D01*
X62150931Y-98234500D01*
X62150930Y-98234500D01*
X62088093Y-98246999D01*
X62025256Y-98259499D01*
X62025255Y-98259499D01*
X62025252Y-98259500D01*
X61906874Y-98308534D01*
X61906866Y-98308538D01*
X61800331Y-98379724D01*
X61800327Y-98379727D01*
X61709727Y-98470327D01*
X61709724Y-98470331D01*
X61638538Y-98576866D01*
X61638534Y-98576874D01*
X61589500Y-98695252D01*
X61589499Y-98695257D01*
X61564500Y-98820930D01*
X54215500Y-98820930D01*
X54190501Y-98695256D01*
X54141465Y-98576873D01*
X54141463Y-98576870D01*
X54141461Y-98576866D01*
X54112717Y-98533848D01*
X54070276Y-98470331D01*
X53979669Y-98379724D01*
X53937226Y-98351365D01*
X53873133Y-98308538D01*
X53873125Y-98308534D01*
X53754747Y-98259500D01*
X53754745Y-98259499D01*
X53754744Y-98259499D01*
X53629069Y-98234500D01*
X53500931Y-98234500D01*
X53500930Y-98234500D01*
X53438093Y-98246999D01*
X53375256Y-98259499D01*
X53375255Y-98259499D01*
X53375252Y-98259500D01*
X53256874Y-98308534D01*
X53256866Y-98308538D01*
X53150331Y-98379724D01*
X53150327Y-98379727D01*
X53059727Y-98470327D01*
X53059724Y-98470331D01*
X52988538Y-98576866D01*
X52988534Y-98576874D01*
X52939500Y-98695252D01*
X52939499Y-98695257D01*
X52914500Y-98820930D01*
X48700000Y-98820930D01*
X48700000Y-97061008D01*
X48718907Y-97002817D01*
X48728996Y-96991004D01*
X49301004Y-96418996D01*
X49355521Y-96391219D01*
X49371008Y-96390000D01*
X51444079Y-96390000D01*
X51444080Y-96389999D01*
X51557367Y-96274999D01*
X52280000Y-95541440D01*
X52291026Y-95090931D01*
X52914500Y-95090931D01*
X52914500Y-96719069D01*
X52932852Y-96811330D01*
X52939499Y-96844742D01*
X52939500Y-96844747D01*
X52988534Y-96963125D01*
X52988538Y-96963133D01*
X53015055Y-97002817D01*
X53059724Y-97069669D01*
X53150331Y-97160276D01*
X53213848Y-97202717D01*
X53256866Y-97231461D01*
X53256870Y-97231463D01*
X53256873Y-97231465D01*
X53375256Y-97280501D01*
X53500931Y-97305500D01*
X53500932Y-97305500D01*
X53629068Y-97305500D01*
X53629069Y-97305500D01*
X53754744Y-97280501D01*
X53873127Y-97231465D01*
X53979669Y-97160276D01*
X54070276Y-97069669D01*
X54141465Y-96963127D01*
X54190501Y-96844744D01*
X54215500Y-96719069D01*
X54215500Y-96522488D01*
X54234407Y-96464297D01*
X54283907Y-96428333D01*
X54345093Y-96428333D01*
X54394593Y-96464297D01*
X54405964Y-96484603D01*
X54434137Y-96552622D01*
X54434139Y-96552625D01*
X54522379Y-96667621D01*
X54637375Y-96755861D01*
X54771291Y-96811330D01*
X54915000Y-96830250D01*
X55058709Y-96811330D01*
X55192625Y-96755861D01*
X55307621Y-96667621D01*
X55395861Y-96552625D01*
X55451330Y-96418709D01*
X55470250Y-96275000D01*
X55470250Y-96274999D01*
X56059750Y-96274999D01*
X56059750Y-96275000D01*
X56078669Y-96418708D01*
X56078670Y-96418709D01*
X56134137Y-96552621D01*
X56134139Y-96552625D01*
X56222379Y-96667621D01*
X56337375Y-96755861D01*
X56471291Y-96811330D01*
X56615000Y-96830250D01*
X56758709Y-96811330D01*
X56892625Y-96755861D01*
X56979732Y-96689020D01*
X57037408Y-96668596D01*
X57096074Y-96685973D01*
X57100268Y-96689021D01*
X57187369Y-96755857D01*
X57187371Y-96755858D01*
X57187375Y-96755861D01*
X57321291Y-96811330D01*
X57465000Y-96830250D01*
X57608709Y-96811330D01*
X57742625Y-96755861D01*
X57829732Y-96689020D01*
X57887408Y-96668596D01*
X57946074Y-96685973D01*
X57950268Y-96689021D01*
X58037369Y-96755857D01*
X58037371Y-96755858D01*
X58037375Y-96755861D01*
X58171291Y-96811330D01*
X58315000Y-96830250D01*
X58458709Y-96811330D01*
X58592625Y-96755861D01*
X58679732Y-96689020D01*
X58737408Y-96668596D01*
X58796074Y-96685973D01*
X58800268Y-96689021D01*
X58887369Y-96755857D01*
X58887371Y-96755858D01*
X58887375Y-96755861D01*
X59021291Y-96811330D01*
X59165000Y-96830250D01*
X59308709Y-96811330D01*
X59442625Y-96755861D01*
X59557621Y-96667621D01*
X59645861Y-96552625D01*
X59701330Y-96418709D01*
X59720250Y-96275000D01*
X59701330Y-96131291D01*
X59645861Y-95997375D01*
X59557621Y-95882379D01*
X59442625Y-95794139D01*
X59442621Y-95794137D01*
X59308709Y-95738670D01*
X59308708Y-95738669D01*
X59165000Y-95719750D01*
X59021291Y-95738669D01*
X59021290Y-95738670D01*
X58887378Y-95794137D01*
X58887374Y-95794139D01*
X58800268Y-95860979D01*
X58742592Y-95881403D01*
X58683926Y-95864026D01*
X58679732Y-95860979D01*
X58592625Y-95794139D01*
X58592621Y-95794137D01*
X58458709Y-95738670D01*
X58458708Y-95738669D01*
X58315000Y-95719750D01*
X58171291Y-95738669D01*
X58171290Y-95738670D01*
X58037378Y-95794137D01*
X58037374Y-95794139D01*
X57950268Y-95860979D01*
X57892592Y-95881403D01*
X57833926Y-95864026D01*
X57829732Y-95860979D01*
X57742625Y-95794139D01*
X57742621Y-95794137D01*
X57608709Y-95738670D01*
X57608708Y-95738669D01*
X57465000Y-95719750D01*
X57321291Y-95738669D01*
X57321290Y-95738670D01*
X57187378Y-95794137D01*
X57187374Y-95794139D01*
X57100268Y-95860979D01*
X57042592Y-95881403D01*
X56983926Y-95864026D01*
X56979732Y-95860979D01*
X56892625Y-95794139D01*
X56892621Y-95794137D01*
X56758709Y-95738670D01*
X56758708Y-95738669D01*
X56615000Y-95719750D01*
X56471291Y-95738669D01*
X56471290Y-95738670D01*
X56337378Y-95794137D01*
X56337374Y-95794139D01*
X56222381Y-95882377D01*
X56222377Y-95882381D01*
X56134139Y-95997374D01*
X56134137Y-95997378D01*
X56078670Y-96131290D01*
X56078669Y-96131291D01*
X56059750Y-96274999D01*
X55470250Y-96274999D01*
X55451330Y-96131291D01*
X55395861Y-95997375D01*
X55307621Y-95882379D01*
X55192625Y-95794139D01*
X55192621Y-95794137D01*
X55058709Y-95738670D01*
X55058708Y-95738669D01*
X54915000Y-95719750D01*
X54771291Y-95738669D01*
X54771290Y-95738670D01*
X54637378Y-95794137D01*
X54637374Y-95794139D01*
X54522381Y-95882377D01*
X54522377Y-95882381D01*
X54434139Y-95997374D01*
X54434137Y-95997378D01*
X54405964Y-96065396D01*
X54366228Y-96111922D01*
X54306733Y-96126206D01*
X54250205Y-96102792D01*
X54218235Y-96050623D01*
X54215500Y-96027511D01*
X54215500Y-95172488D01*
X54234407Y-95114297D01*
X54283907Y-95078333D01*
X54345093Y-95078333D01*
X54394593Y-95114297D01*
X54405964Y-95134603D01*
X54434137Y-95202622D01*
X54434139Y-95202625D01*
X54522379Y-95317621D01*
X54637375Y-95405861D01*
X54771291Y-95461330D01*
X54915000Y-95480250D01*
X55058709Y-95461330D01*
X55192625Y-95405861D01*
X55307621Y-95317621D01*
X55395861Y-95202625D01*
X55451330Y-95068709D01*
X55470250Y-94925000D01*
X55470250Y-94924999D01*
X56059750Y-94924999D01*
X56059750Y-94925000D01*
X56078669Y-95068708D01*
X56078670Y-95068709D01*
X56134137Y-95202621D01*
X56134139Y-95202625D01*
X56222379Y-95317621D01*
X56337375Y-95405861D01*
X56471291Y-95461330D01*
X56615000Y-95480250D01*
X56758709Y-95461330D01*
X56892625Y-95405861D01*
X56979732Y-95339020D01*
X57037408Y-95318596D01*
X57096074Y-95335973D01*
X57100268Y-95339021D01*
X57187369Y-95405857D01*
X57187371Y-95405858D01*
X57187375Y-95405861D01*
X57321291Y-95461330D01*
X57465000Y-95480250D01*
X57608709Y-95461330D01*
X57742625Y-95405861D01*
X57829732Y-95339020D01*
X57887408Y-95318596D01*
X57946074Y-95335973D01*
X57950268Y-95339021D01*
X58037369Y-95405857D01*
X58037371Y-95405858D01*
X58037375Y-95405861D01*
X58171291Y-95461330D01*
X58315000Y-95480250D01*
X58458709Y-95461330D01*
X58592625Y-95405861D01*
X58679732Y-95339020D01*
X58737408Y-95318596D01*
X58796074Y-95335973D01*
X58800268Y-95339021D01*
X58887369Y-95405857D01*
X58887371Y-95405858D01*
X58887375Y-95405861D01*
X59021291Y-95461330D01*
X59165000Y-95480250D01*
X59308709Y-95461330D01*
X59442625Y-95405861D01*
X59557621Y-95317621D01*
X59645861Y-95202625D01*
X59701330Y-95068709D01*
X59720250Y-94925000D01*
X59720250Y-94924999D01*
X60309750Y-94924999D01*
X60309750Y-94925000D01*
X60328669Y-95068708D01*
X60328670Y-95068709D01*
X60384137Y-95202621D01*
X60384139Y-95202625D01*
X60472379Y-95317621D01*
X60587375Y-95405861D01*
X60721291Y-95461330D01*
X60865000Y-95480250D01*
X61008709Y-95461330D01*
X61142625Y-95405861D01*
X61257621Y-95317621D01*
X61345861Y-95202625D01*
X61374036Y-95134602D01*
X61413772Y-95088077D01*
X61473266Y-95073793D01*
X61529795Y-95097207D01*
X61561764Y-95149376D01*
X61564500Y-95172488D01*
X61564500Y-96027511D01*
X61545593Y-96085702D01*
X61496093Y-96121666D01*
X61434907Y-96121666D01*
X61385407Y-96085702D01*
X61374036Y-96065396D01*
X61345862Y-95997378D01*
X61345861Y-95997375D01*
X61257621Y-95882379D01*
X61142625Y-95794139D01*
X61142621Y-95794137D01*
X61008709Y-95738670D01*
X61008708Y-95738669D01*
X60865000Y-95719750D01*
X60721291Y-95738669D01*
X60721290Y-95738670D01*
X60587378Y-95794137D01*
X60587374Y-95794139D01*
X60472381Y-95882377D01*
X60472377Y-95882381D01*
X60384139Y-95997374D01*
X60384137Y-95997378D01*
X60328670Y-96131290D01*
X60328669Y-96131291D01*
X60309750Y-96274999D01*
X60309750Y-96275000D01*
X60328669Y-96418708D01*
X60328670Y-96418709D01*
X60384137Y-96552621D01*
X60384139Y-96552625D01*
X60472379Y-96667621D01*
X60587375Y-96755861D01*
X60721291Y-96811330D01*
X60865000Y-96830250D01*
X61008709Y-96811330D01*
X61142625Y-96755861D01*
X61257621Y-96667621D01*
X61345861Y-96552625D01*
X61374036Y-96484602D01*
X61413772Y-96438077D01*
X61473266Y-96423793D01*
X61529795Y-96447207D01*
X61561764Y-96499376D01*
X61564500Y-96522488D01*
X61564500Y-96719069D01*
X61582852Y-96811330D01*
X61589499Y-96844742D01*
X61589500Y-96844747D01*
X61638534Y-96963125D01*
X61638538Y-96963133D01*
X61665055Y-97002817D01*
X61709724Y-97069669D01*
X61800331Y-97160276D01*
X61863848Y-97202717D01*
X61906866Y-97231461D01*
X61906870Y-97231463D01*
X61906873Y-97231465D01*
X62025256Y-97280501D01*
X62150931Y-97305500D01*
X62150932Y-97305500D01*
X62279068Y-97305500D01*
X62279069Y-97305500D01*
X62404744Y-97280501D01*
X62523127Y-97231465D01*
X62629669Y-97160276D01*
X62720276Y-97069669D01*
X62791465Y-96963127D01*
X62840501Y-96844744D01*
X62865500Y-96719069D01*
X62865500Y-95090931D01*
X62840501Y-94965256D01*
X62791465Y-94846873D01*
X62791463Y-94846870D01*
X62791461Y-94846866D01*
X62762717Y-94803848D01*
X62720276Y-94740331D01*
X62629669Y-94649724D01*
X62587226Y-94621365D01*
X62523133Y-94578538D01*
X62523125Y-94578534D01*
X62404747Y-94529500D01*
X62404745Y-94529499D01*
X62404744Y-94529499D01*
X62279069Y-94504500D01*
X62150931Y-94504500D01*
X62150930Y-94504500D01*
X62103042Y-94514026D01*
X62025256Y-94529499D01*
X62025255Y-94529499D01*
X62025252Y-94529500D01*
X61906874Y-94578534D01*
X61906866Y-94578538D01*
X61800331Y-94649724D01*
X61800327Y-94649727D01*
X61709727Y-94740327D01*
X61709724Y-94740331D01*
X61638538Y-94846866D01*
X61638534Y-94846874D01*
X61606482Y-94924254D01*
X61566745Y-94970780D01*
X61507250Y-94985063D01*
X61450722Y-94961648D01*
X61418753Y-94909478D01*
X61416865Y-94899290D01*
X61401330Y-94781291D01*
X61345861Y-94647375D01*
X61257621Y-94532379D01*
X61142625Y-94444139D01*
X61142621Y-94444137D01*
X61008709Y-94388670D01*
X61008708Y-94388669D01*
X60865000Y-94369750D01*
X60721291Y-94388669D01*
X60721290Y-94388670D01*
X60587378Y-94444137D01*
X60587374Y-94444139D01*
X60472381Y-94532377D01*
X60472377Y-94532381D01*
X60384139Y-94647374D01*
X60384137Y-94647378D01*
X60328670Y-94781290D01*
X60328669Y-94781291D01*
X60309750Y-94924999D01*
X59720250Y-94924999D01*
X59718206Y-94909478D01*
X59701330Y-94781291D01*
X59645861Y-94647375D01*
X59557621Y-94532379D01*
X59442625Y-94444139D01*
X59442621Y-94444137D01*
X59308709Y-94388670D01*
X59308708Y-94388669D01*
X59165000Y-94369750D01*
X59021291Y-94388669D01*
X59021290Y-94388670D01*
X58887378Y-94444137D01*
X58887374Y-94444139D01*
X58800268Y-94510979D01*
X58742592Y-94531403D01*
X58683926Y-94514026D01*
X58679732Y-94510979D01*
X58671288Y-94504500D01*
X58592625Y-94444139D01*
X58592621Y-94444137D01*
X58458709Y-94388670D01*
X58458708Y-94388669D01*
X58315000Y-94369750D01*
X58171291Y-94388669D01*
X58171290Y-94388670D01*
X58037378Y-94444137D01*
X58037374Y-94444139D01*
X57950268Y-94510979D01*
X57892592Y-94531403D01*
X57833926Y-94514026D01*
X57829732Y-94510979D01*
X57821288Y-94504500D01*
X57742625Y-94444139D01*
X57742621Y-94444137D01*
X57608709Y-94388670D01*
X57608708Y-94388669D01*
X57465000Y-94369750D01*
X57321291Y-94388669D01*
X57321290Y-94388670D01*
X57187378Y-94444137D01*
X57187374Y-94444139D01*
X57100268Y-94510979D01*
X57042592Y-94531403D01*
X56983926Y-94514026D01*
X56979732Y-94510979D01*
X56971288Y-94504500D01*
X56892625Y-94444139D01*
X56892621Y-94444137D01*
X56758709Y-94388670D01*
X56758708Y-94388669D01*
X56615000Y-94369750D01*
X56471291Y-94388669D01*
X56471290Y-94388670D01*
X56337378Y-94444137D01*
X56337374Y-94444139D01*
X56222381Y-94532377D01*
X56222377Y-94532381D01*
X56134139Y-94647374D01*
X56134137Y-94647378D01*
X56078670Y-94781290D01*
X56078669Y-94781291D01*
X56059750Y-94924999D01*
X55470250Y-94924999D01*
X55468206Y-94909478D01*
X55451330Y-94781291D01*
X55395861Y-94647375D01*
X55307621Y-94532379D01*
X55192625Y-94444139D01*
X55192621Y-94444137D01*
X55058709Y-94388670D01*
X55058708Y-94388669D01*
X54915000Y-94369750D01*
X54771291Y-94388669D01*
X54771290Y-94388670D01*
X54637378Y-94444137D01*
X54637374Y-94444139D01*
X54522381Y-94532377D01*
X54522377Y-94532381D01*
X54434139Y-94647374D01*
X54434137Y-94647378D01*
X54378670Y-94781290D01*
X54378670Y-94781291D01*
X54363134Y-94899291D01*
X54336792Y-94954516D01*
X54283021Y-94983710D01*
X54222360Y-94975724D01*
X54177978Y-94933606D01*
X54173517Y-94924253D01*
X54141467Y-94846877D01*
X54141461Y-94846866D01*
X54112717Y-94803848D01*
X54070276Y-94740331D01*
X53979669Y-94649724D01*
X53937226Y-94621365D01*
X53873133Y-94578538D01*
X53873125Y-94578534D01*
X53754747Y-94529500D01*
X53754745Y-94529499D01*
X53754744Y-94529499D01*
X53629069Y-94504500D01*
X53500931Y-94504500D01*
X53500930Y-94504500D01*
X53453042Y-94514026D01*
X53375256Y-94529499D01*
X53375255Y-94529499D01*
X53375252Y-94529500D01*
X53256874Y-94578534D01*
X53256866Y-94578538D01*
X53150331Y-94649724D01*
X53150327Y-94649727D01*
X53059727Y-94740327D01*
X53059724Y-94740331D01*
X52988538Y-94846866D01*
X52988534Y-94846874D01*
X52939500Y-94965252D01*
X52939499Y-94965257D01*
X52918921Y-95068708D01*
X52914500Y-95090931D01*
X52291026Y-95090931D01*
X52409058Y-90268484D01*
X52429383Y-90210774D01*
X52436691Y-90202262D01*
X52890790Y-89730355D01*
X52944763Y-89701535D01*
X52962127Y-89700000D01*
X64658992Y-89700000D01*
X64717183Y-89718907D01*
G37*
%TD.AperFunction*%
%TD*%
%TA.AperFunction,Conductor*%
%TO.N,Net-(IC2-FB)*%
G36*
X98867183Y-72828907D02*
G01*
X98878996Y-72838996D01*
X99111004Y-73071004D01*
X99138781Y-73125521D01*
X99140000Y-73141008D01*
X99140000Y-75478992D01*
X99121093Y-75537183D01*
X99111004Y-75548996D01*
X98878996Y-75781004D01*
X98824479Y-75808781D01*
X98808992Y-75810000D01*
X97801008Y-75810000D01*
X97742817Y-75791093D01*
X97731006Y-75781005D01*
X97730001Y-75780000D01*
X97730000Y-75780000D01*
X97268995Y-76241004D01*
X97214479Y-76268781D01*
X97198992Y-76270000D01*
X96271008Y-76270000D01*
X96212817Y-76251093D01*
X96201004Y-76241004D01*
X96078996Y-76118996D01*
X96051219Y-76064479D01*
X96050000Y-76048992D01*
X96050000Y-74321007D01*
X96068907Y-74262816D01*
X96078990Y-74251009D01*
X96180000Y-74150000D01*
X96180000Y-73228110D01*
X96198907Y-73169919D01*
X96208997Y-73158106D01*
X96528108Y-72838996D01*
X96582624Y-72811219D01*
X96598111Y-72810000D01*
X98808992Y-72810000D01*
X98867183Y-72828907D01*
G37*
%TD.AperFunction*%
%TD*%
%TA.AperFunction,Conductor*%
%TO.N,Net-(D1-A1)*%
G36*
X87917183Y-85548907D02*
G01*
X87928996Y-85558996D01*
X88261004Y-85891004D01*
X88288781Y-85945521D01*
X88290000Y-85961008D01*
X88290000Y-90118992D01*
X88271093Y-90177183D01*
X88261004Y-90188996D01*
X87449936Y-91000063D01*
X87395420Y-91027840D01*
X87316874Y-91040281D01*
X87316867Y-91040283D01*
X87196782Y-91101470D01*
X87101470Y-91196782D01*
X87040283Y-91316867D01*
X87040281Y-91316874D01*
X87024500Y-91416510D01*
X87024500Y-91983489D01*
X87040281Y-92083125D01*
X87040282Y-92083129D01*
X87058595Y-92119070D01*
X87099209Y-92198780D01*
X87110000Y-92243723D01*
X87110000Y-92330000D01*
X88101005Y-93321005D01*
X88128781Y-93375520D01*
X88130000Y-93391007D01*
X88130000Y-95528992D01*
X88111093Y-95587183D01*
X88101004Y-95598996D01*
X87088996Y-96611004D01*
X87034479Y-96638781D01*
X87018992Y-96640000D01*
X85181008Y-96640000D01*
X85122817Y-96621093D01*
X85111004Y-96611004D01*
X84408996Y-95908996D01*
X84381219Y-95854479D01*
X84380000Y-95838992D01*
X84380000Y-89824322D01*
X84395173Y-89771652D01*
X84454076Y-89677910D01*
X84602736Y-89369215D01*
X84715897Y-89045817D01*
X84792139Y-88711783D01*
X84830500Y-88371312D01*
X84830500Y-88028688D01*
X84792139Y-87688217D01*
X84715897Y-87354183D01*
X84602736Y-87030785D01*
X84528406Y-86876437D01*
X84454077Y-86722091D01*
X84451257Y-86717604D01*
X84436303Y-86658274D01*
X84459078Y-86601485D01*
X84465053Y-86594946D01*
X85501004Y-85558996D01*
X85555521Y-85531219D01*
X85571008Y-85530000D01*
X87858992Y-85530000D01*
X87917183Y-85548907D01*
G37*
%TD.AperFunction*%
%TD*%
%TA.AperFunction,Conductor*%
%TO.N,VUSB*%
G36*
X94285677Y-79929685D02*
G01*
X94306319Y-79946319D01*
X94383681Y-80023681D01*
X94417166Y-80085004D01*
X94420000Y-80111362D01*
X94420000Y-81510000D01*
X95130000Y-82220000D01*
X95130001Y-82220000D01*
X95152788Y-82229439D01*
X95151486Y-82232581D01*
X95175677Y-82239685D01*
X95196319Y-82256319D01*
X95453681Y-82513681D01*
X95487166Y-82575004D01*
X95490000Y-82601362D01*
X95490000Y-91721193D01*
X95480561Y-91768646D01*
X95480000Y-91770000D01*
X95480000Y-92245500D01*
X95460315Y-92312539D01*
X95407511Y-92358294D01*
X95356000Y-92369500D01*
X95062965Y-92369500D01*
X94995926Y-92349815D01*
X94975284Y-92333181D01*
X94891616Y-92249513D01*
X94891614Y-92249511D01*
X94834448Y-92216506D01*
X94788888Y-92190201D01*
X94776780Y-92186957D01*
X94764673Y-92183713D01*
X94764670Y-92183712D01*
X94726478Y-92173478D01*
X94674309Y-92159500D01*
X94674308Y-92159500D01*
X93457425Y-92159500D01*
X93390386Y-92139815D01*
X93346941Y-92091796D01*
X93298528Y-91996780D01*
X93298524Y-91996776D01*
X93298523Y-91996774D01*
X93203225Y-91901476D01*
X93203221Y-91901473D01*
X93203220Y-91901472D01*
X93083126Y-91840281D01*
X93083124Y-91840280D01*
X93083121Y-91840279D01*
X92983493Y-91824500D01*
X92983488Y-91824500D01*
X92416512Y-91824500D01*
X92416507Y-91824500D01*
X92316878Y-91840279D01*
X92196778Y-91901473D01*
X92196774Y-91901476D01*
X92101476Y-91996774D01*
X92101473Y-91996778D01*
X92101472Y-91996780D01*
X92057477Y-92083126D01*
X92040279Y-92116878D01*
X92024500Y-92216506D01*
X92024500Y-92733493D01*
X92040279Y-92833121D01*
X92040280Y-92833124D01*
X92040281Y-92833126D01*
X92092766Y-92936133D01*
X92101473Y-92953221D01*
X92101476Y-92953225D01*
X92196774Y-93048523D01*
X92196778Y-93048526D01*
X92196780Y-93048528D01*
X92316874Y-93109719D01*
X92316876Y-93109719D01*
X92316878Y-93109720D01*
X92416507Y-93125500D01*
X92416512Y-93125500D01*
X92983493Y-93125500D01*
X93083123Y-93109720D01*
X93083124Y-93109719D01*
X93083126Y-93109719D01*
X93141090Y-93080185D01*
X93153200Y-93074015D01*
X93209494Y-93060500D01*
X93825500Y-93060500D01*
X93892539Y-93080185D01*
X93938294Y-93132989D01*
X93949500Y-93184500D01*
X93949500Y-93239752D01*
X93961131Y-93298229D01*
X93961132Y-93298230D01*
X94005447Y-93364552D01*
X94071769Y-93408867D01*
X94071770Y-93408868D01*
X94130247Y-93420499D01*
X94130250Y-93420500D01*
X95356000Y-93420500D01*
X95423039Y-93440185D01*
X95468794Y-93492989D01*
X95480000Y-93544500D01*
X95480000Y-93580000D01*
X95663681Y-93763681D01*
X95697166Y-93825004D01*
X95700000Y-93851362D01*
X95700000Y-94478638D01*
X95680315Y-94545677D01*
X95663681Y-94566319D01*
X95396319Y-94833681D01*
X95334996Y-94867166D01*
X95308638Y-94870000D01*
X91061362Y-94870000D01*
X90994323Y-94850315D01*
X90973681Y-94833681D01*
X90083555Y-93943555D01*
X90050070Y-93882232D01*
X90055054Y-93812540D01*
X90083557Y-93768191D01*
X90098524Y-93753224D01*
X90098528Y-93753220D01*
X90159719Y-93633126D01*
X90159720Y-93633121D01*
X90175500Y-93533493D01*
X90175500Y-93016506D01*
X90159720Y-92916878D01*
X90159719Y-92916876D01*
X90159719Y-92916874D01*
X90098528Y-92796780D01*
X90098526Y-92796778D01*
X90098523Y-92796774D01*
X90003225Y-92701476D01*
X90003221Y-92701473D01*
X90003220Y-92701472D01*
X89883126Y-92640281D01*
X89883124Y-92640280D01*
X89883121Y-92640279D01*
X89783493Y-92624500D01*
X89783488Y-92624500D01*
X89216512Y-92624500D01*
X89216507Y-92624500D01*
X89116878Y-92640279D01*
X89116874Y-92640280D01*
X89116874Y-92640281D01*
X88996780Y-92701472D01*
X88996779Y-92701472D01*
X88996771Y-92701477D01*
X88992494Y-92704584D01*
X88926686Y-92728057D01*
X88858633Y-92712224D01*
X88831939Y-92691939D01*
X88646319Y-92506319D01*
X88612834Y-92444996D01*
X88610000Y-92418638D01*
X88610000Y-91041362D01*
X88629685Y-90974323D01*
X88646319Y-90953681D01*
X88933494Y-90666506D01*
X92024500Y-90666506D01*
X92024500Y-91183493D01*
X92040279Y-91283121D01*
X92040280Y-91283124D01*
X92040281Y-91283126D01*
X92101472Y-91403220D01*
X92101473Y-91403221D01*
X92101476Y-91403225D01*
X92196774Y-91498523D01*
X92196778Y-91498526D01*
X92196780Y-91498528D01*
X92316874Y-91559719D01*
X92316876Y-91559719D01*
X92316878Y-91559720D01*
X92416507Y-91575500D01*
X92416512Y-91575500D01*
X92983493Y-91575500D01*
X93083121Y-91559720D01*
X93083121Y-91559719D01*
X93083126Y-91559719D01*
X93203220Y-91498528D01*
X93298528Y-91403220D01*
X93359719Y-91283126D01*
X93373395Y-91196780D01*
X93375500Y-91183493D01*
X93375500Y-90666506D01*
X93359720Y-90566878D01*
X93359719Y-90566876D01*
X93359719Y-90566874D01*
X93298528Y-90446780D01*
X93298526Y-90446778D01*
X93298523Y-90446774D01*
X93203225Y-90351476D01*
X93203221Y-90351473D01*
X93203220Y-90351472D01*
X93083126Y-90290281D01*
X93083124Y-90290280D01*
X93083121Y-90290279D01*
X92983493Y-90274500D01*
X92983488Y-90274500D01*
X92416512Y-90274500D01*
X92416507Y-90274500D01*
X92316878Y-90290279D01*
X92196778Y-90351473D01*
X92196774Y-90351476D01*
X92101476Y-90446774D01*
X92101473Y-90446778D01*
X92101472Y-90446780D01*
X92048625Y-90550499D01*
X92040279Y-90566878D01*
X92024500Y-90666506D01*
X88933494Y-90666506D01*
X89248527Y-90351473D01*
X89330000Y-90270000D01*
X89870000Y-89730000D01*
X89870000Y-83920000D01*
X89870000Y-83919999D01*
X88331152Y-82416506D01*
X90474500Y-82416506D01*
X90474500Y-82983493D01*
X90490279Y-83083121D01*
X90490280Y-83083124D01*
X90490281Y-83083126D01*
X90551472Y-83203220D01*
X90551473Y-83203221D01*
X90551476Y-83203225D01*
X90646774Y-83298523D01*
X90646778Y-83298526D01*
X90646780Y-83298528D01*
X90766874Y-83359719D01*
X90766876Y-83359719D01*
X90766878Y-83359720D01*
X90866507Y-83375500D01*
X90866512Y-83375500D01*
X91383493Y-83375500D01*
X91483121Y-83359720D01*
X91483121Y-83359719D01*
X91483126Y-83359719D01*
X91603220Y-83298528D01*
X91698528Y-83203220D01*
X91759719Y-83083126D01*
X91762542Y-83065302D01*
X91775500Y-82983493D01*
X91775500Y-82416506D01*
X91759720Y-82316878D01*
X91759719Y-82316876D01*
X91759719Y-82316874D01*
X91698528Y-82196780D01*
X91698526Y-82196778D01*
X91698523Y-82196774D01*
X91603225Y-82101476D01*
X91603221Y-82101473D01*
X91603220Y-82101472D01*
X91483126Y-82040281D01*
X91483124Y-82040280D01*
X91483121Y-82040279D01*
X91383493Y-82024500D01*
X91383488Y-82024500D01*
X90866512Y-82024500D01*
X90866507Y-82024500D01*
X90766878Y-82040279D01*
X90646778Y-82101473D01*
X90646774Y-82101476D01*
X90551476Y-82196774D01*
X90551473Y-82196778D01*
X90490279Y-82316878D01*
X90474500Y-82416506D01*
X88331152Y-82416506D01*
X88140260Y-82230000D01*
X88140259Y-82230000D01*
X88095728Y-82230649D01*
X85923259Y-82262353D01*
X85855940Y-82243649D01*
X85809419Y-82191518D01*
X85797459Y-82136869D01*
X85820194Y-80253357D01*
X85840685Y-80186564D01*
X85894038Y-80141450D01*
X85945047Y-80130861D01*
X91550000Y-80170000D01*
X92041154Y-80152766D01*
X92108840Y-80170088D01*
X92156419Y-80221255D01*
X92169500Y-80276690D01*
X92169500Y-81569752D01*
X92181131Y-81628229D01*
X92181132Y-81628230D01*
X92203602Y-81661858D01*
X92224480Y-81728535D01*
X92224500Y-81730749D01*
X92224500Y-82022389D01*
X92204815Y-82089428D01*
X92188181Y-82110070D01*
X92101476Y-82196774D01*
X92101473Y-82196778D01*
X92040279Y-82316878D01*
X92024500Y-82416506D01*
X92024500Y-82983493D01*
X92040279Y-83083121D01*
X92040280Y-83083124D01*
X92040281Y-83083126D01*
X92101472Y-83203220D01*
X92101473Y-83203221D01*
X92101476Y-83203225D01*
X92196774Y-83298523D01*
X92196778Y-83298526D01*
X92196780Y-83298528D01*
X92316874Y-83359719D01*
X92316876Y-83359719D01*
X92316878Y-83359720D01*
X92416507Y-83375500D01*
X92416512Y-83375500D01*
X92933493Y-83375500D01*
X93033121Y-83359720D01*
X93033121Y-83359719D01*
X93033126Y-83359719D01*
X93153220Y-83298528D01*
X93248528Y-83203220D01*
X93309719Y-83083126D01*
X93312542Y-83065302D01*
X93325500Y-82983493D01*
X93325500Y-82416506D01*
X93309720Y-82316878D01*
X93309719Y-82316876D01*
X93309719Y-82316874D01*
X93248528Y-82196780D01*
X93248526Y-82196778D01*
X93248523Y-82196774D01*
X93161819Y-82110070D01*
X93128334Y-82048747D01*
X93125500Y-82022389D01*
X93125500Y-81784967D01*
X93145185Y-81717928D01*
X93161819Y-81697286D01*
X93164551Y-81694553D01*
X93165500Y-81693133D01*
X93208867Y-81628231D01*
X93208867Y-81628229D01*
X93208868Y-81628229D01*
X93220499Y-81569752D01*
X93220500Y-81569750D01*
X93220500Y-80293148D01*
X93240185Y-80226109D01*
X93292989Y-80180354D01*
X93346437Y-80169163D01*
X93400000Y-80170000D01*
X93528492Y-80031623D01*
X93531570Y-80028429D01*
X93613683Y-79946316D01*
X93675005Y-79912834D01*
X93701362Y-79910000D01*
X94218638Y-79910000D01*
X94285677Y-79929685D01*
G37*
%TD.AperFunction*%
%TD*%
%TA.AperFunction,Conductor*%
%TO.N,/USB/USBDevAttach*%
G36*
X75247183Y-89918907D02*
G01*
X75258996Y-89928996D01*
X77941004Y-92611004D01*
X77968781Y-92665521D01*
X77970000Y-92681008D01*
X77970000Y-94210000D01*
X78295023Y-94535024D01*
X78322800Y-94589540D01*
X78313229Y-94649972D01*
X78295023Y-94675030D01*
X78229732Y-94740321D01*
X78229724Y-94740331D01*
X78158538Y-94846866D01*
X78158534Y-94846874D01*
X78126482Y-94924254D01*
X78086745Y-94970780D01*
X78027250Y-94985063D01*
X77970722Y-94961648D01*
X77938753Y-94909478D01*
X77936865Y-94899290D01*
X77933183Y-94871326D01*
X77921330Y-94781291D01*
X77865861Y-94647375D01*
X77777621Y-94532379D01*
X77662625Y-94444139D01*
X77662621Y-94444137D01*
X77528709Y-94388670D01*
X77528708Y-94388669D01*
X77385000Y-94369750D01*
X77241291Y-94388669D01*
X77241290Y-94388670D01*
X77107378Y-94444137D01*
X77107374Y-94444139D01*
X76992381Y-94532377D01*
X76992377Y-94532381D01*
X76904139Y-94647374D01*
X76904137Y-94647378D01*
X76848670Y-94781290D01*
X76848669Y-94781291D01*
X76829750Y-94924999D01*
X76829750Y-94925000D01*
X76848669Y-95068708D01*
X76848670Y-95068709D01*
X76904137Y-95202621D01*
X76904139Y-95202625D01*
X76992379Y-95317621D01*
X77107375Y-95405861D01*
X77241291Y-95461330D01*
X77385000Y-95480250D01*
X77528709Y-95461330D01*
X77662625Y-95405861D01*
X77777621Y-95317621D01*
X77865861Y-95202625D01*
X77894036Y-95134602D01*
X77933772Y-95088077D01*
X77993266Y-95073793D01*
X78049795Y-95097207D01*
X78081764Y-95149376D01*
X78084500Y-95172488D01*
X78084500Y-96027511D01*
X78065593Y-96085702D01*
X78016093Y-96121666D01*
X77954907Y-96121666D01*
X77905407Y-96085702D01*
X77894036Y-96065396D01*
X77865862Y-95997378D01*
X77865861Y-95997375D01*
X77777621Y-95882379D01*
X77662625Y-95794139D01*
X77662621Y-95794137D01*
X77528709Y-95738670D01*
X77528708Y-95738669D01*
X77385000Y-95719750D01*
X77241291Y-95738669D01*
X77241290Y-95738670D01*
X77107378Y-95794137D01*
X77107374Y-95794139D01*
X76992381Y-95882377D01*
X76992377Y-95882381D01*
X76904139Y-95997374D01*
X76904137Y-95997378D01*
X76848670Y-96131290D01*
X76848669Y-96131291D01*
X76829750Y-96274999D01*
X76829750Y-96275000D01*
X76848669Y-96418708D01*
X76848670Y-96418709D01*
X76904137Y-96552621D01*
X76904139Y-96552625D01*
X76992379Y-96667621D01*
X77107375Y-96755861D01*
X77241291Y-96811330D01*
X77385000Y-96830250D01*
X77528709Y-96811330D01*
X77662625Y-96755861D01*
X77777621Y-96667621D01*
X77865861Y-96552625D01*
X77894036Y-96484602D01*
X77933772Y-96438077D01*
X77993266Y-96423793D01*
X78049795Y-96447207D01*
X78081764Y-96499376D01*
X78084500Y-96522488D01*
X78084500Y-96719069D01*
X78102852Y-96811330D01*
X78109499Y-96844742D01*
X78109500Y-96844747D01*
X78158534Y-96963125D01*
X78158538Y-96963133D01*
X78201365Y-97027226D01*
X78229724Y-97069669D01*
X78320331Y-97160276D01*
X78383848Y-97202717D01*
X78426866Y-97231461D01*
X78426870Y-97231463D01*
X78426873Y-97231465D01*
X78545256Y-97280501D01*
X78670931Y-97305500D01*
X78670932Y-97305500D01*
X78799068Y-97305500D01*
X78799069Y-97305500D01*
X78924744Y-97280501D01*
X79043127Y-97231465D01*
X79149669Y-97160276D01*
X79240276Y-97069669D01*
X79311465Y-96963127D01*
X79360501Y-96844744D01*
X79385500Y-96719069D01*
X79385500Y-95864507D01*
X79404407Y-95806316D01*
X79453907Y-95770352D01*
X79515093Y-95770352D01*
X79554501Y-95794501D01*
X80650000Y-96890000D01*
X83248992Y-96890000D01*
X83307183Y-96908907D01*
X83318996Y-96918996D01*
X84011004Y-97611004D01*
X84038781Y-97665521D01*
X84040000Y-97681008D01*
X84040000Y-100448992D01*
X84021093Y-100507183D01*
X84011004Y-100518996D01*
X83735996Y-100794004D01*
X83681479Y-100821781D01*
X83665992Y-100823000D01*
X69204008Y-100823000D01*
X69145817Y-100804093D01*
X69134004Y-100794004D01*
X68288996Y-99948996D01*
X68261219Y-99894479D01*
X68260000Y-99878992D01*
X68260000Y-98820930D01*
X69434500Y-98820930D01*
X69434500Y-99749069D01*
X69459499Y-99874742D01*
X69459500Y-99874747D01*
X69508534Y-99993125D01*
X69508538Y-99993133D01*
X69551365Y-100057226D01*
X69579724Y-100099669D01*
X69670331Y-100190276D01*
X69733848Y-100232717D01*
X69776866Y-100261461D01*
X69776870Y-100261463D01*
X69776873Y-100261465D01*
X69895256Y-100310501D01*
X70020931Y-100335500D01*
X70020932Y-100335500D01*
X70149068Y-100335500D01*
X70149069Y-100335500D01*
X70274744Y-100310501D01*
X70393127Y-100261465D01*
X70499669Y-100190276D01*
X70590276Y-100099669D01*
X70661465Y-99993127D01*
X70710501Y-99874744D01*
X70735500Y-99749069D01*
X70735500Y-98820931D01*
X70735500Y-98820930D01*
X78084500Y-98820930D01*
X78084500Y-99749069D01*
X78109499Y-99874742D01*
X78109500Y-99874747D01*
X78158534Y-99993125D01*
X78158538Y-99993133D01*
X78201365Y-100057226D01*
X78229724Y-100099669D01*
X78320331Y-100190276D01*
X78383848Y-100232717D01*
X78426866Y-100261461D01*
X78426870Y-100261463D01*
X78426873Y-100261465D01*
X78545256Y-100310501D01*
X78670931Y-100335500D01*
X78670932Y-100335500D01*
X78799068Y-100335500D01*
X78799069Y-100335500D01*
X78924744Y-100310501D01*
X79043127Y-100261465D01*
X79149669Y-100190276D01*
X79240276Y-100099669D01*
X79311465Y-99993127D01*
X79360501Y-99874744D01*
X79385500Y-99749069D01*
X79385500Y-98820931D01*
X79360501Y-98695256D01*
X79311465Y-98576873D01*
X79311463Y-98576870D01*
X79311461Y-98576866D01*
X79274954Y-98522230D01*
X79240276Y-98470331D01*
X79149669Y-98379724D01*
X79107226Y-98351365D01*
X79043133Y-98308538D01*
X79043125Y-98308534D01*
X78924747Y-98259500D01*
X78924745Y-98259499D01*
X78924744Y-98259499D01*
X78799069Y-98234500D01*
X78670931Y-98234500D01*
X78670930Y-98234500D01*
X78608093Y-98246999D01*
X78545256Y-98259499D01*
X78545255Y-98259499D01*
X78545252Y-98259500D01*
X78426874Y-98308534D01*
X78426866Y-98308538D01*
X78320331Y-98379724D01*
X78320327Y-98379727D01*
X78229727Y-98470327D01*
X78229724Y-98470331D01*
X78158538Y-98576866D01*
X78158534Y-98576874D01*
X78109500Y-98695252D01*
X78109499Y-98695257D01*
X78084500Y-98820930D01*
X70735500Y-98820930D01*
X70710501Y-98695256D01*
X70661465Y-98576873D01*
X70661463Y-98576870D01*
X70661461Y-98576866D01*
X70624954Y-98522230D01*
X70590276Y-98470331D01*
X70499669Y-98379724D01*
X70457226Y-98351365D01*
X70393133Y-98308538D01*
X70393125Y-98308534D01*
X70274747Y-98259500D01*
X70274745Y-98259499D01*
X70274744Y-98259499D01*
X70149069Y-98234500D01*
X70020931Y-98234500D01*
X70020930Y-98234500D01*
X69958093Y-98246999D01*
X69895256Y-98259499D01*
X69895255Y-98259499D01*
X69895252Y-98259500D01*
X69776874Y-98308534D01*
X69776866Y-98308538D01*
X69670331Y-98379724D01*
X69670327Y-98379727D01*
X69579727Y-98470327D01*
X69579724Y-98470331D01*
X69508538Y-98576866D01*
X69508534Y-98576874D01*
X69459500Y-98695252D01*
X69459499Y-98695257D01*
X69434500Y-98820930D01*
X68260000Y-98820930D01*
X68260000Y-96571008D01*
X68278907Y-96512817D01*
X68288996Y-96501004D01*
X69265496Y-95524504D01*
X69320013Y-95496727D01*
X69380445Y-95506298D01*
X69423710Y-95549563D01*
X69434500Y-95594508D01*
X69434500Y-96719069D01*
X69452852Y-96811330D01*
X69459499Y-96844742D01*
X69459500Y-96844747D01*
X69508534Y-96963125D01*
X69508538Y-96963133D01*
X69551365Y-97027226D01*
X69579724Y-97069669D01*
X69670331Y-97160276D01*
X69733848Y-97202717D01*
X69776866Y-97231461D01*
X69776870Y-97231463D01*
X69776873Y-97231465D01*
X69895256Y-97280501D01*
X70020931Y-97305500D01*
X70020932Y-97305500D01*
X70149068Y-97305500D01*
X70149069Y-97305500D01*
X70274744Y-97280501D01*
X70393127Y-97231465D01*
X70499669Y-97160276D01*
X70590276Y-97069669D01*
X70661465Y-96963127D01*
X70710501Y-96844744D01*
X70735500Y-96719069D01*
X70735500Y-96522488D01*
X70754407Y-96464297D01*
X70803907Y-96428333D01*
X70865093Y-96428333D01*
X70914593Y-96464297D01*
X70925963Y-96484601D01*
X70931650Y-96498330D01*
X70954137Y-96552622D01*
X70954139Y-96552625D01*
X71042379Y-96667621D01*
X71157375Y-96755861D01*
X71291291Y-96811330D01*
X71435000Y-96830250D01*
X71578709Y-96811330D01*
X71712625Y-96755861D01*
X71827621Y-96667621D01*
X71915861Y-96552625D01*
X71971330Y-96418709D01*
X71990250Y-96275000D01*
X71990250Y-96274999D01*
X72579750Y-96274999D01*
X72579750Y-96275000D01*
X72598669Y-96418708D01*
X72598670Y-96418709D01*
X72654137Y-96552621D01*
X72654139Y-96552625D01*
X72742379Y-96667621D01*
X72857375Y-96755861D01*
X72991291Y-96811330D01*
X73135000Y-96830250D01*
X73278709Y-96811330D01*
X73412625Y-96755861D01*
X73499732Y-96689020D01*
X73557408Y-96668596D01*
X73616074Y-96685973D01*
X73620268Y-96689021D01*
X73707369Y-96755857D01*
X73707371Y-96755858D01*
X73707375Y-96755861D01*
X73841291Y-96811330D01*
X73985000Y-96830250D01*
X74128709Y-96811330D01*
X74262625Y-96755861D01*
X74349732Y-96689020D01*
X74407408Y-96668596D01*
X74466074Y-96685973D01*
X74470268Y-96689021D01*
X74557369Y-96755857D01*
X74557371Y-96755858D01*
X74557375Y-96755861D01*
X74691291Y-96811330D01*
X74835000Y-96830250D01*
X74978709Y-96811330D01*
X75112625Y-96755861D01*
X75199732Y-96689020D01*
X75257408Y-96668596D01*
X75316074Y-96685973D01*
X75320268Y-96689021D01*
X75407369Y-96755857D01*
X75407371Y-96755858D01*
X75407375Y-96755861D01*
X75541291Y-96811330D01*
X75685000Y-96830250D01*
X75828709Y-96811330D01*
X75962625Y-96755861D01*
X76077621Y-96667621D01*
X76165861Y-96552625D01*
X76221330Y-96418709D01*
X76240250Y-96275000D01*
X76221330Y-96131291D01*
X76165861Y-95997375D01*
X76077621Y-95882379D01*
X75962625Y-95794139D01*
X75962621Y-95794137D01*
X75828709Y-95738670D01*
X75828708Y-95738669D01*
X75685000Y-95719750D01*
X75541291Y-95738669D01*
X75541290Y-95738670D01*
X75407378Y-95794137D01*
X75407374Y-95794139D01*
X75320268Y-95860979D01*
X75262592Y-95881403D01*
X75203926Y-95864026D01*
X75199732Y-95860979D01*
X75112625Y-95794139D01*
X75112621Y-95794137D01*
X74978709Y-95738670D01*
X74978708Y-95738669D01*
X74835000Y-95719750D01*
X74691291Y-95738669D01*
X74691290Y-95738670D01*
X74557378Y-95794137D01*
X74557374Y-95794139D01*
X74470268Y-95860979D01*
X74412592Y-95881403D01*
X74353926Y-95864026D01*
X74349732Y-95860979D01*
X74262625Y-95794139D01*
X74262621Y-95794137D01*
X74128709Y-95738670D01*
X74128708Y-95738669D01*
X73985000Y-95719750D01*
X73841291Y-95738669D01*
X73841290Y-95738670D01*
X73707378Y-95794137D01*
X73707374Y-95794139D01*
X73620268Y-95860979D01*
X73562592Y-95881403D01*
X73503926Y-95864026D01*
X73499732Y-95860979D01*
X73412625Y-95794139D01*
X73412621Y-95794137D01*
X73278709Y-95738670D01*
X73278708Y-95738669D01*
X73135000Y-95719750D01*
X72991291Y-95738669D01*
X72991290Y-95738670D01*
X72857378Y-95794137D01*
X72857374Y-95794139D01*
X72742381Y-95882377D01*
X72742377Y-95882381D01*
X72654139Y-95997374D01*
X72654137Y-95997378D01*
X72598670Y-96131290D01*
X72598669Y-96131291D01*
X72579750Y-96274999D01*
X71990250Y-96274999D01*
X71971330Y-96131291D01*
X71915861Y-95997375D01*
X71827621Y-95882379D01*
X71712625Y-95794139D01*
X71712621Y-95794137D01*
X71578709Y-95738670D01*
X71578708Y-95738669D01*
X71435000Y-95719750D01*
X71291291Y-95738669D01*
X71291290Y-95738670D01*
X71157378Y-95794137D01*
X71157374Y-95794139D01*
X71042381Y-95882377D01*
X71042377Y-95882381D01*
X70954139Y-95997374D01*
X70954137Y-95997378D01*
X70925964Y-96065396D01*
X70886228Y-96111922D01*
X70826733Y-96126206D01*
X70770205Y-96102792D01*
X70738235Y-96050623D01*
X70735500Y-96027511D01*
X70735500Y-95172488D01*
X70754407Y-95114297D01*
X70803907Y-95078333D01*
X70865093Y-95078333D01*
X70914593Y-95114297D01*
X70925963Y-95134601D01*
X70931650Y-95148330D01*
X70954137Y-95202622D01*
X70954139Y-95202625D01*
X71042379Y-95317621D01*
X71157375Y-95405861D01*
X71291291Y-95461330D01*
X71435000Y-95480250D01*
X71578709Y-95461330D01*
X71712625Y-95405861D01*
X71827621Y-95317621D01*
X71915861Y-95202625D01*
X71971330Y-95068709D01*
X71990250Y-94925000D01*
X71990250Y-94924999D01*
X72579750Y-94924999D01*
X72579750Y-94925000D01*
X72598669Y-95068708D01*
X72598670Y-95068709D01*
X72654137Y-95202621D01*
X72654139Y-95202625D01*
X72742379Y-95317621D01*
X72857375Y-95405861D01*
X72991291Y-95461330D01*
X73135000Y-95480250D01*
X73278709Y-95461330D01*
X73412625Y-95405861D01*
X73499732Y-95339020D01*
X73557408Y-95318596D01*
X73616074Y-95335973D01*
X73620268Y-95339021D01*
X73707369Y-95405857D01*
X73707371Y-95405858D01*
X73707375Y-95405861D01*
X73841291Y-95461330D01*
X73985000Y-95480250D01*
X74128709Y-95461330D01*
X74262625Y-95405861D01*
X74349732Y-95339020D01*
X74407408Y-95318596D01*
X74466074Y-95335973D01*
X74470268Y-95339021D01*
X74557369Y-95405857D01*
X74557371Y-95405858D01*
X74557375Y-95405861D01*
X74691291Y-95461330D01*
X74835000Y-95480250D01*
X74978709Y-95461330D01*
X75112625Y-95405861D01*
X75199732Y-95339020D01*
X75257408Y-95318596D01*
X75316074Y-95335973D01*
X75320268Y-95339021D01*
X75407369Y-95405857D01*
X75407371Y-95405858D01*
X75407375Y-95405861D01*
X75541291Y-95461330D01*
X75685000Y-95480250D01*
X75828709Y-95461330D01*
X75962625Y-95405861D01*
X76077621Y-95317621D01*
X76165861Y-95202625D01*
X76221330Y-95068709D01*
X76240250Y-94925000D01*
X76238206Y-94909478D01*
X76221330Y-94781291D01*
X76165861Y-94647375D01*
X76077621Y-94532379D01*
X75962625Y-94444139D01*
X75962621Y-94444137D01*
X75828709Y-94388670D01*
X75828708Y-94388669D01*
X75685000Y-94369750D01*
X75541291Y-94388669D01*
X75541290Y-94388670D01*
X75407378Y-94444137D01*
X75407374Y-94444139D01*
X75320268Y-94510979D01*
X75262592Y-94531403D01*
X75203926Y-94514026D01*
X75199732Y-94510979D01*
X75191288Y-94504500D01*
X75112625Y-94444139D01*
X75112621Y-94444137D01*
X74978709Y-94388670D01*
X74978708Y-94388669D01*
X74835000Y-94369750D01*
X74691291Y-94388669D01*
X74691290Y-94388670D01*
X74557378Y-94444137D01*
X74557374Y-94444139D01*
X74470268Y-94510979D01*
X74412592Y-94531403D01*
X74353926Y-94514026D01*
X74349732Y-94510979D01*
X74341288Y-94504500D01*
X74262625Y-94444139D01*
X74262621Y-94444137D01*
X74128709Y-94388670D01*
X74128708Y-94388669D01*
X73985000Y-94369750D01*
X73841291Y-94388669D01*
X73841290Y-94388670D01*
X73707378Y-94444137D01*
X73707374Y-94444139D01*
X73620268Y-94510979D01*
X73562592Y-94531403D01*
X73503926Y-94514026D01*
X73499732Y-94510979D01*
X73491288Y-94504500D01*
X73412625Y-94444139D01*
X73412621Y-94444137D01*
X73278709Y-94388670D01*
X73278708Y-94388669D01*
X73135000Y-94369750D01*
X72991291Y-94388669D01*
X72991290Y-94388670D01*
X72857378Y-94444137D01*
X72857374Y-94444139D01*
X72742381Y-94532377D01*
X72742377Y-94532381D01*
X72654139Y-94647374D01*
X72654137Y-94647378D01*
X72598670Y-94781290D01*
X72598669Y-94781291D01*
X72579750Y-94924999D01*
X71990250Y-94924999D01*
X71988206Y-94909478D01*
X71971330Y-94781291D01*
X71915861Y-94647375D01*
X71827621Y-94532379D01*
X71712625Y-94444139D01*
X71712621Y-94444137D01*
X71578709Y-94388670D01*
X71578708Y-94388669D01*
X71435000Y-94369750D01*
X71291291Y-94388669D01*
X71291290Y-94388670D01*
X71157378Y-94444137D01*
X71157374Y-94444139D01*
X71042381Y-94532377D01*
X71042377Y-94532381D01*
X70954139Y-94647374D01*
X70954137Y-94647378D01*
X70898670Y-94781290D01*
X70898670Y-94781291D01*
X70883134Y-94899291D01*
X70856792Y-94954516D01*
X70803021Y-94983710D01*
X70742360Y-94975724D01*
X70697978Y-94933606D01*
X70693517Y-94924253D01*
X70661467Y-94846877D01*
X70661461Y-94846866D01*
X70624954Y-94792230D01*
X70590276Y-94740331D01*
X70499669Y-94649724D01*
X70457110Y-94621287D01*
X70393130Y-94578536D01*
X70392471Y-94578184D01*
X70392233Y-94577937D01*
X70389083Y-94575832D01*
X70389544Y-94575140D01*
X70350061Y-94534081D01*
X70341675Y-94473473D01*
X70369128Y-94420871D01*
X70710000Y-94080000D01*
X70710000Y-91311008D01*
X70728907Y-91252817D01*
X70738996Y-91241004D01*
X72051004Y-89928996D01*
X72105521Y-89901219D01*
X72121008Y-89900000D01*
X75188992Y-89900000D01*
X75247183Y-89918907D01*
G37*
%TD.AperFunction*%
%TD*%
%TA.AperFunction,Conductor*%
%TO.N,Net-(Q1-D)*%
G36*
X104977183Y-82528907D02*
G01*
X104988996Y-82538996D01*
X105241004Y-82791004D01*
X105268781Y-82845521D01*
X105270000Y-82861008D01*
X105270000Y-83990000D01*
X105551005Y-84271005D01*
X105578781Y-84325520D01*
X105580000Y-84341007D01*
X105580000Y-86308992D01*
X105561093Y-86367183D01*
X105551004Y-86378996D01*
X105398996Y-86531004D01*
X105344479Y-86558781D01*
X105328992Y-86560000D01*
X104251008Y-86560000D01*
X104192817Y-86541093D01*
X104181004Y-86531004D01*
X102418996Y-84768996D01*
X102391219Y-84714479D01*
X102390000Y-84698992D01*
X102390000Y-84120000D01*
X102389999Y-84119999D01*
X102018996Y-83748995D01*
X101991219Y-83694479D01*
X101990000Y-83678992D01*
X101990000Y-83347401D01*
X102008907Y-83289210D01*
X102018996Y-83277397D01*
X102757397Y-82538996D01*
X102811914Y-82511219D01*
X102827401Y-82510000D01*
X104918992Y-82510000D01*
X104977183Y-82528907D01*
G37*
%TD.AperFunction*%
%TD*%
%TA.AperFunction,Conductor*%
%TO.N,PWR_USB*%
G36*
X88067183Y-82588907D02*
G01*
X88078996Y-82598996D01*
X88901004Y-83421004D01*
X88928781Y-83475521D01*
X88930000Y-83491008D01*
X88930000Y-84358992D01*
X88911093Y-84417183D01*
X88901004Y-84428996D01*
X88338996Y-84991004D01*
X88284479Y-85018781D01*
X88268992Y-85020000D01*
X85349999Y-85020000D01*
X84201925Y-86168072D01*
X84147409Y-86195849D01*
X84086977Y-86186278D01*
X84060398Y-86165803D01*
X84060131Y-86166071D01*
X83815896Y-85921837D01*
X83815893Y-85921834D01*
X83548018Y-85708211D01*
X83257910Y-85525924D01*
X83257902Y-85525920D01*
X83257895Y-85525916D01*
X82949215Y-85377264D01*
X82949213Y-85377263D01*
X82625820Y-85264103D01*
X82291781Y-85187860D01*
X81951313Y-85149500D01*
X81951312Y-85149500D01*
X81608688Y-85149500D01*
X81608686Y-85149500D01*
X81268218Y-85187860D01*
X80934179Y-85264103D01*
X80610786Y-85377263D01*
X80610784Y-85377264D01*
X80302104Y-85525916D01*
X80302092Y-85525923D01*
X80011981Y-85708211D01*
X79744108Y-85921833D01*
X79501833Y-86164108D01*
X79288211Y-86431981D01*
X79105923Y-86722092D01*
X79105916Y-86722104D01*
X78957264Y-87030784D01*
X78957263Y-87030786D01*
X78844103Y-87354179D01*
X78767860Y-87688218D01*
X78729500Y-88028686D01*
X78729500Y-88371313D01*
X78767860Y-88711781D01*
X78844103Y-89045820D01*
X78957263Y-89369213D01*
X78957264Y-89369215D01*
X79105916Y-89677895D01*
X79105920Y-89677902D01*
X79105924Y-89677910D01*
X79288211Y-89968018D01*
X79501834Y-90235893D01*
X79744107Y-90478166D01*
X80011982Y-90691789D01*
X80302090Y-90874076D01*
X80302101Y-90874081D01*
X80302104Y-90874083D01*
X80390028Y-90916425D01*
X80610785Y-91022736D01*
X80761753Y-91075561D01*
X80934179Y-91135896D01*
X80934182Y-91135896D01*
X80934183Y-91135897D01*
X81268217Y-91212139D01*
X81608688Y-91250500D01*
X81608689Y-91250500D01*
X81951311Y-91250500D01*
X81951312Y-91250500D01*
X82291783Y-91212139D01*
X82625817Y-91135897D01*
X82949215Y-91022736D01*
X83257910Y-90874076D01*
X83548018Y-90691789D01*
X83789276Y-90499392D01*
X83846558Y-90477894D01*
X83905539Y-90494171D01*
X83943687Y-90542008D01*
X83950000Y-90576794D01*
X83950000Y-95678992D01*
X83931093Y-95737183D01*
X83921004Y-95748996D01*
X83268996Y-96401004D01*
X83214479Y-96428781D01*
X83198992Y-96430000D01*
X80871008Y-96430000D01*
X80812817Y-96411093D01*
X80801004Y-96401004D01*
X79371061Y-94971061D01*
X79349601Y-94938942D01*
X79344288Y-94926116D01*
X79311465Y-94846873D01*
X79240276Y-94740331D01*
X79149669Y-94649724D01*
X79107226Y-94621365D01*
X79043133Y-94578538D01*
X79043125Y-94578534D01*
X78951055Y-94540397D01*
X78918937Y-94518937D01*
X78388996Y-93988996D01*
X78361219Y-93934479D01*
X78360000Y-93918992D01*
X78360000Y-92390001D01*
X78360000Y-92390000D01*
X75410000Y-89440000D01*
X75409999Y-89440000D01*
X72100001Y-89440000D01*
X72100000Y-89440000D01*
X70350000Y-91190000D01*
X70350000Y-91190001D01*
X70350000Y-93818992D01*
X70331093Y-93877183D01*
X70321004Y-93888996D01*
X67888996Y-96321004D01*
X67834479Y-96348781D01*
X67818992Y-96350000D01*
X65461008Y-96350000D01*
X65402817Y-96331093D01*
X65391004Y-96321004D01*
X64748996Y-95678996D01*
X64721219Y-95624479D01*
X64720000Y-95608992D01*
X64720000Y-92771007D01*
X64738907Y-92712816D01*
X64748990Y-92701009D01*
X65750000Y-91700000D01*
X65750000Y-90370000D01*
X64870653Y-89444997D01*
X64870650Y-89444996D01*
X62273946Y-89459753D01*
X62215648Y-89441177D01*
X62200930Y-89428220D01*
X60776547Y-87898510D01*
X60750729Y-87843038D01*
X60750000Y-87831045D01*
X60750000Y-83671008D01*
X60768907Y-83612817D01*
X60778996Y-83601004D01*
X61781004Y-82598996D01*
X61835521Y-82571219D01*
X61851008Y-82570000D01*
X88008992Y-82570000D01*
X88067183Y-82588907D01*
G37*
%TD.AperFunction*%
%TD*%
%TA.AperFunction,Conductor*%
%TO.N,/PSU/SW1*%
G36*
X105945677Y-89249685D02*
G01*
X105966319Y-89266319D01*
X106173681Y-89473681D01*
X106207166Y-89535004D01*
X106210000Y-89561362D01*
X106210000Y-91178638D01*
X106190315Y-91245677D01*
X106173681Y-91266319D01*
X105801819Y-91638181D01*
X105740496Y-91671666D01*
X105714138Y-91674500D01*
X105316507Y-91674500D01*
X105216878Y-91690279D01*
X105096778Y-91751473D01*
X105096774Y-91751476D01*
X105001476Y-91846774D01*
X105001473Y-91846779D01*
X105001472Y-91846780D01*
X104975909Y-91896951D01*
X104935851Y-91975569D01*
X104933914Y-91974582D01*
X104901836Y-92021494D01*
X104837477Y-92048692D01*
X104823343Y-92049500D01*
X104561057Y-92049500D01*
X104494018Y-92029815D01*
X104460793Y-91993093D01*
X104458786Y-91994552D01*
X104453050Y-91986657D01*
X104363347Y-91896954D01*
X104363344Y-91896952D01*
X104363342Y-91896950D01*
X104286517Y-91857805D01*
X104250301Y-91839352D01*
X104156524Y-91824500D01*
X103693482Y-91824500D01*
X103612519Y-91837323D01*
X103599696Y-91839354D01*
X103486658Y-91896950D01*
X103486657Y-91896951D01*
X103486652Y-91896954D01*
X103396954Y-91986652D01*
X103396951Y-91986657D01*
X103396950Y-91986658D01*
X103392928Y-91994552D01*
X103339352Y-92099698D01*
X103324500Y-92193475D01*
X103324500Y-92806517D01*
X103335292Y-92874657D01*
X103339354Y-92900304D01*
X103396950Y-93013342D01*
X103396952Y-93013344D01*
X103396954Y-93013347D01*
X103441926Y-93058319D01*
X103475411Y-93119642D01*
X103470427Y-93189334D01*
X103428555Y-93245267D01*
X103363091Y-93269684D01*
X103354245Y-93270000D01*
X99641362Y-93270000D01*
X99574323Y-93250315D01*
X99553681Y-93233681D01*
X99466319Y-93146319D01*
X99432834Y-93084996D01*
X99430000Y-93058638D01*
X99430000Y-92561362D01*
X99449685Y-92494323D01*
X99466319Y-92473681D01*
X100108181Y-91831819D01*
X100169504Y-91798334D01*
X100195862Y-91795500D01*
X101108639Y-91795500D01*
X101111180Y-91795363D01*
X101130607Y-91794322D01*
X101130614Y-91794321D01*
X101130618Y-91794321D01*
X101156965Y-91791488D01*
X101233482Y-91767529D01*
X101294805Y-91734044D01*
X101341629Y-91698991D01*
X101978991Y-91061629D01*
X101993693Y-91045262D01*
X102010327Y-91024620D01*
X102047490Y-90953575D01*
X102067175Y-90886536D01*
X102075500Y-90828638D01*
X102075500Y-89735862D01*
X102095185Y-89668823D01*
X102111819Y-89648181D01*
X102493681Y-89266319D01*
X102555004Y-89232834D01*
X102581362Y-89230000D01*
X105878638Y-89230000D01*
X105945677Y-89249685D01*
G37*
%TD.AperFunction*%
%TD*%
%TA.AperFunction,Conductor*%
%TO.N,/PSU/SW2*%
G36*
X90877183Y-69918907D02*
G01*
X90888996Y-69928996D01*
X91391004Y-70431004D01*
X91418781Y-70485521D01*
X91420000Y-70501008D01*
X91420000Y-72550000D01*
X91570000Y-72700000D01*
X92638992Y-72700000D01*
X92697183Y-72718907D01*
X92708996Y-72728996D01*
X93161004Y-73181004D01*
X93188781Y-73235521D01*
X93190000Y-73251008D01*
X93190000Y-76188992D01*
X93171093Y-76247183D01*
X93161004Y-76258996D01*
X93058996Y-76361004D01*
X93004479Y-76388781D01*
X92988992Y-76390000D01*
X92351008Y-76390000D01*
X92292817Y-76371093D01*
X92281004Y-76361004D01*
X92058996Y-76138996D01*
X92031219Y-76084479D01*
X92030000Y-76068992D01*
X92030000Y-74720001D01*
X92030000Y-74720000D01*
X91480000Y-74170000D01*
X91479999Y-74170000D01*
X89761008Y-74170000D01*
X89702817Y-74151093D01*
X89691004Y-74141004D01*
X89378996Y-73828996D01*
X89351219Y-73774479D01*
X89350000Y-73758992D01*
X89350000Y-70301008D01*
X89368907Y-70242817D01*
X89378996Y-70231004D01*
X89681004Y-69928996D01*
X89735521Y-69901219D01*
X89751008Y-69900000D01*
X90818992Y-69900000D01*
X90877183Y-69918907D01*
G37*
%TD.AperFunction*%
%TD*%
%TA.AperFunction,Conductor*%
%TO.N,+5V*%
G36*
X101615677Y-83719685D02*
G01*
X101636319Y-83736319D01*
X102073681Y-84173681D01*
X102107166Y-84235004D01*
X102110000Y-84261362D01*
X102110000Y-84850000D01*
X104060000Y-86800000D01*
X104310000Y-86800000D01*
X104331761Y-86790985D01*
X104365004Y-86772834D01*
X104391362Y-86770000D01*
X105788638Y-86770000D01*
X105855677Y-86789685D01*
X105876319Y-86806319D01*
X106323681Y-87253681D01*
X106357166Y-87315004D01*
X106360000Y-87341362D01*
X106360000Y-88588638D01*
X106340315Y-88655677D01*
X106323681Y-88676319D01*
X106146319Y-88853681D01*
X106084996Y-88887166D01*
X106058638Y-88890000D01*
X102349999Y-88890000D01*
X101870000Y-89369999D01*
X101870000Y-90828638D01*
X101850315Y-90895677D01*
X101833681Y-90916319D01*
X101196319Y-91553681D01*
X101134996Y-91587166D01*
X101108638Y-91590000D01*
X99724000Y-91590000D01*
X99656961Y-91570315D01*
X99611206Y-91517511D01*
X99600000Y-91466000D01*
X99600000Y-84631362D01*
X99619685Y-84564323D01*
X99636319Y-84543681D01*
X99660000Y-84520000D01*
X99660000Y-84141362D01*
X99679685Y-84074323D01*
X99696319Y-84053681D01*
X100013681Y-83736319D01*
X100075004Y-83702834D01*
X100101362Y-83700000D01*
X101548638Y-83700000D01*
X101615677Y-83719685D01*
G37*
%TD.AperFunction*%
%TD*%
%TA.AperFunction,Conductor*%
%TO.N,+3V3*%
G36*
X89215677Y-67719685D02*
G01*
X89236319Y-67736319D01*
X89363681Y-67863681D01*
X89397166Y-67925004D01*
X89400000Y-67951362D01*
X89400000Y-69448638D01*
X89380315Y-69515677D01*
X89363681Y-69536319D01*
X88600000Y-70299999D01*
X88600000Y-70300000D01*
X88600000Y-73700000D01*
X89400000Y-74500000D01*
X91248638Y-74500000D01*
X91315677Y-74519685D01*
X91336319Y-74536319D01*
X91563681Y-74763681D01*
X91597166Y-74825004D01*
X91600000Y-74851362D01*
X91600000Y-75748638D01*
X91580315Y-75815677D01*
X91563681Y-75836319D01*
X91436319Y-75963681D01*
X91374996Y-75997166D01*
X91348638Y-76000000D01*
X87851362Y-76000000D01*
X87784323Y-75980315D01*
X87763681Y-75963681D01*
X86836319Y-75036319D01*
X86802834Y-74974996D01*
X86800000Y-74948638D01*
X86800000Y-68951362D01*
X86819685Y-68884323D01*
X86836319Y-68863681D01*
X87963681Y-67736319D01*
X88025004Y-67702834D01*
X88051362Y-67700000D01*
X89148638Y-67700000D01*
X89215677Y-67719685D01*
G37*
%TD.AperFunction*%
%TD*%
M02*
