%TF.GenerationSoftware,KiCad,Pcbnew,8.0.3*%
%TF.CreationDate,2024-11-01T12:04:32+00:00*%
%TF.ProjectId,CM4RadarBoard,434d3452-6164-4617-9242-6f6172642e6b,rev?*%
%TF.SameCoordinates,Original*%
%TF.FileFunction,Copper,L4,Inr*%
%TF.FilePolarity,Positive*%
%FSLAX46Y46*%
G04 Gerber Fmt 4.6, Leading zero omitted, Abs format (unit mm)*
G04 Created by KiCad (PCBNEW 8.0.3) date 2024-11-01 12:04:32*
%MOMM*%
%LPD*%
G01*
G04 APERTURE LIST*
%TA.AperFunction,ComponentPad*%
%ADD10C,7.400000*%
%TD*%
%TA.AperFunction,ComponentPad*%
%ADD11C,0.700000*%
%TD*%
%TA.AperFunction,ComponentPad*%
%ADD12O,0.900000X2.400000*%
%TD*%
%TA.AperFunction,ComponentPad*%
%ADD13O,0.900000X1.700000*%
%TD*%
%TA.AperFunction,ComponentPad*%
%ADD14R,1.700000X1.700000*%
%TD*%
%TA.AperFunction,ComponentPad*%
%ADD15O,1.700000X1.700000*%
%TD*%
%TA.AperFunction,ComponentPad*%
%ADD16C,0.900000*%
%TD*%
%TA.AperFunction,ComponentPad*%
%ADD17C,8.000000*%
%TD*%
%TA.AperFunction,ComponentPad*%
%ADD18R,1.000000X1.000000*%
%TD*%
%TA.AperFunction,ComponentPad*%
%ADD19O,1.000000X1.000000*%
%TD*%
G04 APERTURE END LIST*
D10*
%TO.N,GND*%
%TO.C,J9*%
X70000000Y-68500000D03*
%TD*%
%TO.N,GND*%
%TO.C,J8*%
X58000000Y-68500000D03*
%TD*%
%TO.N,GND*%
%TO.C,J7*%
X40000000Y-68500000D03*
%TD*%
D11*
%TO.N,GND*%
%TO.C,J13*%
X71435000Y-94925000D03*
%TO.N,/USB/USBDevAttach*%
X72285000Y-94925000D03*
%TO.N,Net-(J13-CC1)*%
X73135000Y-94925000D03*
%TO.N,/USB/USBDev_P*%
X73985000Y-94925000D03*
%TO.N,/USB/USBDev_N*%
X74835000Y-94925000D03*
%TO.N,unconnected-(J13-SBU1-PadA8)*%
X75685000Y-94925000D03*
%TO.N,/USB/USBDevAttach*%
X76535000Y-94925000D03*
%TO.N,GND*%
X77385000Y-94925000D03*
X77385000Y-96275000D03*
%TO.N,/USB/USBDevAttach*%
X76535000Y-96275000D03*
%TO.N,Net-(J13-CC2)*%
X75685000Y-96275000D03*
%TO.N,/USB/USBDev_P*%
X74835000Y-96275000D03*
%TO.N,/USB/USBDev_N*%
X73985000Y-96275000D03*
%TO.N,unconnected-(J13-SBU2-PadB8)*%
X73135000Y-96275000D03*
%TO.N,/USB/USBDevAttach*%
X72285000Y-96275000D03*
%TO.N,GND*%
X71435000Y-96275000D03*
D12*
%TO.N,unconnected-(J13-SHIELD-PadS1)*%
X70085000Y-95905000D03*
D13*
X70085000Y-99285000D03*
D12*
X78735000Y-95905000D03*
D13*
X78735000Y-99285000D03*
%TD*%
D14*
%TO.N,unconnected-(J6-Pin_1-Pad1)*%
%TO.C,J6*%
X38860000Y-79340000D03*
D15*
%TO.N,unconnected-(J6-Pin_2-Pad2)*%
X41400000Y-79340000D03*
%TO.N,unconnected-(J6-Pin_3-Pad3)*%
X38860000Y-81880000D03*
%TO.N,unconnected-(J6-Pin_4-Pad4)*%
X41400000Y-81880000D03*
%TO.N,unconnected-(J6-Pin_5-Pad5)*%
X38860000Y-84420000D03*
%TO.N,unconnected-(J6-Pin_6-Pad6)*%
X41400000Y-84420000D03*
%TO.N,unconnected-(J6-Pin_7-Pad7)*%
X38860000Y-86960000D03*
%TO.N,unconnected-(J6-Pin_8-Pad8)*%
X41400000Y-86960000D03*
%TO.N,unconnected-(J6-Pin_9-Pad9)*%
X38860000Y-89500000D03*
%TO.N,unconnected-(J6-Pin_10-Pad10)*%
X41400000Y-89500000D03*
%TD*%
D16*
%TO.N,GND*%
%TO.C,H2*%
X112552300Y-40000000D03*
X113430980Y-37878680D03*
X113430980Y-42121320D03*
X115552300Y-37000000D03*
D17*
X115552300Y-40000000D03*
D16*
X115552300Y-43000000D03*
X117673620Y-37878680D03*
X117673620Y-42121320D03*
X118552300Y-40000000D03*
%TD*%
D11*
%TO.N,GND*%
%TO.C,J12*%
X54915000Y-94925000D03*
%TO.N,Net-(D6-A)*%
X55765000Y-94925000D03*
%TO.N,Net-(J12-CC1)*%
X56615000Y-94925000D03*
%TO.N,/USB/USBHOST0_P*%
X57465000Y-94925000D03*
%TO.N,/USB/USBHOST0_N*%
X58315000Y-94925000D03*
%TO.N,unconnected-(J12-SBU1-PadA8)*%
X59165000Y-94925000D03*
%TO.N,Net-(D6-A)*%
X60015000Y-94925000D03*
%TO.N,GND*%
X60865000Y-94925000D03*
X60865000Y-96275000D03*
%TO.N,Net-(D6-A)*%
X60015000Y-96275000D03*
%TO.N,Net-(J12-CC2)*%
X59165000Y-96275000D03*
%TO.N,/USB/USBHOST0_P*%
X58315000Y-96275000D03*
%TO.N,/USB/USBHOST0_N*%
X57465000Y-96275000D03*
%TO.N,unconnected-(J12-SBU2-PadB8)*%
X56615000Y-96275000D03*
%TO.N,Net-(D6-A)*%
X55765000Y-96275000D03*
%TO.N,GND*%
X54915000Y-96275000D03*
D12*
%TO.N,unconnected-(J12-SHIELD-PadS1)*%
X53565000Y-95905000D03*
D13*
X53565000Y-99285000D03*
D12*
X62215000Y-95905000D03*
D13*
X62215000Y-99285000D03*
%TD*%
D16*
%TO.N,GND*%
%TO.C,H1*%
X37000000Y-40000000D03*
X37878680Y-37878680D03*
X37878680Y-42121320D03*
X40000000Y-37000000D03*
D17*
X40000000Y-40000000D03*
D16*
X40000000Y-43000000D03*
X42121320Y-37878680D03*
X42121320Y-42121320D03*
X43000000Y-40000000D03*
%TD*%
%TO.N,GND*%
%TO.C,H3*%
X37000000Y-96896000D03*
X37878680Y-94774680D03*
X37878680Y-99017320D03*
X40000000Y-93896000D03*
D17*
X40000000Y-96896000D03*
D16*
X40000000Y-99896000D03*
X42121320Y-94774680D03*
X42121320Y-99017320D03*
X43000000Y-96896000D03*
%TD*%
%TO.N,GND*%
%TO.C,H4*%
X112552300Y-96896000D03*
X113430980Y-94774680D03*
X113430980Y-99017320D03*
X115552300Y-93896000D03*
D17*
X115552300Y-96896000D03*
D16*
X115552300Y-99896000D03*
X117673620Y-94774680D03*
X117673620Y-99017320D03*
X118552300Y-96896000D03*
%TD*%
D18*
%TO.N,+5V*%
%TO.C,J14*%
X47800000Y-99000000D03*
D19*
%TO.N,/USB/USBHOST2_N*%
X47800000Y-97730000D03*
%TO.N,/USB/USBHOST2_P*%
X47800000Y-96460000D03*
%TO.N,GND*%
X47800000Y-95190000D03*
%TD*%
M02*
