%TF.GenerationSoftware,KiCad,Pcbnew,8.0.3*%
%TF.CreationDate,2024-11-01T12:04:32+00:00*%
%TF.ProjectId,CM4RadarBoard,434d3452-6164-4617-9242-6f6172642e6b,rev?*%
%TF.SameCoordinates,Original*%
%TF.FileFunction,Copper,L6,Bot*%
%TF.FilePolarity,Positive*%
%FSLAX46Y46*%
G04 Gerber Fmt 4.6, Leading zero omitted, Abs format (unit mm)*
G04 Created by KiCad (PCBNEW 8.0.3) date 2024-11-01 12:04:32*
%MOMM*%
%LPD*%
G01*
G04 APERTURE LIST*
G04 Aperture macros list*
%AMRoundRect*
0 Rectangle with rounded corners*
0 $1 Rounding radius*
0 $2 $3 $4 $5 $6 $7 $8 $9 X,Y pos of 4 corners*
0 Add a 4 corners polygon primitive as box body*
4,1,4,$2,$3,$4,$5,$6,$7,$8,$9,$2,$3,0*
0 Add four circle primitives for the rounded corners*
1,1,$1+$1,$2,$3*
1,1,$1+$1,$4,$5*
1,1,$1+$1,$6,$7*
1,1,$1+$1,$8,$9*
0 Add four rect primitives between the rounded corners*
20,1,$1+$1,$2,$3,$4,$5,0*
20,1,$1+$1,$4,$5,$6,$7,0*
20,1,$1+$1,$6,$7,$8,$9,0*
20,1,$1+$1,$8,$9,$2,$3,0*%
G04 Aperture macros list end*
%TA.AperFunction,SMDPad,CuDef*%
%ADD10R,0.550000X0.500000*%
%TD*%
%TA.AperFunction,SMDPad,CuDef*%
%ADD11R,0.800000X1.500000*%
%TD*%
%TA.AperFunction,SMDPad,CuDef*%
%ADD12R,1.000000X2.400000*%
%TD*%
%TA.AperFunction,SMDPad,CuDef*%
%ADD13R,1.000000X3.400000*%
%TD*%
%TA.AperFunction,ComponentPad*%
%ADD14C,7.400000*%
%TD*%
%TA.AperFunction,SMDPad,CuDef*%
%ADD15R,1.550000X0.300000*%
%TD*%
%TA.AperFunction,SMDPad,CuDef*%
%ADD16R,2.750000X1.200000*%
%TD*%
%TA.AperFunction,ComponentPad*%
%ADD17C,0.700000*%
%TD*%
%TA.AperFunction,ComponentPad*%
%ADD18O,0.900000X2.400000*%
%TD*%
%TA.AperFunction,ComponentPad*%
%ADD19O,0.900000X1.700000*%
%TD*%
%TA.AperFunction,ComponentPad*%
%ADD20R,1.700000X1.700000*%
%TD*%
%TA.AperFunction,ComponentPad*%
%ADD21O,1.700000X1.700000*%
%TD*%
%TA.AperFunction,ComponentPad*%
%ADD22C,0.900000*%
%TD*%
%TA.AperFunction,ComponentPad*%
%ADD23C,8.000000*%
%TD*%
%TA.AperFunction,SMDPad,CuDef*%
%ADD24RoundRect,0.135000X-0.185000X0.135000X-0.185000X-0.135000X0.185000X-0.135000X0.185000X0.135000X0*%
%TD*%
%TA.AperFunction,SMDPad,CuDef*%
%ADD25RoundRect,0.250000X0.512652X0.159099X0.159099X0.512652X-0.512652X-0.159099X-0.159099X-0.512652X0*%
%TD*%
%TA.AperFunction,SMDPad,CuDef*%
%ADD26RoundRect,0.135000X-0.135000X-0.185000X0.135000X-0.185000X0.135000X0.185000X-0.135000X0.185000X0*%
%TD*%
%TA.AperFunction,SMDPad,CuDef*%
%ADD27RoundRect,0.225000X0.225000X0.250000X-0.225000X0.250000X-0.225000X-0.250000X0.225000X-0.250000X0*%
%TD*%
%TA.AperFunction,SMDPad,CuDef*%
%ADD28RoundRect,0.150000X0.150000X0.200000X-0.150000X0.200000X-0.150000X-0.200000X0.150000X-0.200000X0*%
%TD*%
%TA.AperFunction,SMDPad,CuDef*%
%ADD29RoundRect,0.250000X0.450000X-0.262500X0.450000X0.262500X-0.450000X0.262500X-0.450000X-0.262500X0*%
%TD*%
%TA.AperFunction,SMDPad,CuDef*%
%ADD30RoundRect,0.200000X-0.200000X-0.275000X0.200000X-0.275000X0.200000X0.275000X-0.200000X0.275000X0*%
%TD*%
%TA.AperFunction,SMDPad,CuDef*%
%ADD31RoundRect,0.225000X-0.250000X0.225000X-0.250000X-0.225000X0.250000X-0.225000X0.250000X0.225000X0*%
%TD*%
%TA.AperFunction,SMDPad,CuDef*%
%ADD32RoundRect,0.025500X0.229500X0.354500X-0.229500X0.354500X-0.229500X-0.354500X0.229500X-0.354500X0*%
%TD*%
%TA.AperFunction,SMDPad,CuDef*%
%ADD33R,0.300000X1.300000*%
%TD*%
%TA.AperFunction,SMDPad,CuDef*%
%ADD34R,1.800000X2.200000*%
%TD*%
%TA.AperFunction,SMDPad,CuDef*%
%ADD35RoundRect,0.225000X0.250000X-0.225000X0.250000X0.225000X-0.250000X0.225000X-0.250000X-0.225000X0*%
%TD*%
%TA.AperFunction,SMDPad,CuDef*%
%ADD36RoundRect,0.150000X-0.200000X0.150000X-0.200000X-0.150000X0.200000X-0.150000X0.200000X0.150000X0*%
%TD*%
%TA.AperFunction,SMDPad,CuDef*%
%ADD37RoundRect,0.250000X0.250000X0.475000X-0.250000X0.475000X-0.250000X-0.475000X0.250000X-0.475000X0*%
%TD*%
%TA.AperFunction,SMDPad,CuDef*%
%ADD38RoundRect,0.225000X-0.225000X-0.250000X0.225000X-0.250000X0.225000X0.250000X-0.225000X0.250000X0*%
%TD*%
%TA.AperFunction,SMDPad,CuDef*%
%ADD39RoundRect,0.135000X0.185000X-0.135000X0.185000X0.135000X-0.185000X0.135000X-0.185000X-0.135000X0*%
%TD*%
%TA.AperFunction,SMDPad,CuDef*%
%ADD40RoundRect,0.150000X-0.150000X-0.200000X0.150000X-0.200000X0.150000X0.200000X-0.150000X0.200000X0*%
%TD*%
%TA.AperFunction,SMDPad,CuDef*%
%ADD41RoundRect,0.200000X0.200000X0.275000X-0.200000X0.275000X-0.200000X-0.275000X0.200000X-0.275000X0*%
%TD*%
%TA.AperFunction,SMDPad,CuDef*%
%ADD42RoundRect,0.087500X-0.087500X0.725000X-0.087500X-0.725000X0.087500X-0.725000X0.087500X0.725000X0*%
%TD*%
%TA.AperFunction,SMDPad,CuDef*%
%ADD43RoundRect,0.135000X0.135000X0.185000X-0.135000X0.185000X-0.135000X-0.185000X0.135000X-0.185000X0*%
%TD*%
%TA.AperFunction,SMDPad,CuDef*%
%ADD44RoundRect,0.200000X0.275000X-0.200000X0.275000X0.200000X-0.275000X0.200000X-0.275000X-0.200000X0*%
%TD*%
%TA.AperFunction,SMDPad,CuDef*%
%ADD45RoundRect,0.249999X-0.387501X-0.700001X0.387501X-0.700001X0.387501X0.700001X-0.387501X0.700001X0*%
%TD*%
%TA.AperFunction,SMDPad,CuDef*%
%ADD46RoundRect,0.250000X-0.475000X0.250000X-0.475000X-0.250000X0.475000X-0.250000X0.475000X0.250000X0*%
%TD*%
%TA.AperFunction,SMDPad,CuDef*%
%ADD47R,1.500000X0.800000*%
%TD*%
%TA.AperFunction,SMDPad,CuDef*%
%ADD48R,2.000000X1.450000*%
%TD*%
%TA.AperFunction,SMDPad,CuDef*%
%ADD49RoundRect,0.250000X0.159099X-0.512652X0.512652X-0.159099X-0.159099X0.512652X-0.512652X0.159099X0*%
%TD*%
%TA.AperFunction,SMDPad,CuDef*%
%ADD50RoundRect,0.200000X-0.275000X0.200000X-0.275000X-0.200000X0.275000X-0.200000X0.275000X0.200000X0*%
%TD*%
%TA.AperFunction,SMDPad,CuDef*%
%ADD51RoundRect,0.250000X0.475000X-0.250000X0.475000X0.250000X-0.475000X0.250000X-0.475000X-0.250000X0*%
%TD*%
%TA.AperFunction,SMDPad,CuDef*%
%ADD52RoundRect,0.062500X0.062500X-0.350000X0.062500X0.350000X-0.062500X0.350000X-0.062500X-0.350000X0*%
%TD*%
%TA.AperFunction,SMDPad,CuDef*%
%ADD53RoundRect,0.062500X0.350000X-0.062500X0.350000X0.062500X-0.350000X0.062500X-0.350000X-0.062500X0*%
%TD*%
%TA.AperFunction,HeatsinkPad*%
%ADD54R,3.700000X3.700000*%
%TD*%
%TA.AperFunction,ComponentPad*%
%ADD55R,1.000000X1.000000*%
%TD*%
%TA.AperFunction,ComponentPad*%
%ADD56O,1.000000X1.000000*%
%TD*%
%TA.AperFunction,SMDPad,CuDef*%
%ADD57RoundRect,0.125000X-0.125000X-0.125000X0.125000X-0.125000X0.125000X0.125000X-0.125000X0.125000X0*%
%TD*%
%TA.AperFunction,SMDPad,CuDef*%
%ADD58R,1.400000X1.200000*%
%TD*%
%TA.AperFunction,SMDPad,CuDef*%
%ADD59R,0.610000X2.000000*%
%TD*%
%TA.AperFunction,SMDPad,CuDef*%
%ADD60R,2.680000X3.600000*%
%TD*%
%TA.AperFunction,SMDPad,CuDef*%
%ADD61RoundRect,0.150000X0.200000X-0.150000X0.200000X0.150000X-0.200000X0.150000X-0.200000X-0.150000X0*%
%TD*%
%TA.AperFunction,SMDPad,CuDef*%
%ADD62C,2.000000*%
%TD*%
%TA.AperFunction,Conductor*%
%ADD63C,0.100000*%
%TD*%
%TA.AperFunction,Conductor*%
%ADD64C,0.250000*%
%TD*%
%TA.AperFunction,Conductor*%
%ADD65C,0.160000*%
%TD*%
%TA.AperFunction,Conductor*%
%ADD66C,0.140000*%
%TD*%
G04 APERTURE END LIST*
D10*
%TO.P,J10,C1,VCC*%
%TO.N,/SIM_PWR*%
X95565000Y-84399000D03*
%TO.P,J10,C2,RST*%
%TO.N,/SIM_RST*%
X97565000Y-84399000D03*
%TO.P,J10,C3,CLK*%
%TO.N,/SIM_CLK*%
X101755000Y-84399000D03*
%TO.P,J10,C5,GND*%
%TO.N,GND*%
X94565000Y-84399000D03*
%TO.P,J10,C6,VPP*%
%TO.N,unconnected-(J10-VPP-PadC6)*%
X96565000Y-84399000D03*
%TO.P,J10,C7,I/O*%
%TO.N,/SIM_DATA*%
X100755000Y-84399000D03*
%TO.P,J10,C8,DETECT_SWITCH*%
%TO.N,/SIM_SW*%
X99350000Y-84399000D03*
D11*
%TO.P,J10,C9,DETECT_LEVER*%
%TO.N,GND*%
X92200000Y-85220000D03*
D12*
%TO.P,J10,MP2,MP3*%
X90300000Y-85300000D03*
D13*
%TO.P,J10,MP3,MP4*%
X90300000Y-93700000D03*
%TO.P,J10,MP4,MP5*%
X90300000Y-98999000D03*
%TO.P,J10,MP5,MP6*%
X105400000Y-98999000D03*
%TO.P,J10,MP6,MP7*%
X105400000Y-93700000D03*
D12*
%TO.P,J10,MP7,MP8*%
X105400000Y-85300000D03*
%TD*%
D14*
%TO.P,J9,1,1*%
%TO.N,GND*%
X70000000Y-68500000D03*
%TD*%
%TO.P,J8,1,1*%
%TO.N,GND*%
X58000000Y-68500000D03*
%TD*%
%TO.P,J7,1,1*%
%TO.N,GND*%
X40000000Y-68500000D03*
%TD*%
D15*
%TO.P,J3,1,CONFIG_3*%
%TO.N,Net-(J3-CONFIG_3)*%
X103506000Y-77750000D03*
%TO.P,J3,2,3.3v*%
%TO.N,+3V3*%
X95956000Y-77500000D03*
%TO.P,J3,3,GND*%
%TO.N,GND*%
X103506000Y-77250000D03*
%TO.P,J3,4,3.3v*%
%TO.N,+3V3*%
X95956000Y-77000000D03*
%TO.P,J3,5,GND*%
%TO.N,GND*%
X103506000Y-76750000D03*
%TO.P,J3,6,PWRn*%
%TO.N,Net-(J3-PWRn)*%
X95956000Y-76500000D03*
%TO.P,J3,7,USB_D_p*%
%TO.N,/CM4HighSpeed/RM2USB_P*%
X103506000Y-76250000D03*
%TO.P,J3,8,W_DISABLE*%
%TO.N,Net-(J3-W_DISABLE)*%
X95956000Y-76000000D03*
%TO.P,J3,9,USB_D_n*%
%TO.N,/CM4HighSpeed/RM2USB_N*%
X103506000Y-75750000D03*
%TO.P,J3,10,GPIO_9*%
%TO.N,Net-(J3-GPIO_9)*%
X95956000Y-75500000D03*
%TO.P,J3,11,GND*%
%TO.N,GND*%
X103506000Y-75250000D03*
%TO.P,J3,20,GPIO_5*%
%TO.N,unconnected-(J3-GPIO_5-Pad20)*%
X95956000Y-73000000D03*
%TO.P,J3,21,CONFIG_0*%
%TO.N,Net-(J3-CONFIG_0)*%
X103506000Y-72750000D03*
%TO.P,J3,22,GPIO_6*%
%TO.N,unconnected-(J3-GPIO_6-Pad22)*%
X95956000Y-72500000D03*
%TO.P,J3,23,GPIO_11*%
%TO.N,Net-(J3-GPIO_11)*%
X103506000Y-72250000D03*
%TO.P,J3,24,GPIO_7*%
%TO.N,unconnected-(J3-GPIO_7-Pad24)*%
X95956000Y-72000000D03*
%TO.P,J3,25,DPR*%
%TO.N,unconnected-(J3-DPR-Pad25)*%
X103506000Y-71750000D03*
%TO.P,J3,26,GPIO_10*%
%TO.N,Net-(J3-GPIO_10)*%
X95956000Y-71500000D03*
%TO.P,J3,27,GND*%
%TO.N,GND*%
X103506000Y-71250000D03*
%TO.P,J3,28,GPIO_8*%
%TO.N,unconnected-(J3-GPIO_8-Pad28)*%
X95956000Y-71000000D03*
%TO.P,J3,29,PER1_n*%
%TO.N,unconnected-(J3-PER1_n-Pad29)*%
X103506000Y-70750000D03*
%TO.P,J3,30,UIM_RST*%
%TO.N,/SIM_PWR*%
X95956000Y-70500000D03*
%TO.P,J3,31,PER1_p*%
%TO.N,unconnected-(J3-PER1_p-Pad31)*%
X103506000Y-70250000D03*
%TO.P,J3,32,UIM_CLK*%
%TO.N,/SIM_DATA*%
X95956000Y-70000000D03*
%TO.P,J3,33,GND*%
%TO.N,GND*%
X103506000Y-69750000D03*
%TO.P,J3,34,UIM_DATA*%
%TO.N,/SIM_CLK*%
X95956000Y-69500000D03*
%TO.P,J3,35,PET1_n*%
%TO.N,unconnected-(J3-PET1_n-Pad35)*%
X103506000Y-69250000D03*
%TO.P,J3,36,UIM_PWR*%
%TO.N,/SIM_RST*%
X95956000Y-69000000D03*
%TO.P,J3,37,PET1_p*%
%TO.N,unconnected-(J3-PET1_p-Pad37)*%
X103506000Y-68750000D03*
%TO.P,J3,38,DEVSLP*%
%TO.N,unconnected-(J3-DEVSLP-Pad38)*%
X95956000Y-68500000D03*
%TO.P,J3,39,GND*%
%TO.N,GND*%
X103506000Y-68250000D03*
%TO.P,J3,40,GPIO_0*%
%TO.N,Net-(J3-GPIO_0)*%
X95956000Y-68000000D03*
%TO.P,J3,41,PER0_n*%
%TO.N,/CM4HighSpeed/RPCIE_RX_N*%
X103506000Y-67750000D03*
%TO.P,J3,42,GPIO_1*%
%TO.N,Net-(J3-GPIO_1)*%
X95956000Y-67500000D03*
%TO.P,J3,43,PER0_p*%
%TO.N,/CM4HighSpeed/RPCIE_RX_P*%
X103506000Y-67250000D03*
%TO.P,J3,44,GPIO_2*%
%TO.N,Net-(J3-GPIO_2)*%
X95956000Y-67000000D03*
%TO.P,J3,45,GND*%
%TO.N,GND*%
X103506000Y-66750000D03*
%TO.P,J3,46,GPIO_3*%
%TO.N,Net-(J3-GPIO_3)*%
X95956000Y-66500000D03*
%TO.P,J3,47,PET0_n*%
%TO.N,/CM4HighSpeed/RPCIE_TX_N*%
X103506000Y-66250000D03*
%TO.P,J3,48,GPIO_4*%
%TO.N,Net-(J3-GPIO_4)*%
X95956000Y-66000000D03*
%TO.P,J3,49,PET0_p*%
%TO.N,/CM4HighSpeed/RPCIE_TX_P*%
X103506000Y-65750000D03*
%TO.P,J3,50,PERSTn*%
%TO.N,/CM4HighSpeed/PCIE_nRST*%
X95956000Y-65500000D03*
%TO.P,J3,51,GND*%
%TO.N,GND*%
X103506000Y-65250000D03*
%TO.P,J3,52,CLKREQn*%
%TO.N,/CM4HighSpeed/PCIE_nCLKREQ*%
X95956000Y-65000000D03*
%TO.P,J3,53,REFCLK_n*%
%TO.N,/CM4HighSpeed/RPCIE_CK_N*%
X103506000Y-64750000D03*
%TO.P,J3,54,PEWAKEn*%
%TO.N,Net-(J3-PEWAKEn)*%
X95956000Y-64500000D03*
%TO.P,J3,55,REFCLK_p*%
%TO.N,/CM4HighSpeed/RPCIE_CK_P*%
X103506000Y-64250000D03*
%TO.P,J3,56,N/C*%
%TO.N,unconnected-(J3-N{slash}C-Pad56)*%
X95956000Y-64000000D03*
%TO.P,J3,57,GND*%
%TO.N,GND*%
X103506000Y-63750000D03*
%TO.P,J3,58,N/C*%
%TO.N,unconnected-(J3-N{slash}C-Pad58)*%
X95956000Y-63500000D03*
%TO.P,J3,59,ANTCTL0*%
%TO.N,unconnected-(J3-ANTCTL0-Pad59)*%
X103506000Y-63250000D03*
%TO.P,J3,60,COEX3*%
%TO.N,unconnected-(J3-COEX3-Pad60)*%
X95956000Y-63000000D03*
%TO.P,J3,61,ANTCTL1*%
%TO.N,unconnected-(J3-ANTCTL1-Pad61)*%
X103506000Y-62750000D03*
%TO.P,J3,62,COEX2*%
%TO.N,unconnected-(J3-COEX2-Pad62)*%
X95956000Y-62500000D03*
%TO.P,J3,63,ANTCTL2*%
%TO.N,unconnected-(J3-ANTCTL2-Pad63)*%
X103506000Y-62250000D03*
%TO.P,J3,64,COEX1*%
%TO.N,unconnected-(J3-COEX1-Pad64)*%
X95956000Y-62000000D03*
%TO.P,J3,65,ANTCTL3*%
%TO.N,unconnected-(J3-ANTCTL3-Pad65)*%
X103506000Y-61750000D03*
%TO.P,J3,66,SIM_DETECT*%
%TO.N,Net-(J3-SIM_DETECT)*%
X95956000Y-61500000D03*
%TO.P,J3,67,RESETn*%
%TO.N,Net-(J3-RESETn)*%
X103506000Y-61250000D03*
%TO.P,J3,68,SUSCLK*%
%TO.N,Net-(J3-SUSCLK)*%
X95956000Y-61000000D03*
%TO.P,J3,69,CONFIG_1*%
%TO.N,Net-(J3-CONFIG_1)*%
X103506000Y-60750000D03*
%TO.P,J3,70,3.3v*%
%TO.N,+3V3*%
X95956000Y-60500000D03*
%TO.P,J3,71,GND*%
%TO.N,GND*%
X103506000Y-60250000D03*
%TO.P,J3,72,3.3v*%
%TO.N,+3V3*%
X95956000Y-60000000D03*
%TO.P,J3,73,GND*%
%TO.N,GND*%
X103506000Y-59750000D03*
%TO.P,J3,74,3.3v*%
%TO.N,+3V3*%
X95956000Y-59500000D03*
%TO.P,J3,75,CONFIG_2*%
%TO.N,Net-(J3-CONFIG_2)*%
X103506000Y-59250000D03*
D16*
%TO.P,J3,MP1,MP1*%
%TO.N,GND*%
X102731000Y-78850000D03*
%TO.P,J3,MP2,MP2*%
X102731000Y-58150000D03*
%TD*%
D17*
%TO.P,J13,A1,GND*%
%TO.N,GND*%
X71435000Y-94925000D03*
%TO.P,J13,A4,VBUS*%
%TO.N,/USB/USBDevAttach*%
X72285000Y-94925000D03*
%TO.P,J13,A5,CC1*%
%TO.N,Net-(J13-CC1)*%
X73135000Y-94925000D03*
%TO.P,J13,A6,D+*%
%TO.N,/USB/USBDev_P*%
X73985000Y-94925000D03*
%TO.P,J13,A7,D-*%
%TO.N,/USB/USBDev_N*%
X74835000Y-94925000D03*
%TO.P,J13,A8,SBU1*%
%TO.N,unconnected-(J13-SBU1-PadA8)*%
X75685000Y-94925000D03*
%TO.P,J13,A9,VBUS*%
%TO.N,/USB/USBDevAttach*%
X76535000Y-94925000D03*
%TO.P,J13,A12,GND*%
%TO.N,GND*%
X77385000Y-94925000D03*
%TO.P,J13,B1,GND*%
X77385000Y-96275000D03*
%TO.P,J13,B4,VBUS*%
%TO.N,/USB/USBDevAttach*%
X76535000Y-96275000D03*
%TO.P,J13,B5,CC2*%
%TO.N,Net-(J13-CC2)*%
X75685000Y-96275000D03*
%TO.P,J13,B6,D+*%
%TO.N,/USB/USBDev_P*%
X74835000Y-96275000D03*
%TO.P,J13,B7,D-*%
%TO.N,/USB/USBDev_N*%
X73985000Y-96275000D03*
%TO.P,J13,B8,SBU2*%
%TO.N,unconnected-(J13-SBU2-PadB8)*%
X73135000Y-96275000D03*
%TO.P,J13,B9,VBUS*%
%TO.N,/USB/USBDevAttach*%
X72285000Y-96275000D03*
%TO.P,J13,B12,GND*%
%TO.N,GND*%
X71435000Y-96275000D03*
D18*
%TO.P,J13,S1,SHIELD*%
%TO.N,unconnected-(J13-SHIELD-PadS1)*%
X70085000Y-95905000D03*
D19*
X70085000Y-99285000D03*
D18*
X78735000Y-95905000D03*
D19*
X78735000Y-99285000D03*
%TD*%
D20*
%TO.P,J6,1,Pin_1*%
%TO.N,unconnected-(J6-Pin_1-Pad1)*%
X38860000Y-79340000D03*
D21*
%TO.P,J6,2,Pin_2*%
%TO.N,unconnected-(J6-Pin_2-Pad2)*%
X41400000Y-79340000D03*
%TO.P,J6,3,Pin_3*%
%TO.N,unconnected-(J6-Pin_3-Pad3)*%
X38860000Y-81880000D03*
%TO.P,J6,4,Pin_4*%
%TO.N,unconnected-(J6-Pin_4-Pad4)*%
X41400000Y-81880000D03*
%TO.P,J6,5,Pin_5*%
%TO.N,unconnected-(J6-Pin_5-Pad5)*%
X38860000Y-84420000D03*
%TO.P,J6,6,Pin_6*%
%TO.N,unconnected-(J6-Pin_6-Pad6)*%
X41400000Y-84420000D03*
%TO.P,J6,7,Pin_7*%
%TO.N,unconnected-(J6-Pin_7-Pad7)*%
X38860000Y-86960000D03*
%TO.P,J6,8,Pin_8*%
%TO.N,unconnected-(J6-Pin_8-Pad8)*%
X41400000Y-86960000D03*
%TO.P,J6,9,Pin_9*%
%TO.N,unconnected-(J6-Pin_9-Pad9)*%
X38860000Y-89500000D03*
%TO.P,J6,10,Pin_10*%
%TO.N,unconnected-(J6-Pin_10-Pad10)*%
X41400000Y-89500000D03*
%TD*%
D22*
%TO.P,H2,1,1*%
%TO.N,GND*%
X112552300Y-40000000D03*
X113430980Y-37878680D03*
X113430980Y-42121320D03*
X115552300Y-37000000D03*
D23*
X115552300Y-40000000D03*
D22*
X115552300Y-43000000D03*
X117673620Y-37878680D03*
X117673620Y-42121320D03*
X118552300Y-40000000D03*
%TD*%
D17*
%TO.P,J12,A1,GND*%
%TO.N,GND*%
X54915000Y-94925000D03*
%TO.P,J12,A4,VBUS*%
%TO.N,Net-(D6-A)*%
X55765000Y-94925000D03*
%TO.P,J12,A5,CC1*%
%TO.N,Net-(J12-CC1)*%
X56615000Y-94925000D03*
%TO.P,J12,A6,D+*%
%TO.N,/USB/USBHOST0_P*%
X57465000Y-94925000D03*
%TO.P,J12,A7,D-*%
%TO.N,/USB/USBHOST0_N*%
X58315000Y-94925000D03*
%TO.P,J12,A8,SBU1*%
%TO.N,unconnected-(J12-SBU1-PadA8)*%
X59165000Y-94925000D03*
%TO.P,J12,A9,VBUS*%
%TO.N,Net-(D6-A)*%
X60015000Y-94925000D03*
%TO.P,J12,A12,GND*%
%TO.N,GND*%
X60865000Y-94925000D03*
%TO.P,J12,B1,GND*%
X60865000Y-96275000D03*
%TO.P,J12,B4,VBUS*%
%TO.N,Net-(D6-A)*%
X60015000Y-96275000D03*
%TO.P,J12,B5,CC2*%
%TO.N,Net-(J12-CC2)*%
X59165000Y-96275000D03*
%TO.P,J12,B6,D+*%
%TO.N,/USB/USBHOST0_P*%
X58315000Y-96275000D03*
%TO.P,J12,B7,D-*%
%TO.N,/USB/USBHOST0_N*%
X57465000Y-96275000D03*
%TO.P,J12,B8,SBU2*%
%TO.N,unconnected-(J12-SBU2-PadB8)*%
X56615000Y-96275000D03*
%TO.P,J12,B9,VBUS*%
%TO.N,Net-(D6-A)*%
X55765000Y-96275000D03*
%TO.P,J12,B12,GND*%
%TO.N,GND*%
X54915000Y-96275000D03*
D18*
%TO.P,J12,S1,SHIELD*%
%TO.N,unconnected-(J12-SHIELD-PadS1)*%
X53565000Y-95905000D03*
D19*
X53565000Y-99285000D03*
D18*
X62215000Y-95905000D03*
D19*
X62215000Y-99285000D03*
%TD*%
D22*
%TO.P,H1,1,1*%
%TO.N,GND*%
X37000000Y-40000000D03*
X37878680Y-37878680D03*
X37878680Y-42121320D03*
X40000000Y-37000000D03*
D23*
X40000000Y-40000000D03*
D22*
X40000000Y-43000000D03*
X42121320Y-37878680D03*
X42121320Y-42121320D03*
X43000000Y-40000000D03*
%TD*%
%TO.P,H3,1,1*%
%TO.N,GND*%
X37000000Y-96896000D03*
X37878680Y-94774680D03*
X37878680Y-99017320D03*
X40000000Y-93896000D03*
D23*
X40000000Y-96896000D03*
D22*
X40000000Y-99896000D03*
X42121320Y-94774680D03*
X42121320Y-99017320D03*
X43000000Y-96896000D03*
%TD*%
%TO.P,H4,1,1*%
%TO.N,GND*%
X112552300Y-96896000D03*
X113430980Y-94774680D03*
X113430980Y-99017320D03*
X115552300Y-93896000D03*
D23*
X115552300Y-96896000D03*
D22*
X115552300Y-99896000D03*
X117673620Y-94774680D03*
X117673620Y-99017320D03*
X118552300Y-96896000D03*
%TD*%
D24*
%TO.P,R48,1*%
%TO.N,/CM4LowSpeed/CAM1_PGOOD*%
X102050000Y-47730000D03*
%TO.P,R48,2*%
%TO.N,Net-(J4-Pin_12)*%
X102050000Y-48750000D03*
%TD*%
%TO.P,R44,1*%
%TO.N,/CM4LowSpeed/CAM1_MISO*%
X98130000Y-47710000D03*
%TO.P,R44,2*%
%TO.N,Net-(J4-Pin_8)*%
X98130000Y-48730000D03*
%TD*%
D25*
%TO.P,C59,1*%
%TO.N,+3V3*%
X54771751Y-76271751D03*
%TO.P,C59,2*%
%TO.N,GND*%
X53428249Y-74928249D03*
%TD*%
D26*
%TO.P,R29,1*%
%TO.N,/SIM_SW*%
X93204000Y-56220000D03*
%TO.P,R29,2*%
%TO.N,Net-(J3-SIM_DETECT)*%
X94224000Y-56220000D03*
%TD*%
D27*
%TO.P,C14,1*%
%TO.N,+5VRadar1*%
X86775000Y-48300000D03*
%TO.P,C14,2*%
%TO.N,GND*%
X85225000Y-48300000D03*
%TD*%
D28*
%TO.P,D8,1,K*%
%TO.N,/USB/USBDev_N*%
X75000000Y-92590000D03*
%TO.P,D8,2,A*%
%TO.N,GND*%
X76400000Y-92590000D03*
%TD*%
D29*
%TO.P,C65,1*%
%TO.N,/SIM_PWR*%
X110400000Y-81112500D03*
%TO.P,C65,2*%
%TO.N,GND*%
X110400000Y-79287500D03*
%TD*%
D30*
%TO.P,R91,1*%
%TO.N,/USB/USBHOST1_P*%
X71235000Y-91120000D03*
%TO.P,R91,2*%
%TO.N,/USB/USBDev_P*%
X72885000Y-91120000D03*
%TD*%
D31*
%TO.P,C53,1*%
%TO.N,/SIM_CLK*%
X106400000Y-79325000D03*
%TO.P,C53,2*%
%TO.N,GND*%
X106400000Y-80875000D03*
%TD*%
D30*
%TO.P,R98,1*%
%TO.N,Net-(U2-SUSP_IND{slash}LOCAL_PWR{slash}NON_REM0)*%
X67975000Y-80400000D03*
%TO.P,R98,2*%
%TO.N,GND*%
X69625000Y-80400000D03*
%TD*%
D32*
%TO.P,FL4,1,1*%
%TO.N,/USB/USBHUB3_N*%
X54235000Y-88965000D03*
%TO.P,FL4,2,2*%
%TO.N,/USB/USBHOST2_N*%
X54235000Y-90635000D03*
%TO.P,FL4,3,3*%
%TO.N,/USB/USBHOST2_P*%
X53365000Y-90635000D03*
%TO.P,FL4,4,4*%
%TO.N,/USB/USBHUB3_P*%
X53365000Y-88965000D03*
%TD*%
D33*
%TO.P,J2,1,Pin_1*%
%TO.N,+3V3*%
X64850000Y-42950000D03*
%TO.P,J2,2,Pin_2*%
%TO.N,/CAM1_SDA*%
X65350000Y-42950000D03*
%TO.P,J2,3,Pin_3*%
%TO.N,/CAM1_SCL*%
X65850000Y-42950000D03*
%TO.P,J2,4,Pin_4*%
%TO.N,GND*%
X66350000Y-42950000D03*
%TO.P,J2,5,Pin_5*%
%TO.N,Net-(J2-Pin_5)*%
X66850000Y-42950000D03*
%TO.P,J2,6,Pin_6*%
%TO.N,Net-(J2-Pin_6)*%
X67350000Y-42950000D03*
%TO.P,J2,7,Pin_7*%
%TO.N,GND*%
X67850000Y-42950000D03*
%TO.P,J2,8,Pin_8*%
%TO.N,/CM4HighSpeed/RCAM1_D3_P*%
X68350000Y-42950000D03*
%TO.P,J2,9,Pin_9*%
%TO.N,/CM4HighSpeed/RCAM1_D3_N*%
X68850000Y-42950000D03*
%TO.P,J2,10,Pin_10*%
%TO.N,GND*%
X69350000Y-42950000D03*
%TO.P,J2,11,Pin_11*%
%TO.N,/CM4HighSpeed/RCAM1_D2_P*%
X69850000Y-42950000D03*
%TO.P,J2,12,Pin_12*%
%TO.N,/CM4HighSpeed/RCAM1_D2_N*%
X70350000Y-42950000D03*
%TO.P,J2,13,Pin_13*%
%TO.N,GND*%
X70850000Y-42950000D03*
%TO.P,J2,14,Pin_14*%
%TO.N,/CM4HighSpeed/RCAM1_CK_P*%
X71350000Y-42950000D03*
%TO.P,J2,15,Pin_15*%
%TO.N,/CM4HighSpeed/RCAM1_CK_N*%
X71850000Y-42950000D03*
%TO.P,J2,16,Pin_16*%
%TO.N,GND*%
X72350000Y-42950000D03*
%TO.P,J2,17,Pin_17*%
%TO.N,/CM4HighSpeed/RCAM1_D1_P*%
X72850000Y-42950000D03*
%TO.P,J2,18,Pin_18*%
%TO.N,/CM4HighSpeed/RCAM1_D1_N*%
X73350000Y-42950000D03*
%TO.P,J2,19,Pin_19*%
%TO.N,GND*%
X73850000Y-42950000D03*
%TO.P,J2,20,Pin_20*%
%TO.N,/CM4HighSpeed/RCAM1_D0_P*%
X74350000Y-42950000D03*
%TO.P,J2,21,Pin_21*%
%TO.N,/CM4HighSpeed/RCAM1_D0_N*%
X74850000Y-42950000D03*
%TO.P,J2,22,Pin_22*%
%TO.N,GND*%
X75350000Y-42950000D03*
D34*
%TO.P,J2,MP,MountPin*%
X62950000Y-39700000D03*
X77250000Y-39700000D03*
%TD*%
D35*
%TO.P,C61,1*%
%TO.N,+3V3*%
X63700000Y-75775000D03*
%TO.P,C61,2*%
%TO.N,GND*%
X63700000Y-74225000D03*
%TD*%
D24*
%TO.P,R46,1*%
%TO.N,/CM4LowSpeed/CAM1_SYNCIN*%
X100110000Y-47710000D03*
%TO.P,R46,2*%
%TO.N,Net-(J4-Pin_10)*%
X100110000Y-48730000D03*
%TD*%
D36*
%TO.P,D11,1,K*%
%TO.N,/USB/USBHOST2_P*%
X45500000Y-96400000D03*
%TO.P,D11,2,A*%
%TO.N,GND*%
X45500000Y-95000000D03*
%TD*%
D37*
%TO.P,C3,1*%
%TO.N,+3V3*%
X93350000Y-58300000D03*
%TO.P,C3,2*%
%TO.N,GND*%
X91450000Y-58300000D03*
%TD*%
D38*
%TO.P,C12,1*%
%TO.N,Net-(Q4-D)*%
X82125000Y-48300000D03*
%TO.P,C12,2*%
%TO.N,GND*%
X83675000Y-48300000D03*
%TD*%
D35*
%TO.P,C55,1*%
%TO.N,Net-(U2-XTALIN{slash}CLKIN)*%
X73430000Y-86465000D03*
%TO.P,C55,2*%
%TO.N,GND*%
X73430000Y-84915000D03*
%TD*%
D39*
%TO.P,R17,1*%
%TO.N,/CM4HighSpeed/CAM1_LED_EN*%
X65150000Y-51410000D03*
%TO.P,R17,2*%
%TO.N,Net-(J2-Pin_5)*%
X65150000Y-50390000D03*
%TD*%
D27*
%TO.P,C58,1*%
%TO.N,Net-(U2-CRFILT)*%
X54075000Y-82400000D03*
%TO.P,C58,2*%
%TO.N,GND*%
X52525000Y-82400000D03*
%TD*%
D40*
%TO.P,D4,1,K*%
%TO.N,/USB/USBHOST0_P*%
X57350000Y-92720000D03*
%TO.P,D4,2,A*%
%TO.N,GND*%
X55950000Y-92720000D03*
%TD*%
D41*
%TO.P,R66,1*%
%TO.N,/CAM1_SCL*%
X62925000Y-52100000D03*
%TO.P,R66,2*%
%TO.N,+3V3*%
X61275000Y-52100000D03*
%TD*%
D26*
%TO.P,R40,1*%
%TO.N,/CM4HighSpeed/RPCIE_CK_P*%
X110674000Y-58010000D03*
%TO.P,R40,2*%
%TO.N,/CM4HighSpeed/PCIE_CK_P*%
X111694000Y-58010000D03*
%TD*%
D28*
%TO.P,D7,1,K*%
%TO.N,/USB/USBHOST0_N*%
X58472500Y-92720000D03*
%TO.P,D7,2,A*%
%TO.N,GND*%
X59872500Y-92720000D03*
%TD*%
D39*
%TO.P,R27,1*%
%TO.N,/CM4HighSpeed/CAM1_D0_P*%
X75700000Y-51410000D03*
%TO.P,R27,2*%
%TO.N,/CM4HighSpeed/RCAM1_D0_P*%
X75700000Y-50390000D03*
%TD*%
D42*
%TO.P,U1,1,VCC*%
%TO.N,+3V3*%
X75200000Y-82287500D03*
%TO.P,U1,2,SEL*%
%TO.N,/USB_OTG*%
X75700000Y-82287500D03*
%TO.P,U1,3,D+*%
%TO.N,/USB2_P*%
X76200000Y-82287500D03*
%TO.P,U1,4,D-*%
%TO.N,/USB2_N*%
X76700000Y-82287500D03*
%TO.P,U1,5,GND*%
%TO.N,GND*%
X77200000Y-82287500D03*
%TO.P,U1,6,HSD1-*%
%TO.N,/USB/USBHub_N*%
X77200000Y-86512500D03*
%TO.P,U1,7,HSD1+*%
%TO.N,/USB/USBHub_P*%
X76700000Y-86512500D03*
%TO.P,U1,8,HSD2-*%
%TO.N,/USB/RUSBDev_N*%
X76200000Y-86512500D03*
%TO.P,U1,9,HSD2+*%
%TO.N,/USB/RUSBDev_P*%
X75700000Y-86512500D03*
%TO.P,U1,10,~{OE}*%
%TO.N,GND*%
X75200000Y-86512500D03*
%TD*%
D29*
%TO.P,R82,1*%
%TO.N,+3V3*%
X51900000Y-56312500D03*
%TO.P,R82,2*%
%TO.N,Net-(J11-VDD)*%
X51900000Y-54487500D03*
%TD*%
D39*
%TO.P,R24,1*%
%TO.N,/CM4HighSpeed/CAM1_CK_N*%
X72550000Y-51410000D03*
%TO.P,R24,2*%
%TO.N,/CM4HighSpeed/RCAM1_CK_N*%
X72550000Y-50390000D03*
%TD*%
D24*
%TO.P,R49,1*%
%TO.N,/CM4LowSpeed/CAM1_MOSI*%
X103050000Y-47730000D03*
%TO.P,R49,2*%
%TO.N,Net-(J4-Pin_13)*%
X103050000Y-48750000D03*
%TD*%
D38*
%TO.P,C57,1*%
%TO.N,Net-(U2-PLLFILT)*%
X65825000Y-84900000D03*
%TO.P,C57,2*%
%TO.N,GND*%
X67375000Y-84900000D03*
%TD*%
D24*
%TO.P,R47,1*%
%TO.N,/CM4LowSpeed/CAM1_nRESET*%
X101070000Y-47730000D03*
%TO.P,R47,2*%
%TO.N,Net-(J4-Pin_11)*%
X101070000Y-48750000D03*
%TD*%
D26*
%TO.P,R31,1*%
%TO.N,Net-(J3-CONFIG_3)*%
X110984000Y-72230000D03*
%TO.P,R31,2*%
%TO.N,+3V3*%
X112004000Y-72230000D03*
%TD*%
D43*
%TO.P,R33,1*%
%TO.N,/CM4HighSpeed/RM2USB_N*%
X111944000Y-69760000D03*
%TO.P,R33,2*%
%TO.N,/M2USB_N*%
X110924000Y-69760000D03*
%TD*%
D30*
%TO.P,R92,1*%
%TO.N,/USB/USBDev_P*%
X74245000Y-91120000D03*
%TO.P,R92,2*%
%TO.N,/USB/RUSBDev_P*%
X75895000Y-91120000D03*
%TD*%
D39*
%TO.P,R26,1*%
%TO.N,/CM4HighSpeed/CAM1_D1_N*%
X74630000Y-51410000D03*
%TO.P,R26,2*%
%TO.N,/CM4HighSpeed/RCAM1_D1_N*%
X74630000Y-50390000D03*
%TD*%
D44*
%TO.P,R97,1*%
%TO.N,Net-(U2-SDA{slash}SMBDATA{slash}NON_REM1)*%
X59200000Y-75800000D03*
%TO.P,R97,2*%
%TO.N,GND*%
X59200000Y-74150000D03*
%TD*%
D45*
%TO.P,FB1,1*%
%TO.N,Net-(Q4-D)*%
X82387500Y-46200000D03*
%TO.P,FB1,2*%
%TO.N,+5VRadar1*%
X86612500Y-46200000D03*
%TD*%
D30*
%TO.P,R102,1*%
%TO.N,+3V3*%
X52475000Y-80900000D03*
%TO.P,R102,2*%
%TO.N,Net-(U2-PRTPWR2{slash}BC_EN2)*%
X54125000Y-80900000D03*
%TD*%
D35*
%TO.P,C2,1*%
%TO.N,+3V3*%
X61769998Y-48095000D03*
%TO.P,C2,2*%
%TO.N,GND*%
X61769998Y-46545000D03*
%TD*%
D41*
%TO.P,R85,1*%
%TO.N,Net-(J12-CC2)*%
X63025000Y-92750000D03*
%TO.P,R85,2*%
%TO.N,GND*%
X61375000Y-92750000D03*
%TD*%
D43*
%TO.P,R36,1*%
%TO.N,/CM4HighSpeed/RPCIE_RX_P*%
X111704000Y-62300000D03*
%TO.P,R36,2*%
%TO.N,/CM4HighSpeed/PCIE_RX_P*%
X110684000Y-62300000D03*
%TD*%
D46*
%TO.P,C17,1*%
%TO.N,+5VRadar1*%
X88900000Y-45850000D03*
%TO.P,C17,2*%
%TO.N,GND*%
X88900000Y-47750000D03*
%TD*%
D30*
%TO.P,R84,1*%
%TO.N,/USB_OTG*%
X78875000Y-81900000D03*
%TO.P,R84,2*%
%TO.N,GND*%
X80525000Y-81900000D03*
%TD*%
D41*
%TO.P,R83,1*%
%TO.N,/USB/USBDevAttach*%
X80525000Y-83600000D03*
%TO.P,R83,2*%
%TO.N,/USB_OTG*%
X78875000Y-83600000D03*
%TD*%
D39*
%TO.P,R21,1*%
%TO.N,/CM4HighSpeed/CAM1_D2_P*%
X69400000Y-51410000D03*
%TO.P,R21,2*%
%TO.N,/CM4HighSpeed/RCAM1_D2_P*%
X69400000Y-50390000D03*
%TD*%
D47*
%TO.P,J11,1,DAT2*%
%TO.N,/SD_D2*%
X40000000Y-50700000D03*
%TO.P,J11,2,DAT3/CD*%
%TO.N,/SD_D3*%
X40000000Y-51800000D03*
%TO.P,J11,3,CMD*%
%TO.N,/SD_CMD*%
X40000000Y-52900000D03*
%TO.P,J11,4,VDD*%
%TO.N,Net-(J11-VDD)*%
X40000000Y-54000000D03*
%TO.P,J11,5,CLK*%
%TO.N,/SD_CLK*%
X40000000Y-55100000D03*
%TO.P,J11,6,VSS*%
%TO.N,GND*%
X40000000Y-56200000D03*
%TO.P,J11,7,DAT0*%
%TO.N,/SD_D0*%
X40000000Y-57300000D03*
%TO.P,J11,8,DAT1*%
%TO.N,/SD_D1*%
X40000000Y-58400000D03*
D48*
%TO.P,J11,9,SHIELD*%
%TO.N,GND*%
X45700000Y-47025000D03*
X37400000Y-47025000D03*
X45700000Y-60775000D03*
X37400000Y-60775000D03*
%TD*%
D31*
%TO.P,C52,1*%
%TO.N,/SIM_RST*%
X93500000Y-79525000D03*
%TO.P,C52,2*%
%TO.N,GND*%
X93500000Y-81075000D03*
%TD*%
D26*
%TO.P,R35,1*%
%TO.N,/CM4HighSpeed/RPCIE_RX_N*%
X110684000Y-63240000D03*
%TO.P,R35,2*%
%TO.N,/CM4HighSpeed/PCIE_RX_N*%
X111704000Y-63240000D03*
%TD*%
D27*
%TO.P,C6,1*%
%TO.N,+3V3*%
X93175000Y-64300000D03*
%TO.P,C6,2*%
%TO.N,GND*%
X91625000Y-64300000D03*
%TD*%
D30*
%TO.P,R93,1*%
%TO.N,/USB/USBHOST1_N*%
X72055000Y-89570000D03*
%TO.P,R93,2*%
%TO.N,/USB/USBDev_N*%
X73705000Y-89570000D03*
%TD*%
D49*
%TO.P,C60,1*%
%TO.N,+3V3*%
X66928249Y-76271751D03*
%TO.P,C60,2*%
%TO.N,GND*%
X68271751Y-74928249D03*
%TD*%
D26*
%TO.P,R39,1*%
%TO.N,/CM4HighSpeed/RPCIE_CK_N*%
X110674000Y-58950000D03*
%TO.P,R39,2*%
%TO.N,/CM4HighSpeed/PCIE_CK_N*%
X111694000Y-58950000D03*
%TD*%
D32*
%TO.P,FL3,1,1*%
%TO.N,/USB/USBHUB2_N*%
X58335000Y-89025000D03*
%TO.P,FL3,2,2*%
%TO.N,/USB/USBHOST0_N*%
X58335000Y-90695000D03*
%TO.P,FL3,3,3*%
%TO.N,/USB/USBHOST0_P*%
X57465000Y-90695000D03*
%TO.P,FL3,4,4*%
%TO.N,/USB/USBHUB2_P*%
X57465000Y-89025000D03*
%TD*%
D50*
%TO.P,R16,1*%
%TO.N,/CAM1_SDA*%
X61300000Y-53575000D03*
%TO.P,R16,2*%
%TO.N,/CM4LowSpeed/RCAM1_SDA*%
X61300000Y-55225000D03*
%TD*%
%TO.P,R104,1*%
%TO.N,+3V3*%
X57700000Y-74175000D03*
%TO.P,R104,2*%
%TO.N,Net-(U2-PRTPWR4{slash}BC_EN4)*%
X57700000Y-75825000D03*
%TD*%
D51*
%TO.P,C50,1*%
%TO.N,Net-(J11-VDD)*%
X52000000Y-51750000D03*
%TO.P,C50,2*%
%TO.N,GND*%
X52000000Y-49850000D03*
%TD*%
D30*
%TO.P,R101,1*%
%TO.N,+3V3*%
X52475000Y-83900000D03*
%TO.P,R101,2*%
%TO.N,Net-(U2-PRTPWR1{slash}BC_EN1)*%
X54125000Y-83900000D03*
%TD*%
D39*
%TO.P,R25,1*%
%TO.N,/CM4HighSpeed/CAM1_D1_P*%
X73650000Y-51410000D03*
%TO.P,R25,2*%
%TO.N,/CM4HighSpeed/RCAM1_D1_P*%
X73650000Y-50390000D03*
%TD*%
D37*
%TO.P,C4,1*%
%TO.N,+3V3*%
X93350000Y-62100000D03*
%TO.P,C4,2*%
%TO.N,GND*%
X91450000Y-62100000D03*
%TD*%
D50*
%TO.P,R15,1*%
%TO.N,/CAM1_SCL*%
X62900000Y-53575000D03*
%TO.P,R15,2*%
%TO.N,/CM4LowSpeed/RCAM1_SCL*%
X62900000Y-55225000D03*
%TD*%
D41*
%TO.P,R100,1*%
%TO.N,GND*%
X67425000Y-86400000D03*
%TO.P,R100,2*%
%TO.N,Net-(U2-RBIAS)*%
X65775000Y-86400000D03*
%TD*%
D31*
%TO.P,C51,1*%
%TO.N,/SIM_PWR*%
X91800000Y-79525000D03*
%TO.P,C51,2*%
%TO.N,GND*%
X91800000Y-81075000D03*
%TD*%
D26*
%TO.P,R34,1*%
%TO.N,Net-(J3-CONFIG_0)*%
X110934000Y-67130000D03*
%TO.P,R34,2*%
%TO.N,+3V3*%
X111954000Y-67130000D03*
%TD*%
D52*
%TO.P,U2,1,USBDM_DN1/PRT_DIS_M1*%
%TO.N,/USB/USBHUB0_N*%
X62870000Y-85407500D03*
%TO.P,U2,2,USBDP_DN1/PRT_DIS_P1*%
%TO.N,/USB/USBHUB0_P*%
X62370000Y-85407500D03*
%TO.P,U2,3,USBDM_DN2/PRT_DIS_M2*%
%TO.N,/USB/USBHUB1_N*%
X61870000Y-85407500D03*
%TO.P,U2,4,USBDP_DN2/PRT_DIS_P2*%
%TO.N,/USB/USBHUB1_P*%
X61370000Y-85407500D03*
%TO.P,U2,5,VDDA33*%
%TO.N,+3V3*%
X60870000Y-85407500D03*
%TO.P,U2,6,USBDM_DN3/PRT_DIS_M3*%
%TO.N,/USB/USBHUB2_N*%
X60370000Y-85407500D03*
%TO.P,U2,7,USBDP_DN3/PRT_DIS_P3*%
%TO.N,/USB/USBHUB2_P*%
X59870000Y-85407500D03*
%TO.P,U2,8,USBDM_DN4/PRT_DIS_M4*%
%TO.N,/USB/USBHUB3_N*%
X59370000Y-85407500D03*
%TO.P,U2,9,USBDP_DN4/PRT_DIS_P4*%
%TO.N,/USB/USBHUB3_P*%
X58870000Y-85407500D03*
D53*
%TO.P,U2,10,VDDA33*%
%TO.N,+3V3*%
X57932500Y-84470000D03*
%TO.P,U2,11,TEST*%
%TO.N,unconnected-(U2-TEST-Pad11)*%
X57932500Y-83970000D03*
%TO.P,U2,12,PRTPWR1/BC_EN1*%
%TO.N,Net-(U2-PRTPWR1{slash}BC_EN1)*%
X57932500Y-83470000D03*
%TO.P,U2,13,OCS_N1*%
%TO.N,unconnected-(U2-OCS_N1-Pad13)*%
X57932500Y-82970000D03*
%TO.P,U2,14,CRFILT*%
%TO.N,Net-(U2-CRFILT)*%
X57932500Y-82470000D03*
%TO.P,U2,15,VDD33*%
%TO.N,+3V3*%
X57932500Y-81970000D03*
%TO.P,U2,16,PRTPWR2/BC_EN2*%
%TO.N,Net-(U2-PRTPWR2{slash}BC_EN2)*%
X57932500Y-81470000D03*
%TO.P,U2,17,OCS_N2*%
%TO.N,unconnected-(U2-OCS_N2-Pad17)*%
X57932500Y-80970000D03*
%TO.P,U2,18,PRTPWR3/BC_EN3*%
%TO.N,Net-(U2-PRTPWR3{slash}BC_EN3)*%
X57932500Y-80470000D03*
D52*
%TO.P,U2,19,OCS_N3*%
%TO.N,unconnected-(U2-OCS_N3-Pad19)*%
X58870000Y-79532500D03*
%TO.P,U2,20,PRTPWR4/BC_EN4*%
%TO.N,Net-(U2-PRTPWR4{slash}BC_EN4)*%
X59370000Y-79532500D03*
%TO.P,U2,21,OCS_N4*%
%TO.N,unconnected-(U2-OCS_N4-Pad21)*%
X59870000Y-79532500D03*
%TO.P,U2,22,SDA/SMBDATA/NON_REM1*%
%TO.N,Net-(U2-SDA{slash}SMBDATA{slash}NON_REM1)*%
X60370000Y-79532500D03*
%TO.P,U2,23,VDD33*%
%TO.N,+3V3*%
X60870000Y-79532500D03*
%TO.P,U2,24,SCL/SMBCLK/CFG_SEL0*%
%TO.N,Net-(U2-SCL{slash}SMBCLK{slash}CFG_SEL0)*%
X61370000Y-79532500D03*
%TO.P,U2,25,HS_IND/CFG_SEL1*%
%TO.N,Net-(U2-HS_IND{slash}CFG_SEL1)*%
X61870000Y-79532500D03*
%TO.P,U2,26,RESET_N*%
%TO.N,/nEXTRST*%
X62370000Y-79532500D03*
%TO.P,U2,27,VBUS_DET*%
%TO.N,+3V3*%
X62870000Y-79532500D03*
D53*
%TO.P,U2,28,SUSP_IND/LOCAL_PWR/NON_REM0*%
%TO.N,Net-(U2-SUSP_IND{slash}LOCAL_PWR{slash}NON_REM0)*%
X63807500Y-80470000D03*
%TO.P,U2,29,VDDA33*%
%TO.N,+3V3*%
X63807500Y-80970000D03*
%TO.P,U2,30,USBDM_UP*%
%TO.N,/USB/USBHub_N*%
X63807500Y-81470000D03*
%TO.P,U2,31,USBDP_UP*%
%TO.N,/USB/USBHub_P*%
X63807500Y-81970000D03*
%TO.P,U2,32,XTALOUT*%
%TO.N,Net-(U2-XTALOUT)*%
X63807500Y-82470000D03*
%TO.P,U2,33,XTALIN/CLKIN*%
%TO.N,Net-(U2-XTALIN{slash}CLKIN)*%
X63807500Y-82970000D03*
%TO.P,U2,34,PLLFILT*%
%TO.N,Net-(U2-PLLFILT)*%
X63807500Y-83470000D03*
%TO.P,U2,35,RBIAS*%
%TO.N,Net-(U2-RBIAS)*%
X63807500Y-83970000D03*
%TO.P,U2,36,VDDA33*%
%TO.N,+3V3*%
X63807500Y-84470000D03*
D54*
%TO.P,U2,37,VSS*%
%TO.N,GND*%
X60870000Y-82470000D03*
%TD*%
D26*
%TO.P,R38,1*%
%TO.N,/CM4HighSpeed/RPCIE_TX_P*%
X110684000Y-60150000D03*
%TO.P,R38,2*%
%TO.N,/CM4HighSpeed/PCIE_TX_P*%
X111704000Y-60150000D03*
%TD*%
D30*
%TO.P,R86,1*%
%TO.N,Net-(J13-CC2)*%
X69135000Y-92730000D03*
%TO.P,R86,2*%
%TO.N,GND*%
X70785000Y-92730000D03*
%TD*%
D24*
%TO.P,R45,1*%
%TO.N,/CM4LowSpeed/CAM1_nERROUT*%
X99120000Y-47710000D03*
%TO.P,R45,2*%
%TO.N,Net-(J4-Pin_9)*%
X99120000Y-48730000D03*
%TD*%
D46*
%TO.P,C19,1*%
%TO.N,+5VRadar1*%
X91000000Y-45850000D03*
%TO.P,C19,2*%
%TO.N,GND*%
X91000000Y-47750000D03*
%TD*%
%TO.P,C64,1*%
%TO.N,Net-(J11-VDD)*%
X53900000Y-54550000D03*
%TO.P,C64,2*%
%TO.N,GND*%
X53900000Y-56450000D03*
%TD*%
D27*
%TO.P,C63,1*%
%TO.N,+3V3*%
X54075000Y-85400000D03*
%TO.P,C63,2*%
%TO.N,GND*%
X52525000Y-85400000D03*
%TD*%
D55*
%TO.P,J14,1,Pin_1*%
%TO.N,+5V*%
X47800000Y-99000000D03*
D56*
%TO.P,J14,2,Pin_2*%
%TO.N,/USB/USBHOST2_N*%
X47800000Y-97730000D03*
%TO.P,J14,3,Pin_3*%
%TO.N,/USB/USBHOST2_P*%
X47800000Y-96460000D03*
%TO.P,J14,4,Pin_4*%
%TO.N,GND*%
X47800000Y-95190000D03*
%TD*%
D57*
%TO.P,D2,1,K*%
%TO.N,+3V3*%
X73400000Y-79300000D03*
%TO.P,D2,2,A*%
%TO.N,/USB_OTG*%
X75600000Y-79300000D03*
%TD*%
D38*
%TO.P,C56,1*%
%TO.N,Net-(U2-XTALOUT)*%
X69805000Y-83140000D03*
%TO.P,C56,2*%
%TO.N,GND*%
X71355000Y-83140000D03*
%TD*%
D41*
%TO.P,R67,1*%
%TO.N,/CAM1_SDA*%
X61925000Y-50600000D03*
%TO.P,R67,2*%
%TO.N,+3V3*%
X60275000Y-50600000D03*
%TD*%
D24*
%TO.P,R51,1*%
%TO.N,/CM4LowSpeed/CAM1_CS*%
X105000000Y-47740000D03*
%TO.P,R51,2*%
%TO.N,Net-(J4-Pin_15)*%
X105000000Y-48760000D03*
%TD*%
D38*
%TO.P,C27,1*%
%TO.N,+5VRadar1*%
X92825000Y-46700000D03*
%TO.P,C27,2*%
%TO.N,GND*%
X94375000Y-46700000D03*
%TD*%
D58*
%TO.P,Y1,1,1*%
%TO.N,Net-(U2-XTALIN{slash}CLKIN)*%
X71560000Y-86480000D03*
%TO.P,Y1,2,2*%
%TO.N,GND*%
X69360000Y-86480000D03*
%TO.P,Y1,3,3*%
%TO.N,Net-(U2-XTALOUT)*%
X69360000Y-84880000D03*
%TO.P,Y1,4,4*%
%TO.N,GND*%
X71560000Y-84880000D03*
%TD*%
D39*
%TO.P,R19,1*%
%TO.N,/CM4HighSpeed/CAM1_D3_P*%
X67250000Y-51410000D03*
%TO.P,R19,2*%
%TO.N,/CM4HighSpeed/RCAM1_D3_P*%
X67250000Y-50390000D03*
%TD*%
D27*
%TO.P,C5,1*%
%TO.N,+3V3*%
X93175000Y-60300000D03*
%TO.P,C5,2*%
%TO.N,GND*%
X91625000Y-60300000D03*
%TD*%
D38*
%TO.P,C62,1*%
%TO.N,+3V3*%
X68025000Y-78900000D03*
%TO.P,C62,2*%
%TO.N,GND*%
X69575000Y-78900000D03*
%TD*%
D40*
%TO.P,D5,1,K*%
%TO.N,/USB/USBDev_P*%
X73827500Y-92590000D03*
%TO.P,D5,2,A*%
%TO.N,GND*%
X72427500Y-92590000D03*
%TD*%
D59*
%TO.P,J4,1,Pin_1*%
%TO.N,+5VRadar1*%
X90400000Y-42350000D03*
%TO.P,J4,2,Pin_2*%
X91400000Y-42350000D03*
%TO.P,J4,3,Pin_3*%
X92400000Y-42350000D03*
%TO.P,J4,4,Pin_4*%
%TO.N,GND*%
X93400000Y-42350000D03*
%TO.P,J4,5,Pin_5*%
X94400000Y-42350000D03*
%TO.P,J4,6,Pin_6*%
X95400000Y-42350000D03*
%TO.P,J4,7,Pin_7*%
%TO.N,Net-(J4-Pin_7)*%
X96400000Y-42350000D03*
%TO.P,J4,8,Pin_8*%
%TO.N,Net-(J4-Pin_8)*%
X97400000Y-42350000D03*
%TO.P,J4,9,Pin_9*%
%TO.N,Net-(J4-Pin_9)*%
X98400000Y-42350000D03*
%TO.P,J4,10,Pin_10*%
%TO.N,Net-(J4-Pin_10)*%
X99400000Y-42350000D03*
%TO.P,J4,11,Pin_11*%
%TO.N,Net-(J4-Pin_11)*%
X100400000Y-42350000D03*
%TO.P,J4,12,Pin_12*%
%TO.N,Net-(J4-Pin_12)*%
X101400000Y-42350000D03*
%TO.P,J4,13,Pin_13*%
%TO.N,Net-(J4-Pin_13)*%
X102400000Y-42350000D03*
%TO.P,J4,14,Pin_14*%
%TO.N,Net-(J4-Pin_14)*%
X103400000Y-42350000D03*
%TO.P,J4,15,Pin_15*%
%TO.N,Net-(J4-Pin_15)*%
X104400000Y-42350000D03*
D60*
%TO.P,J4,MP,MountPin*%
%TO.N,GND*%
X87410000Y-39550000D03*
X107390000Y-39550000D03*
%TD*%
D24*
%TO.P,R43,1*%
%TO.N,/CM4LowSpeed/CAM1_HOSTINT*%
X97140000Y-47710000D03*
%TO.P,R43,2*%
%TO.N,Net-(J4-Pin_7)*%
X97140000Y-48730000D03*
%TD*%
D31*
%TO.P,C26,1*%
%TO.N,Net-(J11-VDD)*%
X54300000Y-49950000D03*
%TO.P,C26,2*%
%TO.N,GND*%
X54300000Y-51500000D03*
%TD*%
D24*
%TO.P,R50,1*%
%TO.N,/CM4LowSpeed/CAM1_SPICLK*%
X104060000Y-47730000D03*
%TO.P,R50,2*%
%TO.N,Net-(J4-Pin_14)*%
X104060000Y-48750000D03*
%TD*%
D44*
%TO.P,R96,1*%
%TO.N,Net-(U2-SCL{slash}SMBCLK{slash}CFG_SEL0)*%
X60700000Y-75800000D03*
%TO.P,R96,2*%
%TO.N,GND*%
X60700000Y-74150000D03*
%TD*%
D39*
%TO.P,R18,1*%
%TO.N,/CM4HighSpeed/CAM1_PWR_EN*%
X66100000Y-51410000D03*
%TO.P,R18,2*%
%TO.N,Net-(J2-Pin_6)*%
X66100000Y-50390000D03*
%TD*%
D41*
%TO.P,R87,1*%
%TO.N,Net-(J12-CC1)*%
X54715000Y-92700000D03*
%TO.P,R87,2*%
%TO.N,GND*%
X53065000Y-92700000D03*
%TD*%
D26*
%TO.P,R41,1*%
%TO.N,Net-(J3-CONFIG_1)*%
X110544000Y-55170000D03*
%TO.P,R41,2*%
%TO.N,+3V3*%
X111564000Y-55170000D03*
%TD*%
D44*
%TO.P,R99,1*%
%TO.N,Net-(U2-HS_IND{slash}CFG_SEL1)*%
X62200000Y-75800000D03*
%TO.P,R99,2*%
%TO.N,GND*%
X62200000Y-74150000D03*
%TD*%
D41*
%TO.P,R30,1*%
%TO.N,+3V3*%
X93625000Y-66300000D03*
%TO.P,R30,2*%
%TO.N,Net-(J3-PWRn)*%
X91975000Y-66300000D03*
%TD*%
D31*
%TO.P,C49,1*%
%TO.N,/SIM_PWR*%
X89900000Y-79525000D03*
%TO.P,C49,2*%
%TO.N,GND*%
X89900000Y-81075000D03*
%TD*%
D43*
%TO.P,R32,1*%
%TO.N,/CM4HighSpeed/RM2USB_P*%
X111944000Y-70870000D03*
%TO.P,R32,2*%
%TO.N,/M2USB_P*%
X110924000Y-70870000D03*
%TD*%
D32*
%TO.P,FL1,1,1*%
%TO.N,/USB/USBHUB0_N*%
X67375000Y-89075000D03*
%TO.P,FL1,2,2*%
%TO.N,/USB/USBHOST1_N*%
X67375000Y-90745000D03*
%TO.P,FL1,3,3*%
%TO.N,/USB/USBHOST1_P*%
X66505000Y-90745000D03*
%TO.P,FL1,4,4*%
%TO.N,/USB/USBHUB0_P*%
X66505000Y-89075000D03*
%TD*%
D30*
%TO.P,R88,1*%
%TO.N,Net-(J13-CC1)*%
X77825000Y-92720000D03*
%TO.P,R88,2*%
%TO.N,GND*%
X79475000Y-92720000D03*
%TD*%
D41*
%TO.P,R62,1*%
%TO.N,/CM4LowSpeed/VREF_GPIO*%
X52325000Y-67200000D03*
%TO.P,R62,2*%
%TO.N,+3V3*%
X50675000Y-67200000D03*
%TD*%
D39*
%TO.P,R28,1*%
%TO.N,/CM4HighSpeed/CAM1_D0_N*%
X76650000Y-51410000D03*
%TO.P,R28,2*%
%TO.N,/CM4HighSpeed/RCAM1_D0_N*%
X76650000Y-50390000D03*
%TD*%
D61*
%TO.P,D10,1,K*%
%TO.N,/USB/USBHOST2_N*%
X45500000Y-97800000D03*
%TO.P,D10,2,A*%
%TO.N,GND*%
X45500000Y-99200000D03*
%TD*%
D39*
%TO.P,R23,1*%
%TO.N,/CM4HighSpeed/CAM1_CK_P*%
X71600000Y-51410000D03*
%TO.P,R23,2*%
%TO.N,/CM4HighSpeed/RCAM1_CK_P*%
X71600000Y-50390000D03*
%TD*%
D31*
%TO.P,C54,1*%
%TO.N,/SIM_DATA*%
X108500000Y-79325000D03*
%TO.P,C54,2*%
%TO.N,GND*%
X108500000Y-80875000D03*
%TD*%
D30*
%TO.P,R94,1*%
%TO.N,/USB/USBDev_N*%
X75095000Y-89590000D03*
%TO.P,R94,2*%
%TO.N,/USB/RUSBDev_N*%
X76745000Y-89590000D03*
%TD*%
D39*
%TO.P,R22,1*%
%TO.N,/CM4HighSpeed/CAM1_D2_N*%
X70350000Y-51410000D03*
%TO.P,R22,2*%
%TO.N,/CM4HighSpeed/RCAM1_D2_N*%
X70350000Y-50390000D03*
%TD*%
%TO.P,R20,1*%
%TO.N,/CM4HighSpeed/CAM1_D3_N*%
X68200000Y-51410000D03*
%TO.P,R20,2*%
%TO.N,/CM4HighSpeed/RCAM1_D3_N*%
X68200000Y-50390000D03*
%TD*%
D30*
%TO.P,R103,1*%
%TO.N,+3V3*%
X52475000Y-79400000D03*
%TO.P,R103,2*%
%TO.N,Net-(U2-PRTPWR3{slash}BC_EN3)*%
X54125000Y-79400000D03*
%TD*%
D32*
%TO.P,FL2,1,1*%
%TO.N,/USB/USBHUB1_N*%
X63100000Y-89000000D03*
%TO.P,FL2,2,2*%
%TO.N,/M2USB_N*%
X63100000Y-90670000D03*
%TO.P,FL2,3,3*%
%TO.N,/M2USB_P*%
X62230000Y-90670000D03*
%TO.P,FL2,4,4*%
%TO.N,/USB/USBHUB1_P*%
X62230000Y-89000000D03*
%TD*%
D26*
%TO.P,R42,1*%
%TO.N,Net-(J3-CONFIG_2)*%
X110524000Y-53760000D03*
%TO.P,R42,2*%
%TO.N,+3V3*%
X111544000Y-53760000D03*
%TD*%
D41*
%TO.P,R64,1*%
%TO.N,/CM4LowSpeed/VREF_GPIO*%
X52325000Y-70400000D03*
%TO.P,R64,2*%
%TO.N,/CM4LowSpeed/1V8_GPIO*%
X50675000Y-70400000D03*
%TD*%
D62*
%TO.P,TP17,1,1*%
%TO.N,/nEXTRST*%
X47700000Y-76500000D03*
%TD*%
D38*
%TO.P,C24,1*%
%TO.N,+5VRadar1*%
X92900000Y-45100000D03*
%TO.P,C24,2*%
%TO.N,GND*%
X94450000Y-45100000D03*
%TD*%
D41*
%TO.P,R63,1*%
%TO.N,/CM4LowSpeed/VREF_GPIO*%
X52325000Y-68800000D03*
%TO.P,R63,2*%
%TO.N,/CM4LowSpeed/3V3_GPIO*%
X50675000Y-68800000D03*
%TD*%
D26*
%TO.P,R37,1*%
%TO.N,/CM4HighSpeed/RPCIE_TX_N*%
X110684000Y-61090000D03*
%TO.P,R37,2*%
%TO.N,/CM4HighSpeed/PCIE_TX_N*%
X111704000Y-61090000D03*
%TD*%
D63*
%TO.N,Net-(J2-Pin_5)*%
X65150000Y-45617158D02*
X65150000Y-50390000D01*
X66850000Y-43917158D02*
X65150000Y-45617158D01*
X66850000Y-42950000D02*
X66850000Y-43917158D01*
%TO.N,Net-(J2-Pin_6)*%
X66100000Y-44950000D02*
X66100000Y-50390000D01*
X67350000Y-42950000D02*
X67350000Y-43700000D01*
X67350000Y-43700000D02*
X66100000Y-44950000D01*
D64*
%TO.N,GND*%
X73430000Y-84915000D02*
X74130000Y-85615000D01*
X60102500Y-92700000D02*
X60305000Y-92700000D01*
X70575000Y-82360000D02*
X67530000Y-82360000D01*
X53245000Y-93255000D02*
X54915000Y-94925000D01*
X71355000Y-83140000D02*
X70575000Y-82360000D01*
X53910000Y-92210000D02*
X53910000Y-93920000D01*
X56127500Y-92350001D02*
X55767499Y-91990000D01*
X60305000Y-92700000D02*
X60865000Y-93260000D01*
X71355000Y-84675000D02*
X71560000Y-84880000D01*
X73430000Y-84915000D02*
X71595000Y-84915000D01*
X61375000Y-92750000D02*
X60865000Y-93260000D01*
X55767499Y-91990000D02*
X54130000Y-91990000D01*
X67375000Y-86845000D02*
X67375000Y-84900000D01*
X60865000Y-93260000D02*
X60865000Y-94925000D01*
X74130000Y-86970000D02*
X73445000Y-87655000D01*
X56127500Y-92700000D02*
X56127500Y-92350001D01*
X53910000Y-93920000D02*
X54915000Y-94925000D01*
X73445000Y-87655000D02*
X68185000Y-87655000D01*
X71355000Y-83140000D02*
X71355000Y-84675000D01*
X74130000Y-85615000D02*
X74130000Y-86970000D01*
X53245000Y-92690000D02*
X53245000Y-93255000D01*
X54130000Y-91990000D02*
X53910000Y-92210000D01*
X68185000Y-87655000D02*
X67375000Y-86845000D01*
X71595000Y-84915000D02*
X71560000Y-84880000D01*
D65*
%TO.N,/USB/USBDev_P*%
X74227750Y-93515251D02*
X73827500Y-93115001D01*
X72885000Y-91120000D02*
X74245000Y-91120000D01*
X74224000Y-94686000D02*
X74224000Y-94177643D01*
X74227750Y-94173893D02*
X74227750Y-93515251D01*
X73827500Y-92590000D02*
X73827500Y-92127934D01*
X73827500Y-93115001D02*
X73827500Y-92590000D01*
X74224000Y-94177643D02*
X74227750Y-94173893D01*
X73985000Y-94925000D02*
X74224000Y-94686000D01*
X73827500Y-92127934D02*
G75*
G02*
X74244990Y-91119990I1425400J34D01*
G01*
%TO.N,/USB/USBDev_N*%
X74599750Y-94316250D02*
X74599750Y-93515251D01*
X75000000Y-92590000D02*
X75000000Y-89819350D01*
X74835000Y-94925000D02*
X74596000Y-94686000D01*
X75095000Y-89590000D02*
X73753284Y-89590000D01*
X74599750Y-93515251D02*
X75000000Y-93115001D01*
X74596000Y-94320000D02*
X74599750Y-94316250D01*
X74596000Y-94686000D02*
X74596000Y-94320000D01*
X75000000Y-93115001D02*
X75000000Y-92590000D01*
X75000000Y-89819350D02*
G75*
G02*
X75095015Y-89590015I324400J-50D01*
G01*
X73753284Y-89590000D02*
G75*
G02*
X73705005Y-89569995I16J68300D01*
G01*
%TO.N,/USB/USBHub_N*%
X76687044Y-84264000D02*
X77120000Y-84696956D01*
X64490251Y-81534000D02*
X72027044Y-81534000D01*
X77120000Y-84696956D02*
X77120000Y-86432500D01*
X74757044Y-84264000D02*
X76687044Y-84264000D01*
X64426251Y-81470000D02*
X64490251Y-81534000D01*
X77120000Y-86432500D02*
X77200000Y-86512500D01*
X72027044Y-81534000D02*
X74757044Y-84264000D01*
X63807500Y-81470000D02*
X64426251Y-81470000D01*
%TO.N,/USB/USBHub_P*%
X64426251Y-81970000D02*
X64490251Y-81906000D01*
X76532956Y-84636000D02*
X76780000Y-84883044D01*
X64490251Y-81906000D02*
X71872956Y-81906000D01*
X76780000Y-86432500D02*
X76700000Y-86512500D01*
X71872956Y-81906000D02*
X74602956Y-84636000D01*
X74602956Y-84636000D02*
X76532956Y-84636000D01*
X76780000Y-84883044D02*
X76780000Y-86432500D01*
X63807500Y-81970000D02*
X64426251Y-81970000D01*
%TO.N,/USB/USBHOST0_P*%
X57350000Y-92670000D02*
X57725250Y-92294750D01*
X57704000Y-93381250D02*
X57704000Y-94686000D01*
X57350000Y-92720000D02*
X57350000Y-92670000D01*
X57725250Y-92294750D02*
X57725250Y-92200000D01*
X57725250Y-92200000D02*
X57714000Y-92188750D01*
X57714000Y-91514001D02*
X57465000Y-91265001D01*
X57725250Y-93145250D02*
X57725250Y-93360000D01*
X57725250Y-93360000D02*
X57704000Y-93381250D01*
X57350000Y-92720000D02*
X57350000Y-92770000D01*
X57465000Y-91265001D02*
X57465000Y-90695000D01*
X57714000Y-92188750D02*
X57714000Y-91514001D01*
X57350000Y-92770000D02*
X57725250Y-93145250D01*
X57704000Y-94686000D02*
X57465000Y-94925000D01*
%TO.N,/USB/USBHOST0_N*%
X58086000Y-92046393D02*
X58086000Y-91514001D01*
D64*
X57465000Y-96025000D02*
X58315000Y-95175000D01*
D65*
X58472500Y-92720000D02*
X58472500Y-92670000D01*
X58472500Y-92720000D02*
X58472500Y-92770000D01*
X58472500Y-92670000D02*
X58097250Y-92294750D01*
D64*
X57465000Y-96275000D02*
X57465000Y-96025000D01*
D65*
X58097250Y-93502357D02*
X58076000Y-93523607D01*
X58076000Y-93523607D02*
X58076000Y-94686000D01*
D64*
X58315000Y-95175000D02*
X58315000Y-94925000D01*
D65*
X58076000Y-94686000D02*
X58315000Y-94925000D01*
X58472500Y-92770000D02*
X58097250Y-93145250D01*
X58097250Y-92294750D02*
X58097250Y-92057643D01*
X58335000Y-91265001D02*
X58335000Y-90695000D01*
X58097250Y-93145250D02*
X58097250Y-93502357D01*
X58086000Y-91514001D02*
X58335000Y-91265001D01*
X58097250Y-92057643D02*
X58086000Y-92046393D01*
%TO.N,/USB/USBHOST1_N*%
X68644000Y-90362956D02*
X68644000Y-91198304D01*
X67972304Y-91870000D02*
X67660000Y-91870000D01*
X71252044Y-89324000D02*
X69682956Y-89324000D01*
X68644000Y-91198304D02*
X67972304Y-91870000D01*
X71498044Y-89570000D02*
X71252044Y-89324000D01*
X69682956Y-89324000D02*
X68644000Y-90362956D01*
X67375000Y-91585000D02*
X67375000Y-90745000D01*
X72055000Y-89570000D02*
X71498044Y-89570000D01*
X67660000Y-91870000D02*
X67375000Y-91585000D01*
%TO.N,/USB/USBHOST1_P*%
X71235000Y-91120000D02*
X71235000Y-89833044D01*
X67095000Y-91685000D02*
X67095000Y-91460000D01*
X71097956Y-89696000D02*
X69837044Y-89696000D01*
X69837044Y-89696000D02*
X69016000Y-90517044D01*
X69016000Y-90517044D02*
X69016000Y-91194000D01*
X67550000Y-92140000D02*
X67095000Y-91685000D01*
X69016000Y-91194000D02*
X68070000Y-92140000D01*
X67095000Y-91460000D02*
X66505000Y-90870000D01*
X66505000Y-90870000D02*
X66505000Y-90745000D01*
X71235000Y-89833044D02*
X71097956Y-89696000D01*
X68070000Y-92140000D02*
X67550000Y-92140000D01*
D64*
%TO.N,+3V3*%
X62870000Y-76605000D02*
X63700000Y-75775000D01*
X57932500Y-84470000D02*
X55005000Y-84470000D01*
X62870000Y-79532500D02*
X62870000Y-76605000D01*
X55005000Y-84470000D02*
X54075000Y-85400000D01*
%TO.N,Net-(U2-XTALIN{slash}CLKIN)*%
X66770000Y-82970000D02*
X68150000Y-84350000D01*
X63807500Y-82970000D02*
X66770000Y-82970000D01*
X71575000Y-86465000D02*
X71560000Y-86480000D01*
X68150000Y-84350000D02*
X68150000Y-86956582D01*
X68150000Y-86956582D02*
X68498418Y-87305000D01*
X70735000Y-87305000D02*
X71560000Y-86480000D01*
X73430000Y-86465000D02*
X71575000Y-86465000D01*
X68498418Y-87305000D02*
X70735000Y-87305000D01*
%TO.N,Net-(U2-XTALOUT)*%
X66950000Y-82470000D02*
X69360000Y-84880000D01*
X69360000Y-84880000D02*
X69360000Y-83585000D01*
X63807500Y-82470000D02*
X66950000Y-82470000D01*
X69360000Y-83585000D02*
X69805000Y-83140000D01*
%TO.N,Net-(U2-CRFILT)*%
X54145000Y-82470000D02*
X57932500Y-82470000D01*
X54075000Y-82400000D02*
X54145000Y-82470000D01*
D65*
%TO.N,/USB/USBHUB0_N*%
X62870000Y-85695000D02*
X62806000Y-85759000D01*
X66597044Y-87424000D02*
X67126000Y-87952956D01*
X67375000Y-88950000D02*
X67375000Y-89075000D01*
X62806000Y-85759000D02*
X62806000Y-85878129D01*
X62806000Y-85878129D02*
X64351871Y-87424000D01*
X67126000Y-88701000D02*
X67375000Y-88950000D01*
X64351871Y-87424000D02*
X66597044Y-87424000D01*
X62870000Y-85407500D02*
X62870000Y-85695000D01*
X67126000Y-87952956D02*
X67126000Y-88701000D01*
%TO.N,/USB/USBHUB0_P*%
X66754000Y-88107044D02*
X66754000Y-88701000D01*
X62370000Y-85695000D02*
X62434000Y-85759000D01*
X66442956Y-87796000D02*
X66754000Y-88107044D01*
X62434000Y-86032217D02*
X64197783Y-87796000D01*
X62434000Y-85759000D02*
X62434000Y-86032217D01*
X66505000Y-88950000D02*
X66505000Y-89075000D01*
X66754000Y-88701000D02*
X66505000Y-88950000D01*
X62370000Y-85407500D02*
X62370000Y-85695000D01*
X64197783Y-87796000D02*
X66442956Y-87796000D01*
%TO.N,/USB/USBHUB1_P*%
X62474000Y-87107044D02*
X62474000Y-88442357D01*
X62479000Y-88447357D02*
X62479000Y-88626000D01*
X62479000Y-88626000D02*
X62230000Y-88875000D01*
X62230000Y-88875000D02*
X62230000Y-89000000D01*
X61434000Y-85759000D02*
X61434000Y-86067044D01*
X61370000Y-85695000D02*
X61434000Y-85759000D01*
X61434000Y-86067044D02*
X62474000Y-87107044D01*
X62474000Y-88442357D02*
X62479000Y-88447357D01*
X61370000Y-85407500D02*
X61370000Y-85695000D01*
%TO.N,/USB/USBHUB1_N*%
X61870000Y-85695000D02*
X61806000Y-85759000D01*
X63100000Y-88875000D02*
X63100000Y-89000000D01*
X61806000Y-85912956D02*
X62846000Y-86952956D01*
X62851000Y-88305000D02*
X62851000Y-88626000D01*
X61870000Y-85407500D02*
X61870000Y-85695000D01*
X62851000Y-88626000D02*
X63100000Y-88875000D01*
X61806000Y-85759000D02*
X61806000Y-85912956D01*
X62846000Y-88300000D02*
X62851000Y-88305000D01*
X62846000Y-86952956D02*
X62846000Y-88300000D01*
%TO.N,/USB/USBHUB2_P*%
X57714000Y-88202956D02*
X57714000Y-88651000D01*
X57714000Y-88651000D02*
X57465000Y-88900000D01*
X59870000Y-85695000D02*
X59934000Y-85759000D01*
X57465000Y-88900000D02*
X57465000Y-89025000D01*
X59934000Y-85759000D02*
X59934000Y-85982956D01*
X59870000Y-85407500D02*
X59870000Y-85695000D01*
X59934000Y-85982956D02*
X57714000Y-88202956D01*
%TO.N,/USB/USBHUB2_N*%
X58086000Y-88357044D02*
X58086000Y-88651000D01*
X58086000Y-88651000D02*
X58335000Y-88900000D01*
X58335000Y-88900000D02*
X58335000Y-89025000D01*
X60370000Y-85407500D02*
X60370000Y-85695000D01*
X60370000Y-85695000D02*
X60306000Y-85759000D01*
X60306000Y-86137044D02*
X58086000Y-88357044D01*
X60306000Y-85759000D02*
X60306000Y-86137044D01*
%TO.N,/USB/USBHUB3_P*%
X54342956Y-86414000D02*
X53614000Y-87142956D01*
X53614000Y-87142956D02*
X53614000Y-88591000D01*
X58870000Y-85407500D02*
X58870000Y-85695000D01*
X53614000Y-88591000D02*
X53365000Y-88840000D01*
X58934000Y-85759000D02*
X58934000Y-85842956D01*
X58362956Y-86414000D02*
X54342956Y-86414000D01*
X58934000Y-85842956D02*
X58362956Y-86414000D01*
X58870000Y-85695000D02*
X58934000Y-85759000D01*
X53365000Y-88840000D02*
X53365000Y-88965000D01*
%TO.N,/USB/USBHUB3_N*%
X53986000Y-88591000D02*
X54235000Y-88840000D01*
X59370000Y-85407500D02*
X59370000Y-85695000D01*
X53986000Y-87297044D02*
X53986000Y-88591000D01*
X59306000Y-85759000D02*
X59306000Y-85997044D01*
X59306000Y-85997044D02*
X58517044Y-86786000D01*
X58517044Y-86786000D02*
X54497044Y-86786000D01*
X54235000Y-88840000D02*
X54235000Y-88965000D01*
X59370000Y-85695000D02*
X59306000Y-85759000D01*
X54497044Y-86786000D02*
X53986000Y-87297044D01*
D64*
%TO.N,Net-(J12-CC1)*%
X54895000Y-93205000D02*
X56615000Y-94925000D01*
X54895000Y-92690000D02*
X54895000Y-93205000D01*
%TO.N,Net-(J12-CC2)*%
X63025000Y-92750000D02*
X61540000Y-94235000D01*
X61540000Y-94235000D02*
X61540000Y-96413173D01*
X59740000Y-96850000D02*
X59165000Y-96275000D01*
X61540000Y-96413173D02*
X61103173Y-96850000D01*
X61103173Y-96850000D02*
X59740000Y-96850000D01*
%TO.N,Net-(U2-SCL{slash}SMBCLK{slash}CFG_SEL0)*%
X61370000Y-76470000D02*
X60700000Y-75800000D01*
X61370000Y-79532500D02*
X61370000Y-76470000D01*
%TO.N,Net-(U2-SDA{slash}SMBDATA{slash}NON_REM1)*%
X60370000Y-79532500D02*
X60370000Y-76970000D01*
X60370000Y-76970000D02*
X59200000Y-75800000D01*
%TO.N,Net-(U2-SUSP_IND{slash}LOCAL_PWR{slash}NON_REM0)*%
X63807500Y-80470000D02*
X67905000Y-80470000D01*
X67905000Y-80470000D02*
X67975000Y-80400000D01*
%TO.N,Net-(U2-HS_IND{slash}CFG_SEL1)*%
X61870000Y-76130000D02*
X62200000Y-75800000D01*
X61870000Y-79532500D02*
X61870000Y-76130000D01*
%TO.N,Net-(U2-PRTPWR1{slash}BC_EN1)*%
X57932500Y-83470000D02*
X54555000Y-83470000D01*
X54555000Y-83470000D02*
X54125000Y-83900000D01*
%TO.N,Net-(U2-PRTPWR2{slash}BC_EN2)*%
X54695000Y-81470000D02*
X54125000Y-80900000D01*
X57932500Y-81470000D02*
X54695000Y-81470000D01*
%TO.N,Net-(U2-PRTPWR3{slash}BC_EN3)*%
X57932500Y-80470000D02*
X55195000Y-80470000D01*
X55195000Y-80470000D02*
X54125000Y-79400000D01*
%TO.N,Net-(U2-PRTPWR4{slash}BC_EN4)*%
X59370000Y-79532500D02*
X59370000Y-77495000D01*
X59370000Y-77495000D02*
X57700000Y-75825000D01*
D66*
%TO.N,/CM4HighSpeed/RCAM1_D0_P*%
X74410000Y-45378702D02*
X75985000Y-46953702D01*
X75700000Y-49909999D02*
X75700000Y-50390000D01*
X75985000Y-49624999D02*
X75700000Y-49909999D01*
X74350000Y-43925001D02*
X74410000Y-43985001D01*
X74350000Y-42950000D02*
X74350000Y-43925001D01*
X75985000Y-46953702D02*
X75985000Y-49624999D01*
X74410000Y-43985001D02*
X74410000Y-45378702D01*
%TO.N,/CM4HighSpeed/RCAM1_D0_N*%
X74850000Y-42950000D02*
X74850000Y-43925001D01*
X76650000Y-49909999D02*
X76650000Y-50390000D01*
X76365000Y-49624999D02*
X76650000Y-49909999D01*
X74790000Y-45221298D02*
X76365000Y-46796298D01*
X74790000Y-43985001D02*
X74790000Y-45221298D01*
X74850000Y-43925001D02*
X74790000Y-43985001D01*
X76365000Y-46796298D02*
X76365000Y-49624999D01*
%TO.N,/CM4HighSpeed/RCAM1_D1_N*%
X74630000Y-50390000D02*
X74630000Y-49909999D01*
X74330000Y-49609999D02*
X74330000Y-47361298D01*
X73350000Y-43925001D02*
X73350000Y-42950000D01*
X74630000Y-49909999D02*
X74330000Y-49609999D01*
X73290000Y-43985001D02*
X73350000Y-43925001D01*
X73290000Y-46321298D02*
X73290000Y-43985001D01*
X74330000Y-47361298D02*
X73290000Y-46321298D01*
%TO.N,/CM4HighSpeed/RCAM1_D2_P*%
X69860000Y-46600000D02*
X69860000Y-43750000D01*
X69700000Y-50090000D02*
X69700000Y-46760000D01*
X69860000Y-43750000D02*
X69850000Y-43740000D01*
X69400000Y-50390000D02*
X69700000Y-50090000D01*
X69700000Y-46760000D02*
X69860000Y-46600000D01*
X69850000Y-43740000D02*
X69850000Y-42950000D01*
%TO.N,/CM4HighSpeed/RCAM1_D3_P*%
X67535000Y-48396298D02*
X68389996Y-47541302D01*
X68389996Y-47541302D02*
X68389996Y-43104582D01*
X68410000Y-43010000D02*
X68350000Y-42950000D01*
X67250000Y-50390000D02*
X67250000Y-49909999D01*
X68410000Y-43084578D02*
X68410000Y-43010000D01*
X67535000Y-49624999D02*
X67535000Y-48396298D01*
X67250000Y-49909999D02*
X67535000Y-49624999D01*
X68389996Y-43104582D02*
X68410000Y-43084578D01*
%TO.N,/CM4HighSpeed/RCAM1_CK_N*%
X72550000Y-50390000D02*
X72550000Y-49909999D01*
X71730001Y-46611299D02*
X71730001Y-43069999D01*
X72265000Y-49624999D02*
X72265000Y-47146298D01*
X72550000Y-49909999D02*
X72265000Y-49624999D01*
X71730001Y-43069999D02*
X71850000Y-42950000D01*
X72265000Y-47146298D02*
X71730001Y-46611299D01*
%TO.N,/CM4HighSpeed/RCAM1_CK_P*%
X71350000Y-46768702D02*
X71350000Y-42950000D01*
X71885000Y-47303702D02*
X71350000Y-46768702D01*
X71600000Y-50390000D02*
X71600000Y-49909999D01*
X71600000Y-49909999D02*
X71885000Y-49624999D01*
X71885000Y-49624999D02*
X71885000Y-47303702D01*
%TO.N,/CM4HighSpeed/RCAM1_D2_N*%
X70100000Y-47100000D02*
X70350000Y-46850000D01*
X70350000Y-49909999D02*
X70100000Y-49659999D01*
X70350000Y-46850000D02*
X70350000Y-42950000D01*
X70100000Y-49659999D02*
X70100000Y-47100000D01*
X70350000Y-50390000D02*
X70350000Y-49909999D01*
%TO.N,/CM4HighSpeed/RCAM1_D3_N*%
X68200000Y-50390000D02*
X68200000Y-49909999D01*
X67915000Y-48553702D02*
X68769996Y-47698706D01*
X68790000Y-43010000D02*
X68850000Y-42950000D01*
X68790000Y-43229996D02*
X68790000Y-43010000D01*
X68769996Y-47698706D02*
X68769996Y-43250000D01*
X67915000Y-49624999D02*
X67915000Y-48553702D01*
X68769996Y-43250000D02*
X68790000Y-43229996D01*
X68200000Y-49909999D02*
X67915000Y-49624999D01*
%TO.N,/CM4HighSpeed/RCAM1_D1_P*%
X73650000Y-50390000D02*
X73650000Y-49909999D01*
X72910000Y-43985001D02*
X72850000Y-43925001D01*
X72910000Y-46478702D02*
X72910000Y-43985001D01*
X73650000Y-49909999D02*
X73950000Y-49609999D01*
X72850000Y-43925001D02*
X72850000Y-42950000D01*
X73950000Y-47518702D02*
X72910000Y-46478702D01*
X73950000Y-49609999D02*
X73950000Y-47518702D01*
D65*
%TO.N,/M2USB_N*%
X110874000Y-69760000D02*
X110430000Y-70204000D01*
X110430000Y-70204000D02*
X108322956Y-70204000D01*
X66356000Y-93552956D02*
X64457044Y-91654000D01*
X63067044Y-91654000D02*
X62851000Y-91437956D01*
X85124000Y-79162956D02*
X85124000Y-94802956D01*
X62851000Y-91437956D02*
X62851000Y-91044000D01*
X110924000Y-69760000D02*
X110874000Y-69760000D01*
X108322956Y-70204000D02*
X104242956Y-74284000D01*
X67287044Y-97544000D02*
X66356000Y-96612956D01*
X64457044Y-91654000D02*
X63067044Y-91654000D01*
X82382956Y-97544000D02*
X67287044Y-97544000D01*
X104242956Y-74284000D02*
X90002956Y-74284000D01*
X62851000Y-91044000D02*
X63100000Y-90795000D01*
X90002956Y-74284000D02*
X85124000Y-79162956D01*
X85124000Y-94802956D02*
X82382956Y-97544000D01*
X66356000Y-96612956D02*
X66356000Y-93552956D01*
X63100000Y-90795000D02*
X63100000Y-90670000D01*
%TO.N,/M2USB_P*%
X62479000Y-91592044D02*
X62479000Y-91044000D01*
X110924000Y-70870000D02*
X110874000Y-70870000D01*
X62230000Y-90795000D02*
X62230000Y-90670000D01*
X85496000Y-94957044D02*
X82537044Y-97916000D01*
X62479000Y-91044000D02*
X62230000Y-90795000D01*
X62912956Y-92026000D02*
X62479000Y-91592044D01*
X104397044Y-74656000D02*
X90157044Y-74656000D01*
X65984000Y-93707044D02*
X64302956Y-92026000D01*
X85496000Y-79317044D02*
X85496000Y-94957044D01*
X82537044Y-97916000D02*
X67132956Y-97916000D01*
X110580000Y-70576000D02*
X108477044Y-70576000D01*
X108477044Y-70576000D02*
X104397044Y-74656000D01*
X90157044Y-74656000D02*
X85496000Y-79317044D01*
X64302956Y-92026000D02*
X62912956Y-92026000D01*
X65984000Y-96767044D02*
X65984000Y-93707044D01*
X110874000Y-70870000D02*
X110580000Y-70576000D01*
X67132956Y-97916000D02*
X65984000Y-96767044D01*
%TD*%
M02*
