G04 Filename: ant1.gbo*
G04 FileFunction: Legend,Bot*
G04 Part: Single*
G04 ProjectId: ant1,DF8E9236BDC58112A73720D8EB9DEF0D,1*
G04 GenerationSoftware: MathWorks,MATLAB,23.2.0.2485118 (R2023b) Update 6*
G04 CreationDate: 2024-12-05T00:59:90+0000*
%FSLAX16Y16*%
%MOIN*%
%ADD12C,0.004*%  G04 Design info boundary*
D12*
G01*
%LPD*%
X-0129921Y-0189008D02*
X0129921D01*
G36*
X-0071965Y-0219130D02*
X-0072079D01*
X-0072194Y-0219015D01*
X-0072308D01*
X-0072422D01*
X-0072537Y-0218901D01*
X-0072651D01*
X-0072765Y-0218787D01*
X-0072880D01*
X-0072994Y-0218672D01*
X-0073108D01*
X-0073223D01*
X-0073337Y-0218558D01*
X-0073451D01*
X-0073566Y-0218444D01*
X-0073680D01*
X-0073794D01*
X-0073908Y-0218329D01*
X-0074023D01*
X-0074137Y-0218215D01*
X-0074251D01*
X-0074366D01*
X-0074480Y-0218101D01*
X-0074594D01*
X-0074709Y-0217986D01*
X-0074823D01*
X-0074937Y-0217872D01*
X-0075052D01*
X-0075166D01*
X-0075280Y-0217758D01*
X-0075395D01*
X-0075509Y-0217643D01*
X-0075623D01*
X-0075737D01*
X-0075852Y-0217529D01*
X-0075966D01*
X-0076080Y-0217415D01*
X-0076195D01*
X-0076309Y-0217301D01*
X-0076423D01*
X-0076538D01*
X-0076652Y-0217186D01*
X-0076766D01*
X-0076881Y-0217072D01*
X-0076995D01*
X-0077109D01*
X-0077224Y-0216958D01*
X-0077338D01*
X-0077452Y-0216843D01*
X-0077566D01*
X-0077681D01*
X-0077795Y-0216729D01*
X-0077909D01*
X-0078024Y-0216615D01*
X-0078138D01*
X-0078252D01*
X-0078367Y-0216500D01*
X-0078481D01*
X-0078595Y-0216386D01*
X-0078710D01*
X-0078824Y-0216272D01*
X-0078938D01*
X-0079052D01*
X-0079167Y-0216157D01*
X-0079281D01*
X-0079395Y-0216043D01*
X-0079510D01*
X-0079624D01*
X-0079738Y-0215929D01*
X-0079853D01*
X-0079967Y-0215814D01*
X-0080081D01*
X-0080196Y-0215700D01*
X-0080310D01*
X-0080424D01*
X-0080539Y-0215586D01*
X-0080653D01*
X-0080767D01*
X-0080881Y-0215472D01*
X-0080996D01*
X-0081110Y-0215357D01*
X-0081224D01*
X-0081339Y-0215243D01*
X-0081453D01*
X-0081567Y-0215129D01*
X-0081682D01*
X-0081796D01*
X-0081910Y-0215014D01*
X-0082025D01*
X-0082139Y-0214900D01*
X-0082253D01*
X-0082368D01*
X-0082482Y-0214786D01*
X-0082596D01*
X-0082710Y-0214671D01*
X-0082825D01*
X-0082939Y-0214557D01*
X-0083053D01*
X-0083168D01*
X-0083282Y-0214443D01*
X-0083396D01*
X-0083511Y-0214328D01*
X-0083625D01*
X-0083739D01*
X-0083854Y-0214214D01*
X-0083968D01*
X-0084082Y-0214100D01*
X-0084197D01*
X-0084311D01*
X-0084425Y-0213985D01*
X-0084539D01*
X-0084654Y-0213871D01*
X-0084768D01*
X-0084882D01*
X-0084997Y-0213757D01*
X-0085111D01*
X-0085225Y-0213643D01*
X-0085340D01*
X-0085454Y-0213528D01*
X-0085568D01*
X-0085683Y-0213414D01*
X-0085797D01*
X-0085911D01*
X-0086026Y-0213300D01*
X-0086140D01*
X-0086254D01*
X-0086368Y-0213185D01*
X-0086483D01*
X-0086597Y-0213071D01*
X-0086711D01*
X-0086826Y-0212957D01*
X-0086940D01*
X-0087054D01*
X-0087169Y-0212842D01*
X-0087283D01*
X-0087397Y-0212728D01*
X-0087512D01*
X-0087626D01*
X-0087740Y-0212614D01*
X-0087855D01*
X-0087969Y-0212499D01*
Y-0212385D01*
X-0088083Y-0212271D01*
X-0088197Y-0212156D01*
X-0088312Y-0212042D01*
X-0088426Y-0211928D01*
Y-0211814D01*
X-0088540Y-0211699D01*
X-0088655Y-0211585D01*
X-0088769Y-0211471D01*
Y-0211356D01*
X-0088883Y-0211242D01*
X-0088998Y-0211128D01*
X-0089112Y-0211013D01*
X-0089226Y-0210899D01*
Y-0210785D01*
X-0089341Y-0210670D01*
X-0089455Y-0210556D01*
X-0089569Y-0210442D01*
X-0089683Y-0210327D01*
Y-0210213D01*
X-0089798Y-0210099D01*
X-0089912Y-0209985D01*
X-0090026Y-0209870D01*
X-0090141Y-0209756D01*
X-0090255Y-0209642D01*
Y-0209527D01*
X-0090369Y-0209413D01*
X-0090484Y-0209299D01*
X-0090598Y-0209184D01*
X-0090712Y-0209070D01*
X-0090827Y-0208956D01*
X-0090941Y-0208841D01*
X-0091055Y-0208727D01*
X-0091170Y-0208613D01*
Y-0208499D01*
X-0091284Y-0208384D01*
X-0091398Y-0208270D01*
X-0091512Y-0208156D01*
X-0091627Y-0208041D01*
X-0091741Y-0207927D01*
X-0091855Y-0207813D01*
X-0091970Y-0207698D01*
X-0092084Y-0207584D01*
X-0092198Y-0207470D01*
X-0092313Y-0207355D01*
X-0092427Y-0207241D01*
X-0092541Y-0207127D01*
X-0092656D01*
X-0092770Y-0207012D01*
X-0092884Y-0206898D01*
X-0092999Y-0206784D01*
X-0093113Y-0206670D01*
X-0093227D01*
X-0093341Y-0206555D01*
X-0093456Y-0206441D01*
X-0093570Y-0206327D01*
X-0093684D01*
X-0093799Y-0206212D01*
X-0093913D01*
X-0094027Y-0206098D01*
X-0094142D01*
X-0094256Y-0205984D01*
X-0094370D01*
X-0094485Y-0205869D01*
X-0094599D01*
X-0094713Y-0205755D01*
X-0094828D01*
X-0094942D01*
X-0095056D01*
X-0095170Y-0205641D01*
X-0095285D01*
X-0095399D01*
X-0095513Y-0205526D01*
X-0095628D01*
X-0095742D01*
X-0095856Y-0205412D01*
X-0095971D01*
X-0096085D01*
X-0096199Y-0205298D01*
X-0096314D01*
X-0096428Y-0205183D01*
X-0096542D01*
X-0096657D01*
X-0096771Y-0205069D01*
X-0096885D01*
X-0096999Y-0204955D01*
X-0097114D01*
X-0097228Y-0204841D01*
X-0097342D01*
X-0097457Y-0204726D01*
X-0097571D01*
X-0097685Y-0204612D01*
X-0097800Y-0204498D01*
X-0097914D01*
X-0098028Y-0204383D01*
X-0098143D01*
X-0098257Y-0204269D01*
X-0098371Y-0204155D01*
X-0098486D01*
X-0098600Y-0204040D01*
X-0098714Y-0203926D01*
X-0098828Y-0203812D01*
X-0098943D01*
X-0099057Y-0203697D01*
X-0099171Y-0203583D01*
X-0099286Y-0203469D01*
X-0099400Y-0203354D01*
X-0099514Y-0203240D01*
X-0099629D01*
X-0099743Y-0203126D01*
X-0099857Y-0203012D01*
X-0099972Y-0202897D01*
X-0100086Y-0202783D01*
X-0100200Y-0202669D01*
X-0100314Y-0202554D01*
X-0100429Y-0202440D01*
X-0100543Y-0202326D01*
X-0100657Y-0202211D01*
X-0100772Y-0202097D01*
X-0100886Y-0201983D01*
X-0101000Y-0201868D01*
X-0101115Y-0201754D01*
X-0101229Y-0201640D01*
Y-0201525D01*
X-0101343Y-0201411D01*
X-0101458Y-0201297D01*
X-0101572Y-0201183D01*
X-0101686Y-0201068D01*
X-0101801Y-0200954D01*
X-0101915Y-0200840D01*
Y-0200725D01*
X-0102029Y-0200611D01*
X-0102143Y-0200497D01*
X-0102258Y-0200382D01*
Y-0200268D01*
X-0102372Y-0200154D01*
X-0102486Y-0200039D01*
X-0102601Y-0199925D01*
Y-0199811D01*
X-0102715Y-0199696D01*
X-0102829Y-0199582D01*
Y-0199468D01*
X-0102944Y-0199354D01*
X-0103058Y-0199239D01*
Y-0199125D01*
X-0103172Y-0199011D01*
X-0103287Y-0198896D01*
X-0103401Y-0198782D01*
Y-0198668D01*
X-0103515Y-0198553D01*
X-0103630Y-0198439D01*
Y-0198325D01*
X-0103744Y-0198210D01*
X-0103858Y-0198096D01*
Y-0197982D01*
X-0103972Y-0197867D01*
Y-0197753D01*
X-0104087Y-0197639D01*
X-0104201Y-0197525D01*
Y-0197410D01*
X-0104315Y-0197296D01*
Y-0197182D01*
X-0104430Y-0197067D01*
X-0104544Y-0196953D01*
Y-0196839D01*
X-0104658Y-0196724D01*
X-0104773Y-0196610D01*
Y-0196496D01*
X-0104887Y-0196381D01*
Y-0196267D01*
X-0105001Y-0196153D01*
X-0105116Y-0196039D01*
Y-0195924D01*
X-0105230Y-0195810D01*
Y-0195696D01*
X-0105344Y-0195581D01*
X-0105459Y-0195467D01*
Y-0195353D01*
X-0105573Y-0195238D01*
Y-0195124D01*
X-0105687Y-0195010D01*
X-0105801Y-0194895D01*
Y-0194781D01*
X-0105916Y-0194667D01*
Y-0194552D01*
X-0106030Y-0194438D01*
X-0106144Y-0194324D01*
Y-0194210D01*
X-0106259Y-0194095D01*
Y-0193981D01*
X-0106373Y-0193867D01*
X-0106487Y-0193752D01*
Y-0193638D01*
X-0106602Y-0193524D01*
X-0106716Y-0193409D01*
Y-0193295D01*
X-0106830Y-0193181D01*
X-0106945Y-0193066D01*
Y-0192952D01*
X-0107059Y-0192838D01*
X-0107173Y-0192723D01*
Y-0192609D01*
X-0107288Y-0192495D01*
X-0107402Y-0192381D01*
X-0107516Y-0192266D01*
Y-0192152D01*
X-0107630Y-0192038D01*
X-0107745Y-0191923D01*
X-0107859Y-0191809D01*
X-0107973Y-0191695D01*
Y-0191580D01*
X-0108088Y-0191466D01*
X-0108202Y-0191352D01*
X-0108316Y-0191237D01*
X-0108431Y-0191123D01*
X-0108545Y-0191009D01*
X-0108659Y-0190894D01*
X-0108774Y-0190780D01*
X-0108888D01*
X-0109002Y-0190666D01*
X-0109117Y-0190552D01*
X-0109231D01*
X-0109345Y-0190437D01*
X-0109459Y-0190323D01*
X-0109574D01*
X-0109688Y-0190209D01*
X-0109802D01*
X-0109917Y-0190094D01*
X-0110031D01*
X-0110145D01*
X-0110260Y-0189980D01*
X-0110374D01*
X-0110488D01*
X-0110603D01*
X-0110717D01*
X-0110831D01*
X-0110945Y-0190094D01*
X-0111060D01*
X-0111174Y-0190209D01*
X-0111288D01*
X-0111403Y-0190323D01*
X-0111517D01*
X-0111631Y-0190437D01*
X-0111746D01*
X-0111860Y-0190552D01*
X-0111974Y-0190666D01*
X-0112089Y-0190780D01*
X-0112203Y-0190894D01*
X-0112317Y-0191009D01*
X-0112432Y-0191123D01*
X-0112546Y-0191237D01*
X-0112660Y-0191352D01*
X-0112774Y-0191466D01*
Y-0191580D01*
X-0112889Y-0191695D01*
X-0113003Y-0191809D01*
X-0113117Y-0191923D01*
Y-0192038D01*
X-0113232Y-0192152D01*
X-0113346Y-0192266D01*
Y-0192381D01*
X-0113460Y-0192495D01*
X-0113575Y-0192609D01*
Y-0192723D01*
X-0113689Y-0192838D01*
X-0113803Y-0192952D01*
Y-0193066D01*
X-0113918Y-0193181D01*
Y-0193295D01*
X-0114032Y-0193409D01*
X-0114146Y-0193524D01*
Y-0193638D01*
X-0114261Y-0193752D01*
Y-0193867D01*
X-0114375Y-0193981D01*
Y-0194095D01*
X-0114489Y-0194210D01*
X-0114603Y-0194324D01*
Y-0194438D01*
X-0114718Y-0194552D01*
Y-0194667D01*
X-0114832Y-0194781D01*
Y-0194895D01*
X-0114946Y-0195010D01*
Y-0195124D01*
X-0115061Y-0195238D01*
Y-0195353D01*
X-0115175Y-0195467D01*
Y-0195581D01*
X-0115289Y-0195696D01*
Y-0195810D01*
X-0115404Y-0195924D01*
Y-0196039D01*
X-0115518Y-0196153D01*
Y-0196267D01*
X-0115632Y-0196381D01*
Y-0196496D01*
Y-0196610D01*
X-0115747Y-0196724D01*
Y-0196839D01*
X-0115861Y-0196953D01*
Y-0197067D01*
X-0115975Y-0197182D01*
Y-0197296D01*
X-0116090Y-0197410D01*
Y-0197525D01*
X-0116204Y-0197639D01*
Y-0197753D01*
Y-0197867D01*
X-0116318Y-0197982D01*
Y-0198096D01*
X-0116432Y-0198210D01*
Y-0198325D01*
X-0116547Y-0198439D01*
Y-0198553D01*
X-0116661Y-0198668D01*
Y-0198782D01*
Y-0198896D01*
X-0116775Y-0199011D01*
Y-0199125D01*
X-0116890Y-0199239D01*
Y-0199354D01*
Y-0199468D01*
X-0117004Y-0199582D01*
Y-0199696D01*
X-0117118Y-0199811D01*
Y-0199925D01*
X-0117233Y-0200039D01*
Y-0200154D01*
Y-0200268D01*
X-0117347Y-0200382D01*
Y-0200497D01*
X-0117461Y-0200611D01*
Y-0200725D01*
Y-0200840D01*
X-0117576Y-0200954D01*
Y-0201068D01*
X-0117690Y-0201183D01*
Y-0201297D01*
Y-0201411D01*
X-0117804Y-0201525D01*
Y-0201640D01*
Y-0201754D01*
X-0117919Y-0201868D01*
Y-0201983D01*
X-0118033Y-0202097D01*
Y-0202211D01*
Y-0202326D01*
X-0118147Y-0202440D01*
Y-0202554D01*
X-0118261Y-0202669D01*
Y-0202783D01*
Y-0202897D01*
X-0118376Y-0203012D01*
Y-0203126D01*
X-0118490Y-0203240D01*
Y-0203354D01*
Y-0203469D01*
X-0118604Y-0203583D01*
Y-0203697D01*
Y-0203812D01*
X-0118719Y-0203926D01*
Y-0204040D01*
X-0118833Y-0204155D01*
Y-0204269D01*
Y-0204383D01*
X-0118947Y-0204498D01*
Y-0204612D01*
Y-0204726D01*
X-0119062Y-0204841D01*
Y-0204955D01*
X-0119176Y-0205069D01*
Y-0205183D01*
Y-0205298D01*
X-0119290Y-0205412D01*
Y-0205526D01*
Y-0205641D01*
X-0119405Y-0205755D01*
Y-0205869D01*
X-0119519Y-0205984D01*
Y-0206098D01*
Y-0206212D01*
X-0119633Y-0206327D01*
Y-0206441D01*
Y-0206555D01*
X-0119748Y-0206670D01*
Y-0206784D01*
X-0119862Y-0206898D01*
Y-0207012D01*
Y-0207127D01*
X-0119976Y-0207241D01*
Y-0207355D01*
Y-0207470D01*
X-0120090Y-0207584D01*
Y-0207698D01*
Y-0207813D01*
X-0120205Y-0207927D01*
Y-0208041D01*
Y-0208156D01*
X-0120319Y-0208270D01*
Y-0208384D01*
X-0120433Y-0208499D01*
Y-0208613D01*
Y-0208727D01*
X-0120548Y-0208841D01*
Y-0208956D01*
Y-0209070D01*
X-0120662Y-0209184D01*
Y-0209299D01*
Y-0209413D01*
X-0120776Y-0209527D01*
Y-0209642D01*
X-0120891Y-0209756D01*
Y-0209870D01*
Y-0209985D01*
X-0121005Y-0210099D01*
Y-0210213D01*
Y-0210327D01*
X-0121119Y-0210442D01*
Y-0210556D01*
Y-0210670D01*
X-0121234Y-0210785D01*
Y-0210899D01*
Y-0211013D01*
X-0121348Y-0211128D01*
Y-0211242D01*
X-0121462Y-0211356D01*
Y-0211471D01*
Y-0211585D01*
X-0121576Y-0211699D01*
Y-0211814D01*
Y-0211928D01*
X-0121691Y-0212042D01*
Y-0212156D01*
Y-0212271D01*
X-0121805Y-0212385D01*
Y-0212499D01*
Y-0212614D01*
X-0121919Y-0212728D01*
Y-0212842D01*
Y-0212957D01*
X-0122034Y-0213071D01*
Y-0213185D01*
X-0122148Y-0213300D01*
Y-0213414D01*
Y-0213528D01*
X-0122262Y-0213643D01*
Y-0213757D01*
Y-0213871D01*
X-0122377Y-0213985D01*
Y-0214100D01*
Y-0214214D01*
X-0122491Y-0214328D01*
Y-0214443D01*
Y-0214557D01*
X-0122605Y-0214671D01*
Y-0214786D01*
Y-0214900D01*
X-0122720Y-0215014D01*
Y-0215129D01*
X-0122834Y-0215243D01*
Y-0215357D01*
Y-0215472D01*
X-0122948Y-0215586D01*
Y-0215700D01*
Y-0215814D01*
X-0123063Y-0215929D01*
Y-0216043D01*
Y-0216157D01*
X-0123177Y-0216272D01*
Y-0216386D01*
Y-0216500D01*
X-0123291Y-0216615D01*
Y-0216729D01*
Y-0216843D01*
X-0123405Y-0216958D01*
Y-0217072D01*
X-0123520Y-0217186D01*
Y-0217301D01*
Y-0217415D01*
X-0123634Y-0217529D01*
Y-0217643D01*
Y-0217758D01*
X-0123748Y-0217872D01*
Y-0217986D01*
Y-0218101D01*
X-0123863Y-0218215D01*
Y-0218329D01*
Y-0218444D01*
X-0123977Y-0218558D01*
Y-0218672D01*
Y-0218787D01*
X-0124091Y-0218901D01*
Y-0219015D01*
X-0124206Y-0219130D01*
Y-0219244D01*
Y-0219358D01*
X-0124320Y-0219472D01*
Y-0219587D01*
Y-0219701D01*
X-0124434Y-0219815D01*
Y-0219930D01*
Y-0220044D01*
X-0124549Y-0220158D01*
Y-0220273D01*
Y-0220387D01*
X-0124663Y-0220501D01*
Y-0220616D01*
X-0124777Y-0220730D01*
Y-0220844D01*
Y-0220958D01*
X-0124892Y-0221073D01*
Y-0221187D01*
Y-0221301D01*
X-0125006Y-0221416D01*
Y-0221530D01*
Y-0221644D01*
X-0125120Y-0221759D01*
Y-0221873D01*
X-0125234Y-0221987D01*
Y-0222102D01*
Y-0222216D01*
X-0125349Y-0222330D01*
Y-0222445D01*
Y-0222559D01*
X-0125463Y-0222673D01*
Y-0222787D01*
Y-0222902D01*
X-0125577Y-0223016D01*
Y-0223130D01*
X-0125692Y-0223245D01*
Y-0223359D01*
Y-0223473D01*
X-0125806Y-0223588D01*
Y-0223702D01*
Y-0223816D01*
X-0125920Y-0223931D01*
Y-0224045D01*
Y-0224159D01*
X-0126035Y-0224274D01*
Y-0224388D01*
X-0126149Y-0224502D01*
Y-0224616D01*
Y-0224731D01*
X-0126263Y-0224845D01*
Y-0224959D01*
Y-0225074D01*
X-0126378Y-0225188D01*
Y-0225302D01*
X-0126492Y-0225417D01*
Y-0225531D01*
Y-0225645D01*
X-0126606Y-0225760D01*
Y-0225874D01*
Y-0225988D01*
X-0126721Y-0226103D01*
Y-0226217D01*
X-0126835Y-0226331D01*
Y-0226445D01*
Y-0226560D01*
X-0126949Y-0226674D01*
Y-0226788D01*
X-0127063Y-0226903D01*
Y-0227017D01*
Y-0227131D01*
X-0127178Y-0227246D01*
Y-0227360D01*
Y-0227474D01*
X-0127292Y-0227589D01*
Y-0227703D01*
X-0127406Y-0227817D01*
Y-0227932D01*
Y-0228046D01*
X-0127521Y-0228160D01*
Y-0228274D01*
X-0127635Y-0228389D01*
Y-0228503D01*
Y-0228617D01*
X-0127749Y-0228732D01*
Y-0228846D01*
X-0127864Y-0228960D01*
Y-0229075D01*
Y-0229189D01*
X-0127978Y-0229303D01*
Y-0229418D01*
X-0128092Y-0229532D01*
Y-0229646D01*
Y-0229761D01*
X-0128207Y-0229875D01*
Y-0229989D01*
X-0128321Y-0230103D01*
Y-0230218D01*
Y-0230332D01*
X-0128435Y-0230446D01*
Y-0230561D01*
X-0128550Y-0230675D01*
Y-0230789D01*
Y-0230904D01*
X-0128664Y-0231018D01*
Y-0231132D01*
X-0128778Y-0231247D01*
Y-0231361D01*
X-0128892Y-0231475D01*
Y-0231589D01*
Y-0231704D01*
X-0129007Y-0231818D01*
Y-0231932D01*
X-0129121Y-0232047D01*
Y-0232161D01*
X-0129235Y-0232275D01*
Y-0232390D01*
Y-0232504D01*
X-0129350Y-0232618D01*
Y-0232733D01*
X-0129464Y-0232847D01*
Y-0232961D01*
X-0129578Y-0233076D01*
Y-0233190D01*
Y-0233304D01*
X-0129693Y-0233418D01*
Y-0233533D01*
X-0129807Y-0233647D01*
Y-0233761D01*
X-0129921Y-0233876D01*
X-0129807Y-0233761D01*
X-0129693Y-0233647D01*
X-0129578D01*
X-0129464Y-0233533D01*
X-0129350Y-0233418D01*
X-0129235Y-0233304D01*
X-0129121D01*
X-0129007Y-0233190D01*
X-0128892Y-0233076D01*
X-0128778D01*
X-0128664Y-0232961D01*
X-0128550Y-0232847D01*
X-0128435Y-0232733D01*
X-0128321D01*
X-0128207Y-0232618D01*
X-0128092Y-0232504D01*
X-0127978Y-0232390D01*
X-0127864D01*
X-0127749Y-0232275D01*
X-0127635Y-0232161D01*
X-0127521Y-0232047D01*
X-0127406Y-0231932D01*
X-0127292Y-0231818D01*
X-0127178D01*
X-0127063Y-0231704D01*
X-0126949Y-0231589D01*
X-0126835Y-0231475D01*
X-0126721Y-0231361D01*
X-0126606Y-0231247D01*
X-0126492Y-0231132D01*
X-0126378Y-0231018D01*
X-0126263D01*
Y-0230904D01*
X-0126149Y-0230789D01*
X-0126035D01*
X-0125920Y-0230675D01*
X-0125806Y-0230561D01*
X-0125692Y-0230446D01*
X-0125577Y-0230332D01*
X-0125463Y-0230218D01*
X-0125349Y-0230103D01*
X-0125234Y-0229989D01*
X-0125120Y-0229875D01*
X-0125006Y-0229761D01*
X-0124892Y-0229646D01*
X-0124777Y-0229532D01*
X-0124663Y-0229418D01*
X-0124549Y-0229303D01*
X-0124434Y-0229189D01*
X-0124320Y-0229075D01*
X-0124206Y-0228960D01*
X-0124091Y-0228846D01*
X-0123977Y-0228732D01*
X-0123863Y-0228617D01*
X-0123748Y-0228503D01*
X-0123634Y-0228389D01*
X-0123520Y-0228274D01*
X-0123405Y-0228160D01*
X-0123291D01*
X-0123177Y-0228046D01*
X-0123063Y-0227932D01*
X-0122948Y-0227817D01*
X-0122834Y-0227703D01*
X-0122720Y-0227589D01*
X-0122605Y-0227474D01*
X-0122491D01*
X-0122377Y-0227360D01*
X-0122262Y-0227246D01*
X-0122148D01*
X-0122034Y-0227131D01*
X-0121919Y-0227017D01*
X-0121805D01*
X-0121691Y-0226903D01*
X-0121576Y-0226788D01*
X-0121462D01*
X-0121348Y-0226674D01*
X-0121234D01*
X-0121119Y-0226560D01*
X-0121005D01*
X-0120891Y-0226445D01*
X-0120776D01*
X-0120662D01*
X-0120548Y-0226331D01*
X-0120433D01*
X-0120319D01*
X-0120205Y-0226217D01*
X-0120090D01*
X-0119976D01*
X-0119862D01*
X-0119748Y-0226103D01*
X-0119633D01*
X-0119519D01*
X-0119405D01*
X-0119290D01*
X-0119176D01*
X-0119062D01*
X-0118947D01*
X-0118833D01*
X-0118719Y-0225988D01*
X-0118604D01*
X-0118490D01*
X-0118376D01*
X-0118261D01*
X-0118147D01*
X-0118033Y-0226103D01*
X-0117919D01*
X-0117804D01*
X-0117690D01*
X-0117576D01*
X-0117461D01*
X-0117347D01*
X-0117233D01*
X-0117118D01*
X-0117004D01*
X-0116890Y-0226217D01*
X-0116775D01*
X-0116661D01*
X-0116547D01*
X-0116432D01*
X-0116318Y-0226331D01*
X-0116204D01*
X-0116090D01*
X-0115975Y-0226445D01*
X-0115861D01*
X-0115747Y-0226560D01*
X-0115632D01*
X-0115518D01*
X-0115404Y-0226674D01*
X-0115289Y-0226788D01*
X-0115175D01*
X-0115061Y-0226903D01*
X-0114946D01*
X-0114832Y-0227017D01*
X-0114718Y-0227131D01*
X-0114603Y-0227246D01*
X-0114489D01*
X-0114375Y-0227360D01*
X-0114261Y-0227474D01*
X-0114146Y-0227589D01*
X-0114032D01*
X-0113918Y-0227703D01*
X-0113803Y-0227817D01*
X-0113689Y-0227932D01*
X-0113575Y-0228046D01*
X-0113460Y-0228160D01*
X-0113346Y-0228274D01*
X-0113232Y-0228389D01*
X-0113117Y-0228503D01*
X-0113003Y-0228617D01*
X-0112889Y-0228732D01*
X-0112774Y-0228846D01*
X-0112660Y-0228960D01*
X-0112546Y-0229075D01*
X-0112432Y-0229189D01*
X-0112317Y-0229303D01*
X-0112203Y-0229418D01*
X-0112089Y-0229532D01*
X-0111974Y-0229646D01*
Y-0229761D01*
X-0111860Y-0229875D01*
X-0111746Y-0229989D01*
X-0111631Y-0230103D01*
X-0111517Y-0230218D01*
X-0111403Y-0230332D01*
X-0111288Y-0230446D01*
X-0111174Y-0230561D01*
Y-0230675D01*
X-0111060Y-0230789D01*
X-0110945Y-0230904D01*
X-0110831Y-0231018D01*
X-0110717Y-0231132D01*
X-0110603Y-0231247D01*
X-0110488Y-0231361D01*
Y-0231475D01*
X-0110374Y-0231589D01*
X-0110260Y-0231704D01*
X-0110145Y-0231818D01*
X-0110031Y-0231932D01*
X-0109917Y-0232047D01*
Y-0232161D01*
X-0109802Y-0232275D01*
X-0109688Y-0232390D01*
X-0109574Y-0232504D01*
X-0109459Y-0232618D01*
X-0109345Y-0232733D01*
Y-0232847D01*
X-0109231Y-0232961D01*
X-0109117Y-0233076D01*
X-0109002Y-0233190D01*
X-0108888Y-0233304D01*
X-0108774Y-0233418D01*
Y-0233533D01*
X-0108659Y-0233647D01*
X-0108545Y-0233761D01*
X-0108431Y-0233876D01*
X-0108316Y-0233990D01*
X-0108202Y-0234104D01*
Y-0234219D01*
X-0108088Y-0234333D01*
X-0107973Y-0234447D01*
X-0107859Y-0234562D01*
X-0107745Y-0234676D01*
X-0107630Y-0234790D01*
Y-0234905D01*
X-0107516Y-0235019D01*
X-0107402Y-0235133D01*
X-0107288Y-0235247D01*
X-0107173Y-0235362D01*
X-0107059Y-0235476D01*
X-0106945Y-0235590D01*
X-0106830Y-0235705D01*
Y-0235819D01*
X-0106716Y-0235933D01*
X-0106602Y-0236048D01*
X-0106487Y-0236162D01*
X-0106373Y-0236276D01*
X-0106259Y-0236391D01*
X-0106144Y-0236505D01*
X-0106030Y-0236619D01*
X-0105916Y-0236734D01*
X-0105801Y-0236848D01*
X-0105687Y-0236962D01*
X-0105573Y-0237076D01*
Y-0237191D01*
X-0105459Y-0237305D01*
X-0105344Y-0237419D01*
X-0105230Y-0237534D01*
X-0105116Y-0237648D01*
X-0105001Y-0237762D01*
X-0104887Y-0237877D01*
X-0104773Y-0237991D01*
X-0104658Y-0238105D01*
X-0104544Y-0238220D01*
X-0104430Y-0238334D01*
X-0104315D01*
X-0104201Y-0238448D01*
X-0104087Y-0238563D01*
X-0103972Y-0238677D01*
X-0103858Y-0238791D01*
X-0103744Y-0238905D01*
X-0103630Y-0239020D01*
X-0103515Y-0239134D01*
X-0103401Y-0239248D01*
X-0103287Y-0239363D01*
X-0103172D01*
X-0103058Y-0239477D01*
X-0102944Y-0239591D01*
X-0102829Y-0239706D01*
X-0102715Y-0239820D01*
X-0102601D01*
X-0102486Y-0239934D01*
X-0102372Y-0240049D01*
X-0102258Y-0240163D01*
X-0102143D01*
X-0102029Y-0240277D01*
X-0101915Y-0240392D01*
X-0101801Y-0240506D01*
X-0101686D01*
X-0101572Y-0240620D01*
X-0101458Y-0240734D01*
X-0101343D01*
X-0101229Y-0240849D01*
X-0101115Y-0240963D01*
X-0101000D01*
X-0100886Y-0241077D01*
X-0100772Y-0241192D01*
X-0100657D01*
X-0100543Y-0241306D01*
X-0100429D01*
X-0100314Y-0241420D01*
X-0100200D01*
X-0100086Y-0241535D01*
X-0099972D01*
X-0099857Y-0241649D01*
X-0099743D01*
X-0099629Y-0241763D01*
X-0099514D01*
X-0099400Y-0241878D01*
X-0099286D01*
X-0099171Y-0241992D01*
X-0099057D01*
X-0098943Y-0242106D01*
X-0098828D01*
X-0098714D01*
X-0098600Y-0242220D01*
X-0098486D01*
X-0098371D01*
X-0098257Y-0242335D01*
X-0098143D01*
X-0098028D01*
X-0097914Y-0242449D01*
X-0097800D01*
X-0097685D01*
X-0097571D01*
X-0097457Y-0242563D01*
X-0097342D01*
X-0097228D01*
X-0097114D01*
X-0096999Y-0242678D01*
X-0096885D01*
X-0096771D01*
X-0096657D01*
X-0096542D01*
X-0096428D01*
Y-0242563D01*
Y-0242449D01*
X-0096314Y-0242335D01*
Y-0242220D01*
X-0096199Y-0242106D01*
Y-0241992D01*
Y-0241878D01*
X-0096085Y-0241763D01*
Y-0241649D01*
Y-0241535D01*
X-0095971Y-0241420D01*
Y-0241306D01*
Y-0241192D01*
X-0095856Y-0241077D01*
Y-0240963D01*
X-0095742Y-0240849D01*
Y-0240734D01*
Y-0240620D01*
X-0095628Y-0240506D01*
Y-0240392D01*
Y-0240277D01*
X-0095513Y-0240163D01*
Y-0240049D01*
X-0095399Y-0239934D01*
Y-0239820D01*
Y-0239706D01*
X-0095285Y-0239591D01*
Y-0239477D01*
Y-0239363D01*
X-0095170Y-0239248D01*
Y-0239134D01*
Y-0239020D01*
X-0095056Y-0238905D01*
Y-0238791D01*
X-0094942Y-0238677D01*
Y-0238563D01*
Y-0238448D01*
X-0094828Y-0238334D01*
Y-0238220D01*
Y-0238105D01*
X-0094713Y-0237991D01*
Y-0237877D01*
X-0094599Y-0237762D01*
Y-0237648D01*
Y-0237534D01*
X-0094485Y-0237419D01*
Y-0237305D01*
Y-0237191D01*
X-0094370Y-0237076D01*
Y-0236962D01*
X-0094256Y-0236848D01*
Y-0236734D01*
Y-0236619D01*
X-0094142Y-0236505D01*
Y-0236391D01*
X-0094027Y-0236276D01*
Y-0236162D01*
Y-0236048D01*
X-0093913Y-0235933D01*
Y-0235819D01*
X-0093799Y-0235705D01*
Y-0235590D01*
Y-0235476D01*
X-0093684Y-0235362D01*
Y-0235247D01*
X-0093570Y-0235133D01*
Y-0235019D01*
Y-0234905D01*
X-0093456Y-0234790D01*
Y-0234676D01*
X-0093341Y-0234562D01*
Y-0234447D01*
Y-0234333D01*
X-0093227Y-0234219D01*
Y-0234104D01*
X-0093113Y-0233990D01*
Y-0233876D01*
X-0092999Y-0233761D01*
Y-0233647D01*
X-0092884Y-0233533D01*
Y-0233418D01*
Y-0233304D01*
X-0092770Y-0233190D01*
Y-0233076D01*
X-0092656Y-0232961D01*
Y-0232847D01*
X-0092541Y-0232733D01*
Y-0232618D01*
X-0092427Y-0232504D01*
Y-0232390D01*
Y-0232275D01*
X-0092313Y-0232161D01*
X-0092198Y-0232047D01*
Y-0231932D01*
Y-0231818D01*
X-0092084Y-0231704D01*
X-0091970Y-0231589D01*
Y-0231475D01*
X-0091855Y-0231361D01*
Y-0231247D01*
X-0091741Y-0231132D01*
Y-0231018D01*
X-0091627Y-0230904D01*
Y-0230789D01*
X-0091512Y-0230675D01*
X-0091398Y-0230561D01*
Y-0230446D01*
X-0091284Y-0230332D01*
Y-0230218D01*
X-0091170Y-0230103D01*
X-0091055Y-0229989D01*
Y-0229875D01*
X-0090941Y-0229761D01*
X-0090827Y-0229646D01*
X-0090712Y-0229532D01*
Y-0229418D01*
X-0090598Y-0229303D01*
X-0090484Y-0229189D01*
X-0090369Y-0229075D01*
X-0090255Y-0228960D01*
X-0090141Y-0228846D01*
X-0090026Y-0228732D01*
X-0089912Y-0228617D01*
X-0089798Y-0228503D01*
X-0089683Y-0228389D01*
X-0089569Y-0228274D01*
X-0089455Y-0228160D01*
X-0089341Y-0228046D01*
X-0089226D01*
X-0089112Y-0227932D01*
X-0088998D01*
X-0088883Y-0227817D01*
X-0088769Y-0227703D01*
X-0088655D01*
X-0088540Y-0227589D01*
X-0088426D01*
X-0088312D01*
X-0088197D01*
X-0088083Y-0227474D01*
X-0087969D01*
X-0087855D01*
X-0087740D01*
X-0087626D01*
X-0087512D01*
X-0087397D01*
X-0087283D01*
X-0087169D01*
X-0087054D01*
X-0086940D01*
X-0086826D01*
X-0086711D01*
X-0086597D01*
X-0086483D01*
X-0086368D01*
X-0086254Y-0227589D01*
X-0086140D01*
X-0086026D01*
X-0085911D01*
X-0085797D01*
X-0085683Y-0227703D01*
X-0085568D01*
X-0085454Y-0227817D01*
X-0085340D01*
X-0085225D01*
X-0085111Y-0227932D01*
X-0084997D01*
X-0084882Y-0228046D01*
X-0084768D01*
X-0084654D01*
X-0084539Y-0227932D01*
X-0084425Y-0227817D01*
X-0084311Y-0227703D01*
X-0084197D01*
X-0084082Y-0227589D01*
X-0083968Y-0227474D01*
X-0083854D01*
X-0083739Y-0227360D01*
X-0083625Y-0227246D01*
X-0083511D01*
X-0083396Y-0227131D01*
X-0083282Y-0227017D01*
X-0083168Y-0226903D01*
X-0083053D01*
X-0082939Y-0226788D01*
X-0082825Y-0226674D01*
X-0082710D01*
X-0082596Y-0226560D01*
X-0082482Y-0226445D01*
X-0082368Y-0226331D01*
X-0082253D01*
X-0082139Y-0226217D01*
X-0082025Y-0226103D01*
X-0081910D01*
X-0081796Y-0225988D01*
X-0081682Y-0225874D01*
X-0081567D01*
X-0081453Y-0225760D01*
X-0081339Y-0225645D01*
X-0081224Y-0225531D01*
X-0081110D01*
X-0080996Y-0225417D01*
X-0080881Y-0225302D01*
X-0080767D01*
X-0080653Y-0225188D01*
X-0080539Y-0225074D01*
X-0080424D01*
X-0080310Y-0224959D01*
X-0080196Y-0224845D01*
X-0080081Y-0224731D01*
X-0079967D01*
X-0079853Y-0224616D01*
X-0079738Y-0224502D01*
X-0079624D01*
X-0079510Y-0224388D01*
X-0079395Y-0224274D01*
X-0079281D01*
X-0079167Y-0224159D01*
X-0079052Y-0224045D01*
X-0078938Y-0223931D01*
X-0078824D01*
X-0078710Y-0223816D01*
X-0078595Y-0223702D01*
X-0078481D01*
X-0078367Y-0223588D01*
X-0078252Y-0223473D01*
X-0078138Y-0223359D01*
X-0078024D01*
X-0077909Y-0223245D01*
X-0077795Y-0223130D01*
X-0077681D01*
X-0077566Y-0223016D01*
X-0077452Y-0222902D01*
X-0077338D01*
X-0077224Y-0222787D01*
X-0077109Y-0222673D01*
X-0076995Y-0222559D01*
X-0076881D01*
X-0076766Y-0222445D01*
X-0076652Y-0222330D01*
X-0076538D01*
X-0076423Y-0222216D01*
X-0076309Y-0222102D01*
X-0076195Y-0221987D01*
X-0076080D01*
X-0075966Y-0221873D01*
X-0075852Y-0221759D01*
X-0075737D01*
X-0075623Y-0221644D01*
X-0075509Y-0221530D01*
X-0075395D01*
X-0075280Y-0221416D01*
X-0075166Y-0221301D01*
X-0075052Y-0221187D01*
X-0074937D01*
X-0074823Y-0221073D01*
X-0074709Y-0220958D01*
X-0074594D01*
X-0074480Y-0220844D01*
X-0074366Y-0220730D01*
X-0074251D01*
X-0074137Y-0220616D01*
X-0074023Y-0220501D01*
X-0073908Y-0220387D01*
X-0073794D01*
X-0073680Y-0220273D01*
X-0073566Y-0220158D01*
X-0073451D01*
X-0073337Y-0220044D01*
X-0073223Y-0219930D01*
X-0073108Y-0219815D01*
X-0072994D01*
X-0072880Y-0219701D01*
X-0072765Y-0219587D01*
X-0072651D01*
X-0072537Y-0219472D01*
X-0072422Y-0219358D01*
X-0072308D01*
X-0072194Y-0219244D01*
X-0072079Y-0219130D01*
X-0071965D01*
G37*
%LPC*%
G36*
X-0074709Y-0219358D02*
X-0074823D01*
X-0074937D01*
X-0075052D01*
Y-0219244D01*
X-0075166D01*
X-0075280D01*
Y-0219130D01*
X-0075395D01*
X-0075509D01*
Y-0219015D01*
X-0075623D01*
X-0075737D01*
X-0075852D01*
Y-0218901D01*
X-0075966D01*
X-0076080D01*
Y-0218787D01*
X-0076195D01*
X-0076309D01*
Y-0218672D01*
X-0076423D01*
X-0076538D01*
X-0076652D01*
Y-0218558D01*
X-0076766D01*
X-0076881D01*
Y-0218444D01*
X-0076995D01*
X-0077109D01*
X-0077224D01*
Y-0218329D01*
X-0077338D01*
X-0077452D01*
Y-0218215D01*
X-0077566D01*
X-0077681D01*
X-0077795D01*
Y-0218101D01*
X-0077909D01*
X-0078024D01*
Y-0217986D01*
X-0078138D01*
X-0078252D01*
Y-0217872D01*
X-0078367D01*
X-0078481D01*
X-0078595D01*
Y-0217758D01*
X-0078710D01*
X-0078824D01*
Y-0217643D01*
X-0078938D01*
X-0079052D01*
Y-0217529D01*
X-0079167D01*
X-0079281D01*
X-0079395D01*
Y-0217415D01*
X-0079510D01*
X-0079624D01*
Y-0217301D01*
X-0079738D01*
X-0079853D01*
X-0079967D01*
Y-0217186D01*
X-0080081D01*
X-0080196D01*
Y-0217072D01*
X-0080310D01*
X-0080424D01*
X-0080539D01*
Y-0216958D01*
X-0080653D01*
X-0080767D01*
Y-0216843D01*
X-0080881D01*
X-0080996D01*
Y-0216729D01*
X-0081110D01*
X-0081224D01*
X-0081339D01*
Y-0216615D01*
X-0081453D01*
X-0081567D01*
Y-0216500D01*
X-0081682D01*
X-0081796D01*
X-0081910D01*
Y-0216386D01*
X-0082025D01*
X-0082139D01*
Y-0216272D01*
X-0082253D01*
X-0082368D01*
X-0082482D01*
Y-0216157D01*
X-0082596D01*
X-0082710D01*
Y-0216043D01*
X-0082825D01*
X-0082939D01*
Y-0215929D01*
X-0083053D01*
X-0083168D01*
X-0083282D01*
Y-0215814D01*
X-0083396D01*
X-0083511D01*
Y-0215700D01*
X-0083625D01*
X-0083739D01*
X-0083854D01*
Y-0215586D01*
X-0083968D01*
X-0084082D01*
Y-0215472D01*
X-0084197D01*
X-0084311D01*
X-0084425D01*
Y-0215357D01*
X-0084539D01*
X-0084654D01*
Y-0215243D01*
X-0084768D01*
X-0084882D01*
Y-0215129D01*
X-0084997D01*
X-0085111D01*
X-0085225D01*
Y-0215014D01*
X-0085340D01*
X-0085454D01*
Y-0214900D01*
X-0085568D01*
X-0085683D01*
X-0085797D01*
Y-0214786D01*
X-0085911D01*
X-0086026D01*
Y-0214671D01*
X-0086140D01*
X-0086254D01*
Y-0214557D01*
X-0086368D01*
X-0086483D01*
X-0086597D01*
Y-0214443D01*
X-0086711D01*
X-0086826D01*
Y-0214328D01*
X-0086940D01*
X-0087054D01*
X-0087169D01*
Y-0214214D01*
X-0087283D01*
X-0087397D01*
Y-0214100D01*
X-0087512D01*
X-0087626D01*
X-0087740D01*
Y-0213985D01*
X-0087855D01*
X-0087969D01*
Y-0213871D01*
X-0088083D01*
X-0088197D01*
Y-0213757D01*
X-0088312D01*
X-0088426D01*
Y-0213871D01*
X-0088540D01*
Y-0213985D01*
X-0088655D01*
X-0088769D01*
Y-0214100D01*
X-0088883D01*
Y-0214214D01*
X-0088998D01*
X-0089112D01*
Y-0214328D01*
X-0089226D01*
Y-0214443D01*
X-0089341D01*
Y-0214557D01*
X-0089455D01*
X-0089569D01*
Y-0214671D01*
X-0089683D01*
Y-0214786D01*
X-0089798D01*
Y-0214900D01*
X-0089912D01*
X-0090026D01*
Y-0215014D01*
X-0090141D01*
Y-0215129D01*
X-0090255D01*
Y-0215243D01*
X-0090369D01*
X-0090484D01*
Y-0215357D01*
X-0090598D01*
Y-0215472D01*
X-0090712D01*
Y-0215586D01*
X-0090827D01*
X-0090941D01*
Y-0215700D01*
X-0091055D01*
Y-0215814D01*
X-0091170D01*
Y-0215929D01*
X-0091284D01*
X-0091398D01*
Y-0216043D01*
X-0091512D01*
Y-0216157D01*
X-0091627D01*
Y-0216272D01*
X-0091741D01*
X-0091855D01*
Y-0216386D01*
X-0091970D01*
Y-0216500D01*
X-0092084D01*
Y-0216615D01*
X-0092198D01*
X-0092313D01*
Y-0216729D01*
X-0092427D01*
Y-0216843D01*
X-0092541D01*
Y-0216958D01*
X-0092656D01*
X-0092770D01*
Y-0217072D01*
X-0092884D01*
Y-0217186D01*
X-0092999D01*
Y-0217301D01*
X-0093113D01*
X-0093227D01*
Y-0217415D01*
X-0093341D01*
Y-0217529D01*
X-0093456D01*
Y-0217643D01*
X-0093570D01*
Y-0217758D01*
X-0093684D01*
X-0093799D01*
Y-0217872D01*
X-0093913D01*
Y-0217986D01*
X-0094027D01*
Y-0218101D01*
X-0094142D01*
X-0094256D01*
Y-0218215D01*
X-0094370D01*
Y-0218329D01*
X-0094485D01*
Y-0218444D01*
X-0094599D01*
X-0094713D01*
Y-0218558D01*
X-0094828D01*
Y-0218672D01*
X-0094942D01*
Y-0218787D01*
X-0095056D01*
Y-0218901D01*
X-0094942D01*
Y-0219015D01*
Y-0219130D01*
X-0094828D01*
Y-0219244D01*
X-0094713D01*
Y-0219358D01*
X-0094599D01*
Y-0219472D01*
Y-0219587D01*
X-0094485D01*
Y-0219701D01*
X-0094370D01*
Y-0219815D01*
X-0094256D01*
Y-0219930D01*
Y-0220044D01*
X-0094142D01*
Y-0220158D01*
X-0094027D01*
Y-0220273D01*
X-0093913D01*
Y-0220387D01*
X-0093799D01*
Y-0220501D01*
Y-0220616D01*
X-0093684D01*
Y-0220730D01*
X-0093570D01*
Y-0220844D01*
X-0093456D01*
Y-0220958D01*
X-0093341D01*
Y-0221073D01*
Y-0221187D01*
X-0093227D01*
Y-0221301D01*
X-0093113D01*
Y-0221416D01*
X-0092999D01*
Y-0221530D01*
X-0092884D01*
Y-0221644D01*
X-0092770D01*
Y-0221759D01*
X-0092656D01*
Y-0221873D01*
X-0092541D01*
Y-0221987D01*
Y-0222102D01*
X-0092427D01*
Y-0222216D01*
X-0092313D01*
Y-0222330D01*
X-0092198D01*
Y-0222445D01*
X-0092084D01*
Y-0222559D01*
X-0091970D01*
Y-0222673D01*
X-0091855D01*
Y-0222787D01*
X-0091741D01*
Y-0222902D01*
X-0091627D01*
Y-0223016D01*
X-0091512D01*
Y-0223130D01*
X-0091398D01*
Y-0223245D01*
X-0091284D01*
Y-0223359D01*
X-0091170D01*
X-0091055D01*
Y-0223473D01*
X-0090941D01*
X-0090827D01*
Y-0223588D01*
X-0090712D01*
X-0090598D01*
Y-0223702D01*
X-0090484D01*
X-0090369D01*
Y-0223816D01*
X-0090255D01*
X-0090141D01*
Y-0223931D01*
X-0090026D01*
X-0089912D01*
Y-0224045D01*
X-0089798D01*
X-0089683D01*
Y-0224159D01*
X-0089569D01*
X-0089455D01*
Y-0224274D01*
X-0089341D01*
X-0089226D01*
Y-0224388D01*
X-0089112D01*
X-0088998D01*
Y-0224502D01*
X-0088883D01*
X-0088769D01*
Y-0224616D01*
X-0088655D01*
X-0088540D01*
Y-0224731D01*
X-0088426D01*
X-0088312D01*
Y-0224845D01*
X-0088197D01*
X-0088083D01*
Y-0224959D01*
X-0087969D01*
X-0087855D01*
Y-0225074D01*
X-0087740D01*
X-0087626D01*
Y-0225188D01*
X-0087512D01*
Y-0225302D01*
X-0087397D01*
X-0087283D01*
Y-0225417D01*
X-0087169D01*
X-0087054D01*
X-0086940D01*
Y-0225531D01*
X-0086826D01*
X-0086711D01*
Y-0225645D01*
X-0086597D01*
Y-0225760D01*
X-0086483D01*
X-0086368D01*
Y-0225874D01*
X-0086254D01*
X-0086140D01*
Y-0225988D01*
X-0086026D01*
X-0085911D01*
Y-0226103D01*
X-0085797D01*
X-0085683D01*
Y-0226217D01*
X-0085568D01*
X-0085454D01*
Y-0226331D01*
X-0085340D01*
X-0085225D01*
Y-0226445D01*
X-0085111D01*
X-0084997D01*
Y-0226560D01*
X-0084882D01*
X-0084768D01*
Y-0226445D01*
X-0084654D01*
Y-0226331D01*
X-0084539D01*
X-0084425D01*
Y-0226217D01*
X-0084311D01*
Y-0226103D01*
X-0084197D01*
Y-0225988D01*
X-0084082D01*
X-0083968D01*
Y-0225874D01*
X-0083854D01*
Y-0225760D01*
X-0083739D01*
X-0083625D01*
Y-0225645D01*
X-0083511D01*
Y-0225531D01*
X-0083396D01*
X-0083282D01*
Y-0225417D01*
X-0083168D01*
Y-0225302D01*
X-0083053D01*
Y-0225188D01*
X-0082939D01*
X-0082825D01*
Y-0225074D01*
X-0082710D01*
Y-0224959D01*
X-0082596D01*
X-0082482D01*
Y-0224845D01*
X-0082368D01*
Y-0224731D01*
X-0082253D01*
X-0082139D01*
Y-0224616D01*
X-0082025D01*
Y-0224502D01*
X-0081910D01*
Y-0224388D01*
X-0081796D01*
X-0081682D01*
Y-0224274D01*
X-0081567D01*
Y-0224159D01*
X-0081453D01*
X-0081339D01*
Y-0224045D01*
X-0081224D01*
Y-0223931D01*
X-0081110D01*
Y-0223816D01*
X-0080996D01*
X-0080881D01*
Y-0223702D01*
X-0080767D01*
Y-0223588D01*
X-0080653D01*
X-0080539D01*
Y-0223473D01*
X-0080424D01*
Y-0223359D01*
X-0080310D01*
X-0080196D01*
Y-0223245D01*
X-0080081D01*
Y-0223130D01*
X-0079967D01*
Y-0223016D01*
X-0079853D01*
X-0079738D01*
Y-0222902D01*
X-0079624D01*
Y-0222787D01*
X-0079510D01*
X-0079395D01*
Y-0222673D01*
X-0079281D01*
Y-0222559D01*
X-0079167D01*
X-0079052D01*
Y-0222445D01*
X-0078938D01*
Y-0222330D01*
X-0078824D01*
Y-0222216D01*
X-0078710D01*
X-0078595D01*
Y-0222102D01*
X-0078481D01*
Y-0221987D01*
X-0078367D01*
X-0078252D01*
Y-0221873D01*
X-0078138D01*
Y-0221759D01*
X-0078024D01*
Y-0221644D01*
X-0077909D01*
X-0077795D01*
Y-0221530D01*
X-0077681D01*
Y-0221416D01*
X-0077566D01*
X-0077452D01*
Y-0221301D01*
X-0077338D01*
Y-0221187D01*
X-0077224D01*
Y-0221073D01*
X-0077109D01*
X-0076995D01*
Y-0220958D01*
X-0076881D01*
Y-0220844D01*
X-0076766D01*
X-0076652D01*
Y-0220730D01*
X-0076538D01*
Y-0220616D01*
X-0076423D01*
X-0076309D01*
Y-0220501D01*
X-0076195D01*
Y-0220387D01*
X-0076080D01*
Y-0220273D01*
X-0075966D01*
X-0075852D01*
Y-0220158D01*
X-0075737D01*
Y-0220044D01*
X-0075623D01*
X-0075509D01*
Y-0219930D01*
X-0075395D01*
Y-0219815D01*
X-0075280D01*
X-0075166D01*
Y-0219701D01*
X-0075052D01*
Y-0219587D01*
X-0074937D01*
X-0074823D01*
Y-0219472D01*
Y-0219358D01*
X-0074709D01*
G37*
G36*
X-0089455Y-0212614D02*
X-0089569D01*
Y-0212499D01*
X-0089683D01*
Y-0212385D01*
Y-0212271D01*
X-0089798D01*
Y-0212156D01*
X-0089912D01*
Y-0212042D01*
X-0090026D01*
Y-0211928D01*
Y-0211814D01*
X-0090141D01*
Y-0211699D01*
X-0090255D01*
Y-0211585D01*
X-0090369D01*
Y-0211471D01*
X-0090484D01*
Y-0211356D01*
Y-0211242D01*
X-0090598D01*
Y-0211128D01*
X-0090712D01*
Y-0211013D01*
X-0090827D01*
Y-0210899D01*
X-0090941D01*
Y-0210785D01*
X-0091055D01*
Y-0210670D01*
Y-0210556D01*
X-0091170D01*
Y-0210442D01*
X-0091284D01*
Y-0210327D01*
X-0091398D01*
Y-0210213D01*
X-0091512D01*
Y-0210099D01*
X-0091627D01*
Y-0209985D01*
X-0091741D01*
Y-0209870D01*
X-0091855D01*
Y-0209756D01*
Y-0209642D01*
X-0091970D01*
Y-0209527D01*
X-0092084D01*
Y-0209413D01*
X-0092198D01*
Y-0209299D01*
X-0092313D01*
Y-0209184D01*
X-0092427D01*
Y-0209070D01*
X-0092541D01*
Y-0208956D01*
X-0092656D01*
Y-0208841D01*
X-0092770D01*
Y-0208727D01*
X-0092884D01*
Y-0208613D01*
X-0092999D01*
Y-0208499D01*
X-0093113D01*
Y-0208384D01*
X-0093227D01*
Y-0208270D01*
X-0093341D01*
Y-0208156D01*
X-0093456D01*
Y-0208041D01*
X-0093570D01*
Y-0207927D01*
X-0093684D01*
Y-0207813D01*
X-0093799D01*
X-0093913D01*
Y-0207698D01*
X-0094027D01*
Y-0207584D01*
X-0094142D01*
Y-0207470D01*
X-0094256D01*
X-0094370D01*
Y-0207355D01*
X-0094485D01*
Y-0207241D01*
X-0094599D01*
X-0094713D01*
Y-0207127D01*
X-0094828D01*
X-0094942D01*
Y-0207012D01*
X-0095056D01*
X-0095170D01*
X-0095285D01*
Y-0206898D01*
X-0095399D01*
X-0095513D01*
X-0095628D01*
X-0095742D01*
Y-0206784D01*
X-0095856D01*
X-0095971D01*
X-0096085D01*
X-0096199D01*
Y-0206670D01*
X-0096314D01*
X-0096428D01*
Y-0206555D01*
X-0096542D01*
X-0096657D01*
X-0096771D01*
Y-0206441D01*
X-0096885D01*
X-0096999D01*
Y-0206327D01*
X-0097114D01*
X-0097228D01*
X-0097342D01*
Y-0206212D01*
X-0097457D01*
X-0097571D01*
Y-0206098D01*
X-0097685D01*
X-0097800D01*
Y-0205984D01*
X-0097914D01*
X-0098028D01*
Y-0205869D01*
X-0098143D01*
X-0098257D01*
Y-0205755D01*
X-0098371D01*
Y-0205641D01*
X-0098486D01*
X-0098600D01*
Y-0205526D01*
X-0098714D01*
X-0098828D01*
Y-0205412D01*
X-0098943D01*
Y-0205298D01*
X-0099057D01*
X-0099171D01*
Y-0205183D01*
X-0099286D01*
Y-0205069D01*
X-0099400D01*
X-0099514D01*
Y-0204955D01*
X-0099629D01*
Y-0204841D01*
X-0099743D01*
Y-0204726D01*
X-0099857D01*
Y-0204612D01*
X-0099972D01*
X-0100086D01*
Y-0204498D01*
X-0100200D01*
Y-0204383D01*
X-0100314D01*
Y-0204269D01*
X-0100429D01*
Y-0204155D01*
X-0100543D01*
Y-0204040D01*
X-0100657D01*
X-0100772D01*
Y-0203926D01*
X-0100886D01*
Y-0203812D01*
X-0101000D01*
Y-0203697D01*
X-0101115D01*
Y-0203583D01*
X-0101229D01*
Y-0203469D01*
X-0101343D01*
Y-0203354D01*
X-0101458D01*
Y-0203240D01*
X-0101572D01*
Y-0203126D01*
X-0101686D01*
Y-0203012D01*
X-0101801D01*
Y-0202897D01*
X-0101915D01*
Y-0202783D01*
X-0102029D01*
Y-0202669D01*
Y-0202554D01*
X-0102143D01*
Y-0202440D01*
X-0102258D01*
Y-0202326D01*
X-0102372D01*
Y-0202211D01*
X-0102486D01*
Y-0202097D01*
X-0102601D01*
Y-0201983D01*
X-0102715D01*
Y-0201868D01*
Y-0201754D01*
X-0102829D01*
Y-0201640D01*
X-0102944D01*
Y-0201525D01*
X-0103058D01*
Y-0201411D01*
X-0103172D01*
Y-0201297D01*
Y-0201183D01*
X-0103287D01*
Y-0201068D01*
X-0103401D01*
Y-0200954D01*
X-0103515D01*
Y-0200840D01*
Y-0200725D01*
X-0103630D01*
Y-0200611D01*
X-0103744D01*
Y-0200497D01*
Y-0200382D01*
X-0103858D01*
Y-0200268D01*
X-0103972D01*
Y-0200154D01*
X-0104087D01*
Y-0200039D01*
Y-0199925D01*
X-0104201D01*
Y-0199811D01*
X-0104315D01*
Y-0199696D01*
Y-0199582D01*
X-0104430D01*
Y-0199468D01*
X-0104544D01*
Y-0199354D01*
Y-0199239D01*
X-0104658D01*
Y-0199125D01*
X-0104773D01*
Y-0199011D01*
Y-0198896D01*
X-0104887D01*
Y-0198782D01*
Y-0198668D01*
X-0105001D01*
Y-0198782D01*
Y-0198896D01*
X-0104887D01*
Y-0199011D01*
Y-0199125D01*
X-0104773D01*
Y-0199239D01*
Y-0199354D01*
Y-0199468D01*
X-0104658D01*
Y-0199582D01*
Y-0199696D01*
X-0104544D01*
Y-0199811D01*
Y-0199925D01*
Y-0200039D01*
X-0104430D01*
Y-0200154D01*
Y-0200268D01*
X-0104315D01*
Y-0200382D01*
Y-0200497D01*
Y-0200611D01*
X-0104201D01*
Y-0200725D01*
Y-0200840D01*
Y-0200954D01*
X-0104087D01*
Y-0201068D01*
Y-0201183D01*
X-0103972D01*
Y-0201297D01*
Y-0201411D01*
Y-0201525D01*
X-0103858D01*
Y-0201640D01*
Y-0201754D01*
X-0103744D01*
Y-0201868D01*
Y-0201983D01*
Y-0202097D01*
X-0103630D01*
Y-0202211D01*
Y-0202326D01*
X-0103515D01*
Y-0202440D01*
Y-0202554D01*
Y-0202669D01*
X-0103401D01*
Y-0202783D01*
Y-0202897D01*
X-0103287D01*
Y-0203012D01*
Y-0203126D01*
X-0103172D01*
Y-0203240D01*
Y-0203354D01*
Y-0203469D01*
X-0103058D01*
Y-0203583D01*
Y-0203697D01*
X-0102944D01*
Y-0203812D01*
Y-0203926D01*
Y-0204040D01*
X-0102829D01*
Y-0204155D01*
Y-0204269D01*
X-0102715D01*
Y-0204383D01*
Y-0204498D01*
Y-0204612D01*
X-0102601D01*
Y-0204726D01*
Y-0204841D01*
X-0102486D01*
Y-0204955D01*
Y-0205069D01*
X-0102372D01*
Y-0205183D01*
Y-0205298D01*
Y-0205412D01*
X-0102258D01*
Y-0205526D01*
Y-0205641D01*
X-0102143D01*
Y-0205755D01*
Y-0205869D01*
Y-0205984D01*
X-0102029D01*
Y-0206098D01*
Y-0206212D01*
X-0101915D01*
Y-0206327D01*
Y-0206441D01*
X-0101801D01*
Y-0206555D01*
Y-0206670D01*
X-0101686D01*
Y-0206784D01*
Y-0206898D01*
Y-0207012D01*
X-0101572D01*
Y-0207127D01*
Y-0207241D01*
X-0101458D01*
Y-0207355D01*
Y-0207470D01*
X-0101343D01*
Y-0207584D01*
Y-0207698D01*
X-0101229D01*
Y-0207813D01*
Y-0207927D01*
Y-0208041D01*
X-0101115D01*
Y-0208156D01*
Y-0208270D01*
X-0101000D01*
Y-0208384D01*
Y-0208499D01*
X-0100886D01*
Y-0208613D01*
Y-0208727D01*
X-0100772D01*
Y-0208841D01*
Y-0208956D01*
X-0100657D01*
Y-0209070D01*
Y-0209184D01*
Y-0209299D01*
X-0100543D01*
Y-0209413D01*
Y-0209527D01*
X-0100429D01*
Y-0209642D01*
Y-0209756D01*
X-0100314D01*
Y-0209870D01*
Y-0209985D01*
X-0100200D01*
Y-0210099D01*
Y-0210213D01*
X-0100086D01*
Y-0210327D01*
Y-0210442D01*
X-0099972D01*
Y-0210556D01*
Y-0210670D01*
X-0099857D01*
Y-0210785D01*
Y-0210899D01*
X-0099743D01*
Y-0211013D01*
Y-0211128D01*
X-0099629D01*
Y-0211242D01*
Y-0211356D01*
X-0099514D01*
Y-0211471D01*
Y-0211585D01*
X-0099400D01*
Y-0211699D01*
Y-0211814D01*
X-0099286D01*
Y-0211928D01*
Y-0212042D01*
X-0099171D01*
Y-0212156D01*
Y-0212271D01*
X-0099057D01*
Y-0212385D01*
Y-0212499D01*
X-0098943D01*
Y-0212614D01*
X-0098828D01*
Y-0212728D01*
Y-0212842D01*
X-0098714D01*
Y-0212957D01*
Y-0213071D01*
X-0098600D01*
Y-0213185D01*
Y-0213300D01*
X-0098486D01*
Y-0213414D01*
Y-0213528D01*
X-0098371D01*
Y-0213643D01*
Y-0213757D01*
X-0098257D01*
Y-0213871D01*
X-0098143D01*
Y-0213985D01*
Y-0214100D01*
X-0098028D01*
Y-0214214D01*
Y-0214328D01*
X-0097914D01*
Y-0214443D01*
Y-0214557D01*
X-0097800D01*
Y-0214671D01*
X-0097685D01*
Y-0214786D01*
Y-0214900D01*
X-0097571D01*
Y-0215014D01*
Y-0215129D01*
X-0097457D01*
Y-0215243D01*
X-0097342D01*
Y-0215357D01*
Y-0215472D01*
X-0097228D01*
Y-0215586D01*
Y-0215700D01*
X-0097114D01*
Y-0215814D01*
X-0096999D01*
Y-0215929D01*
Y-0216043D01*
X-0096885D01*
Y-0216157D01*
Y-0216272D01*
X-0096771D01*
Y-0216386D01*
X-0096657D01*
Y-0216500D01*
Y-0216615D01*
X-0096542D01*
Y-0216729D01*
X-0096428D01*
Y-0216843D01*
Y-0216958D01*
X-0096314D01*
Y-0217072D01*
X-0096199D01*
Y-0217186D01*
Y-0217301D01*
X-0096085D01*
Y-0217415D01*
X-0095971D01*
Y-0217529D01*
X-0095856D01*
X-0095742D01*
Y-0217415D01*
X-0095628D01*
Y-0217301D01*
X-0095513D01*
X-0095399D01*
Y-0217186D01*
X-0095285D01*
Y-0217072D01*
X-0095170D01*
Y-0216958D01*
X-0095056D01*
X-0094942D01*
Y-0216843D01*
X-0094828D01*
Y-0216729D01*
X-0094713D01*
Y-0216615D01*
X-0094599D01*
X-0094485D01*
Y-0216500D01*
X-0094370D01*
Y-0216386D01*
X-0094256D01*
Y-0216272D01*
X-0094142D01*
X-0094027D01*
Y-0216157D01*
X-0093913D01*
Y-0216043D01*
X-0093799D01*
Y-0215929D01*
X-0093684D01*
X-0093570D01*
Y-0215814D01*
X-0093456D01*
Y-0215700D01*
X-0093341D01*
Y-0215586D01*
X-0093227D01*
X-0093113D01*
Y-0215472D01*
X-0092999D01*
Y-0215357D01*
X-0092884D01*
Y-0215243D01*
X-0092770D01*
X-0092656D01*
Y-0215129D01*
X-0092541D01*
Y-0215014D01*
X-0092427D01*
Y-0214900D01*
X-0092313D01*
X-0092198D01*
Y-0214786D01*
X-0092084D01*
Y-0214671D01*
X-0091970D01*
Y-0214557D01*
X-0091855D01*
X-0091741D01*
Y-0214443D01*
X-0091627D01*
Y-0214328D01*
X-0091512D01*
Y-0214214D01*
X-0091398D01*
X-0091284D01*
Y-0214100D01*
X-0091170D01*
Y-0213985D01*
X-0091055D01*
Y-0213871D01*
X-0090941D01*
X-0090827D01*
Y-0213757D01*
X-0090712D01*
Y-0213643D01*
X-0090598D01*
Y-0213528D01*
X-0090484D01*
X-0090369D01*
Y-0213414D01*
X-0090255D01*
Y-0213300D01*
X-0090141D01*
Y-0213185D01*
X-0090026D01*
X-0089912D01*
Y-0213071D01*
X-0089798D01*
Y-0212957D01*
X-0089683D01*
Y-0212842D01*
X-0089569D01*
Y-0212728D01*
X-0089455D01*
Y-0212614D01*
G37*
%LPD*%
G36*
X0124809Y-0190587D02*
X0124692D01*
X0124576D01*
X0124460D01*
X0124344D01*
X0124228D01*
X0124111D01*
X0123995D01*
X0123879D01*
X0123763D01*
X0123647D01*
X0123530D01*
X0123414D01*
X0123298D01*
X0123182D01*
X0123066D01*
X0122949D01*
X0122833D01*
X0122717D01*
Y-0190703D01*
X0122601Y-0190819D01*
X0122485Y-0190935D01*
Y-0191052D01*
X0122368Y-0191168D01*
X0122252Y-0191284D01*
Y-0191400D01*
X0122136Y-0191516D01*
X0122020Y-0191632D01*
Y-0191749D01*
X0121904Y-0191865D01*
X0121788Y-0191981D01*
Y-0192097D01*
X0121671Y-0192213D01*
X0121555Y-0192330D01*
X0121439Y-0192446D01*
Y-0192562D01*
X0121323Y-0192678D01*
Y-0192794D01*
X0121207Y-0192911D01*
X0121090Y-0193027D01*
Y-0193143D01*
X0120974Y-0193259D01*
X0120858Y-0193375D01*
Y-0193492D01*
X0120742Y-0193608D01*
X0120626Y-0193724D01*
Y-0193840D01*
X0120509Y-0193956D01*
X0120393Y-0194073D01*
X0120277Y-0194189D01*
Y-0194305D01*
X0120161Y-0194421D01*
X0120045Y-0194537D01*
Y-0194654D01*
X0119928Y-0194770D01*
X0119812Y-0194886D01*
Y-0195002D01*
X0119696Y-0195118D01*
X0119580Y-0195235D01*
Y-0195351D01*
X0119464Y-0195467D01*
X0119347Y-0195583D01*
Y-0195699D01*
X0119231Y-0195816D01*
X0119115Y-0195932D01*
Y-0196048D01*
X0118999Y-0196164D01*
X0118883Y-0196280D01*
Y-0196397D01*
X0118766Y-0196513D01*
X0118650Y-0196629D01*
Y-0196745D01*
X0118534Y-0196861D01*
X0118418Y-0196978D01*
Y-0197094D01*
X0118302Y-0197210D01*
X0118185Y-0197326D01*
Y-0197442D01*
X0118069Y-0197559D01*
X0117953Y-0197675D01*
Y-0197791D01*
X0117837Y-0197907D01*
X0117721Y-0198023D01*
Y-0198139D01*
X0117604Y-0198256D01*
X0117488Y-0198372D01*
Y-0198488D01*
X0117372Y-0198604D01*
X0117256Y-0198720D01*
Y-0198837D01*
X0117140Y-0198953D01*
X0117023Y-0199069D01*
Y-0199185D01*
X0116907Y-0199301D01*
X0116791Y-0199418D01*
Y-0199534D01*
X0116675Y-0199650D01*
X0116559Y-0199766D01*
Y-0199882D01*
X0116442Y-0199999D01*
X0116326Y-0200115D01*
Y-0200231D01*
X0116210Y-0200347D01*
X0116094Y-0200463D01*
Y-0200580D01*
X0115978Y-0200696D01*
X0115861Y-0200812D01*
Y-0200928D01*
X0115745Y-0201044D01*
X0115629Y-0201161D01*
Y-0201277D01*
X0115513Y-0201393D01*
X0115397Y-0201509D01*
Y-0201625D01*
X0115281Y-0201742D01*
X0115164Y-0201858D01*
Y-0201974D01*
X0115048Y-0202090D01*
X0114932Y-0202206D01*
Y-0202323D01*
X0114816Y-0202439D01*
X0114700Y-0202555D01*
Y-0202671D01*
X0114583Y-0202787D01*
X0114467Y-0202904D01*
Y-0203020D01*
X0114351Y-0203136D01*
X0114235Y-0203252D01*
Y-0203368D01*
X0114119Y-0203485D01*
X0114002Y-0203601D01*
X0113886Y-0203485D01*
Y-0203368D01*
Y-0203252D01*
Y-0203136D01*
Y-0203020D01*
Y-0202904D01*
Y-0202787D01*
Y-0202671D01*
Y-0202555D01*
Y-0202439D01*
Y-0202323D01*
Y-0202206D01*
Y-0202090D01*
Y-0201974D01*
Y-0201858D01*
Y-0201742D01*
Y-0201625D01*
Y-0201509D01*
Y-0201393D01*
Y-0201277D01*
Y-0201161D01*
Y-0201044D01*
Y-0200928D01*
Y-0200812D01*
Y-0200696D01*
Y-0200580D01*
Y-0200463D01*
Y-0200347D01*
Y-0200231D01*
Y-0200115D01*
Y-0199999D01*
Y-0199882D01*
Y-0199766D01*
Y-0199650D01*
Y-0199534D01*
Y-0199418D01*
Y-0199301D01*
Y-0199185D01*
Y-0199069D01*
Y-0198953D01*
Y-0198837D01*
Y-0198720D01*
Y-0198604D01*
Y-0198488D01*
Y-0198372D01*
Y-0198256D01*
Y-0198139D01*
Y-0198023D01*
Y-0197907D01*
Y-0197791D01*
Y-0197675D01*
Y-0197559D01*
Y-0197442D01*
Y-0197326D01*
Y-0197210D01*
Y-0197094D01*
Y-0196978D01*
Y-0196861D01*
Y-0196745D01*
Y-0196629D01*
Y-0196513D01*
Y-0196397D01*
Y-0196280D01*
Y-0196164D01*
Y-0196048D01*
Y-0195932D01*
Y-0195816D01*
Y-0195699D01*
Y-0195583D01*
Y-0195467D01*
Y-0195351D01*
Y-0195235D01*
Y-0195118D01*
Y-0195002D01*
Y-0194886D01*
Y-0194770D01*
Y-0194654D01*
Y-0194537D01*
Y-0194421D01*
Y-0194305D01*
Y-0194189D01*
Y-0194073D01*
Y-0193956D01*
Y-0193840D01*
Y-0193724D01*
Y-0193608D01*
Y-0193492D01*
Y-0193375D01*
Y-0193259D01*
Y-0193143D01*
Y-0193027D01*
Y-0192911D01*
Y-0192794D01*
Y-0192678D01*
Y-0192562D01*
Y-0192446D01*
Y-0192330D01*
Y-0192213D01*
Y-0192097D01*
Y-0191981D01*
Y-0191865D01*
Y-0191749D01*
Y-0191632D01*
Y-0191516D01*
Y-0191400D01*
Y-0191284D01*
Y-0191168D01*
Y-0191052D01*
Y-0190935D01*
Y-0190819D01*
Y-0190703D01*
Y-0190587D01*
X0113770D01*
X0113654D01*
X0113538D01*
X0113421D01*
X0113305D01*
X0113189D01*
X0113073D01*
X0112957D01*
X0112840D01*
X0112724D01*
X0112608D01*
X0112492D01*
X0112376D01*
X0112259D01*
X0112143D01*
X0112027D01*
X0111911D01*
Y-0190703D01*
Y-0190819D01*
Y-0190935D01*
Y-0191052D01*
Y-0191168D01*
Y-0191284D01*
Y-0191400D01*
Y-0191516D01*
Y-0191632D01*
Y-0191749D01*
Y-0191865D01*
Y-0191981D01*
Y-0192097D01*
Y-0192213D01*
Y-0192330D01*
Y-0192446D01*
Y-0192562D01*
Y-0192678D01*
Y-0192794D01*
Y-0192911D01*
Y-0193027D01*
Y-0193143D01*
Y-0193259D01*
Y-0193375D01*
Y-0193492D01*
Y-0193608D01*
Y-0193724D01*
Y-0193840D01*
Y-0193956D01*
Y-0194073D01*
Y-0194189D01*
Y-0194305D01*
Y-0194421D01*
Y-0194537D01*
Y-0194654D01*
Y-0194770D01*
Y-0194886D01*
Y-0195002D01*
Y-0195118D01*
Y-0195235D01*
Y-0195351D01*
Y-0195467D01*
Y-0195583D01*
Y-0195699D01*
Y-0195816D01*
Y-0195932D01*
Y-0196048D01*
Y-0196164D01*
Y-0196280D01*
Y-0196397D01*
Y-0196513D01*
Y-0196629D01*
Y-0196745D01*
Y-0196861D01*
Y-0196978D01*
Y-0197094D01*
Y-0197210D01*
Y-0197326D01*
Y-0197442D01*
Y-0197559D01*
Y-0197675D01*
Y-0197791D01*
Y-0197907D01*
Y-0198023D01*
Y-0198139D01*
Y-0198256D01*
Y-0198372D01*
Y-0198488D01*
Y-0198604D01*
Y-0198720D01*
Y-0198837D01*
Y-0198953D01*
Y-0199069D01*
Y-0199185D01*
Y-0199301D01*
Y-0199418D01*
Y-0199534D01*
Y-0199650D01*
Y-0199766D01*
Y-0199882D01*
Y-0199999D01*
Y-0200115D01*
Y-0200231D01*
Y-0200347D01*
Y-0200463D01*
Y-0200580D01*
Y-0200696D01*
Y-0200812D01*
Y-0200928D01*
Y-0201044D01*
Y-0201161D01*
Y-0201277D01*
Y-0201393D01*
Y-0201509D01*
Y-0201625D01*
Y-0201742D01*
Y-0201858D01*
Y-0201974D01*
Y-0202090D01*
Y-0202206D01*
Y-0202323D01*
Y-0202439D01*
Y-0202555D01*
Y-0202671D01*
Y-0202787D01*
Y-0202904D01*
Y-0203020D01*
Y-0203136D01*
Y-0203252D01*
Y-0203368D01*
Y-0203485D01*
Y-0203601D01*
Y-0203717D01*
Y-0203833D01*
Y-0203949D01*
Y-0204066D01*
Y-0204182D01*
Y-0204298D01*
Y-0204414D01*
Y-0204530D01*
Y-0204646D01*
Y-0204763D01*
Y-0204879D01*
Y-0204995D01*
Y-0205111D01*
Y-0205227D01*
Y-0205344D01*
Y-0205460D01*
Y-0205576D01*
Y-0205692D01*
Y-0205808D01*
Y-0205925D01*
Y-0206041D01*
Y-0206157D01*
Y-0206273D01*
Y-0206389D01*
Y-0206506D01*
Y-0206622D01*
Y-0206738D01*
Y-0206854D01*
Y-0206970D01*
X0112027D01*
X0112143D01*
X0112259D01*
X0112376D01*
X0112492D01*
X0112608D01*
X0112724D01*
X0112840D01*
X0112957D01*
X0113073D01*
X0113189D01*
X0113305D01*
X0113421D01*
X0113538D01*
X0113654D01*
X0113770D01*
X0113886D01*
X0114002D01*
X0114119Y-0206854D01*
X0114235Y-0206738D01*
Y-0206622D01*
X0114351Y-0206506D01*
X0114467Y-0206389D01*
Y-0206273D01*
X0114583Y-0206157D01*
X0114700Y-0206041D01*
Y-0205925D01*
X0114816Y-0205808D01*
X0114932Y-0205692D01*
Y-0205576D01*
X0115048Y-0205460D01*
X0115164Y-0205344D01*
Y-0205227D01*
X0115281Y-0205111D01*
X0115397Y-0204995D01*
Y-0204879D01*
X0115513Y-0204763D01*
X0115629Y-0204646D01*
Y-0204530D01*
X0115745Y-0204414D01*
X0115861Y-0204298D01*
Y-0204182D01*
X0115978Y-0204066D01*
X0116094Y-0203949D01*
Y-0203833D01*
X0116210Y-0203717D01*
X0116326Y-0203601D01*
Y-0203485D01*
X0116442Y-0203368D01*
X0116559Y-0203252D01*
Y-0203136D01*
X0116675Y-0203020D01*
X0116791Y-0202904D01*
Y-0202787D01*
X0116907Y-0202671D01*
X0117023Y-0202555D01*
Y-0202439D01*
X0117140Y-0202323D01*
X0117256Y-0202206D01*
Y-0202090D01*
X0117372Y-0201974D01*
X0117488Y-0201858D01*
Y-0201742D01*
X0117604Y-0201625D01*
X0117721Y-0201509D01*
Y-0201393D01*
X0117837Y-0201277D01*
X0117953Y-0201161D01*
Y-0201044D01*
X0118069Y-0200928D01*
X0118185Y-0200812D01*
Y-0200696D01*
X0118302Y-0200580D01*
X0118418Y-0200463D01*
Y-0200347D01*
X0118534Y-0200231D01*
X0118650Y-0200115D01*
Y-0199999D01*
X0118766Y-0199882D01*
X0118883Y-0199766D01*
Y-0199650D01*
X0118999Y-0199534D01*
X0119115Y-0199418D01*
Y-0199301D01*
X0119231Y-0199185D01*
X0119347Y-0199069D01*
Y-0198953D01*
X0119464Y-0198837D01*
X0119580Y-0198720D01*
Y-0198604D01*
X0119696Y-0198488D01*
X0119812Y-0198372D01*
Y-0198256D01*
X0119928Y-0198139D01*
X0120045Y-0198023D01*
Y-0197907D01*
X0120161Y-0197791D01*
X0120277Y-0197675D01*
Y-0197559D01*
X0120393Y-0197442D01*
X0120509Y-0197326D01*
Y-0197210D01*
X0120626Y-0197094D01*
X0120742Y-0196978D01*
Y-0196861D01*
X0120858Y-0196745D01*
X0120974Y-0196629D01*
Y-0196513D01*
X0121090Y-0196397D01*
X0121207Y-0196280D01*
Y-0196164D01*
X0121323Y-0196048D01*
X0121439Y-0195932D01*
X0121555Y-0195816D01*
Y-0195699D01*
X0121671Y-0195583D01*
X0121788Y-0195467D01*
Y-0195351D01*
X0121904Y-0195235D01*
X0122020Y-0195118D01*
Y-0195002D01*
X0122136Y-0194886D01*
X0122252Y-0194770D01*
Y-0194654D01*
X0122368Y-0194537D01*
Y-0194421D01*
X0122485Y-0194305D01*
X0122601Y-0194189D01*
X0122717Y-0194073D01*
X0122833Y-0193956D01*
X0122949Y-0194073D01*
Y-0194189D01*
Y-0194305D01*
Y-0194421D01*
Y-0194537D01*
Y-0194654D01*
Y-0194770D01*
Y-0194886D01*
Y-0195002D01*
Y-0195118D01*
Y-0195235D01*
Y-0195351D01*
Y-0195467D01*
Y-0195583D01*
Y-0195699D01*
Y-0195816D01*
Y-0195932D01*
Y-0196048D01*
Y-0196164D01*
Y-0196280D01*
Y-0196397D01*
Y-0196513D01*
Y-0196629D01*
Y-0196745D01*
Y-0196861D01*
Y-0196978D01*
Y-0197094D01*
Y-0197210D01*
Y-0197326D01*
Y-0197442D01*
Y-0197559D01*
Y-0197675D01*
Y-0197791D01*
Y-0197907D01*
Y-0198023D01*
Y-0198139D01*
Y-0198256D01*
Y-0198372D01*
Y-0198488D01*
Y-0198604D01*
Y-0198720D01*
Y-0198837D01*
Y-0198953D01*
Y-0199069D01*
Y-0199185D01*
Y-0199301D01*
Y-0199418D01*
Y-0199534D01*
Y-0199650D01*
Y-0199766D01*
Y-0199882D01*
Y-0199999D01*
Y-0200115D01*
Y-0200231D01*
Y-0200347D01*
Y-0200463D01*
Y-0200580D01*
Y-0200696D01*
Y-0200812D01*
Y-0200928D01*
Y-0201044D01*
Y-0201161D01*
Y-0201277D01*
Y-0201393D01*
Y-0201509D01*
Y-0201625D01*
Y-0201742D01*
Y-0201858D01*
Y-0201974D01*
Y-0202090D01*
Y-0202206D01*
Y-0202323D01*
Y-0202439D01*
Y-0202555D01*
Y-0202671D01*
Y-0202787D01*
Y-0202904D01*
Y-0203020D01*
Y-0203136D01*
Y-0203252D01*
Y-0203368D01*
Y-0203485D01*
Y-0203601D01*
Y-0203717D01*
Y-0203833D01*
Y-0203949D01*
Y-0204066D01*
Y-0204182D01*
Y-0204298D01*
Y-0204414D01*
Y-0204530D01*
Y-0204646D01*
Y-0204763D01*
Y-0204879D01*
Y-0204995D01*
Y-0205111D01*
Y-0205227D01*
Y-0205344D01*
Y-0205460D01*
Y-0205576D01*
Y-0205692D01*
Y-0205808D01*
Y-0205925D01*
Y-0206041D01*
Y-0206157D01*
Y-0206273D01*
Y-0206389D01*
Y-0206506D01*
Y-0206622D01*
Y-0206738D01*
Y-0206854D01*
Y-0206970D01*
X0123066D01*
X0123182D01*
X0123298D01*
X0123414D01*
X0123530D01*
X0123647D01*
X0123763D01*
X0123879D01*
X0123995D01*
X0124111D01*
X0124228D01*
X0124344D01*
X0124460D01*
X0124576D01*
X0124692D01*
X0124809D01*
Y-0206854D01*
Y-0206738D01*
Y-0206622D01*
Y-0206506D01*
Y-0206389D01*
Y-0206273D01*
Y-0206157D01*
Y-0206041D01*
Y-0205925D01*
Y-0205808D01*
Y-0205692D01*
Y-0205576D01*
Y-0205460D01*
Y-0205344D01*
Y-0205227D01*
Y-0205111D01*
Y-0204995D01*
Y-0204879D01*
Y-0204763D01*
Y-0204646D01*
Y-0204530D01*
Y-0204414D01*
Y-0204298D01*
Y-0204182D01*
Y-0204066D01*
Y-0203949D01*
Y-0203833D01*
Y-0203717D01*
Y-0203601D01*
Y-0203485D01*
Y-0203368D01*
Y-0203252D01*
Y-0203136D01*
Y-0203020D01*
Y-0202904D01*
Y-0202787D01*
Y-0202671D01*
Y-0202555D01*
Y-0202439D01*
Y-0202323D01*
Y-0202206D01*
Y-0202090D01*
Y-0201974D01*
Y-0201858D01*
Y-0201742D01*
Y-0201625D01*
Y-0201509D01*
Y-0201393D01*
Y-0201277D01*
Y-0201161D01*
Y-0201044D01*
Y-0200928D01*
Y-0200812D01*
Y-0200696D01*
Y-0200580D01*
Y-0200463D01*
Y-0200347D01*
Y-0200231D01*
Y-0200115D01*
Y-0199999D01*
Y-0199882D01*
Y-0199766D01*
Y-0199650D01*
Y-0199534D01*
Y-0199418D01*
Y-0199301D01*
Y-0199185D01*
Y-0199069D01*
Y-0198953D01*
Y-0198837D01*
Y-0198720D01*
Y-0198604D01*
Y-0198488D01*
Y-0198372D01*
Y-0198256D01*
Y-0198139D01*
Y-0198023D01*
Y-0197907D01*
Y-0197791D01*
Y-0197675D01*
Y-0197559D01*
Y-0197442D01*
Y-0197326D01*
Y-0197210D01*
Y-0197094D01*
Y-0196978D01*
Y-0196861D01*
Y-0196745D01*
Y-0196629D01*
Y-0196513D01*
Y-0196397D01*
Y-0196280D01*
Y-0196164D01*
Y-0196048D01*
Y-0195932D01*
Y-0195816D01*
Y-0195699D01*
Y-0195583D01*
Y-0195467D01*
Y-0195351D01*
Y-0195235D01*
Y-0195118D01*
Y-0195002D01*
Y-0194886D01*
Y-0194770D01*
Y-0194654D01*
Y-0194537D01*
Y-0194421D01*
Y-0194305D01*
Y-0194189D01*
Y-0194073D01*
Y-0193956D01*
Y-0193840D01*
Y-0193724D01*
Y-0193608D01*
Y-0193492D01*
Y-0193375D01*
Y-0193259D01*
Y-0193143D01*
Y-0193027D01*
Y-0192911D01*
Y-0192794D01*
Y-0192678D01*
Y-0192562D01*
Y-0192446D01*
Y-0192330D01*
Y-0192213D01*
Y-0192097D01*
Y-0191981D01*
Y-0191865D01*
Y-0191749D01*
Y-0191632D01*
Y-0191516D01*
Y-0191400D01*
Y-0191284D01*
Y-0191168D01*
Y-0191052D01*
Y-0190935D01*
Y-0190819D01*
Y-0190703D01*
Y-0190587D01*
G37*
G36*
X0109006Y-0199650D02*
X0108890Y-0199534D01*
Y-0199418D01*
Y-0199301D01*
Y-0199185D01*
Y-0199069D01*
X0108774Y-0198953D01*
Y-0198837D01*
Y-0198720D01*
Y-0198604D01*
X0108657Y-0198488D01*
Y-0198372D01*
Y-0198256D01*
X0108541Y-0198139D01*
Y-0198023D01*
X0108425Y-0197907D01*
Y-0197791D01*
X0108309Y-0197675D01*
Y-0197559D01*
X0108193Y-0197442D01*
Y-0197326D01*
X0108076Y-0197210D01*
X0107960Y-0197094D01*
Y-0196978D01*
X0107844Y-0196861D01*
X0107728Y-0196745D01*
X0107612Y-0196629D01*
Y-0196513D01*
X0107495Y-0196397D01*
X0107379Y-0196280D01*
X0107263D01*
X0107147Y-0196164D01*
X0107031Y-0196048D01*
X0106914Y-0195932D01*
X0106798Y-0195816D01*
X0106682D01*
X0106566Y-0195699D01*
X0106450Y-0195583D01*
X0106333D01*
X0106217Y-0195467D01*
X0106101D01*
X0105985Y-0195351D01*
X0105869D01*
X0105752D01*
X0105636Y-0195235D01*
X0105520D01*
X0105404Y-0195118D01*
X0105288D01*
X0105171D01*
X0105055D01*
X0104939Y-0195002D01*
X0104823D01*
X0104707D01*
X0104590D01*
X0104474D01*
X0104358Y-0194886D01*
X0104242D01*
X0104126D01*
X0104009D01*
X0103893D01*
X0103777D01*
X0103661D01*
X0103545D01*
X0103428D01*
X0103312D01*
X0103196D01*
X0103080D01*
X0102964D01*
X0102847D01*
X0102731D01*
X0102615Y-0195002D01*
X0102499D01*
X0102383D01*
X0102267D01*
X0102150D01*
X0102034D01*
X0101918Y-0195118D01*
X0101802D01*
X0101686D01*
X0101569Y-0195235D01*
X0101453D01*
X0101337D01*
X0101221Y-0195351D01*
X0101105D01*
X0100988Y-0195467D01*
X0100872D01*
X0100756Y-0195583D01*
X0100640D01*
X0100524Y-0195699D01*
X0100407D01*
X0100291Y-0195816D01*
X0100175Y-0195932D01*
X0100059Y-0196048D01*
X0099943Y-0196164D01*
X0099826D01*
X0099710Y-0196280D01*
X0099594Y-0196397D01*
X0099478Y-0196513D01*
X0099362Y-0196629D01*
X0099245Y-0196745D01*
Y-0196861D01*
X0099129Y-0196978D01*
X0099013Y-0197094D01*
X0098897Y-0197210D01*
Y-0197326D01*
X0098781Y-0197442D01*
Y-0197559D01*
X0098664Y-0197675D01*
Y-0197791D01*
X0098548Y-0197907D01*
Y-0198023D01*
X0098432Y-0198139D01*
Y-0198256D01*
Y-0198372D01*
X0098316Y-0198488D01*
Y-0198604D01*
Y-0198720D01*
X0098200Y-0198837D01*
Y-0198953D01*
Y-0199069D01*
Y-0199185D01*
Y-0199301D01*
X0098083Y-0199418D01*
Y-0199534D01*
Y-0199650D01*
Y-0199766D01*
Y-0199882D01*
Y-0199999D01*
X0097967Y-0200115D01*
Y-0200231D01*
Y-0200347D01*
Y-0200463D01*
Y-0200580D01*
Y-0200696D01*
Y-0200812D01*
Y-0200928D01*
Y-0201044D01*
Y-0201161D01*
Y-0201277D01*
Y-0201393D01*
Y-0201509D01*
Y-0201625D01*
Y-0201742D01*
X0098083Y-0201858D01*
Y-0201974D01*
Y-0202090D01*
Y-0202206D01*
Y-0202323D01*
Y-0202439D01*
Y-0202555D01*
Y-0202671D01*
X0098200Y-0202787D01*
Y-0202904D01*
Y-0203020D01*
Y-0203136D01*
Y-0203252D01*
X0098316Y-0203368D01*
Y-0203485D01*
Y-0203601D01*
Y-0203717D01*
X0098432Y-0203833D01*
Y-0203949D01*
Y-0204066D01*
X0098548Y-0204182D01*
Y-0204298D01*
X0098664Y-0204414D01*
Y-0204530D01*
X0098781Y-0204646D01*
Y-0204763D01*
X0098897Y-0204879D01*
X0099013Y-0204995D01*
Y-0205111D01*
X0099129Y-0205227D01*
X0099245Y-0205344D01*
X0099362Y-0205460D01*
X0099478Y-0205576D01*
X0099594Y-0205692D01*
X0099710Y-0205808D01*
X0099826Y-0205925D01*
X0099943Y-0206041D01*
X0100059Y-0206157D01*
X0100175Y-0206273D01*
X0100291D01*
X0100407Y-0206389D01*
X0100524D01*
X0100640Y-0206506D01*
X0100756D01*
X0100872Y-0206622D01*
X0100988Y-0206738D01*
X0101105D01*
X0101221D01*
X0101337Y-0206854D01*
X0101453D01*
X0101569Y-0206970D01*
X0101686D01*
X0101802D01*
X0101918D01*
X0102034Y-0207087D01*
X0102150D01*
X0102267D01*
X0102383D01*
X0102499Y-0207203D01*
X0102615D01*
X0102731D01*
X0102847D01*
X0102964D01*
X0103080D01*
X0103196D01*
X0103312D01*
X0103428D01*
X0103545D01*
X0103661D01*
X0103777D01*
X0103893D01*
X0104009D01*
X0104126D01*
X0104242D01*
X0104358D01*
X0104474D01*
X0104590D01*
X0104707Y-0207087D01*
X0104823D01*
X0104939D01*
X0105055D01*
X0105171D01*
X0105288Y-0206970D01*
X0105404D01*
X0105520D01*
X0105636Y-0206854D01*
X0105752D01*
X0105869D01*
X0105985Y-0206738D01*
X0106101D01*
X0106217Y-0206622D01*
X0106333D01*
X0106450Y-0206506D01*
X0106566Y-0206389D01*
X0106682D01*
X0106798Y-0206273D01*
X0106914Y-0206157D01*
X0107031Y-0206041D01*
X0107147D01*
X0107263Y-0205925D01*
X0107379Y-0205808D01*
X0107495Y-0205692D01*
X0107612Y-0205576D01*
X0107728Y-0205460D01*
X0107844Y-0205344D01*
Y-0205227D01*
X0107960Y-0205111D01*
X0108076Y-0204995D01*
Y-0204879D01*
X0108193Y-0204763D01*
X0108309Y-0204646D01*
Y-0204530D01*
X0108425Y-0204414D01*
Y-0204298D01*
X0108541Y-0204182D01*
Y-0204066D01*
Y-0203949D01*
X0108657Y-0203833D01*
Y-0203717D01*
Y-0203601D01*
X0108774Y-0203485D01*
Y-0203368D01*
Y-0203252D01*
Y-0203136D01*
X0108890Y-0203020D01*
Y-0202904D01*
Y-0202787D01*
Y-0202671D01*
Y-0202555D01*
X0109006Y-0202439D01*
Y-0202323D01*
Y-0202206D01*
Y-0202090D01*
Y-0201974D01*
Y-0201858D01*
Y-0201742D01*
Y-0201625D01*
Y-0201509D01*
Y-0201393D01*
Y-0201277D01*
Y-0201161D01*
Y-0201044D01*
Y-0200928D01*
Y-0200812D01*
Y-0200696D01*
Y-0200580D01*
Y-0200463D01*
Y-0200347D01*
Y-0200231D01*
Y-0200115D01*
Y-0199999D01*
Y-0199882D01*
Y-0199766D01*
Y-0199650D01*
G37*
G36*
X0089601Y-0200812D02*
X0089485Y-0200696D01*
Y-0200580D01*
Y-0200463D01*
Y-0200347D01*
Y-0200231D01*
Y-0200115D01*
Y-0199999D01*
Y-0199882D01*
Y-0199766D01*
Y-0199650D01*
X0089369Y-0199534D01*
Y-0199418D01*
Y-0199301D01*
Y-0199185D01*
Y-0199069D01*
X0089253Y-0198953D01*
Y-0198837D01*
Y-0198720D01*
Y-0198604D01*
X0089136Y-0198488D01*
Y-0198372D01*
Y-0198256D01*
X0089020Y-0198139D01*
Y-0198023D01*
X0088904Y-0197907D01*
Y-0197791D01*
Y-0197675D01*
X0088788Y-0197559D01*
Y-0197442D01*
X0088672Y-0197326D01*
Y-0197210D01*
X0088555Y-0197094D01*
X0088439Y-0196978D01*
Y-0196861D01*
X0088323Y-0196745D01*
X0088207Y-0196629D01*
X0088091Y-0196513D01*
X0087974Y-0196397D01*
X0087858Y-0196280D01*
X0087742Y-0196164D01*
X0087626Y-0196048D01*
X0087510Y-0195932D01*
X0087393Y-0195816D01*
X0087277D01*
X0087161Y-0195699D01*
X0087045Y-0195583D01*
X0086929D01*
X0086812Y-0195467D01*
X0086696D01*
X0086580D01*
X0086464Y-0195351D01*
X0086348D01*
X0086231Y-0195235D01*
X0086115D01*
X0085999D01*
X0085883Y-0195118D01*
X0085767D01*
X0085650D01*
X0085534Y-0195002D01*
X0085418D01*
X0085302D01*
X0085186D01*
X0085069D01*
X0084953Y-0194886D01*
X0084837D01*
X0084721D01*
X0084605D01*
X0084488D01*
X0084372D01*
X0084256D01*
X0084140D01*
X0084024D01*
X0083907D01*
X0083791D01*
X0083675D01*
X0083559D01*
X0083443D01*
X0083326D01*
X0083210Y-0195002D01*
X0083094D01*
X0082978D01*
X0082862D01*
X0082746D01*
X0082629Y-0195118D01*
X0082513D01*
X0082397D01*
X0082281D01*
X0082165Y-0195235D01*
X0082048D01*
X0081932Y-0195351D01*
X0081816D01*
X0081700Y-0195467D01*
X0081584D01*
X0081467Y-0195583D01*
X0081351D01*
X0081235Y-0195699D01*
X0081119Y-0195816D01*
X0081003D01*
X0080886Y-0195932D01*
X0080770Y-0196048D01*
X0080654Y-0196164D01*
X0080538Y-0196280D01*
X0080422Y-0196397D01*
X0080305Y-0196513D01*
Y-0196629D01*
X0080189Y-0196745D01*
X0080073Y-0196861D01*
Y-0196978D01*
X0079957Y-0197094D01*
Y-0197210D01*
X0079841Y-0197326D01*
Y-0197442D01*
X0079724Y-0197559D01*
Y-0197675D01*
Y-0197791D01*
X0079608Y-0197907D01*
Y-0198023D01*
Y-0198139D01*
X0079492Y-0198256D01*
Y-0198372D01*
Y-0198488D01*
X0079608D01*
X0079724D01*
X0079841D01*
X0079957Y-0198604D01*
X0080073D01*
X0080189D01*
X0080305D01*
X0080422D01*
X0080538D01*
X0080654Y-0198720D01*
X0080770D01*
X0080886D01*
X0081003D01*
X0081119D01*
X0081235D01*
Y-0198604D01*
X0081351Y-0198488D01*
Y-0198372D01*
Y-0198256D01*
X0081467Y-0198139D01*
Y-0198023D01*
X0081584Y-0197907D01*
Y-0197791D01*
X0081700Y-0197675D01*
Y-0197559D01*
X0081816Y-0197442D01*
X0081932Y-0197326D01*
X0082048Y-0197210D01*
X0082165Y-0197094D01*
X0082281Y-0196978D01*
X0082397Y-0196861D01*
X0082513Y-0196745D01*
X0082629D01*
X0082746Y-0196629D01*
X0082862D01*
X0082978Y-0196513D01*
X0083094D01*
X0083210Y-0196397D01*
X0083326D01*
X0083443D01*
X0083559D01*
X0083675D01*
X0083791Y-0196280D01*
X0083907D01*
X0084024D01*
X0084140D01*
X0084256D01*
X0084372D01*
X0084488Y-0196397D01*
X0084605D01*
X0084721D01*
X0084837D01*
X0084953D01*
X0085069D01*
X0085186Y-0196513D01*
X0085302D01*
X0085418D01*
X0085534Y-0196629D01*
X0085650D01*
X0085767Y-0196745D01*
X0085883D01*
X0085999Y-0196861D01*
X0086115Y-0196978D01*
X0086231D01*
X0086348Y-0197094D01*
X0086464Y-0197210D01*
X0086580Y-0197326D01*
X0086696Y-0197442D01*
Y-0197559D01*
X0086812Y-0197675D01*
X0086929Y-0197791D01*
X0087045Y-0197907D01*
Y-0198023D01*
X0087161Y-0198139D01*
Y-0198256D01*
X0087277Y-0198372D01*
Y-0198488D01*
Y-0198604D01*
X0087393Y-0198720D01*
Y-0198837D01*
Y-0198953D01*
X0087510Y-0199069D01*
Y-0199185D01*
Y-0199301D01*
Y-0199418D01*
Y-0199534D01*
X0087626Y-0199650D01*
Y-0199766D01*
Y-0199882D01*
Y-0199999D01*
Y-0200115D01*
Y-0200231D01*
Y-0200347D01*
Y-0200463D01*
Y-0200580D01*
Y-0200696D01*
Y-0200812D01*
Y-0200928D01*
Y-0201044D01*
Y-0201161D01*
Y-0201277D01*
Y-0201393D01*
Y-0201509D01*
Y-0201625D01*
Y-0201742D01*
Y-0201858D01*
Y-0201974D01*
Y-0202090D01*
Y-0202206D01*
Y-0202323D01*
Y-0202439D01*
X0087510Y-0202555D01*
Y-0202671D01*
Y-0202787D01*
Y-0202904D01*
Y-0203020D01*
X0087393Y-0203136D01*
Y-0203252D01*
Y-0203368D01*
Y-0203485D01*
X0087277Y-0203601D01*
Y-0203717D01*
X0087161Y-0203833D01*
Y-0203949D01*
X0087045Y-0204066D01*
Y-0204182D01*
X0086929Y-0204298D01*
Y-0204414D01*
X0086812Y-0204530D01*
X0086696Y-0204646D01*
X0086580Y-0204763D01*
X0086464Y-0204879D01*
X0086348Y-0204995D01*
X0086231Y-0205111D01*
X0086115Y-0205227D01*
X0085999D01*
X0085883Y-0205344D01*
X0085767Y-0205460D01*
X0085650D01*
X0085534Y-0205576D01*
X0085418D01*
X0085302D01*
X0085186Y-0205692D01*
X0085069D01*
X0084953D01*
X0084837D01*
X0084721Y-0205808D01*
X0084605D01*
X0084488D01*
X0084372D01*
X0084256D01*
X0084140D01*
X0084024D01*
X0083907D01*
X0083791D01*
X0083675D01*
X0083559Y-0205692D01*
X0083443D01*
X0083326D01*
X0083210D01*
X0083094Y-0205576D01*
X0082978D01*
X0082862D01*
X0082746Y-0205460D01*
X0082629D01*
X0082513Y-0205344D01*
X0082397Y-0205227D01*
X0082281D01*
X0082165Y-0205111D01*
X0082048Y-0204995D01*
X0081932Y-0204879D01*
X0081816Y-0204763D01*
X0081700Y-0204646D01*
Y-0204530D01*
X0081584Y-0204414D01*
Y-0204298D01*
X0081467Y-0204182D01*
Y-0204066D01*
X0081351Y-0203949D01*
Y-0203833D01*
X0081235Y-0203717D01*
Y-0203601D01*
Y-0203485D01*
Y-0203368D01*
X0081119Y-0203252D01*
Y-0203136D01*
Y-0203020D01*
Y-0202904D01*
X0081003Y-0202787D01*
X0080886D01*
X0080770D01*
X0080654Y-0202904D01*
X0080538D01*
X0080422D01*
X0080305D01*
X0080189D01*
X0080073D01*
X0079957D01*
X0079841Y-0203020D01*
X0079724D01*
X0079608D01*
X0079492D01*
X0079376D01*
X0079260D01*
Y-0203136D01*
X0079376Y-0203252D01*
Y-0203368D01*
Y-0203485D01*
Y-0203601D01*
X0079492Y-0203717D01*
Y-0203833D01*
Y-0203949D01*
X0079608Y-0204066D01*
Y-0204182D01*
Y-0204298D01*
X0079724Y-0204414D01*
Y-0204530D01*
X0079841Y-0204646D01*
Y-0204763D01*
X0079957Y-0204879D01*
Y-0204995D01*
X0080073Y-0205111D01*
X0080189Y-0205227D01*
Y-0205344D01*
X0080305Y-0205460D01*
X0080422Y-0205576D01*
X0080538Y-0205692D01*
X0080654Y-0205808D01*
X0080770Y-0205925D01*
X0080886Y-0206041D01*
X0081003Y-0206157D01*
X0081119Y-0206273D01*
X0081235Y-0206389D01*
X0081351D01*
X0081467Y-0206506D01*
X0081584Y-0206622D01*
X0081700D01*
X0081816Y-0206738D01*
X0081932D01*
X0082048Y-0206854D01*
X0082165D01*
X0082281Y-0206970D01*
X0082397D01*
X0082513D01*
X0082629Y-0207087D01*
X0082746D01*
X0082862D01*
X0082978D01*
X0083094Y-0207203D01*
X0083210D01*
X0083326D01*
X0083443D01*
X0083559D01*
X0083675D01*
X0083791D01*
X0083907D01*
X0084024D01*
X0084140D01*
X0084256D01*
X0084372D01*
X0084488D01*
X0084605D01*
X0084721D01*
X0084837D01*
X0084953D01*
X0085069D01*
X0085186D01*
X0085302D01*
X0085418Y-0207087D01*
X0085534D01*
X0085650D01*
X0085767D01*
X0085883Y-0206970D01*
X0085999D01*
X0086115D01*
X0086231Y-0206854D01*
X0086348D01*
X0086464Y-0206738D01*
X0086580D01*
X0086696D01*
X0086812Y-0206622D01*
X0086929Y-0206506D01*
X0087045D01*
X0087161Y-0206389D01*
X0087277D01*
X0087393Y-0206273D01*
X0087510Y-0206157D01*
X0087626Y-0206041D01*
X0087742Y-0205925D01*
X0087858Y-0205808D01*
X0087974Y-0205692D01*
X0088091Y-0205576D01*
X0088207Y-0205460D01*
X0088323Y-0205344D01*
X0088439Y-0205227D01*
Y-0205111D01*
X0088555Y-0204995D01*
X0088672Y-0204879D01*
Y-0204763D01*
X0088788Y-0204646D01*
Y-0204530D01*
X0088904Y-0204414D01*
Y-0204298D01*
X0089020Y-0204182D01*
Y-0204066D01*
X0089136Y-0203949D01*
Y-0203833D01*
Y-0203717D01*
X0089253Y-0203601D01*
Y-0203485D01*
Y-0203368D01*
Y-0203252D01*
X0089369Y-0203136D01*
Y-0203020D01*
Y-0202904D01*
Y-0202787D01*
Y-0202671D01*
X0089485Y-0202555D01*
Y-0202439D01*
Y-0202323D01*
Y-0202206D01*
Y-0202090D01*
Y-0201974D01*
Y-0201858D01*
Y-0201742D01*
Y-0201625D01*
Y-0201509D01*
X0089601Y-0201393D01*
Y-0201277D01*
Y-0201161D01*
Y-0201044D01*
Y-0200928D01*
Y-0200812D01*
G37*
G36*
X0078098Y-0200463D02*
X0077981Y-0200347D01*
Y-0200231D01*
Y-0200115D01*
Y-0199999D01*
Y-0199882D01*
Y-0199766D01*
Y-0199650D01*
Y-0199534D01*
X0077865Y-0199418D01*
Y-0199301D01*
Y-0199185D01*
Y-0199069D01*
Y-0198953D01*
X0077749Y-0198837D01*
Y-0198720D01*
Y-0198604D01*
Y-0198488D01*
X0077633Y-0198372D01*
Y-0198256D01*
X0077517Y-0198139D01*
Y-0198023D01*
Y-0197907D01*
X0077400Y-0197791D01*
Y-0197675D01*
X0077284Y-0197559D01*
Y-0197442D01*
X0077168Y-0197326D01*
X0077052Y-0197210D01*
Y-0197094D01*
X0076936Y-0196978D01*
X0076819Y-0196861D01*
Y-0196745D01*
X0076703Y-0196629D01*
X0076587Y-0196513D01*
X0076471Y-0196397D01*
X0076355Y-0196280D01*
X0076239Y-0196164D01*
X0076122D01*
X0076006Y-0196048D01*
X0075890Y-0195932D01*
X0075774Y-0195816D01*
X0075658D01*
X0075541Y-0195699D01*
X0075425Y-0195583D01*
X0075309D01*
X0075193Y-0195467D01*
X0075077D01*
X0074960Y-0195351D01*
X0074844D01*
X0074728D01*
X0074612Y-0195235D01*
X0074496D01*
X0074379Y-0195118D01*
X0074263D01*
X0074147D01*
X0074031D01*
X0073915Y-0195002D01*
X0073798D01*
X0073682D01*
X0073566D01*
X0073450Y-0194886D01*
X0073334D01*
X0073217D01*
X0073101D01*
X0072985D01*
X0072869D01*
X0072753D01*
X0072636D01*
X0072520D01*
X0072404D01*
X0072288D01*
X0072172D01*
X0072055D01*
X0071939D01*
X0071823D01*
X0071707D01*
X0071591Y-0195002D01*
X0071474D01*
X0071358D01*
X0071242D01*
X0071126D01*
X0071010D01*
X0070893Y-0195118D01*
X0070777D01*
X0070661D01*
X0070545Y-0195235D01*
X0070429D01*
X0070312D01*
X0070196Y-0195351D01*
X0070080D01*
X0069964Y-0195467D01*
X0069848D01*
X0069732Y-0195583D01*
X0069615D01*
X0069499Y-0195699D01*
X0069383Y-0195816D01*
X0069267D01*
X0069151Y-0195932D01*
X0069034Y-0196048D01*
X0068918Y-0196164D01*
X0068802D01*
X0068686Y-0196280D01*
X0068570Y-0196397D01*
X0068453Y-0196513D01*
X0068337Y-0196629D01*
Y-0196745D01*
X0068221Y-0196861D01*
X0068105Y-0196978D01*
X0067989Y-0197094D01*
Y-0197210D01*
X0067872Y-0197326D01*
X0067756Y-0197442D01*
Y-0197559D01*
X0067640Y-0197675D01*
Y-0197791D01*
X0067524Y-0197907D01*
Y-0198023D01*
Y-0198139D01*
X0067408Y-0198256D01*
Y-0198372D01*
X0067291Y-0198488D01*
Y-0198604D01*
Y-0198720D01*
Y-0198837D01*
X0067175Y-0198953D01*
Y-0199069D01*
Y-0199185D01*
Y-0199301D01*
Y-0199418D01*
X0067059Y-0199534D01*
Y-0199650D01*
Y-0199766D01*
Y-0199882D01*
Y-0199999D01*
Y-0200115D01*
Y-0200231D01*
Y-0200347D01*
Y-0200463D01*
X0066943Y-0200580D01*
Y-0200696D01*
Y-0200812D01*
Y-0200928D01*
Y-0201044D01*
Y-0201161D01*
Y-0201277D01*
X0067059Y-0201393D01*
Y-0201509D01*
Y-0201625D01*
Y-0201742D01*
Y-0201858D01*
Y-0201974D01*
Y-0202090D01*
Y-0202206D01*
Y-0202323D01*
Y-0202439D01*
Y-0202555D01*
X0067175Y-0202671D01*
Y-0202787D01*
Y-0202904D01*
Y-0203020D01*
Y-0203136D01*
X0067291Y-0203252D01*
Y-0203368D01*
Y-0203485D01*
Y-0203601D01*
X0067408Y-0203717D01*
Y-0203833D01*
Y-0203949D01*
X0067524Y-0204066D01*
Y-0204182D01*
X0067640Y-0204298D01*
Y-0204414D01*
X0067756Y-0204530D01*
Y-0204646D01*
X0067872Y-0204763D01*
Y-0204879D01*
X0067989Y-0204995D01*
X0068105Y-0205111D01*
Y-0205227D01*
X0068221Y-0205344D01*
X0068337Y-0205460D01*
X0068453Y-0205576D01*
X0068570Y-0205692D01*
X0068686Y-0205808D01*
X0068802Y-0205925D01*
X0068918Y-0206041D01*
X0069034Y-0206157D01*
X0069151D01*
X0069267Y-0206273D01*
X0069383Y-0206389D01*
X0069499D01*
X0069615Y-0206506D01*
X0069732D01*
X0069848Y-0206622D01*
X0069964D01*
X0070080Y-0206738D01*
X0070196D01*
X0070312Y-0206854D01*
X0070429D01*
X0070545Y-0206970D01*
X0070661D01*
X0070777D01*
X0070893Y-0207087D01*
X0071010D01*
X0071126D01*
X0071242D01*
X0071358D01*
X0071474Y-0207203D01*
X0071591D01*
X0071707D01*
X0071823D01*
X0071939D01*
X0072055D01*
X0072172D01*
X0072288D01*
X0072404D01*
X0072520D01*
X0072636D01*
X0072753D01*
X0072869D01*
X0072985D01*
X0073101D01*
X0073217D01*
X0073334D01*
X0073450D01*
X0073566D01*
X0073682D01*
X0073798Y-0207087D01*
X0073915D01*
X0074031D01*
X0074147D01*
X0074263Y-0206970D01*
X0074379D01*
X0074496D01*
X0074612Y-0206854D01*
X0074728D01*
X0074844D01*
X0074960Y-0206738D01*
X0075077D01*
X0075193Y-0206622D01*
X0075309D01*
X0075425Y-0206506D01*
X0075541D01*
X0075658Y-0206389D01*
X0075774Y-0206273D01*
X0075890Y-0206157D01*
X0076006D01*
X0076122Y-0206041D01*
X0076239Y-0205925D01*
X0076355Y-0205808D01*
X0076471Y-0205692D01*
X0076587Y-0205576D01*
X0076703Y-0205460D01*
X0076819Y-0205344D01*
X0076936Y-0205227D01*
Y-0205111D01*
X0077052Y-0204995D01*
X0077168Y-0204879D01*
Y-0204763D01*
X0077284Y-0204646D01*
Y-0204530D01*
X0077400Y-0204414D01*
Y-0204298D01*
X0077517Y-0204182D01*
Y-0204066D01*
X0077633Y-0203949D01*
Y-0203833D01*
Y-0203717D01*
X0077749Y-0203601D01*
Y-0203485D01*
Y-0203368D01*
Y-0203252D01*
X0077865Y-0203136D01*
Y-0203020D01*
Y-0202904D01*
Y-0202787D01*
Y-0202671D01*
X0077981Y-0202555D01*
Y-0202439D01*
Y-0202323D01*
Y-0202206D01*
Y-0202090D01*
Y-0201974D01*
Y-0201858D01*
Y-0201742D01*
X0078098Y-0201625D01*
Y-0201509D01*
Y-0201393D01*
Y-0201277D01*
Y-0201161D01*
Y-0201044D01*
Y-0200928D01*
Y-0200812D01*
Y-0200696D01*
Y-0200580D01*
Y-0200463D01*
G37*
G36*
X0064386Y-0195118D02*
X0064270D01*
X0064154D01*
X0064038D01*
X0063922D01*
X0063806D01*
X0063689D01*
X0063573D01*
X0063457D01*
X0063341D01*
X0063225D01*
X0063108D01*
X0062992D01*
X0062876D01*
X0062760D01*
Y-0195235D01*
Y-0195351D01*
Y-0195467D01*
Y-0195583D01*
Y-0195699D01*
Y-0195816D01*
Y-0195932D01*
Y-0196048D01*
Y-0196164D01*
Y-0196280D01*
Y-0196397D01*
Y-0196513D01*
Y-0196629D01*
Y-0196745D01*
X0062644Y-0196861D01*
X0062527Y-0196745D01*
X0062411Y-0196629D01*
X0062295Y-0196513D01*
X0062179Y-0196397D01*
Y-0196280D01*
X0062063Y-0196164D01*
X0061946Y-0196048D01*
X0061830Y-0195932D01*
X0061714Y-0195816D01*
X0061598D01*
X0061482Y-0195699D01*
X0061365Y-0195583D01*
X0061249D01*
X0061133Y-0195467D01*
X0061017Y-0195351D01*
X0060901D01*
X0060784Y-0195235D01*
X0060668D01*
X0060552D01*
X0060436Y-0195118D01*
X0060320D01*
X0060203D01*
X0060087Y-0195002D01*
X0059971D01*
X0059855D01*
X0059739D01*
X0059622D01*
X0059506Y-0194886D01*
X0059390D01*
X0059274D01*
X0059158D01*
X0059041D01*
X0058925D01*
X0058809D01*
X0058693D01*
X0058577D01*
X0058460D01*
X0058344D01*
X0058228D01*
X0058112D01*
X0057996D01*
X0057879Y-0195002D01*
X0057763D01*
X0057647D01*
X0057531D01*
X0057415Y-0195118D01*
X0057299D01*
X0057182D01*
X0057066Y-0195235D01*
X0056950D01*
X0056834D01*
X0056718Y-0195351D01*
X0056601D01*
X0056485Y-0195467D01*
X0056369D01*
X0056253Y-0195583D01*
X0056137Y-0195699D01*
X0056020D01*
X0055904Y-0195816D01*
X0055788Y-0195932D01*
X0055672Y-0196048D01*
X0055556Y-0196164D01*
Y-0196280D01*
X0055439Y-0196397D01*
X0055323Y-0196513D01*
Y-0196629D01*
X0055207Y-0196745D01*
Y-0196861D01*
X0055091Y-0196978D01*
Y-0197094D01*
Y-0197210D01*
X0054975Y-0197326D01*
Y-0197442D01*
Y-0197559D01*
Y-0197675D01*
X0054858Y-0197791D01*
Y-0197907D01*
Y-0198023D01*
Y-0198139D01*
Y-0198256D01*
Y-0198372D01*
Y-0198488D01*
Y-0198604D01*
Y-0198720D01*
Y-0198837D01*
Y-0198953D01*
Y-0199069D01*
Y-0199185D01*
Y-0199301D01*
Y-0199418D01*
Y-0199534D01*
Y-0199650D01*
Y-0199766D01*
Y-0199882D01*
Y-0199999D01*
Y-0200115D01*
Y-0200231D01*
Y-0200347D01*
Y-0200463D01*
Y-0200580D01*
Y-0200696D01*
Y-0200812D01*
Y-0200928D01*
Y-0201044D01*
Y-0201161D01*
Y-0201277D01*
Y-0201393D01*
Y-0201509D01*
Y-0201625D01*
Y-0201742D01*
Y-0201858D01*
Y-0201974D01*
Y-0202090D01*
Y-0202206D01*
Y-0202323D01*
Y-0202439D01*
Y-0202555D01*
Y-0202671D01*
Y-0202787D01*
Y-0202904D01*
Y-0203020D01*
Y-0203136D01*
Y-0203252D01*
Y-0203368D01*
Y-0203485D01*
Y-0203601D01*
Y-0203717D01*
Y-0203833D01*
Y-0203949D01*
Y-0204066D01*
Y-0204182D01*
Y-0204298D01*
Y-0204414D01*
Y-0204530D01*
Y-0204646D01*
Y-0204763D01*
Y-0204879D01*
Y-0204995D01*
Y-0205111D01*
Y-0205227D01*
Y-0205344D01*
Y-0205460D01*
Y-0205576D01*
Y-0205692D01*
Y-0205808D01*
Y-0205925D01*
Y-0206041D01*
Y-0206157D01*
Y-0206273D01*
Y-0206389D01*
Y-0206506D01*
Y-0206622D01*
Y-0206738D01*
Y-0206854D01*
Y-0206970D01*
X0054975D01*
X0055091D01*
X0055207D01*
X0055323D01*
X0055439D01*
X0055556D01*
X0055672D01*
X0055788D01*
X0055904D01*
X0056020D01*
X0056137D01*
X0056253D01*
X0056369D01*
X0056485D01*
X0056601D01*
Y-0206854D01*
Y-0206738D01*
Y-0206622D01*
Y-0206506D01*
Y-0206389D01*
Y-0206273D01*
Y-0206157D01*
Y-0206041D01*
Y-0205925D01*
Y-0205808D01*
Y-0205692D01*
Y-0205576D01*
Y-0205460D01*
Y-0205344D01*
Y-0205227D01*
Y-0205111D01*
Y-0204995D01*
Y-0204879D01*
Y-0204763D01*
Y-0204646D01*
Y-0204530D01*
Y-0204414D01*
Y-0204298D01*
Y-0204182D01*
Y-0204066D01*
Y-0203949D01*
Y-0203833D01*
Y-0203717D01*
Y-0203601D01*
Y-0203485D01*
Y-0203368D01*
Y-0203252D01*
Y-0203136D01*
Y-0203020D01*
Y-0202904D01*
Y-0202787D01*
Y-0202671D01*
Y-0202555D01*
Y-0202439D01*
Y-0202323D01*
Y-0202206D01*
Y-0202090D01*
Y-0201974D01*
Y-0201858D01*
Y-0201742D01*
Y-0201625D01*
Y-0201509D01*
Y-0201393D01*
Y-0201277D01*
Y-0201161D01*
Y-0201044D01*
Y-0200928D01*
Y-0200812D01*
Y-0200696D01*
Y-0200580D01*
Y-0200463D01*
Y-0200347D01*
Y-0200231D01*
Y-0200115D01*
Y-0199999D01*
Y-0199882D01*
Y-0199766D01*
Y-0199650D01*
Y-0199534D01*
Y-0199418D01*
Y-0199301D01*
Y-0199185D01*
Y-0199069D01*
Y-0198953D01*
Y-0198837D01*
X0056718Y-0198720D01*
Y-0198604D01*
Y-0198488D01*
Y-0198372D01*
Y-0198256D01*
Y-0198139D01*
X0056834Y-0198023D01*
Y-0197907D01*
Y-0197791D01*
X0056950Y-0197675D01*
Y-0197559D01*
X0057066Y-0197442D01*
X0057182Y-0197326D01*
X0057299Y-0197210D01*
X0057415Y-0197094D01*
X0057531Y-0196978D01*
X0057647Y-0196861D01*
X0057763Y-0196745D01*
X0057879D01*
X0057996Y-0196629D01*
X0058112D01*
X0058228D01*
X0058344Y-0196513D01*
X0058460D01*
X0058577D01*
X0058693D01*
X0058809Y-0196397D01*
X0058925D01*
X0059041D01*
X0059158D01*
X0059274D01*
X0059390D01*
X0059506D01*
X0059622D01*
X0059739D01*
X0059855Y-0196513D01*
X0059971D01*
X0060087D01*
X0060203D01*
X0060320D01*
X0060436Y-0196629D01*
X0060552D01*
X0060668Y-0196745D01*
X0060784D01*
X0060901Y-0196861D01*
X0061017D01*
X0061133Y-0196978D01*
X0061249D01*
X0061365Y-0197094D01*
X0061482Y-0197210D01*
X0061598Y-0197326D01*
X0061714Y-0197442D01*
X0061830Y-0197559D01*
X0061946Y-0197675D01*
Y-0197791D01*
X0062063Y-0197907D01*
X0062179Y-0198023D01*
Y-0198139D01*
Y-0198256D01*
X0062295Y-0198372D01*
Y-0198488D01*
Y-0198604D01*
X0062411Y-0198720D01*
Y-0198837D01*
Y-0198953D01*
Y-0199069D01*
Y-0199185D01*
X0062527Y-0199301D01*
Y-0199418D01*
Y-0199534D01*
Y-0199650D01*
Y-0199766D01*
Y-0199882D01*
Y-0199999D01*
Y-0200115D01*
Y-0200231D01*
Y-0200347D01*
Y-0200463D01*
Y-0200580D01*
Y-0200696D01*
Y-0200812D01*
Y-0200928D01*
Y-0201044D01*
Y-0201161D01*
Y-0201277D01*
Y-0201393D01*
Y-0201509D01*
Y-0201625D01*
Y-0201742D01*
Y-0201858D01*
Y-0201974D01*
Y-0202090D01*
Y-0202206D01*
Y-0202323D01*
Y-0202439D01*
Y-0202555D01*
Y-0202671D01*
Y-0202787D01*
Y-0202904D01*
Y-0203020D01*
Y-0203136D01*
Y-0203252D01*
Y-0203368D01*
Y-0203485D01*
Y-0203601D01*
Y-0203717D01*
Y-0203833D01*
Y-0203949D01*
Y-0204066D01*
Y-0204182D01*
Y-0204298D01*
Y-0204414D01*
Y-0204530D01*
Y-0204646D01*
Y-0204763D01*
Y-0204879D01*
Y-0204995D01*
Y-0205111D01*
Y-0205227D01*
Y-0205344D01*
Y-0205460D01*
Y-0205576D01*
Y-0205692D01*
Y-0205808D01*
Y-0205925D01*
Y-0206041D01*
Y-0206157D01*
Y-0206273D01*
Y-0206389D01*
Y-0206506D01*
Y-0206622D01*
Y-0206738D01*
Y-0206854D01*
Y-0206970D01*
X0062644D01*
X0062760D01*
X0062876D01*
X0062992D01*
X0063108D01*
X0063225D01*
X0063341D01*
X0063457D01*
X0063573D01*
X0063689D01*
X0063806D01*
X0063922D01*
X0064038D01*
X0064154D01*
X0064270D01*
X0064386D01*
Y-0206854D01*
Y-0206738D01*
Y-0206622D01*
Y-0206506D01*
Y-0206389D01*
Y-0206273D01*
Y-0206157D01*
Y-0206041D01*
Y-0205925D01*
Y-0205808D01*
Y-0205692D01*
Y-0205576D01*
Y-0205460D01*
Y-0205344D01*
Y-0205227D01*
Y-0205111D01*
Y-0204995D01*
Y-0204879D01*
Y-0204763D01*
Y-0204646D01*
Y-0204530D01*
Y-0204414D01*
Y-0204298D01*
Y-0204182D01*
Y-0204066D01*
Y-0203949D01*
Y-0203833D01*
Y-0203717D01*
Y-0203601D01*
Y-0203485D01*
Y-0203368D01*
Y-0203252D01*
Y-0203136D01*
Y-0203020D01*
Y-0202904D01*
Y-0202787D01*
Y-0202671D01*
Y-0202555D01*
Y-0202439D01*
Y-0202323D01*
Y-0202206D01*
Y-0202090D01*
Y-0201974D01*
Y-0201858D01*
Y-0201742D01*
Y-0201625D01*
Y-0201509D01*
Y-0201393D01*
Y-0201277D01*
Y-0201161D01*
Y-0201044D01*
Y-0200928D01*
Y-0200812D01*
Y-0200696D01*
Y-0200580D01*
Y-0200463D01*
Y-0200347D01*
Y-0200231D01*
Y-0200115D01*
Y-0199999D01*
Y-0199882D01*
Y-0199766D01*
Y-0199650D01*
Y-0199534D01*
Y-0199418D01*
Y-0199301D01*
Y-0199185D01*
Y-0199069D01*
Y-0198953D01*
Y-0198837D01*
Y-0198720D01*
Y-0198604D01*
Y-0198488D01*
Y-0198372D01*
Y-0198256D01*
Y-0198139D01*
Y-0198023D01*
Y-0197907D01*
Y-0197791D01*
Y-0197675D01*
Y-0197559D01*
Y-0197442D01*
Y-0197326D01*
Y-0197210D01*
Y-0197094D01*
Y-0196978D01*
Y-0196861D01*
Y-0196745D01*
Y-0196629D01*
Y-0196513D01*
Y-0196397D01*
Y-0196280D01*
Y-0196164D01*
Y-0196048D01*
Y-0195932D01*
Y-0195816D01*
Y-0195699D01*
Y-0195583D01*
Y-0195467D01*
Y-0195351D01*
Y-0195235D01*
Y-0195118D01*
G37*
G36*
X0051489D02*
X0051372D01*
X0051256D01*
X0051140D01*
X0051024D01*
X0050908D01*
X0050792D01*
X0050675D01*
X0050559D01*
X0050443D01*
X0050327D01*
X0050211D01*
X0050094D01*
X0049978D01*
X0049862D01*
Y-0195235D01*
Y-0195351D01*
Y-0195467D01*
Y-0195583D01*
Y-0195699D01*
Y-0195816D01*
Y-0195932D01*
Y-0196048D01*
Y-0196164D01*
Y-0196280D01*
Y-0196397D01*
Y-0196513D01*
Y-0196629D01*
Y-0196745D01*
X0049746Y-0196861D01*
X0049630D01*
X0049513Y-0196745D01*
Y-0196629D01*
X0049397Y-0196513D01*
X0049281Y-0196397D01*
X0049165Y-0196280D01*
X0049049Y-0196164D01*
Y-0196048D01*
X0048932D01*
X0048816Y-0195932D01*
X0048700Y-0195816D01*
X0048584Y-0195699D01*
X0048468Y-0195583D01*
X0048351D01*
X0048235Y-0195467D01*
X0048119D01*
X0048003Y-0195351D01*
X0047887D01*
X0047770Y-0195235D01*
X0047654D01*
X0047538Y-0195118D01*
X0047422D01*
X0047306D01*
X0047189Y-0195002D01*
X0047073D01*
X0046957D01*
X0046841D01*
X0046725D01*
X0046608Y-0194886D01*
X0046492D01*
X0046376D01*
X0046260D01*
X0046144D01*
X0046027D01*
X0045911D01*
X0045795D01*
X0045679D01*
X0045563D01*
X0045446D01*
X0045330D01*
X0045214D01*
X0045098D01*
X0044982Y-0195002D01*
X0044865D01*
X0044749D01*
X0044633D01*
X0044517Y-0195118D01*
X0044401D01*
X0044285D01*
X0044168Y-0195235D01*
X0044052D01*
X0043936D01*
X0043820Y-0195351D01*
X0043704D01*
X0043587Y-0195467D01*
X0043471D01*
X0043355Y-0195583D01*
X0043239Y-0195699D01*
X0043123D01*
X0043006Y-0195816D01*
X0042890Y-0195932D01*
X0042774Y-0196048D01*
X0042658Y-0196164D01*
X0042542Y-0196280D01*
Y-0196397D01*
X0042425Y-0196513D01*
Y-0196629D01*
X0042309Y-0196745D01*
Y-0196861D01*
X0042193Y-0196978D01*
Y-0197094D01*
X0042077Y-0197210D01*
Y-0197326D01*
Y-0197442D01*
Y-0197559D01*
X0041961Y-0197675D01*
Y-0197791D01*
Y-0197907D01*
Y-0198023D01*
Y-0198139D01*
Y-0198256D01*
Y-0198372D01*
Y-0198488D01*
Y-0198604D01*
X0041844Y-0198720D01*
Y-0198837D01*
Y-0198953D01*
Y-0199069D01*
Y-0199185D01*
Y-0199301D01*
Y-0199418D01*
Y-0199534D01*
Y-0199650D01*
Y-0199766D01*
Y-0199882D01*
Y-0199999D01*
Y-0200115D01*
Y-0200231D01*
Y-0200347D01*
Y-0200463D01*
Y-0200580D01*
Y-0200696D01*
Y-0200812D01*
Y-0200928D01*
Y-0201044D01*
Y-0201161D01*
Y-0201277D01*
Y-0201393D01*
Y-0201509D01*
Y-0201625D01*
Y-0201742D01*
Y-0201858D01*
Y-0201974D01*
Y-0202090D01*
Y-0202206D01*
Y-0202323D01*
Y-0202439D01*
Y-0202555D01*
Y-0202671D01*
Y-0202787D01*
Y-0202904D01*
Y-0203020D01*
Y-0203136D01*
Y-0203252D01*
Y-0203368D01*
Y-0203485D01*
Y-0203601D01*
Y-0203717D01*
Y-0203833D01*
Y-0203949D01*
Y-0204066D01*
Y-0204182D01*
Y-0204298D01*
Y-0204414D01*
Y-0204530D01*
Y-0204646D01*
Y-0204763D01*
Y-0204879D01*
Y-0204995D01*
Y-0205111D01*
Y-0205227D01*
Y-0205344D01*
Y-0205460D01*
Y-0205576D01*
Y-0205692D01*
Y-0205808D01*
Y-0205925D01*
Y-0206041D01*
Y-0206157D01*
Y-0206273D01*
Y-0206389D01*
Y-0206506D01*
Y-0206622D01*
Y-0206738D01*
Y-0206854D01*
Y-0206970D01*
X0041961D01*
X0042077D01*
X0042193D01*
X0042309D01*
X0042425D01*
X0042542D01*
X0042658D01*
X0042774D01*
X0042890D01*
X0043006D01*
X0043123D01*
X0043239D01*
X0043355D01*
X0043471D01*
X0043587D01*
X0043704D01*
Y-0206854D01*
Y-0206738D01*
Y-0206622D01*
Y-0206506D01*
Y-0206389D01*
Y-0206273D01*
Y-0206157D01*
Y-0206041D01*
Y-0205925D01*
Y-0205808D01*
Y-0205692D01*
Y-0205576D01*
Y-0205460D01*
Y-0205344D01*
Y-0205227D01*
Y-0205111D01*
Y-0204995D01*
Y-0204879D01*
Y-0204763D01*
Y-0204646D01*
Y-0204530D01*
Y-0204414D01*
Y-0204298D01*
Y-0204182D01*
Y-0204066D01*
Y-0203949D01*
Y-0203833D01*
Y-0203717D01*
Y-0203601D01*
Y-0203485D01*
Y-0203368D01*
Y-0203252D01*
Y-0203136D01*
Y-0203020D01*
Y-0202904D01*
Y-0202787D01*
Y-0202671D01*
Y-0202555D01*
Y-0202439D01*
Y-0202323D01*
Y-0202206D01*
Y-0202090D01*
Y-0201974D01*
Y-0201858D01*
Y-0201742D01*
Y-0201625D01*
Y-0201509D01*
Y-0201393D01*
Y-0201277D01*
Y-0201161D01*
Y-0201044D01*
Y-0200928D01*
Y-0200812D01*
Y-0200696D01*
Y-0200580D01*
Y-0200463D01*
Y-0200347D01*
Y-0200231D01*
Y-0200115D01*
Y-0199999D01*
Y-0199882D01*
Y-0199766D01*
Y-0199650D01*
Y-0199534D01*
Y-0199418D01*
Y-0199301D01*
Y-0199185D01*
Y-0199069D01*
Y-0198953D01*
Y-0198837D01*
Y-0198720D01*
Y-0198604D01*
X0043820Y-0198488D01*
Y-0198372D01*
Y-0198256D01*
Y-0198139D01*
Y-0198023D01*
X0043936Y-0197907D01*
Y-0197791D01*
X0044052Y-0197675D01*
Y-0197559D01*
X0044168Y-0197442D01*
X0044285Y-0197326D01*
Y-0197210D01*
X0044401Y-0197094D01*
X0044517Y-0196978D01*
X0044633D01*
X0044749Y-0196861D01*
X0044865Y-0196745D01*
X0044982D01*
X0045098Y-0196629D01*
X0045214D01*
X0045330Y-0196513D01*
X0045446D01*
X0045563D01*
X0045679D01*
X0045795D01*
X0045911Y-0196397D01*
X0046027D01*
X0046144D01*
X0046260D01*
X0046376D01*
X0046492D01*
X0046608D01*
X0046725D01*
X0046841D01*
X0046957Y-0196513D01*
X0047073D01*
X0047189D01*
X0047306D01*
X0047422Y-0196629D01*
X0047538D01*
X0047654D01*
X0047770Y-0196745D01*
X0047887D01*
X0048003Y-0196861D01*
X0048119D01*
X0048235Y-0196978D01*
X0048351Y-0197094D01*
X0048468D01*
X0048584Y-0197210D01*
X0048700Y-0197326D01*
X0048816Y-0197442D01*
X0048932Y-0197559D01*
X0049049Y-0197675D01*
Y-0197791D01*
X0049165Y-0197907D01*
Y-0198023D01*
X0049281Y-0198139D01*
Y-0198256D01*
X0049397Y-0198372D01*
Y-0198488D01*
Y-0198604D01*
Y-0198720D01*
X0049513Y-0198837D01*
Y-0198953D01*
Y-0199069D01*
Y-0199185D01*
Y-0199301D01*
Y-0199418D01*
X0049630Y-0199534D01*
Y-0199650D01*
Y-0199766D01*
Y-0199882D01*
Y-0199999D01*
Y-0200115D01*
Y-0200231D01*
Y-0200347D01*
Y-0200463D01*
Y-0200580D01*
Y-0200696D01*
Y-0200812D01*
Y-0200928D01*
Y-0201044D01*
Y-0201161D01*
Y-0201277D01*
Y-0201393D01*
Y-0201509D01*
Y-0201625D01*
Y-0201742D01*
Y-0201858D01*
Y-0201974D01*
Y-0202090D01*
Y-0202206D01*
Y-0202323D01*
Y-0202439D01*
Y-0202555D01*
Y-0202671D01*
Y-0202787D01*
Y-0202904D01*
Y-0203020D01*
Y-0203136D01*
Y-0203252D01*
Y-0203368D01*
Y-0203485D01*
Y-0203601D01*
Y-0203717D01*
Y-0203833D01*
Y-0203949D01*
Y-0204066D01*
Y-0204182D01*
Y-0204298D01*
Y-0204414D01*
Y-0204530D01*
Y-0204646D01*
Y-0204763D01*
Y-0204879D01*
Y-0204995D01*
Y-0205111D01*
Y-0205227D01*
Y-0205344D01*
Y-0205460D01*
Y-0205576D01*
Y-0205692D01*
Y-0205808D01*
Y-0205925D01*
Y-0206041D01*
Y-0206157D01*
Y-0206273D01*
Y-0206389D01*
Y-0206506D01*
Y-0206622D01*
Y-0206738D01*
Y-0206854D01*
Y-0206970D01*
X0049746D01*
X0049862D01*
X0049978D01*
X0050094D01*
X0050211D01*
X0050327D01*
X0050443D01*
X0050559D01*
X0050675D01*
X0050792D01*
X0050908D01*
X0051024D01*
X0051140D01*
X0051256D01*
X0051372D01*
X0051489D01*
Y-0206854D01*
Y-0206738D01*
Y-0206622D01*
Y-0206506D01*
Y-0206389D01*
Y-0206273D01*
Y-0206157D01*
Y-0206041D01*
Y-0205925D01*
Y-0205808D01*
Y-0205692D01*
Y-0205576D01*
Y-0205460D01*
Y-0205344D01*
Y-0205227D01*
Y-0205111D01*
Y-0204995D01*
Y-0204879D01*
Y-0204763D01*
Y-0204646D01*
Y-0204530D01*
Y-0204414D01*
Y-0204298D01*
Y-0204182D01*
Y-0204066D01*
Y-0203949D01*
Y-0203833D01*
Y-0203717D01*
Y-0203601D01*
Y-0203485D01*
Y-0203368D01*
Y-0203252D01*
Y-0203136D01*
Y-0203020D01*
Y-0202904D01*
Y-0202787D01*
Y-0202671D01*
Y-0202555D01*
Y-0202439D01*
Y-0202323D01*
Y-0202206D01*
Y-0202090D01*
Y-0201974D01*
Y-0201858D01*
Y-0201742D01*
Y-0201625D01*
Y-0201509D01*
Y-0201393D01*
Y-0201277D01*
Y-0201161D01*
Y-0201044D01*
Y-0200928D01*
Y-0200812D01*
Y-0200696D01*
Y-0200580D01*
Y-0200463D01*
Y-0200347D01*
Y-0200231D01*
Y-0200115D01*
Y-0199999D01*
Y-0199882D01*
Y-0199766D01*
Y-0199650D01*
Y-0199534D01*
Y-0199418D01*
Y-0199301D01*
Y-0199185D01*
Y-0199069D01*
Y-0198953D01*
Y-0198837D01*
Y-0198720D01*
Y-0198604D01*
Y-0198488D01*
Y-0198372D01*
Y-0198256D01*
Y-0198139D01*
Y-0198023D01*
Y-0197907D01*
Y-0197791D01*
Y-0197675D01*
Y-0197559D01*
Y-0197442D01*
Y-0197326D01*
Y-0197210D01*
Y-0197094D01*
Y-0196978D01*
Y-0196861D01*
Y-0196745D01*
Y-0196629D01*
Y-0196513D01*
Y-0196397D01*
Y-0196280D01*
Y-0196164D01*
Y-0196048D01*
Y-0195932D01*
Y-0195816D01*
Y-0195699D01*
Y-0195583D01*
Y-0195467D01*
Y-0195351D01*
Y-0195235D01*
Y-0195118D01*
G37*
G36*
X0039172Y-0199882D02*
X0039056Y-0199766D01*
Y-0199650D01*
Y-0199534D01*
Y-0199418D01*
Y-0199301D01*
X0038939Y-0199185D01*
Y-0199069D01*
Y-0198953D01*
Y-0198837D01*
X0038823Y-0198720D01*
Y-0198604D01*
Y-0198488D01*
Y-0198372D01*
X0038707Y-0198256D01*
Y-0198139D01*
X0038591Y-0198023D01*
Y-0197907D01*
X0038475Y-0197791D01*
Y-0197675D01*
X0038358Y-0197559D01*
Y-0197442D01*
X0038242Y-0197326D01*
Y-0197210D01*
X0038126Y-0197094D01*
X0038010Y-0196978D01*
X0037894Y-0196861D01*
Y-0196745D01*
X0037778Y-0196629D01*
X0037661Y-0196513D01*
X0037545Y-0196397D01*
X0037429Y-0196280D01*
X0037313Y-0196164D01*
X0037197Y-0196048D01*
X0037080D01*
X0036964Y-0195932D01*
X0036848Y-0195816D01*
X0036732Y-0195699D01*
X0036616D01*
X0036499Y-0195583D01*
X0036383Y-0195467D01*
X0036267D01*
X0036151D01*
X0036035Y-0195351D01*
X0035918D01*
X0035802Y-0195235D01*
X0035686D01*
X0035570Y-0195118D01*
X0035454D01*
X0035337D01*
X0035221D01*
X0035105Y-0195002D01*
X0034989D01*
X0034873D01*
X0034756D01*
X0034640D01*
X0034524Y-0194886D01*
X0034408D01*
X0034292D01*
X0034175D01*
X0034059D01*
X0033943D01*
X0033827D01*
X0033711D01*
X0033594D01*
X0033478D01*
X0033362D01*
X0033246D01*
X0033130D01*
X0033013D01*
X0032897D01*
X0032781Y-0195002D01*
X0032665D01*
X0032549D01*
X0032432D01*
X0032316D01*
X0032200Y-0195118D01*
X0032084D01*
X0031968D01*
X0031851D01*
X0031735Y-0195235D01*
X0031619D01*
X0031503Y-0195351D01*
X0031387D01*
X0031271D01*
X0031154Y-0195467D01*
X0031038Y-0195583D01*
X0030922D01*
X0030806Y-0195699D01*
X0030690D01*
X0030573Y-0195816D01*
X0030457Y-0195932D01*
X0030341Y-0196048D01*
X0030225D01*
X0030109Y-0196164D01*
X0029992Y-0196280D01*
X0029876Y-0196397D01*
X0029760Y-0196513D01*
X0029644Y-0196629D01*
Y-0196745D01*
X0029528Y-0196861D01*
X0029411Y-0196978D01*
X0029295Y-0197094D01*
Y-0197210D01*
X0029179Y-0197326D01*
Y-0197442D01*
X0029063Y-0197559D01*
Y-0197675D01*
X0028947Y-0197791D01*
Y-0197907D01*
X0028830Y-0198023D01*
Y-0198139D01*
X0028714Y-0198256D01*
Y-0198372D01*
Y-0198488D01*
X0028598Y-0198604D01*
Y-0198720D01*
Y-0198837D01*
Y-0198953D01*
X0028482Y-0199069D01*
Y-0199185D01*
Y-0199301D01*
Y-0199418D01*
Y-0199534D01*
X0028366Y-0199650D01*
Y-0199766D01*
Y-0199882D01*
Y-0199999D01*
Y-0200115D01*
Y-0200231D01*
Y-0200347D01*
Y-0200463D01*
Y-0200580D01*
Y-0200696D01*
Y-0200812D01*
Y-0200928D01*
Y-0201044D01*
Y-0201161D01*
Y-0201277D01*
Y-0201393D01*
Y-0201509D01*
X0028482D01*
X0028598D01*
X0028714D01*
X0028830D01*
X0028947D01*
X0029063D01*
X0029179D01*
X0029295D01*
X0029411D01*
X0029528D01*
X0029644D01*
X0029760D01*
X0029876D01*
X0029992D01*
X0030109D01*
X0030225D01*
X0030341D01*
X0030457D01*
X0030573D01*
X0030690D01*
X0030806D01*
X0030922D01*
X0031038D01*
X0031154D01*
X0031271D01*
X0031387D01*
X0031503D01*
X0031619D01*
X0031735D01*
X0031851D01*
X0031968D01*
X0032084D01*
X0032200D01*
X0032316D01*
X0032432D01*
X0032549D01*
X0032665D01*
X0032781D01*
X0032897D01*
X0033013D01*
X0033130D01*
X0033246D01*
X0033362D01*
X0033478D01*
X0033594D01*
X0033711D01*
X0033827D01*
X0033943D01*
X0034059D01*
X0034175D01*
X0034292D01*
X0034408D01*
X0034524D01*
X0034640D01*
X0034756D01*
X0034873D01*
X0034989D01*
X0035105D01*
X0035221D01*
X0035337D01*
X0035454D01*
X0035570D01*
X0035686D01*
X0035802D01*
X0035918D01*
X0036035D01*
X0036151D01*
X0036267D01*
X0036383D01*
X0036499D01*
X0036616D01*
X0036732D01*
X0036848D01*
X0036964D01*
X0037080D01*
X0037197D01*
X0037313Y-0201625D01*
Y-0201742D01*
Y-0201858D01*
Y-0201974D01*
Y-0202090D01*
Y-0202206D01*
X0037197Y-0202323D01*
Y-0202439D01*
Y-0202555D01*
Y-0202671D01*
Y-0202787D01*
X0037080Y-0202904D01*
Y-0203020D01*
Y-0203136D01*
Y-0203252D01*
X0036964Y-0203368D01*
Y-0203485D01*
X0036848Y-0203601D01*
Y-0203717D01*
X0036732Y-0203833D01*
Y-0203949D01*
X0036616Y-0204066D01*
Y-0204182D01*
X0036499Y-0204298D01*
X0036383Y-0204414D01*
X0036267Y-0204530D01*
X0036151Y-0204646D01*
Y-0204763D01*
X0036035Y-0204879D01*
X0035918D01*
X0035802Y-0204995D01*
X0035686Y-0205111D01*
X0035570Y-0205227D01*
X0035454D01*
X0035337Y-0205344D01*
X0035221Y-0205460D01*
X0035105D01*
X0034989Y-0205576D01*
X0034873D01*
X0034756D01*
X0034640Y-0205692D01*
X0034524D01*
X0034408D01*
X0034292D01*
X0034175D01*
X0034059Y-0205808D01*
X0033943D01*
X0033827D01*
X0033711D01*
X0033594D01*
X0033478D01*
X0033362D01*
X0033246D01*
X0033130D01*
X0033013D01*
X0032897Y-0205692D01*
X0032781D01*
X0032665D01*
X0032549D01*
X0032432D01*
X0032316Y-0205576D01*
X0032200D01*
X0032084Y-0205460D01*
X0031968D01*
X0031851Y-0205344D01*
X0031735D01*
X0031619Y-0205227D01*
X0031503Y-0205111D01*
X0031387Y-0204995D01*
X0031271Y-0204879D01*
X0031154Y-0204763D01*
X0031038Y-0204646D01*
X0030922Y-0204530D01*
X0030806Y-0204414D01*
Y-0204298D01*
X0030690Y-0204182D01*
X0030573Y-0204066D01*
Y-0203949D01*
X0030457Y-0203833D01*
Y-0203717D01*
X0030341Y-0203601D01*
Y-0203485D01*
Y-0203368D01*
X0030225D01*
X0030109D01*
X0029992D01*
X0029876D01*
X0029760D01*
X0029644D01*
X0029528D01*
X0029411Y-0203485D01*
X0029295D01*
X0029179D01*
X0029063D01*
X0028947D01*
X0028830D01*
X0028714D01*
X0028598D01*
X0028482Y-0203601D01*
Y-0203717D01*
Y-0203833D01*
X0028598Y-0203949D01*
Y-0204066D01*
Y-0204182D01*
X0028714Y-0204298D01*
Y-0204414D01*
X0028830Y-0204530D01*
Y-0204646D01*
X0028947Y-0204763D01*
Y-0204879D01*
X0029063Y-0204995D01*
X0029179Y-0205111D01*
Y-0205227D01*
X0029295Y-0205344D01*
X0029411Y-0205460D01*
X0029528Y-0205576D01*
Y-0205692D01*
X0029644Y-0205808D01*
X0029760Y-0205925D01*
X0029876Y-0206041D01*
X0029992D01*
X0030109Y-0206157D01*
X0030225Y-0206273D01*
X0030341Y-0206389D01*
X0030457D01*
X0030573Y-0206506D01*
X0030690Y-0206622D01*
X0030806D01*
X0030922Y-0206738D01*
X0031038D01*
X0031154Y-0206854D01*
X0031271D01*
X0031387D01*
X0031503Y-0206970D01*
X0031619D01*
X0031735D01*
X0031851Y-0207087D01*
X0031968D01*
X0032084D01*
X0032200D01*
X0032316D01*
X0032432Y-0207203D01*
X0032549D01*
X0032665D01*
X0032781D01*
X0032897D01*
X0033013D01*
X0033130D01*
X0033246D01*
X0033362D01*
X0033478D01*
X0033594D01*
X0033711D01*
X0033827D01*
X0033943D01*
X0034059D01*
X0034175D01*
X0034292D01*
X0034408D01*
X0034524D01*
X0034640D01*
X0034756D01*
X0034873Y-0207087D01*
X0034989D01*
X0035105D01*
X0035221D01*
X0035337D01*
X0035454Y-0206970D01*
X0035570D01*
X0035686D01*
X0035802Y-0206854D01*
X0035918D01*
X0036035Y-0206738D01*
X0036151D01*
X0036267D01*
X0036383Y-0206622D01*
X0036499Y-0206506D01*
X0036616D01*
X0036732Y-0206389D01*
X0036848D01*
X0036964Y-0206273D01*
X0037080Y-0206157D01*
X0037197Y-0206041D01*
X0037313D01*
X0037429Y-0205925D01*
X0037545Y-0205808D01*
X0037661Y-0205692D01*
X0037778Y-0205576D01*
X0037894Y-0205460D01*
Y-0205344D01*
X0038010Y-0205227D01*
X0038126Y-0205111D01*
X0038242Y-0204995D01*
Y-0204879D01*
X0038358Y-0204763D01*
Y-0204646D01*
X0038475Y-0204530D01*
Y-0204414D01*
X0038591Y-0204298D01*
Y-0204182D01*
X0038707Y-0204066D01*
Y-0203949D01*
X0038823Y-0203833D01*
Y-0203717D01*
Y-0203601D01*
X0038939Y-0203485D01*
Y-0203368D01*
Y-0203252D01*
Y-0203136D01*
X0039056Y-0203020D01*
Y-0202904D01*
Y-0202787D01*
Y-0202671D01*
Y-0202555D01*
Y-0202439D01*
X0039172Y-0202323D01*
Y-0202206D01*
Y-0202090D01*
Y-0201974D01*
Y-0201858D01*
Y-0201742D01*
Y-0201625D01*
Y-0201509D01*
Y-0201393D01*
Y-0201277D01*
Y-0201161D01*
Y-0201044D01*
Y-0200928D01*
Y-0200812D01*
Y-0200696D01*
Y-0200580D01*
Y-0200463D01*
Y-0200347D01*
Y-0200231D01*
Y-0200115D01*
Y-0199999D01*
Y-0199882D01*
G37*
G36*
X0026274Y-0200812D02*
X0026158Y-0200696D01*
Y-0200580D01*
Y-0200463D01*
Y-0200347D01*
Y-0200231D01*
Y-0200115D01*
Y-0199999D01*
Y-0199882D01*
Y-0199766D01*
Y-0199650D01*
X0026042Y-0199534D01*
Y-0199418D01*
Y-0199301D01*
Y-0199185D01*
Y-0199069D01*
X0025925Y-0198953D01*
Y-0198837D01*
Y-0198720D01*
Y-0198604D01*
X0025809Y-0198488D01*
Y-0198372D01*
Y-0198256D01*
X0025693Y-0198139D01*
Y-0198023D01*
Y-0197907D01*
X0025577Y-0197791D01*
Y-0197675D01*
X0025461Y-0197559D01*
Y-0197442D01*
X0025344Y-0197326D01*
Y-0197210D01*
X0025228Y-0197094D01*
X0025112Y-0196978D01*
Y-0196861D01*
X0024996Y-0196745D01*
X0024880Y-0196629D01*
X0024764Y-0196513D01*
Y-0196397D01*
X0024647D01*
X0024531Y-0196280D01*
X0024415Y-0196164D01*
X0024299Y-0196048D01*
X0024183Y-0195932D01*
X0024066Y-0195816D01*
X0023950D01*
X0023834Y-0195699D01*
X0023718Y-0195583D01*
X0023602D01*
X0023485Y-0195467D01*
X0023369D01*
X0023253D01*
X0023137Y-0195351D01*
X0023021D01*
X0022904Y-0195235D01*
X0022788D01*
X0022672Y-0195118D01*
X0022556D01*
X0022440D01*
X0022323D01*
X0022207Y-0195002D01*
X0022091D01*
X0021975D01*
X0021859D01*
X0021742D01*
X0021626Y-0194886D01*
X0021510D01*
X0021394D01*
X0021278D01*
X0021161D01*
X0021045D01*
X0020929D01*
X0020813D01*
X0020697D01*
X0020580D01*
X0020464D01*
X0020348D01*
X0020232D01*
X0020116D01*
X0019999D01*
X0019883Y-0195002D01*
X0019767D01*
X0019651D01*
X0019535D01*
X0019418D01*
X0019302Y-0195118D01*
X0019186D01*
X0019070D01*
X0018954D01*
X0018837Y-0195235D01*
X0018721D01*
X0018605Y-0195351D01*
X0018489D01*
X0018373Y-0195467D01*
X0018257D01*
X0018140Y-0195583D01*
X0018024D01*
X0017908Y-0195699D01*
X0017792Y-0195816D01*
X0017676D01*
X0017559Y-0195932D01*
X0017443Y-0196048D01*
X0017327Y-0196164D01*
X0017211Y-0196280D01*
X0017095Y-0196397D01*
X0016978Y-0196513D01*
Y-0196629D01*
X0016862Y-0196745D01*
Y-0196861D01*
X0016746Y-0196978D01*
X0016630Y-0197094D01*
Y-0197210D01*
X0016514Y-0197326D01*
Y-0197442D01*
X0016397Y-0197559D01*
Y-0197675D01*
Y-0197791D01*
X0016281Y-0197907D01*
Y-0198023D01*
Y-0198139D01*
Y-0198256D01*
X0016165Y-0198372D01*
Y-0198488D01*
X0016281D01*
X0016397D01*
X0016514D01*
X0016630Y-0198604D01*
X0016746D01*
X0016862D01*
X0016978D01*
X0017095D01*
X0017211D01*
X0017327D01*
X0017443Y-0198720D01*
X0017559D01*
X0017676D01*
X0017792D01*
X0017908D01*
X0018024Y-0198604D01*
Y-0198488D01*
Y-0198372D01*
Y-0198256D01*
X0018140Y-0198139D01*
Y-0198023D01*
X0018257Y-0197907D01*
Y-0197791D01*
X0018373Y-0197675D01*
Y-0197559D01*
X0018489Y-0197442D01*
X0018605Y-0197326D01*
X0018721Y-0197210D01*
X0018837Y-0197094D01*
X0018954Y-0196978D01*
X0019070Y-0196861D01*
X0019186Y-0196745D01*
X0019302D01*
X0019418Y-0196629D01*
X0019535Y-0196513D01*
X0019651D01*
X0019767D01*
X0019883Y-0196397D01*
X0019999D01*
X0020116D01*
X0020232D01*
X0020348D01*
X0020464D01*
X0020580Y-0196280D01*
X0020697D01*
X0020813D01*
X0020929D01*
X0021045D01*
X0021161Y-0196397D01*
X0021278D01*
X0021394D01*
X0021510D01*
X0021626D01*
X0021742D01*
X0021859Y-0196513D01*
X0021975D01*
X0022091D01*
X0022207Y-0196629D01*
X0022323D01*
X0022440Y-0196745D01*
X0022556D01*
X0022672Y-0196861D01*
X0022788Y-0196978D01*
X0022904D01*
X0023021Y-0197094D01*
X0023137Y-0197210D01*
X0023253Y-0197326D01*
X0023369Y-0197442D01*
Y-0197559D01*
X0023485Y-0197675D01*
X0023602Y-0197791D01*
X0023718Y-0197907D01*
Y-0198023D01*
X0023834Y-0198139D01*
Y-0198256D01*
X0023950Y-0198372D01*
Y-0198488D01*
Y-0198604D01*
X0024066Y-0198720D01*
Y-0198837D01*
Y-0198953D01*
X0024183Y-0199069D01*
Y-0199185D01*
Y-0199301D01*
Y-0199418D01*
Y-0199534D01*
X0024299Y-0199650D01*
Y-0199766D01*
Y-0199882D01*
Y-0199999D01*
Y-0200115D01*
Y-0200231D01*
Y-0200347D01*
Y-0200463D01*
Y-0200580D01*
Y-0200696D01*
Y-0200812D01*
Y-0200928D01*
Y-0201044D01*
Y-0201161D01*
Y-0201277D01*
Y-0201393D01*
Y-0201509D01*
Y-0201625D01*
Y-0201742D01*
Y-0201858D01*
Y-0201974D01*
Y-0202090D01*
Y-0202206D01*
Y-0202323D01*
Y-0202439D01*
Y-0202555D01*
X0024183Y-0202671D01*
Y-0202787D01*
Y-0202904D01*
Y-0203020D01*
Y-0203136D01*
X0024066Y-0203252D01*
Y-0203368D01*
Y-0203485D01*
X0023950Y-0203601D01*
Y-0203717D01*
Y-0203833D01*
X0023834Y-0203949D01*
Y-0204066D01*
X0023718Y-0204182D01*
X0023602Y-0204298D01*
Y-0204414D01*
X0023485Y-0204530D01*
X0023369Y-0204646D01*
X0023253Y-0204763D01*
X0023137Y-0204879D01*
X0023021Y-0204995D01*
X0022904Y-0205111D01*
X0022788Y-0205227D01*
X0022672Y-0205344D01*
X0022556D01*
X0022440Y-0205460D01*
X0022323D01*
X0022207Y-0205576D01*
X0022091D01*
X0021975D01*
X0021859Y-0205692D01*
X0021742D01*
X0021626D01*
X0021510D01*
X0021394Y-0205808D01*
X0021278D01*
X0021161D01*
X0021045D01*
X0020929D01*
X0020813D01*
X0020697D01*
X0020580D01*
X0020464D01*
X0020348D01*
X0020232Y-0205692D01*
X0020116D01*
X0019999D01*
X0019883D01*
X0019767Y-0205576D01*
X0019651D01*
X0019535D01*
X0019418Y-0205460D01*
X0019302D01*
X0019186Y-0205344D01*
X0019070Y-0205227D01*
X0018954D01*
X0018837Y-0205111D01*
X0018721Y-0204995D01*
X0018605Y-0204879D01*
X0018489Y-0204763D01*
Y-0204646D01*
X0018373Y-0204530D01*
X0018257Y-0204414D01*
Y-0204298D01*
X0018140Y-0204182D01*
Y-0204066D01*
X0018024Y-0203949D01*
Y-0203833D01*
X0017908Y-0203717D01*
Y-0203601D01*
Y-0203485D01*
Y-0203368D01*
X0017792Y-0203252D01*
Y-0203136D01*
Y-0203020D01*
Y-0202904D01*
Y-0202787D01*
X0017676D01*
X0017559D01*
X0017443D01*
X0017327Y-0202904D01*
X0017211D01*
X0017095D01*
X0016978D01*
X0016862D01*
X0016746D01*
X0016630D01*
X0016514D01*
X0016397Y-0203020D01*
X0016281D01*
X0016165D01*
X0016049D01*
X0015933D01*
X0016049Y-0203136D01*
Y-0203252D01*
Y-0203368D01*
Y-0203485D01*
Y-0203601D01*
X0016165Y-0203717D01*
Y-0203833D01*
Y-0203949D01*
X0016281Y-0204066D01*
Y-0204182D01*
Y-0204298D01*
X0016397Y-0204414D01*
Y-0204530D01*
X0016514Y-0204646D01*
Y-0204763D01*
X0016630Y-0204879D01*
Y-0204995D01*
X0016746Y-0205111D01*
X0016862Y-0205227D01*
Y-0205344D01*
X0016978Y-0205460D01*
X0017095Y-0205576D01*
X0017211Y-0205692D01*
X0017327Y-0205808D01*
X0017443Y-0205925D01*
X0017559Y-0206041D01*
X0017676Y-0206157D01*
X0017792Y-0206273D01*
X0017908Y-0206389D01*
X0018024D01*
X0018140Y-0206506D01*
X0018257Y-0206622D01*
X0018373D01*
X0018489Y-0206738D01*
X0018605D01*
X0018721Y-0206854D01*
X0018837D01*
X0018954D01*
X0019070Y-0206970D01*
X0019186D01*
X0019302D01*
X0019418Y-0207087D01*
X0019535D01*
X0019651D01*
X0019767Y-0207203D01*
X0019883D01*
X0019999D01*
X0020116D01*
X0020232D01*
X0020348D01*
X0020464D01*
X0020580D01*
X0020697D01*
X0020813D01*
X0020929D01*
X0021045D01*
X0021161D01*
X0021278D01*
X0021394D01*
X0021510D01*
X0021626D01*
X0021742D01*
X0021859D01*
X0021975D01*
X0022091Y-0207087D01*
X0022207D01*
X0022323D01*
X0022440D01*
X0022556Y-0206970D01*
X0022672D01*
X0022788D01*
X0022904Y-0206854D01*
X0023021D01*
X0023137Y-0206738D01*
X0023253D01*
X0023369D01*
X0023485Y-0206622D01*
X0023602D01*
X0023718Y-0206506D01*
X0023834Y-0206389D01*
X0023950D01*
X0024066Y-0206273D01*
X0024183Y-0206157D01*
X0024299Y-0206041D01*
X0024415Y-0205925D01*
X0024531D01*
X0024647Y-0205808D01*
X0024764Y-0205692D01*
Y-0205576D01*
X0024880Y-0205460D01*
X0024996Y-0205344D01*
X0025112Y-0205227D01*
X0025228Y-0205111D01*
Y-0204995D01*
X0025344Y-0204879D01*
Y-0204763D01*
X0025461Y-0204646D01*
Y-0204530D01*
X0025577Y-0204414D01*
Y-0204298D01*
X0025693Y-0204182D01*
Y-0204066D01*
X0025809Y-0203949D01*
Y-0203833D01*
Y-0203717D01*
X0025925Y-0203601D01*
Y-0203485D01*
Y-0203368D01*
Y-0203252D01*
X0026042Y-0203136D01*
Y-0203020D01*
Y-0202904D01*
Y-0202787D01*
Y-0202671D01*
X0026158Y-0202555D01*
Y-0202439D01*
Y-0202323D01*
Y-0202206D01*
Y-0202090D01*
Y-0201974D01*
Y-0201858D01*
Y-0201742D01*
Y-0201625D01*
Y-0201509D01*
X0026274Y-0201393D01*
Y-0201277D01*
Y-0201161D01*
Y-0201044D01*
Y-0200928D01*
Y-0200812D01*
G37*
G36*
X0015119Y-0195118D02*
X0015003D01*
X0014887D01*
X0014771D01*
X0014654D01*
X0014538D01*
X0014422D01*
X0014306D01*
X0014190D01*
X0014073D01*
X0013957D01*
X0013841D01*
X0013725D01*
X0013609Y-0195002D01*
Y-0194886D01*
Y-0194770D01*
Y-0194654D01*
Y-0194537D01*
Y-0194421D01*
Y-0194305D01*
Y-0194189D01*
Y-0194073D01*
Y-0193956D01*
Y-0193840D01*
Y-0193724D01*
Y-0193608D01*
Y-0193492D01*
Y-0193375D01*
Y-0193259D01*
Y-0193143D01*
Y-0193027D01*
Y-0192911D01*
Y-0192794D01*
Y-0192678D01*
Y-0192562D01*
Y-0192446D01*
Y-0192330D01*
Y-0192213D01*
Y-0192097D01*
X0013492D01*
X0013376Y-0191981D01*
X0013260D01*
X0013144Y-0191865D01*
X0013028Y-0191749D01*
X0012911D01*
X0012795Y-0191632D01*
X0012679D01*
X0012563Y-0191516D01*
X0012447Y-0191400D01*
X0012330D01*
X0012214Y-0191284D01*
X0012098Y-0191168D01*
X0011982D01*
X0011866Y-0191052D01*
X0011750D01*
Y-0191168D01*
Y-0191284D01*
Y-0191400D01*
Y-0191516D01*
Y-0191632D01*
Y-0191749D01*
Y-0191865D01*
Y-0191981D01*
Y-0192097D01*
Y-0192213D01*
Y-0192330D01*
Y-0192446D01*
Y-0192562D01*
Y-0192678D01*
Y-0192794D01*
Y-0192911D01*
Y-0193027D01*
Y-0193143D01*
Y-0193259D01*
Y-0193375D01*
Y-0193492D01*
Y-0193608D01*
Y-0193724D01*
Y-0193840D01*
Y-0193956D01*
Y-0194073D01*
Y-0194189D01*
Y-0194305D01*
Y-0194421D01*
Y-0194537D01*
Y-0194654D01*
Y-0194770D01*
Y-0194886D01*
Y-0195002D01*
X0011633Y-0195118D01*
X0011517D01*
X0011401D01*
X0011285D01*
X0011169D01*
X0011052D01*
X0010936D01*
X0010820D01*
X0010704D01*
X0010588D01*
X0010471D01*
X0010355D01*
X0010239D01*
X0010123D01*
X0010007D01*
X0009890D01*
X0009774D01*
Y-0195235D01*
Y-0195351D01*
Y-0195467D01*
Y-0195583D01*
Y-0195699D01*
Y-0195816D01*
Y-0195932D01*
Y-0196048D01*
Y-0196164D01*
Y-0196280D01*
Y-0196397D01*
Y-0196513D01*
X0009890D01*
X0010007D01*
X0010123D01*
X0010239D01*
X0010355D01*
X0010471D01*
X0010588D01*
X0010704D01*
X0010820D01*
X0010936D01*
X0011052D01*
X0011169D01*
X0011285D01*
X0011401D01*
X0011517D01*
X0011633D01*
X0011750Y-0196629D01*
Y-0196745D01*
Y-0196861D01*
Y-0196978D01*
Y-0197094D01*
Y-0197210D01*
Y-0197326D01*
Y-0197442D01*
Y-0197559D01*
Y-0197675D01*
Y-0197791D01*
Y-0197907D01*
Y-0198023D01*
Y-0198139D01*
Y-0198256D01*
Y-0198372D01*
Y-0198488D01*
Y-0198604D01*
Y-0198720D01*
Y-0198837D01*
Y-0198953D01*
Y-0199069D01*
Y-0199185D01*
Y-0199301D01*
Y-0199418D01*
Y-0199534D01*
Y-0199650D01*
Y-0199766D01*
Y-0199882D01*
Y-0199999D01*
Y-0200115D01*
Y-0200231D01*
Y-0200347D01*
Y-0200463D01*
Y-0200580D01*
Y-0200696D01*
Y-0200812D01*
Y-0200928D01*
Y-0201044D01*
Y-0201161D01*
Y-0201277D01*
Y-0201393D01*
Y-0201509D01*
Y-0201625D01*
Y-0201742D01*
Y-0201858D01*
Y-0201974D01*
Y-0202090D01*
Y-0202206D01*
Y-0202323D01*
Y-0202439D01*
Y-0202555D01*
Y-0202671D01*
Y-0202787D01*
Y-0202904D01*
Y-0203020D01*
Y-0203136D01*
Y-0203252D01*
Y-0203368D01*
Y-0203485D01*
Y-0203601D01*
Y-0203717D01*
Y-0203833D01*
Y-0203949D01*
Y-0204066D01*
Y-0204182D01*
Y-0204298D01*
Y-0204414D01*
Y-0204530D01*
Y-0204646D01*
Y-0204763D01*
X0011633Y-0204879D01*
Y-0204995D01*
X0011517Y-0205111D01*
X0011401Y-0205227D01*
X0011285Y-0205344D01*
X0011169D01*
X0011052D01*
X0010936Y-0205460D01*
X0010820D01*
X0010704D01*
X0010588D01*
X0010471D01*
X0010355D01*
X0010239D01*
X0010123D01*
X0010007D01*
X0009890D01*
X0009774Y-0205344D01*
Y-0205460D01*
X0009658Y-0205576D01*
Y-0205692D01*
Y-0205808D01*
Y-0205925D01*
Y-0206041D01*
Y-0206157D01*
X0009542Y-0206273D01*
Y-0206389D01*
Y-0206506D01*
Y-0206622D01*
Y-0206738D01*
Y-0206854D01*
X0009426Y-0206970D01*
X0009542D01*
X0009658D01*
X0009774D01*
X0009890Y-0207087D01*
X0010007D01*
X0010123D01*
X0010239D01*
X0010355D01*
X0010471D01*
X0010588D01*
X0010704D01*
X0010820D01*
X0010936D01*
X0011052D01*
X0011169D01*
X0011285D01*
X0011401D01*
X0011517D01*
X0011633D01*
X0011750D01*
X0011866D01*
X0011982Y-0206970D01*
X0012098D01*
X0012214D01*
X0012330Y-0206854D01*
X0012447D01*
X0012563Y-0206738D01*
X0012679D01*
X0012795Y-0206622D01*
X0012911Y-0206506D01*
X0013028Y-0206389D01*
X0013144Y-0206273D01*
X0013260Y-0206157D01*
Y-0206041D01*
X0013376Y-0205925D01*
Y-0205808D01*
Y-0205692D01*
X0013492Y-0205576D01*
Y-0205460D01*
Y-0205344D01*
Y-0205227D01*
Y-0205111D01*
Y-0204995D01*
X0013609Y-0204879D01*
Y-0204763D01*
Y-0204646D01*
Y-0204530D01*
Y-0204414D01*
Y-0204298D01*
Y-0204182D01*
Y-0204066D01*
Y-0203949D01*
Y-0203833D01*
Y-0203717D01*
Y-0203601D01*
Y-0203485D01*
Y-0203368D01*
Y-0203252D01*
Y-0203136D01*
Y-0203020D01*
Y-0202904D01*
Y-0202787D01*
Y-0202671D01*
Y-0202555D01*
Y-0202439D01*
Y-0202323D01*
Y-0202206D01*
Y-0202090D01*
Y-0201974D01*
Y-0201858D01*
Y-0201742D01*
Y-0201625D01*
Y-0201509D01*
Y-0201393D01*
Y-0201277D01*
Y-0201161D01*
Y-0201044D01*
Y-0200928D01*
Y-0200812D01*
Y-0200696D01*
Y-0200580D01*
Y-0200463D01*
Y-0200347D01*
Y-0200231D01*
Y-0200115D01*
Y-0199999D01*
Y-0199882D01*
Y-0199766D01*
Y-0199650D01*
Y-0199534D01*
Y-0199418D01*
Y-0199301D01*
Y-0199185D01*
Y-0199069D01*
Y-0198953D01*
Y-0198837D01*
Y-0198720D01*
Y-0198604D01*
Y-0198488D01*
Y-0198372D01*
Y-0198256D01*
Y-0198139D01*
Y-0198023D01*
Y-0197907D01*
Y-0197791D01*
Y-0197675D01*
Y-0197559D01*
Y-0197442D01*
Y-0197326D01*
Y-0197210D01*
Y-0197094D01*
Y-0196978D01*
Y-0196861D01*
Y-0196745D01*
Y-0196629D01*
X0013725Y-0196513D01*
X0013841D01*
X0013957D01*
X0014073D01*
X0014190D01*
X0014306D01*
X0014422D01*
X0014538D01*
X0014654D01*
X0014771D01*
X0014887D01*
X0015003D01*
X0015119D01*
Y-0196397D01*
Y-0196280D01*
Y-0196164D01*
Y-0196048D01*
Y-0195932D01*
Y-0195816D01*
Y-0195699D01*
Y-0195583D01*
Y-0195467D01*
Y-0195351D01*
Y-0195235D01*
Y-0195118D01*
G37*
G36*
X0008264Y-0199882D02*
X0008147Y-0199766D01*
Y-0199650D01*
Y-0199534D01*
Y-0199418D01*
Y-0199301D01*
Y-0199185D01*
X0008031Y-0199069D01*
Y-0198953D01*
Y-0198837D01*
Y-0198720D01*
X0007915Y-0198604D01*
Y-0198488D01*
Y-0198372D01*
X0007799Y-0198256D01*
Y-0198139D01*
Y-0198023D01*
X0007683Y-0197907D01*
Y-0197791D01*
X0007566Y-0197675D01*
Y-0197559D01*
X0007450Y-0197442D01*
X0007334Y-0197326D01*
Y-0197210D01*
X0007218Y-0197094D01*
Y-0196978D01*
X0007102Y-0196861D01*
X0006985Y-0196745D01*
X0006869Y-0196629D01*
X0006753Y-0196513D01*
X0006637Y-0196397D01*
X0006521Y-0196280D01*
X0006404Y-0196164D01*
X0006288Y-0196048D01*
X0006172Y-0195932D01*
X0006056D01*
X0005940Y-0195816D01*
X0005823Y-0195699D01*
X0005707D01*
X0005591Y-0195583D01*
X0005475Y-0195467D01*
X0005359D01*
X0005243D01*
X0005126Y-0195351D01*
X0005010D01*
X0004894Y-0195235D01*
X0004778D01*
X0004662D01*
X0004545Y-0195118D01*
X0004429D01*
X0004313D01*
X0004197Y-0195002D01*
X0004081D01*
X0003964D01*
X0003848D01*
X0003732D01*
X0003616Y-0194886D01*
X0003500D01*
X0003383D01*
X0003267D01*
X0003151D01*
X0003035D01*
X0002919D01*
X0002802D01*
X0002686D01*
X0002570D01*
X0002454D01*
X0002338D01*
X0002221D01*
X0002105D01*
X0001989D01*
X0001873D01*
X0001757Y-0195002D01*
X0001640D01*
X0001524D01*
X0001408D01*
X0001292D01*
X0001176Y-0195118D01*
X0001059D01*
X0000943D01*
X0000827Y-0195235D01*
X0000711D01*
X0000595D01*
X0000478Y-0195351D01*
X0000362D01*
X0000246D01*
X0000130Y-0195467D01*
X0000014Y-0195583D01*
X-0000103D01*
X-0000219Y-0195699D01*
X-0000335D01*
X-0000451Y-0195816D01*
X-0000567Y-0195932D01*
X-0000684D01*
X-0000800Y-0196048D01*
X-0000916Y-0196164D01*
X-0001032Y-0196280D01*
X-0001148Y-0196397D01*
X-0001264Y-0196513D01*
X-0001381Y-0196629D01*
X-0001497Y-0196745D01*
X-0001613Y-0196861D01*
Y-0196978D01*
X-0001729Y-0197094D01*
X-0001845Y-0197210D01*
Y-0197326D01*
X-0001962Y-0197442D01*
X-0002078Y-0197559D01*
Y-0197675D01*
X-0002194Y-0197791D01*
Y-0197907D01*
X-0002310Y-0198023D01*
Y-0198139D01*
Y-0198256D01*
X-0002426Y-0198372D01*
Y-0198488D01*
Y-0198604D01*
X-0002543Y-0198720D01*
Y-0198837D01*
Y-0198953D01*
Y-0199069D01*
X-0002659Y-0199185D01*
Y-0199301D01*
Y-0199418D01*
Y-0199534D01*
Y-0199650D01*
Y-0199766D01*
X-0002775Y-0199882D01*
Y-0199999D01*
Y-0200115D01*
Y-0200231D01*
Y-0200347D01*
Y-0200463D01*
Y-0200580D01*
Y-0200696D01*
Y-0200812D01*
Y-0200928D01*
Y-0201044D01*
Y-0201161D01*
Y-0201277D01*
Y-0201393D01*
Y-0201509D01*
Y-0201625D01*
Y-0201742D01*
Y-0201858D01*
Y-0201974D01*
Y-0202090D01*
X-0002659Y-0202206D01*
Y-0202323D01*
Y-0202439D01*
Y-0202555D01*
Y-0202671D01*
Y-0202787D01*
Y-0202904D01*
X-0002543Y-0203020D01*
Y-0203136D01*
Y-0203252D01*
Y-0203368D01*
X-0002426Y-0203485D01*
Y-0203601D01*
Y-0203717D01*
Y-0203833D01*
X-0002310Y-0203949D01*
Y-0204066D01*
X-0002194Y-0204182D01*
Y-0204298D01*
X-0002078Y-0204414D01*
Y-0204530D01*
X-0001962Y-0204646D01*
Y-0204763D01*
X-0001845Y-0204879D01*
X-0001729Y-0204995D01*
Y-0205111D01*
X-0001613Y-0205227D01*
X-0001497Y-0205344D01*
Y-0205460D01*
X-0001381Y-0205576D01*
X-0001264Y-0205692D01*
X-0001148Y-0205808D01*
X-0001032Y-0205925D01*
X-0000916D01*
X-0000800Y-0206041D01*
X-0000684Y-0206157D01*
X-0000567Y-0206273D01*
X-0000451D01*
X-0000335Y-0206389D01*
X-0000219Y-0206506D01*
X-0000103D01*
X0000014Y-0206622D01*
X0000130D01*
X0000246Y-0206738D01*
X0000362D01*
X0000478Y-0206854D01*
X0000595D01*
X0000711D01*
X0000827Y-0206970D01*
X0000943D01*
X0001059D01*
X0001176Y-0207087D01*
X0001292D01*
X0001408D01*
X0001524D01*
X0001640Y-0207203D01*
X0001757D01*
X0001873D01*
X0001989D01*
X0002105D01*
X0002221D01*
X0002338D01*
X0002454D01*
X0002570D01*
X0002686D01*
X0002802D01*
X0002919D01*
X0003035D01*
X0003151D01*
X0003267D01*
X0003383D01*
X0003500D01*
X0003616D01*
X0003732D01*
X0003848D01*
X0003964Y-0207087D01*
X0004081D01*
X0004197D01*
X0004313D01*
X0004429Y-0206970D01*
X0004545D01*
X0004662D01*
X0004778D01*
X0004894Y-0206854D01*
X0005010D01*
X0005126Y-0206738D01*
X0005243D01*
X0005359D01*
X0005475Y-0206622D01*
X0005591Y-0206506D01*
X0005707D01*
X0005823Y-0206389D01*
X0005940D01*
X0006056Y-0206273D01*
X0006172Y-0206157D01*
X0006288Y-0206041D01*
X0006404Y-0205925D01*
X0006521D01*
X0006637Y-0205808D01*
X0006753Y-0205692D01*
X0006869Y-0205576D01*
X0006985Y-0205460D01*
Y-0205344D01*
X0007102Y-0205227D01*
X0007218Y-0205111D01*
X0007334Y-0204995D01*
Y-0204879D01*
X0007450Y-0204763D01*
Y-0204646D01*
X0007566Y-0204530D01*
Y-0204414D01*
X0007683Y-0204298D01*
Y-0204182D01*
X0007799Y-0204066D01*
Y-0203949D01*
Y-0203833D01*
X0007915Y-0203717D01*
Y-0203601D01*
Y-0203485D01*
X0008031Y-0203368D01*
Y-0203252D01*
Y-0203136D01*
Y-0203020D01*
X0008147Y-0202904D01*
Y-0202787D01*
Y-0202671D01*
Y-0202555D01*
Y-0202439D01*
Y-0202323D01*
X0008264Y-0202206D01*
Y-0202090D01*
Y-0201974D01*
Y-0201858D01*
Y-0201742D01*
Y-0201625D01*
Y-0201509D01*
Y-0201393D01*
Y-0201277D01*
Y-0201161D01*
Y-0201044D01*
Y-0200928D01*
Y-0200812D01*
Y-0200696D01*
Y-0200580D01*
Y-0200463D01*
Y-0200347D01*
Y-0200231D01*
Y-0200115D01*
Y-0199999D01*
Y-0199882D01*
G37*
G36*
X-0005331Y-0195118D02*
X-0005448D01*
X-0005564D01*
X-0005680D01*
X-0005796D01*
X-0005912D01*
X-0006029D01*
X-0006145D01*
X-0006261D01*
X-0006377D01*
X-0006493D01*
X-0006610D01*
X-0006726D01*
X-0006842D01*
X-0006958D01*
Y-0195235D01*
Y-0195351D01*
Y-0195467D01*
Y-0195583D01*
Y-0195699D01*
Y-0195816D01*
Y-0195932D01*
Y-0196048D01*
Y-0196164D01*
Y-0196280D01*
Y-0196397D01*
Y-0196513D01*
Y-0196629D01*
Y-0196745D01*
Y-0196861D01*
X-0007074Y-0196978D01*
X-0007191D01*
X-0007307Y-0196861D01*
Y-0196745D01*
X-0007423Y-0196629D01*
Y-0196513D01*
X-0007539Y-0196397D01*
X-0007655Y-0196280D01*
Y-0196164D01*
X-0007771Y-0196048D01*
X-0007888Y-0195932D01*
Y-0195816D01*
X-0008004Y-0195699D01*
X-0008120Y-0195583D01*
X-0008236Y-0195467D01*
X-0008352Y-0195351D01*
X-0008469Y-0195235D01*
X-0008585D01*
X-0008701Y-0195118D01*
X-0008817D01*
X-0008933Y-0195002D01*
X-0009050D01*
X-0009166D01*
X-0009282Y-0194886D01*
X-0009398D01*
X-0009514D01*
X-0009631D01*
X-0009747D01*
X-0009863D01*
X-0009979D01*
X-0010095D01*
X-0010212D01*
X-0010328D01*
X-0010444Y-0195002D01*
X-0010560D01*
X-0010676D01*
X-0010793Y-0195118D01*
X-0010909D01*
X-0011025D01*
X-0011141Y-0195235D01*
X-0011257D01*
X-0011374Y-0195351D01*
X-0011490D01*
X-0011606Y-0195467D01*
X-0011722D01*
X-0011606Y-0195583D01*
Y-0195699D01*
X-0011490Y-0195816D01*
Y-0195932D01*
Y-0196048D01*
X-0011374Y-0196164D01*
Y-0196280D01*
Y-0196397D01*
X-0011257Y-0196513D01*
Y-0196629D01*
Y-0196745D01*
X-0011141Y-0196861D01*
Y-0196978D01*
X-0011025Y-0197094D01*
X-0010909D01*
X-0010793Y-0196978D01*
X-0010676D01*
X-0010560Y-0196861D01*
X-0010444D01*
X-0010328D01*
X-0010212D01*
X-0010095Y-0196745D01*
X-0009979D01*
X-0009863D01*
X-0009747D01*
X-0009631D01*
X-0009514D01*
X-0009398D01*
X-0009282D01*
X-0009166Y-0196861D01*
X-0009050D01*
X-0008933D01*
X-0008817D01*
X-0008701Y-0196978D01*
X-0008585D01*
X-0008469Y-0197094D01*
X-0008352Y-0197210D01*
X-0008236Y-0197326D01*
X-0008120Y-0197442D01*
X-0008004Y-0197559D01*
X-0007888Y-0197675D01*
X-0007771Y-0197791D01*
Y-0197907D01*
X-0007655Y-0198023D01*
Y-0198139D01*
X-0007539Y-0198256D01*
Y-0198372D01*
Y-0198488D01*
X-0007423Y-0198604D01*
Y-0198720D01*
Y-0198837D01*
Y-0198953D01*
X-0007307Y-0199069D01*
Y-0199185D01*
Y-0199301D01*
Y-0199418D01*
Y-0199534D01*
Y-0199650D01*
X-0007191Y-0199766D01*
Y-0199882D01*
Y-0199999D01*
Y-0200115D01*
Y-0200231D01*
Y-0200347D01*
Y-0200463D01*
Y-0200580D01*
Y-0200696D01*
Y-0200812D01*
Y-0200928D01*
Y-0201044D01*
Y-0201161D01*
Y-0201277D01*
Y-0201393D01*
Y-0201509D01*
Y-0201625D01*
Y-0201742D01*
Y-0201858D01*
Y-0201974D01*
Y-0202090D01*
Y-0202206D01*
Y-0202323D01*
Y-0202439D01*
Y-0202555D01*
Y-0202671D01*
Y-0202787D01*
Y-0202904D01*
Y-0203020D01*
Y-0203136D01*
Y-0203252D01*
Y-0203368D01*
Y-0203485D01*
Y-0203601D01*
Y-0203717D01*
Y-0203833D01*
Y-0203949D01*
Y-0204066D01*
Y-0204182D01*
Y-0204298D01*
Y-0204414D01*
Y-0204530D01*
Y-0204646D01*
Y-0204763D01*
Y-0204879D01*
Y-0204995D01*
Y-0205111D01*
Y-0205227D01*
Y-0205344D01*
Y-0205460D01*
Y-0205576D01*
Y-0205692D01*
Y-0205808D01*
Y-0205925D01*
Y-0206041D01*
Y-0206157D01*
Y-0206273D01*
Y-0206389D01*
Y-0206506D01*
Y-0206622D01*
Y-0206738D01*
Y-0206854D01*
Y-0206970D01*
X-0007074D01*
X-0006958D01*
X-0006842D01*
X-0006726D01*
X-0006610D01*
X-0006493D01*
X-0006377D01*
X-0006261D01*
X-0006145D01*
X-0006029D01*
X-0005912D01*
X-0005796D01*
X-0005680D01*
X-0005564D01*
X-0005448D01*
X-0005331D01*
Y-0206854D01*
Y-0206738D01*
Y-0206622D01*
Y-0206506D01*
Y-0206389D01*
Y-0206273D01*
Y-0206157D01*
Y-0206041D01*
Y-0205925D01*
Y-0205808D01*
Y-0205692D01*
Y-0205576D01*
Y-0205460D01*
Y-0205344D01*
Y-0205227D01*
Y-0205111D01*
Y-0204995D01*
Y-0204879D01*
Y-0204763D01*
Y-0204646D01*
Y-0204530D01*
Y-0204414D01*
Y-0204298D01*
Y-0204182D01*
Y-0204066D01*
Y-0203949D01*
Y-0203833D01*
Y-0203717D01*
Y-0203601D01*
Y-0203485D01*
Y-0203368D01*
Y-0203252D01*
Y-0203136D01*
Y-0203020D01*
Y-0202904D01*
Y-0202787D01*
Y-0202671D01*
Y-0202555D01*
Y-0202439D01*
Y-0202323D01*
Y-0202206D01*
Y-0202090D01*
Y-0201974D01*
Y-0201858D01*
Y-0201742D01*
Y-0201625D01*
Y-0201509D01*
Y-0201393D01*
Y-0201277D01*
Y-0201161D01*
Y-0201044D01*
Y-0200928D01*
Y-0200812D01*
Y-0200696D01*
Y-0200580D01*
Y-0200463D01*
Y-0200347D01*
Y-0200231D01*
Y-0200115D01*
Y-0199999D01*
Y-0199882D01*
Y-0199766D01*
Y-0199650D01*
Y-0199534D01*
Y-0199418D01*
Y-0199301D01*
Y-0199185D01*
Y-0199069D01*
Y-0198953D01*
Y-0198837D01*
Y-0198720D01*
Y-0198604D01*
Y-0198488D01*
Y-0198372D01*
Y-0198256D01*
Y-0198139D01*
Y-0198023D01*
Y-0197907D01*
Y-0197791D01*
Y-0197675D01*
Y-0197559D01*
Y-0197442D01*
Y-0197326D01*
Y-0197210D01*
Y-0197094D01*
Y-0196978D01*
Y-0196861D01*
Y-0196745D01*
Y-0196629D01*
Y-0196513D01*
Y-0196397D01*
Y-0196280D01*
Y-0196164D01*
Y-0196048D01*
Y-0195932D01*
Y-0195816D01*
Y-0195699D01*
Y-0195583D01*
Y-0195467D01*
Y-0195351D01*
Y-0195235D01*
Y-0195118D01*
G37*
%LPC*%
G36*
X0107031Y-0199766D02*
X0106914D01*
Y-0199650D01*
Y-0199534D01*
Y-0199418D01*
Y-0199301D01*
Y-0199185D01*
X0106798D01*
Y-0199069D01*
Y-0198953D01*
Y-0198837D01*
X0106682D01*
Y-0198720D01*
Y-0198604D01*
Y-0198488D01*
X0106566D01*
Y-0198372D01*
Y-0198256D01*
X0106450D01*
Y-0198139D01*
Y-0198023D01*
X0106333D01*
Y-0197907D01*
X0106217D01*
Y-0197791D01*
X0106101D01*
Y-0197675D01*
Y-0197559D01*
X0105985D01*
Y-0197442D01*
X0105869D01*
Y-0197326D01*
X0105752D01*
Y-0197210D01*
X0105636D01*
X0105520D01*
Y-0197094D01*
X0105404D01*
Y-0196978D01*
X0105288D01*
X0105171D01*
Y-0196861D01*
X0105055D01*
Y-0196745D01*
X0104939D01*
X0104823D01*
Y-0196629D01*
X0104707D01*
X0104590D01*
X0104474D01*
X0104358D01*
Y-0196513D01*
X0104242D01*
X0104126D01*
X0104009D01*
X0103893D01*
X0103777D01*
X0103661D01*
X0103545D01*
X0103428D01*
X0103312D01*
X0103196D01*
X0103080D01*
X0102964D01*
X0102847D01*
X0102731D01*
X0102615D01*
Y-0196629D01*
X0102499D01*
X0102383D01*
X0102267D01*
Y-0196745D01*
X0102150D01*
X0102034D01*
Y-0196861D01*
X0101918D01*
X0101802D01*
Y-0196978D01*
X0101686D01*
Y-0197094D01*
X0101569D01*
X0101453D01*
Y-0197210D01*
X0101337D01*
Y-0197326D01*
X0101221D01*
Y-0197442D01*
X0101105D01*
Y-0197559D01*
X0100988D01*
Y-0197675D01*
X0100872D01*
Y-0197791D01*
X0100756D01*
Y-0197907D01*
Y-0198023D01*
X0100640D01*
Y-0198139D01*
X0100524D01*
Y-0198256D01*
Y-0198372D01*
X0100407D01*
Y-0198488D01*
Y-0198604D01*
Y-0198720D01*
X0100291D01*
Y-0198837D01*
Y-0198953D01*
Y-0199069D01*
X0100175D01*
Y-0199185D01*
Y-0199301D01*
Y-0199418D01*
Y-0199534D01*
X0100059D01*
Y-0199650D01*
Y-0199766D01*
Y-0199882D01*
Y-0199999D01*
Y-0200115D01*
Y-0200231D01*
Y-0200347D01*
Y-0200463D01*
Y-0200580D01*
X0099943D01*
Y-0200696D01*
Y-0200812D01*
Y-0200928D01*
Y-0201044D01*
Y-0201161D01*
Y-0201277D01*
Y-0201393D01*
X0100059D01*
Y-0201509D01*
Y-0201625D01*
Y-0201742D01*
Y-0201858D01*
Y-0201974D01*
Y-0202090D01*
Y-0202206D01*
Y-0202323D01*
Y-0202439D01*
Y-0202555D01*
X0100175D01*
Y-0202671D01*
Y-0202787D01*
Y-0202904D01*
Y-0203020D01*
X0100291D01*
Y-0203136D01*
Y-0203252D01*
Y-0203368D01*
Y-0203485D01*
X0100407D01*
Y-0203601D01*
Y-0203717D01*
X0100524D01*
Y-0203833D01*
Y-0203949D01*
X0100640D01*
Y-0204066D01*
X0100756D01*
Y-0204182D01*
Y-0204298D01*
X0100872D01*
Y-0204414D01*
X0100988D01*
Y-0204530D01*
X0101105D01*
Y-0204646D01*
X0101221D01*
Y-0204763D01*
X0101337D01*
Y-0204879D01*
X0101453D01*
Y-0204995D01*
X0101569D01*
Y-0205111D01*
X0101686D01*
Y-0205227D01*
X0101802D01*
X0101918D01*
Y-0205344D01*
X0102034D01*
X0102150D01*
Y-0205460D01*
X0102267D01*
X0102383D01*
X0102499D01*
Y-0205576D01*
X0102615D01*
X0102731D01*
X0102847D01*
X0102964D01*
Y-0205692D01*
X0103080D01*
X0103196D01*
X0103312D01*
X0103428D01*
X0103545D01*
X0103661D01*
X0103777D01*
X0103893D01*
X0104009D01*
Y-0205576D01*
X0104126D01*
X0104242D01*
X0104358D01*
X0104474D01*
X0104590D01*
Y-0205460D01*
X0104707D01*
X0104823D01*
Y-0205344D01*
X0104939D01*
X0105055D01*
Y-0205227D01*
X0105171D01*
X0105288D01*
Y-0205111D01*
X0105404D01*
X0105520D01*
Y-0204995D01*
X0105636D01*
Y-0204879D01*
X0105752D01*
Y-0204763D01*
X0105869D01*
Y-0204646D01*
X0105985D01*
Y-0204530D01*
X0106101D01*
Y-0204414D01*
X0106217D01*
Y-0204298D01*
Y-0204182D01*
X0106333D01*
Y-0204066D01*
X0106450D01*
Y-0203949D01*
Y-0203833D01*
X0106566D01*
Y-0203717D01*
Y-0203601D01*
X0106682D01*
Y-0203485D01*
Y-0203368D01*
Y-0203252D01*
X0106798D01*
Y-0203136D01*
Y-0203020D01*
Y-0202904D01*
X0106914D01*
Y-0202787D01*
Y-0202671D01*
Y-0202555D01*
Y-0202439D01*
Y-0202323D01*
X0107031D01*
Y-0202206D01*
Y-0202090D01*
Y-0201974D01*
Y-0201858D01*
Y-0201742D01*
Y-0201625D01*
Y-0201509D01*
Y-0201393D01*
Y-0201277D01*
Y-0201161D01*
Y-0201044D01*
Y-0200928D01*
Y-0200812D01*
Y-0200696D01*
Y-0200580D01*
Y-0200463D01*
Y-0200347D01*
Y-0200231D01*
Y-0200115D01*
Y-0199999D01*
Y-0199882D01*
Y-0199766D01*
G37*
G36*
X0076122Y-0200696D02*
X0076006D01*
Y-0200580D01*
Y-0200463D01*
Y-0200347D01*
Y-0200231D01*
Y-0200115D01*
Y-0199999D01*
Y-0199882D01*
Y-0199766D01*
Y-0199650D01*
X0075890D01*
Y-0199534D01*
Y-0199418D01*
Y-0199301D01*
Y-0199185D01*
X0075774D01*
Y-0199069D01*
Y-0198953D01*
Y-0198837D01*
Y-0198720D01*
X0075658D01*
Y-0198604D01*
Y-0198488D01*
X0075541D01*
Y-0198372D01*
Y-0198256D01*
X0075425D01*
Y-0198139D01*
Y-0198023D01*
X0075309D01*
Y-0197907D01*
X0075193D01*
Y-0197791D01*
Y-0197675D01*
X0075077D01*
Y-0197559D01*
X0074960D01*
Y-0197442D01*
X0074844D01*
Y-0197326D01*
X0074728D01*
Y-0197210D01*
X0074612D01*
Y-0197094D01*
X0074496D01*
X0074379D01*
Y-0196978D01*
X0074263D01*
Y-0196861D01*
X0074147D01*
X0074031D01*
Y-0196745D01*
X0073915D01*
X0073798D01*
Y-0196629D01*
X0073682D01*
X0073566D01*
X0073450D01*
X0073334D01*
Y-0196513D01*
X0073217D01*
X0073101D01*
X0072985D01*
X0072869D01*
X0072753D01*
X0072636D01*
X0072520D01*
X0072404D01*
X0072288D01*
X0072172D01*
X0072055D01*
X0071939D01*
X0071823D01*
X0071707D01*
X0071591D01*
Y-0196629D01*
X0071474D01*
X0071358D01*
X0071242D01*
Y-0196745D01*
X0071126D01*
X0071010D01*
Y-0196861D01*
X0070893D01*
X0070777D01*
Y-0196978D01*
X0070661D01*
Y-0197094D01*
X0070545D01*
X0070429D01*
Y-0197210D01*
X0070312D01*
Y-0197326D01*
X0070196D01*
Y-0197442D01*
X0070080D01*
Y-0197559D01*
X0069964D01*
Y-0197675D01*
X0069848D01*
Y-0197791D01*
Y-0197907D01*
X0069732D01*
Y-0198023D01*
X0069615D01*
Y-0198139D01*
Y-0198256D01*
X0069499D01*
Y-0198372D01*
Y-0198488D01*
X0069383D01*
Y-0198604D01*
Y-0198720D01*
X0069267D01*
Y-0198837D01*
Y-0198953D01*
Y-0199069D01*
Y-0199185D01*
X0069151D01*
Y-0199301D01*
Y-0199418D01*
Y-0199534D01*
Y-0199650D01*
X0069034D01*
Y-0199766D01*
Y-0199882D01*
Y-0199999D01*
Y-0200115D01*
Y-0200231D01*
Y-0200347D01*
Y-0200463D01*
Y-0200580D01*
Y-0200696D01*
Y-0200812D01*
Y-0200928D01*
Y-0201044D01*
Y-0201161D01*
Y-0201277D01*
Y-0201393D01*
Y-0201509D01*
Y-0201625D01*
Y-0201742D01*
Y-0201858D01*
Y-0201974D01*
Y-0202090D01*
Y-0202206D01*
Y-0202323D01*
Y-0202439D01*
X0069151D01*
Y-0202555D01*
Y-0202671D01*
Y-0202787D01*
Y-0202904D01*
X0069267D01*
Y-0203020D01*
Y-0203136D01*
Y-0203252D01*
Y-0203368D01*
X0069383D01*
Y-0203485D01*
Y-0203601D01*
X0069499D01*
Y-0203717D01*
Y-0203833D01*
Y-0203949D01*
X0069615D01*
Y-0204066D01*
X0069732D01*
Y-0204182D01*
Y-0204298D01*
X0069848D01*
Y-0204414D01*
X0069964D01*
Y-0204530D01*
X0070080D01*
Y-0204646D01*
X0070196D01*
Y-0204763D01*
X0070312D01*
Y-0204879D01*
X0070429D01*
Y-0204995D01*
X0070545D01*
Y-0205111D01*
X0070661D01*
X0070777D01*
Y-0205227D01*
X0070893D01*
Y-0205344D01*
X0071010D01*
X0071126D01*
Y-0205460D01*
X0071242D01*
X0071358D01*
X0071474D01*
Y-0205576D01*
X0071591D01*
X0071707D01*
X0071823D01*
X0071939D01*
Y-0205692D01*
X0072055D01*
X0072172D01*
X0072288D01*
X0072404D01*
X0072520D01*
X0072636D01*
X0072753D01*
X0072869D01*
X0072985D01*
Y-0205576D01*
X0073101D01*
X0073217D01*
X0073334D01*
X0073450D01*
X0073566D01*
Y-0205460D01*
X0073682D01*
X0073798D01*
Y-0205344D01*
X0073915D01*
X0074031D01*
X0074147D01*
Y-0205227D01*
X0074263D01*
Y-0205111D01*
X0074379D01*
X0074496D01*
Y-0204995D01*
X0074612D01*
Y-0204879D01*
X0074728D01*
Y-0204763D01*
X0074844D01*
Y-0204646D01*
X0074960D01*
Y-0204530D01*
X0075077D01*
Y-0204414D01*
X0075193D01*
Y-0204298D01*
X0075309D01*
Y-0204182D01*
Y-0204066D01*
X0075425D01*
Y-0203949D01*
Y-0203833D01*
X0075541D01*
Y-0203717D01*
Y-0203601D01*
X0075658D01*
Y-0203485D01*
Y-0203368D01*
X0075774D01*
Y-0203252D01*
Y-0203136D01*
Y-0203020D01*
X0075890D01*
Y-0202904D01*
Y-0202787D01*
Y-0202671D01*
Y-0202555D01*
Y-0202439D01*
X0076006D01*
Y-0202323D01*
Y-0202206D01*
Y-0202090D01*
Y-0201974D01*
Y-0201858D01*
Y-0201742D01*
Y-0201625D01*
Y-0201509D01*
Y-0201393D01*
X0076122D01*
Y-0201277D01*
Y-0201161D01*
Y-0201044D01*
Y-0200928D01*
Y-0200812D01*
Y-0200696D01*
G37*
G36*
X0037080Y-0199418D02*
X0036964D01*
Y-0199301D01*
Y-0199185D01*
Y-0199069D01*
Y-0198953D01*
Y-0198837D01*
X0036848D01*
Y-0198720D01*
Y-0198604D01*
X0036732D01*
Y-0198488D01*
Y-0198372D01*
Y-0198256D01*
X0036616D01*
Y-0198139D01*
X0036499D01*
Y-0198023D01*
Y-0197907D01*
X0036383D01*
Y-0197791D01*
Y-0197675D01*
X0036267D01*
Y-0197559D01*
X0036151D01*
Y-0197442D01*
X0036035D01*
Y-0197326D01*
X0035918D01*
Y-0197210D01*
X0035802D01*
Y-0197094D01*
X0035686D01*
X0035570D01*
Y-0196978D01*
X0035454D01*
Y-0196861D01*
X0035337D01*
X0035221D01*
Y-0196745D01*
X0035105D01*
X0034989D01*
Y-0196629D01*
X0034873D01*
X0034756D01*
X0034640D01*
Y-0196513D01*
X0034524D01*
X0034408D01*
X0034292D01*
X0034175D01*
X0034059D01*
X0033943D01*
X0033827D01*
Y-0196397D01*
X0033711D01*
X0033594D01*
X0033478D01*
X0033362D01*
Y-0196513D01*
X0033246D01*
X0033130D01*
X0033013D01*
X0032897D01*
X0032781D01*
X0032665D01*
Y-0196629D01*
X0032549D01*
X0032432D01*
X0032316D01*
Y-0196745D01*
X0032200D01*
X0032084D01*
Y-0196861D01*
X0031968D01*
Y-0196978D01*
X0031851D01*
X0031735D01*
Y-0197094D01*
X0031619D01*
Y-0197210D01*
X0031503D01*
Y-0197326D01*
X0031387D01*
Y-0197442D01*
X0031271D01*
Y-0197559D01*
X0031154D01*
Y-0197675D01*
X0031038D01*
Y-0197791D01*
Y-0197907D01*
X0030922D01*
Y-0198023D01*
X0030806D01*
Y-0198139D01*
Y-0198256D01*
X0030690D01*
Y-0198372D01*
Y-0198488D01*
Y-0198604D01*
X0030573D01*
Y-0198720D01*
Y-0198837D01*
Y-0198953D01*
X0030457D01*
Y-0199069D01*
Y-0199185D01*
Y-0199301D01*
Y-0199418D01*
Y-0199534D01*
Y-0199650D01*
X0030341D01*
Y-0199766D01*
Y-0199882D01*
X0030457D01*
X0030573D01*
X0030690D01*
X0030806D01*
X0030922D01*
X0031038D01*
X0031154D01*
X0031271D01*
X0031387D01*
X0031503D01*
X0031619D01*
X0031735D01*
X0031851D01*
X0031968D01*
X0032084D01*
X0032200D01*
X0032316D01*
X0032432D01*
X0032549D01*
X0032665D01*
X0032781D01*
X0032897D01*
X0033013D01*
X0033130D01*
X0033246D01*
X0033362D01*
X0033478D01*
X0033594D01*
X0033711D01*
X0033827D01*
X0033943D01*
X0034059D01*
X0034175D01*
X0034292D01*
X0034408D01*
X0034524D01*
X0034640D01*
X0034756D01*
X0034873D01*
X0034989D01*
X0035105D01*
X0035221D01*
X0035337D01*
X0035454D01*
X0035570D01*
X0035686D01*
X0035802D01*
X0035918D01*
X0036035D01*
X0036151D01*
X0036267D01*
X0036383D01*
X0036499D01*
X0036616D01*
X0036732D01*
X0036848D01*
X0036964D01*
X0037080D01*
Y-0199766D01*
Y-0199650D01*
Y-0199534D01*
Y-0199418D01*
G37*
G36*
X0006288Y-0199999D02*
X0006172D01*
Y-0199882D01*
Y-0199766D01*
Y-0199650D01*
Y-0199534D01*
Y-0199418D01*
Y-0199301D01*
X0006056D01*
Y-0199185D01*
Y-0199069D01*
Y-0198953D01*
X0005940D01*
Y-0198837D01*
Y-0198720D01*
Y-0198604D01*
X0005823D01*
Y-0198488D01*
Y-0198372D01*
X0005707D01*
Y-0198256D01*
Y-0198139D01*
X0005591D01*
Y-0198023D01*
Y-0197907D01*
X0005475D01*
Y-0197791D01*
X0005359D01*
Y-0197675D01*
X0005243D01*
Y-0197559D01*
X0005126D01*
Y-0197442D01*
X0005010D01*
Y-0197326D01*
X0004894D01*
Y-0197210D01*
X0004778D01*
Y-0197094D01*
X0004662D01*
Y-0196978D01*
X0004545D01*
X0004429D01*
Y-0196861D01*
X0004313D01*
X0004197D01*
Y-0196745D01*
X0004081D01*
X0003964D01*
Y-0196629D01*
X0003848D01*
X0003732D01*
X0003616D01*
Y-0196513D01*
X0003500D01*
X0003383D01*
X0003267D01*
X0003151D01*
X0003035D01*
X0002919D01*
X0002802D01*
X0002686D01*
X0002570D01*
X0002454D01*
X0002338D01*
X0002221D01*
X0002105D01*
X0001989D01*
X0001873D01*
Y-0196629D01*
X0001757D01*
X0001640D01*
X0001524D01*
Y-0196745D01*
X0001408D01*
X0001292D01*
Y-0196861D01*
X0001176D01*
X0001059D01*
Y-0196978D01*
X0000943D01*
X0000827D01*
Y-0197094D01*
X0000711D01*
Y-0197210D01*
X0000595D01*
Y-0197326D01*
X0000478D01*
Y-0197442D01*
X0000362D01*
Y-0197559D01*
X0000246D01*
Y-0197675D01*
X0000130D01*
Y-0197791D01*
X0000014D01*
Y-0197907D01*
X-0000103D01*
Y-0198023D01*
Y-0198139D01*
X-0000219D01*
Y-0198256D01*
Y-0198372D01*
X-0000335D01*
Y-0198488D01*
Y-0198604D01*
X-0000451D01*
Y-0198720D01*
Y-0198837D01*
Y-0198953D01*
X-0000567D01*
Y-0199069D01*
Y-0199185D01*
Y-0199301D01*
Y-0199418D01*
X-0000684D01*
Y-0199534D01*
Y-0199650D01*
Y-0199766D01*
Y-0199882D01*
Y-0199999D01*
X-0000800D01*
Y-0200115D01*
Y-0200231D01*
Y-0200347D01*
Y-0200463D01*
Y-0200580D01*
Y-0200696D01*
Y-0200812D01*
Y-0200928D01*
Y-0201044D01*
Y-0201161D01*
Y-0201277D01*
Y-0201393D01*
Y-0201509D01*
Y-0201625D01*
Y-0201742D01*
Y-0201858D01*
Y-0201974D01*
X-0000684D01*
Y-0202090D01*
Y-0202206D01*
Y-0202323D01*
Y-0202439D01*
Y-0202555D01*
Y-0202671D01*
X-0000567D01*
Y-0202787D01*
Y-0202904D01*
Y-0203020D01*
Y-0203136D01*
X-0000451D01*
Y-0203252D01*
Y-0203368D01*
Y-0203485D01*
X-0000335D01*
Y-0203601D01*
Y-0203717D01*
X-0000219D01*
Y-0203833D01*
Y-0203949D01*
X-0000103D01*
Y-0204066D01*
Y-0204182D01*
X0000014D01*
Y-0204298D01*
X0000130D01*
Y-0204414D01*
Y-0204530D01*
X0000246D01*
Y-0204646D01*
X0000362D01*
Y-0204763D01*
X0000478D01*
Y-0204879D01*
X0000595D01*
Y-0204995D01*
X0000711D01*
X0000827D01*
Y-0205111D01*
X0000943D01*
Y-0205227D01*
X0001059D01*
X0001176D01*
Y-0205344D01*
X0001292D01*
X0001408D01*
Y-0205460D01*
X0001524D01*
X0001640D01*
Y-0205576D01*
X0001757D01*
X0001873D01*
X0001989D01*
X0002105D01*
X0002221D01*
Y-0205692D01*
X0002338D01*
X0002454D01*
X0002570D01*
X0002686D01*
X0002802D01*
X0002919D01*
X0003035D01*
X0003151D01*
X0003267D01*
Y-0205576D01*
X0003383D01*
X0003500D01*
X0003616D01*
X0003732D01*
Y-0205460D01*
X0003848D01*
X0003964D01*
X0004081D01*
Y-0205344D01*
X0004197D01*
X0004313D01*
Y-0205227D01*
X0004429D01*
X0004545D01*
Y-0205111D01*
X0004662D01*
Y-0204995D01*
X0004778D01*
X0004894D01*
Y-0204879D01*
X0005010D01*
Y-0204763D01*
X0005126D01*
Y-0204646D01*
X0005243D01*
Y-0204530D01*
X0005359D01*
Y-0204414D01*
Y-0204298D01*
X0005475D01*
Y-0204182D01*
X0005591D01*
Y-0204066D01*
Y-0203949D01*
X0005707D01*
Y-0203833D01*
X0005823D01*
Y-0203717D01*
Y-0203601D01*
Y-0203485D01*
X0005940D01*
Y-0203368D01*
Y-0203252D01*
X0006056D01*
Y-0203136D01*
Y-0203020D01*
Y-0202904D01*
Y-0202787D01*
X0006172D01*
Y-0202671D01*
Y-0202555D01*
Y-0202439D01*
Y-0202323D01*
Y-0202206D01*
Y-0202090D01*
X0006288D01*
Y-0201974D01*
Y-0201858D01*
Y-0201742D01*
Y-0201625D01*
Y-0201509D01*
Y-0201393D01*
Y-0201277D01*
Y-0201161D01*
Y-0201044D01*
Y-0200928D01*
Y-0200812D01*
Y-0200696D01*
Y-0200580D01*
Y-0200463D01*
Y-0200347D01*
Y-0200231D01*
Y-0200115D01*
Y-0199999D01*
G37*
G04 MD5: 8b8e9488ccee1ad235d134e27f626c202ed8289471c14ac39aac14daf4a072242431194939f4e6b165aa52b252aa491bbc530f9131f314f161633c18c66cd*
M02*
